<?xml version="1.0" standalone="no"?>
<!DOCTYPE svg PUBLIC "-//W3C//DTD SVG 1.1//EN" "http://www.w3.org/Graphics/SVG/1.1/DTD/svg11.dtd" >
<svg xmlns="http://www.w3.org/2000/svg">
<metadata>Generated by IcoMoon</metadata>
<defs>
<font id="lineconsx" horiz-adv-x="1024">
<font-face units-per-em="1024" ascent="960" descent="-64" />
<missing-glyph horiz-adv-x="1024" />
<glyph unicode="&#x20;" horiz-adv-x="512" d="" />
<glyph unicode="&#xe000;" glyph-name="phone" d="M637.5 731h-315c-32.642 0-59.063-26.44-59.063-59.063v-511.875c0-32.642 26.44-59.063 59.063-59.063h315c32.602 0 59.063 26.46 59.063 59.063v511.875c0 32.642-26.46 59.063-59.063 59.063zM657.188 160.062c0-10.848-8.84-19.688-19.688-19.688h-315c-10.868 0-19.688 8.8-19.688 19.688v39.454h354.375v-39.454zM657.188 219.204h-354.375v393.671h354.375v-393.671zM657.188 632.562h-354.375v39.375c0 10.868 8.82 19.688 19.688 19.688h315c10.848 0 19.688-8.82 19.688-19.688v-39.375zM519.375 662.094c0-5.434-4.43-9.844-9.844-9.844h-59.063c-5.453 0-9.844 4.41-9.844 9.844v0c0 5.453 4.39 9.844 9.844 9.844h59.063c5.414 0 9.844-4.39 9.844-9.844v0zM499.688 169.985c0-5.414-4.43-9.844-9.844-9.844h-19.688c-5.434 0-9.844 4.43-9.844 9.844v0c0 5.453 4.41 9.844 9.844 9.844h19.688c5.414 0 9.844-4.39 9.844-9.844v0z" />
<glyph unicode="&#xe001;" glyph-name="news" d="M735.938 731h-433.125c-32.622 0-59.063-26.421-59.063-59.063v-39.375h-19.688c-32.622 0-59.063-26.421-59.063-59.063v-393.75c0-43.49 35.26-78.75 78.75-78.75h472.5c43.49 0 78.75 35.26 78.75 78.75v492.188c0 32.642-26.46 59.063-59.063 59.063zM755.625 179.75c0-21.696-17.679-39.375-39.375-39.375h-472.5c-21.715 0-39.375 17.679-39.375 39.375v393.75c0 10.868 8.82 19.688 19.688 19.688h19.688v-393.75c0-10.887 8.8-19.688 19.688-19.688s19.688 8.8 19.688 19.688v472.5c0 10.868 8.82 19.688 19.688 19.688h433.125c10.848 0 19.688-8.82 19.688-19.688v-492.188zM548.867 474.964c-5.414 0-9.844 4.41-9.844 9.844s4.43 9.844 9.844 9.844h157.5c5.453 0 9.844-4.41 9.844-9.844s-4.39-9.844-9.844-9.844h-157.5zM548.867 534.027c-5.414 0-9.844 4.41-9.844 9.844s4.43 9.844 9.844 9.844h157.5c5.453 0 9.844-4.41 9.844-9.844s-4.39-9.844-9.844-9.844h-157.5zM548.867 593.089c-5.414 0-9.844 4.41-9.844 9.844s4.43 9.844 9.844 9.844h157.5c5.453 0 9.844-4.41 9.844-9.844s-4.39-9.844-9.844-9.844h-157.5zM489.844 199.359c5.434 0 9.844-4.43 9.844-9.844 0-5.453-4.43-9.844-9.844-9.844h-157.5c-5.434 0-9.844 4.39-9.844 9.844 0 5.414 4.41 9.844 9.844 9.844h157.5zM489.844 258.421c5.434 0 9.844-4.43 9.844-9.844 0-5.453-4.43-9.844-9.844-9.844h-157.5c-5.434 0-9.844 4.39-9.844 9.844 0 5.414 4.41 9.844 9.844 9.844h157.5zM489.844 317.484c5.434 0 9.844-4.43 9.844-9.844 0-5.453-4.43-9.844-9.844-9.844h-157.5c-5.434 0-9.844 4.39-9.844 9.844 0 5.414 4.41 9.844 9.844 9.844h157.5zM706.406 199.359c5.414 0 9.844-4.43 9.844-9.844 0-5.453-4.43-9.844-9.844-9.844h-157.5c-5.453 0-9.844 4.39-9.844 9.844 0 5.414 4.39 9.844 9.844 9.844h157.5zM706.406 258.421c5.414 0 9.844-4.43 9.844-9.844 0-5.453-4.43-9.844-9.844-9.844h-157.5c-5.453 0-9.844 4.39-9.844 9.844 0 5.414 4.39 9.844 9.844 9.844h157.5zM706.406 317.484c5.414 0 9.844-4.43 9.844-9.844 0-5.453-4.43-9.844-9.844-9.844h-157.5c-5.453 0-9.844 4.39-9.844 9.844 0 5.414 4.39 9.844 9.844 9.844h157.5zM706.406 435.609c5.414 0 9.844-4.41 9.844-9.844s-4.43-9.844-9.844-9.844h-374.063c-5.434 0-9.844 4.41-9.844 9.844s4.41 9.844 9.844 9.844h374.063zM706.406 376.546c5.414 0 9.844-4.43 9.844-9.844 0-5.453-4.43-9.844-9.844-9.844h-374.063c-5.434 0-9.844 4.39-9.844 9.844 0 5.414 4.41 9.844 9.844 9.844h374.063zM342.188 475.062h137.813c10.887 0 19.688 8.8 19.688 19.688v137.734c0 10.887-8.8 19.688-19.688 19.688h-137.813c-10.887 0-19.688-8.8-19.688-19.688v-137.734c0-10.868 8.8-19.688 19.688-19.688zM361.875 612.875h98.438v-98.438h-98.438v98.438z" />
<glyph unicode="&#xe002;" glyph-name="photo" d="M696.563 731h-433.125c-43.49 0-78.75-35.26-78.75-78.75v-472.5c0-43.49 35.26-78.75 78.75-78.75h433.125c43.49 0 78.75 35.26 78.75 78.75v472.5c0 43.49-35.26 78.75-78.75 78.75zM735.938 179.75c0-21.696-17.679-39.375-39.375-39.375h-433.125c-21.715 0-39.375 17.679-39.375 39.375v472.5c0 21.715 17.66 39.375 39.375 39.375h433.125c21.696 0 39.375-17.66 39.375-39.375v-472.5zM676.875 652.25h-393.75c-10.887 0-19.688-8.8-19.688-19.688v-354.375c0-10.887 8.8-19.688 19.688-19.688h393.75c10.887 0 19.688 8.8 19.688 19.688v354.375c0 10.887-8.8 19.688-19.688 19.688zM676.875 632.562v-273.046l-63.984 69.497c-3.76 4.252-9.115 6.674-14.766 6.674s-11.045-2.422-14.766-6.674l-51.266-58.078-155.452 176.203c-3.741 4.253-9.115 6.674-14.766 6.674s-11.025-2.422-14.766-6.674l-63.984-73.789v159.213h393.75zM283.125 443.562l78.75 90.563 170.218-192.957 54.377-62.98h-303.345v165.375zM612.694 278.187l-67.489 77.864 52.92 59.948 78.75-86.212v-51.601h-64.181zM558.75 475.062c32.602 0 59.063 26.44 59.063 59.063s-26.46 59.063-59.063 59.063c-32.642 0-59.063-26.44-59.063-59.063s26.421-59.063 59.063-59.063zM558.75 573.5c21.696 0 39.375-17.66 39.375-39.375s-17.679-39.375-39.375-39.375c-21.735 0-39.375 17.66-39.375 39.375s17.64 39.375 39.375 39.375z" />
<glyph unicode="&#xe003;" glyph-name="shop" d="M783.188 510.5l-59.063 78.711c-2.303 3.091-5.040 5.768-7.875 8.328v94.087c0 21.735-17.64 39.375-39.375 39.375h-393.75c-21.755 0-39.375-17.64-39.375-39.375v-94.106c-2.835-2.54-5.572-5.197-7.875-8.269l-59.043-78.73c-7.639-10.159-11.832-22.739-11.832-35.457v-19.688c0-32.563 26.499-59.063 59.063-59.063v0-255.938c0-21.735 17.64-39.375 39.375-39.375h433.125c21.735 0 39.375 17.64 39.375 39.375v255.938c32.563 0 59.063 26.499 59.063 59.063v19.688c0 12.718-4.193 25.298-11.813 35.438zM676.875 691.625v-78.75h-393.75v78.75h393.75zM365.675 435.687h-82.471l78.75 137.813h43.096l-39.375-137.813zM425.544 573.5h44.612v-137.813h-83.987l39.375 137.813zM489.844 573.5h44.612l39.375-137.813h-83.987v137.813zM554.911 573.5h43.096l78.75-137.813h-82.471l-39.375 137.813zM204.375 455.375v19.688c0 4.272 1.378 8.407 3.938 11.813l59.063 78.75c3.721 4.961 9.548 7.875 15.75 7.875h56.149l-78.75-137.813h-36.461c-10.868 0-19.688 8.8-19.688 19.688zM558.75 140.375h-147.656v196.875h147.656v-196.875zM696.563 140.375h-118.125v196.875c0 10.887-8.84 19.688-19.688 19.688h-147.656c-10.868 0-19.688-8.8-19.688-19.688v-196.875h-127.969v255.938h433.125v-255.938zM755.625 455.375c0-10.887-8.8-19.688-19.688-19.688h-36.501l-78.75 137.813h56.188c6.182 0 12.029-2.914 15.73-7.875l59.063-78.75c2.579-3.406 3.957-7.54 3.957-11.813v-19.688z" />
<glyph unicode="&#xe004;" glyph-name="wallet" d="M480 337.25c0 21.746 17.629 39.375 39.375 39.375s39.375-17.629 39.375-39.375v0c0-21.746-17.629-39.375-39.375-39.375s-39.375 17.629-39.375 39.375v0zM735.957 475.062c-0.020 0-0.020 0 0 0l-0.020 118.125v59.063c0 32.622-26.46 59.063-59.063 59.063h-403.594c-59.712 0-108.281-48.589-108.281-108.281v-393.75c0-59.692 48.569-108.281 108.281-108.281h354.375c59.692 0 108.281 48.589 108.281 108.281v29.531c0 0 0 0 0.020 0 78.711 59.082 78.711 177.168 0 236.25zM273.281 671.937h403.594c10.848 0 19.688-8.82 19.688-19.688v-121.748c-6.182 2.205-12.757 3.623-19.688 3.623h-0.020v98.438c0 10.887-8.82 19.688-19.688 19.688h-413.438c-10.868 0-19.688-8.8-19.688-19.688v-77.628c-12.147 12.423-19.668 29.354-19.668 48.097 0 38.056 30.831 68.906 68.906 68.906zM657.168 612.875h-413.438v19.688h413.438v-19.688zM657.168 593.187v-19.688h-413.438v19.688h413.438zM657.168 553.812v-19.688h-383.887c-10.631 0-20.554 2.599-29.531 6.891v12.797h413.418zM696.563 209.281c0-38.056-30.85-68.906-68.906-68.906h-354.375c-38.076 0-68.906 30.85-68.906 68.906v310.295c18.723-15.494 42.742-24.826 68.906-24.826h403.594c10.848 0 19.688-8.82 19.688-19.688v-39.375h-177.188c-54.377 0-98.438-44.061-98.438-98.438s44.080-98.438 98.438-98.438h177.188v-29.531zM721.703 278.187h-202.328c-32.563 0-59.063 26.499-59.063 59.063s26.499 59.063 59.063 59.063h177.188c12.147 0.158 24.196 6.044 31.539 15.829 2.047 2.756 3.642 5.847 4.922 9.076 0.177 0.433 0.492 0.768 0.65 1.221 14.155-18.565 21.952-41.324 21.952-65.5 0-30.279-12.226-58.373-33.922-78.75z" />
<glyph unicode="&#xe005;" glyph-name="t-shirt" d="M780.234 604.252l-98.438 78.75c-6.989 5.591-15.691 8.623-24.609 8.623h-354.375c-8.938 0-17.62-3.032-24.609-8.623l-98.438-78.75c-12.876-10.316-17.955-27.563-12.738-43.214l39.375-118.125c3.878-11.635 12.974-20.81 24.59-24.787 4.134-1.418 8.466-2.126 12.757-2.126 6.851 0 13.643 1.792 19.688 5.276v-241.526c0-21.735 17.64-39.375 39.375-39.375h354.375c21.735 0 39.375 17.64 39.375 39.375v241.526c6.044-3.485 12.836-5.276 19.688-5.276 4.312 0 8.623 0.709 12.757 2.126 11.616 3.977 20.692 13.151 24.57 24.787l39.375 118.125c5.237 15.652 0.158 32.898-12.718 43.214zM553.907 652.25c-10.887-22.857-39.729-39.375-73.907-39.375s-63.039 16.518-73.907 39.375h147.814zM716.25 455.375l-59.063 39.375v-315h-354.375v315l-59.063-39.375-39.375 118.125 98.438 78.75h82.235c10.966-33.902 49.14-59.063 94.953-59.063 45.793 0 83.987 25.161 94.933 59.063h82.254l98.438-78.75-39.375-118.125z" />
<glyph unicode="&#xe006;" glyph-name="heart" d="M739.737 627.345c-71.446 70.796-185.692 72.273-259.698 5.67-74.025 66.603-188.232 65.126-259.717-5.67-73.651-72.922-73.651-191.146 0-264.108 21.046-20.849 217.606-215.401 217.606-215.401 23.29-23.074 60.952-23.074 84.223 0 0 0 215.224 213.058 217.606 215.401 73.671 72.962 73.671 191.185-0.020 264.108zM711.683 391.036l-217.606-215.401c-7.737-7.698-20.357-7.698-28.055 0l-217.606 215.401c-58.078 57.488-58.078 151.023 0 208.51 55.991 55.42 146.002 57.369 204.927 4.371l26.696-24.019 26.677 24.019c58.944 52.999 148.956 51.069 204.947-4.371 58.078-57.468 58.078-151.003 0.020-208.51zM347.168 583.324c5.453 0 9.844-4.41 9.844-9.844s-4.41-9.844-9.844-9.844h-0.020c-35.319 0-63.965-28.645-63.965-63.965v-0.020c0-5.434-4.41-9.844-9.844-9.844s-9.844 4.41-9.844 9.844v0c0 46.187 37.426 83.613 83.593 83.652 0.039 0 0.039 0.020 0.079 0.020z" />
<glyph unicode="&#xe007;" glyph-name="cloud" d="M675.182 472.247c-8.603 89.834-83.396 160.315-175.494 160.315-71.249 0-132.241-42.289-160.374-102.966-8.466 2.678-17.286 4.528-26.637 4.528-48.923 0-88.594-39.69-88.594-88.594 0-9.726 1.949-18.92 4.843-27.641-38.056-22.188-63.906-62.902-63.906-110.132 0-70.678 57.291-127.969 127.969-127.969v-0.039l354.355 0.039c81.565 0 147.656 66.091 147.656 147.656 0 71.977-51.601 131.768-119.818 144.802zM647.344 219.164v-0.039h-354.355c-48.845 0.039-88.594 39.769-88.594 88.633 0 31.5 16.597 59.948 44.376 76.132 26.992 15.494 28.842 18.565 17.522 46.403-1.91 5.729-2.835 10.71-2.835 15.218 0 27.149 22.070 49.219 49.219 49.219 0 0 12.915 0.925 26.637-4.528 22.582-8.997 25.043-0.394 35.713 22.818 22.582 48.687 71.505 80.168 124.661 80.168 70.875 0 129.465-53.609 136.316-124.701 2.422-28.192 2.422-28.192 31.795-34.906 50.912-9.726 87.826-54.377 87.826-106.135 0-59.712-48.569-108.281-108.281-108.281z" />
<glyph unicode="&#xe008;" glyph-name="display" d="M696.563 632.641l-433.125-0.079c-10.887 0-19.688-8.722-19.688-19.609v-275.625c0-10.887 8.8-19.688 19.688-19.688h433.125c10.887 0 19.688 8.8 19.688 19.688v275.625c0 10.887-8.8 19.688-19.688 19.688zM696.563 337.25h-433.125v275.704h433.125v-275.704zM735.938 711.312h-511.875c-32.622 0-59.063-26.421-59.063-59.063v-393.75c0-32.563 26.342-58.944 58.866-59.023h197.072v-23.96l-122.889-15.967c-8.781-2.185-14.923-10.060-14.923-19.097 0-10.887 8.8-19.688 19.688-19.688h354.375c10.887 0 19.688 8.8 19.688 19.688 0 9.037-6.143 16.912-14.923 19.117l-122.889 15.947v23.96h197.072c32.524 0.079 58.866 26.46 58.866 59.023v393.75c0 32.642-26.46 59.063-59.063 59.063zM755.625 258.5c0-10.848-8.84-19.688-19.688-19.688h-511.875c-10.868 0-19.688 8.84-19.688 19.688v393.75c0 10.868 8.82 19.688 19.688 19.688h511.875c10.848 0 19.688-8.82 19.688-19.688v-393.75z" />
<glyph unicode="&#xe009;" glyph-name="diamond" d="M783.463 540.484l-100.013 100.032c-7.383 7.383-17.423 11.537-27.838 11.537h-351.205c-10.434 0-20.455-4.154-27.838-11.537l-100.013-100.032c-7.737-7.717-11.596-17.896-11.557-28.094 0.059-9.253 3.367-18.487 9.962-25.909l275.605-293.501c7.481-8.426 18.191-13.23 29.433-13.23s21.952 4.804 29.413 13.23l275.625 293.501c6.733 7.58 10.041 17.069 9.962 26.539-0.079 9.962-3.957 19.884-11.537 27.464zM523.687 514.241h-87.393l43.706 36.402 43.687-36.402zM495.396 563.459l53.786 44.848 39.729-39.729-49.849-41.521-43.667 36.402zM420.938 527.057l-49.849 41.521 39.729 39.729 53.806-44.848-43.687-36.402zM529.022 494.553l-49.022-245.168-49.022 245.168h98.044zM549.103 494.553h96.587l-144.88-241.546 48.293 241.546zM554.399 514.241l48.49 40.379 40.379-40.379h-88.869zM572.669 612.678h69.142l-37.721-31.441-31.421 31.441zM480 576.256l-43.706 36.422h87.373l-43.667-36.422zM355.89 581.237l-37.721 31.441h69.162l-31.441-31.441zM357.111 554.62l48.471-40.379h-88.85l40.379 40.379zM410.897 494.553l48.293-241.546-144.9 241.546h96.607zM415.11 288.267l-193.725 206.286h69.969l123.756-206.286zM668.646 494.553h69.989l-193.764-206.325 123.775 206.325zM671.107 514.241l-53.018 53.018 45.222 37.702 90.7-90.72h-82.904zM296.631 605l45.301-37.741-53.038-53.018h-84.4l92.137 90.759z" />
<glyph unicode="&#xe00a;" glyph-name="banknote" d="M783.483 522.588l-196.875 196.875c-9.765 9.765-23.92 13.683-37.327 10.375-7.068-1.733-13.388-5.375-18.388-10.375-4.469-4.469-7.836-10.001-9.765-16.183-8.918-28.921-24.334-54.062-47.152-76.86-30.476-30.457-70.166-53.53-112.16-77.923-44.572-25.83-90.622-52.605-128.362-90.326-32.071-32.11-53.904-67.823-66.701-109.285-4.312-13.998-0.551-29.138 9.765-39.493l196.875-196.875c9.765-9.765 23.92-13.683 37.327-10.375 7.068 1.772 13.387 5.375 18.388 10.375 4.469 4.469 7.836 10.001 9.765 16.222 8.938 28.921 24.353 54.062 47.191 76.86 30.457 30.457 70.127 53.491 112.16 77.864 44.533 25.869 90.602 52.644 128.323 90.366 32.071 32.071 53.904 67.823 66.721 109.285 4.292 13.978 0.512 29.177-9.785 39.473zM401.25 140.375c-65.205 65.205-131.67 131.69-196.875 196.875 55.952 181.145 298.463 173.23 354.375 354.375 65.205-65.185 131.69-131.67 196.914-196.875-55.972-181.105-298.482-173.23-354.414-354.375zM550.127 437.656c-6.418 5.375-12.876 9.037-19.373 10.848-6.457 1.811-12.915 2.54-19.451 2.067-6.458-0.492-13.072-1.969-19.688-4.508-6.615-2.579-13.269-5.375-19.963-8.623-10.572 12.147-21.144 24.157-31.717 35.3 4.764 4.312 9.391 6.497 13.84 6.654 4.469 0.197 8.761-0.276 12.836-1.299 4.154-1.043 7.954-1.929 11.458-2.618 3.544-0.689 6.615 0.079 9.312 2.343 2.855 2.461 4.43 5.65 4.646 9.489 0.197 3.878-1.26 7.658-4.508 11.34-4.154 4.764-9.155 7.658-15.159 8.722-5.926 1.043-11.99 0.965-18.309-0.413-6.221-1.417-12.147-3.76-17.758-7.068s-10.119-6.694-13.466-10.001c-1.28 1.221-2.559 2.422-3.839 3.623-1.417 1.299-3.189 2.008-5.316 1.969-2.146 0-3.918-0.925-5.375-2.618-1.418-1.654-2.067-3.583-1.811-5.611 0.197-2.107 1.043-3.721 2.5-4.961 1.28-1.083 2.559-2.146 3.839-3.268-5.040-6.083-9.194-12.797-12.462-19.884-3.308-7.107-5.276-14.155-6.005-20.987-0.768-6.891-0.039-13.191 2.067-19.038 2.107-5.887 6.005-10.887 11.694-15.612 9.273-7.698 20.18-10.966 32.839-10.237 12.62 0.768 26.224 4.528 40.852 12.383 11.616-13.427 23.271-26.755 34.906-39.139-4.922-4.154-9.233-6.536-13.033-7.304-3.8-0.807-7.186-0.728-10.257 0.197-3.071 0.965-5.926 2.343-8.544 4.115-2.618 1.811-5.197 3.347-7.777 4.607-2.54 1.26-5.158 1.969-7.836 2.008s-5.532-1.26-8.682-3.957c-3.229-2.815-4.843-6.083-4.843-9.765 0-3.662 1.693-7.383 5.001-11.143 3.347-3.76 7.698-6.93 12.954-9.43s11.202-4.075 17.738-4.508c6.536-0.453 13.427 0.532 20.692 3.229 7.304 2.658 14.529 7.462 21.656 14.608 3.426-3.347 6.891-6.536 10.336-9.608 1.457-1.26 3.229-1.89 5.375-1.732 2.067 0.079 3.878 1.043 5.316 2.776 1.457 1.772 2.067 3.721 1.851 5.768-0.197 2.067-1.043 3.662-2.461 4.804-3.465 2.776-6.93 5.69-10.375 8.761 5.887 7.225 10.612 14.844 14.116 22.385 3.504 7.58 5.572 14.884 6.261 21.656 0.689 6.812-0.118 12.954-2.343 18.526-2.205 5.65-6.123 10.493-11.734 15.159zM440.054 424.308c-5.572-0.236-10.434 1.614-14.687 5.729-1.811 1.732-3.071 3.839-3.839 6.339-0.807 2.5-1.083 5.237-0.768 8.229 0.276 2.953 1.162 6.044 2.697 9.155 1.457 3.111 3.623 6.221 6.379 9.233 9.982-9.922 19.943-20.81 29.925-32.071-7.56-4.154-14.136-6.379-19.707-6.615zM532.92 384.894c-1.772-3.268-3.8-6.182-6.182-8.722-11.045 11.143-22.070 23.389-33.075 35.949 2.815 1.26 5.768 2.579 8.958 3.918s6.379 2.225 9.568 2.776c3.268 0.492 6.497 0.354 9.726-0.413 3.189-0.807 6.221-2.54 9.037-5.276 2.776-2.776 4.528-5.65 5.237-8.761 0.768-3.15 0.807-6.339 0.276-9.608-0.571-3.288-1.732-6.556-3.544-9.863zM454.741 294.331c3.878 3.13 9.588 2.973 13.151-0.65 3.859-3.839 3.859-10.119 0-13.958-0.315-0.315-0.65-0.532-1.004-0.807l0.039-0.039c-12.462-9.47-22.7-17.994-33.744-29.039-9.982-9.962-18.998-20.455-26.795-31.106l-12.58-17.227c-0.394-0.709-0.866-1.358-1.457-1.969-3.859-3.839-10.139-3.839-13.978 0-3.347 3.347-3.76 8.505-1.299 12.344l-0.039 0.039 13.466 18.388c8.407 11.497 18.073 22.759 28.763 33.449 11.123 11.163 23.133 21.125 35.438 30.575h0.039zM526.817 579.111c9.962 9.962 18.959 20.416 26.775 31.126l13.072 17.916c0.472 0.847 1.004 1.693 1.732 2.422 3.878 3.878 10.159 3.878 14.037 0 3.682-3.701 3.839-9.548 0.492-13.466l0.039-0.039-13.466-18.467c-8.426-11.498-18.073-22.719-28.763-33.41-11.123-11.123-23.113-21.125-35.418-30.575l-0.079 0.039c-3.918-3.603-10.001-3.524-13.762 0.276-3.878 3.878-3.878 10.198 0 14.077 0.689 0.728 1.496 1.24 2.303 1.693 11.576 8.84 22.739 18.112 33.036 28.409z" />
<glyph unicode="&#xe00b;" glyph-name="data" d="M480 731c-132.773 0-275.625-40.025-275.625-127.969v-374.063c0-87.905 142.852-127.969 275.625-127.969 132.753 0 275.625 40.064 275.625 127.969v374.063c0 87.944-142.892 127.969-275.625 127.969zM716.25 228.969c0-48.904-105.781-88.594-236.25-88.594-130.489 0-236.25 39.69-236.25 88.594v73.553c40.674-41.915 138.797-63.709 236.25-63.709s195.576 21.794 236.25 63.709v-73.553zM716.25 347.094h-0.079c0-0.197 0.079-0.413 0.079-0.61 0-48.608-105.781-87.983-236.25-87.983s-236.25 39.375-236.25 87.983c0 0.197 0.079 0.413 0.079 0.61h-0.079v73.553c40.674-41.915 138.797-63.709 236.25-63.709s195.576 21.794 236.25 63.709v-73.553zM716.25 465.219h-0.079c0-0.197 0.079-0.413 0.079-0.61 0-48.608-105.781-87.983-236.25-87.983s-236.25 39.375-236.25 87.983c0 0.197 0.079 0.413 0.079 0.61h-0.079v67.646c51.601-39.316 146.18-57.803 236.25-57.803s184.649 18.487 236.25 57.803v-67.646zM480 514.437c-130.489 0-236.25 39.69-236.25 88.594 0 48.943 105.761 88.594 236.25 88.594 130.469 0 236.25-39.651 236.25-88.594 0-48.904-105.781-88.594-236.25-88.594zM637.5 219.125c0 10.873 8.814 19.688 19.688 19.688s19.688-8.814 19.688-19.688v0c0-10.873-8.814-19.688-19.688-19.688s-19.688 8.814-19.688 19.688v0zM637.5 337.25c0 10.873 8.814 19.688 19.688 19.688s19.688-8.814 19.688-19.688v0c0-10.873-8.814-19.688-19.688-19.688s-19.688 8.814-19.688 19.688v0zM637.5 455.375c0 10.873 8.814 19.688 19.688 19.688s19.688-8.814 19.688-19.688v0c0-10.873-8.814-19.688-19.688-19.688s-19.688 8.814-19.688 19.688v0z" />
<glyph unicode="&#xe00c;" glyph-name="music" d="M780.943 721.767c-7.147 6.005-16.104 9.233-25.298 9.233-2.264 0-4.567-0.197-6.851-0.61l-334.727-59.063c-18.821-3.307-32.524-19.648-32.524-38.765v-338.034c-19.983 14.49-45.911 23.034-74.694 23.034-16.734 0-33.469-2.776-49.79-8.19-37.367-12.462-67.331-37.446-82.215-68.591-11.498-24.078-12.974-50.262-4.213-73.749 14.982-40.123 57.547-66.032 108.439-66.032 16.734 0 33.469 2.737 49.77 8.19 37.347 12.423 67.312 37.406 82.195 68.513 6.398 13.427 9.391 27.484 9.509 41.423h0.354v315c2.264 0 4.567 0.197 6.851 0.571l327.895 57.862v-238.967c-20.002 14.49-45.911 23.034-74.714 23.034-16.734 0-33.488-2.776-49.79-8.19-37.367-12.462-67.331-37.446-82.176-68.591-11.497-24.078-12.994-50.262-4.233-73.749 15.002-40.123 57.527-66.032 108.439-66.032 16.734 0 33.488 2.737 49.79 8.19 37.328 12.423 67.292 37.406 82.176 68.513 6.418 13.427 9.391 27.484 9.529 41.423h0.354v413.438c0 11.616-5.158 22.68-14.077 30.142zM316.357 146.518c-47.171-15.73-95.937-0.354-108.852 34.256-12.954 34.65 14.785 75.482 61.937 91.212 47.171 15.73 95.937 0.394 108.852-34.256 12.974-34.63-14.766-75.482-61.937-91.212zM689.731 205.58c-47.211-15.73-95.977-0.354-108.892 34.256-12.954 34.65 14.805 75.482 61.937 91.212 47.211 15.73 95.977 0.394 108.892-34.256 12.974-34.63-14.746-75.482-61.937-91.212zM754.837 632.562l-334.727-59.063v59.063l334.727 59.063v-59.063z" />
<glyph unicode="&#xe00d;" glyph-name="location" d="M480.039 381.626c65.146 0 118.125 52.999 118.125 118.125s-52.979 118.125-118.125 118.125c-65.146 0-118.125-52.979-118.125-118.125s52.979-118.125 118.125-118.125zM480.039 598.188c54.298 0 98.438-44.139 98.438-98.438s-44.139-98.437-98.438-98.437c-54.298 0-98.438 44.139-98.438 98.437s44.139 98.438 98.438 98.438zM480 731c-130.292 0-236.25-104.659-236.25-236.27 0-137.812 118.145-278.795 204.277-377.882 0.315-0.394 14.136-15.848 31.224-15.848 0.039 0 1.437 0 1.516 0 17.069 0 30.909 15.455 31.224 15.848 86.172 99.087 204.297 240.050 204.297 377.882 0 131.611-105.978 236.27-236.289 236.27zM482.303 142.678c-0.413-0.394-1.614-1.26-2.658-1.929-0.197 0.532-1.654 1.693-2.54 2.618-72.155 83.022-193.981 223.138-193.981 351.363 0 108.557 88.338 196.895 196.875 196.895 108.596 0 196.914-88.338 196.914-196.914 0-128.205-121.826-268.321-194.611-352.032z" />
<glyph unicode="&#xe00e;" glyph-name="star" d="M792.657 483.784c-5.453 15.73-19.451 27.248-36.304 29.748l-163.918 24.373-71.249 147.932c-7.501 15.533-23.546 25.476-41.186 25.476s-33.685-9.942-41.186-25.476l-71.249-147.932-163.938-24.373c-16.833-2.5-30.831-14.018-36.264-29.748-5.414-15.77-1.319-33.134 10.572-44.986l120.133-119.936-27.858-166.379c-2.835-16.754 4.43-33.567 18.664-43.372 7.816-5.375 17.010-8.111 26.204-8.111 7.56 0 15.14 1.851 22.011 5.532l142.912 76.939 142.931-76.939c6.871-3.682 14.451-5.532 21.991-5.532 9.194 0 18.388 2.737 26.224 8.111 14.234 9.804 21.459 26.618 18.644 43.372l-27.877 166.379 120.172 119.936c11.872 11.872 15.947 29.236 10.572 44.986zM629.389 349.791c-10.080-10.041-14.648-24.196-12.344-38.076l27.878-166.379-142.931 76.899c-6.851 3.701-14.411 5.532-22.011 5.532-7.56 0-15.14-1.851-21.991-5.532l-142.931-76.899 27.877 166.379c2.323 13.88-2.244 28.035-12.324 38.076l-120.133 119.936 163.918 24.413c14.982 2.225 27.877 11.596 34.315 24.964l71.288 147.892 71.269-147.912c6.458-13.368 19.333-22.719 34.296-24.964l163.957-24.413-120.133-119.917z" />
<glyph unicode="&#xe00f;" glyph-name="tv" d="M601.472 561.215c-53.294 10.966-107.395 16.518-160.748 16.518s-107.435-5.552-160.748-16.518c-6.891-1.418-12.521-6.418-14.746-13.132-28.389-86.251-28.389-173.703 0-259.954 2.205-6.694 7.836-11.694 14.746-13.112 53.314-10.946 107.395-16.518 160.748-16.518 53.333 0 107.454 5.572 160.748 16.538 6.93 1.417 12.541 6.418 14.766 13.112 28.37 86.251 28.37 173.703 0 259.954-2.225 6.694-7.855 11.694-14.766 13.112zM597.515 294.292c-104.521-21.459-209.062-21.459-313.563 0-27.188 82.55-27.188 165.080 0 247.649 104.521 21.479 209.062 21.479 313.563 0 27.188-82.55 27.188-165.080 0-247.649zM772.438 606.575c-3.8 16.026-17.227 27.996-33.567 29.964-85.837 10.434-172.896 15.711-258.772 15.711-85.857 0-172.915-5.276-258.753-15.691-16.341-1.988-29.748-13.939-33.548-29.984-30.102-126.453-30.102-254.678 0-381.15 3.8-16.026 17.207-27.996 33.548-29.945 41.363-5.040 83.002-8.722 124.642-11.34-2.244-1.437-3.701-2.894-3.701-4.39 0-10.887 61.701-19.688 137.813-19.688s137.813 8.8 137.813 19.688c0 1.496-1.457 2.953-3.701 4.39 41.639 2.618 83.278 6.3 124.622 11.34 16.341 1.969 29.767 13.919 33.567 29.945 30.142 126.472 30.142 254.697 0.039 381.15zM734.126 234.54c-169.352-20.534-338.704-20.534-508.036 0-28.803 120.98-28.803 241.959 0 362.919 169.352 20.554 338.704 20.554 508.036 0 28.803-120.96 28.803-241.94 0-362.919zM686.837 494.75c16.301 0 29.531 13.23 29.531 29.531s-13.23 29.531-29.531 29.531-29.531-13.23-29.531-29.531 13.23-29.531 29.531-29.531zM686.837 534.125c5.414 0 9.844-4.43 9.844-9.844s-4.43-9.844-9.844-9.844-9.844 4.43-9.844 9.844 4.41 9.844 9.844 9.844zM706.524 297.875c5.414 0 9.844-4.39 9.844-9.844 0-5.414-4.43-9.844-9.844-9.844h-59.063c-5.453 0-9.844 4.43-9.844 9.844 0 5.453 4.39 9.844 9.844 9.844h59.063zM726.212 356.937c5.414 0 9.844-4.39 9.844-9.844 0-5.414-4.43-9.844-9.844-9.844h-59.063c-5.453 0-9.844 4.43-9.844 9.844 0 5.453 4.39 9.844 9.844 9.844h59.063zM726.212 416c5.414 0 9.844-4.41 9.844-9.844s-4.43-9.844-9.844-9.844h-59.063c-5.453 0-9.844 4.41-9.844 9.844s4.39 9.844 9.844 9.844h59.063zM430.88 498.609c5.434 0.217 9.844-4.016 9.844-9.45s-4.43-10.001-9.844-10.198l-73.808-5.060c-5.375-0.551-10.375-5.394-11.104-10.749l-3.288-37.308c-0.217-5.414-4.823-9.844-10.198-9.844-5.394 0-9.588 4.43-9.312 9.844l6.005 54.849c0.906 5.355 6.044 10.238 11.419 10.848l90.287 7.068z" />
<glyph unicode="&#xe010;" glyph-name="eye" d="M794.311 420.41c-0.197 0.827-0.079 1.713-0.394 2.52-0.118 0.335-0.413 0.512-0.532 0.827-0.197 0.472-0.158 1.004-0.413 1.457-57.094 109.285-181.381 187.582-312.5 187.582-131.138 0-255.406-78.179-312.539-187.445-0.256-0.453-0.217-0.984-0.413-1.457-0.138-0.315-0.413-0.492-0.532-0.827-0.315-0.807-0.197-1.693-0.394-2.52-0.354-1.477-0.689-2.894-0.689-4.41s0.354-2.914 0.689-4.41c0.197-0.827 0.079-1.713 0.394-2.52 0.118-0.335 0.413-0.512 0.532-0.827 0.197-0.473 0.158-1.004 0.413-1.457 57.113-109.285 181.401-187.582 312.539-187.582 131.119 0 255.406 78.179 312.5 187.445 0.276 0.453 0.236 0.984 0.413 1.457 0.118 0.315 0.413 0.492 0.532 0.827 0.315 0.807 0.197 1.693 0.394 2.52 0.335 1.496 0.689 2.914 0.689 4.41s-0.354 2.933-0.689 4.41zM480.453 258.736c-110.545 0-218.767 62.823-272.692 157.402 54.219 94.697 162.284 157.303 272.692 157.303 110.506 0 218.748-62.842 272.672-157.402-54.219-94.717-162.264-157.303-272.672-157.303zM480.453 494.77c5.434 0 9.804-4.39 9.804-9.844 0-5.414-4.39-9.824-9.804-9.824v-0.020c-32.563 0-59.043-26.48-59.043-59.003 0-5.434-4.41-9.844-9.824-9.844-5.434 0-9.844 4.41-9.844 9.844 0 43.411 35.182 78.592 78.592 78.671 0.039 0 0.079 0.020 0.118 0.020zM480 553.812c-76.132 0-137.813-61.701-137.813-137.813s61.701-137.813 137.813-137.813c76.092 0 137.813 61.72 137.813 137.813 0 76.132-61.72 137.813-137.813 137.813zM480 297.875c-65.146 0-118.125 52.979-118.125 118.125s52.979 118.125 118.125 118.125c65.146 0 118.125-52.979 118.125-118.125s-52.979-118.125-118.125-118.125z" />
<glyph unicode="&#xe011;" glyph-name="megaphone" d="M657.188 731c-40.418 0-72.174-27.759-94.972-70.599l-0.413 0.236c-33.114-64.831-82.412-106.824-136.415-106.824h-181.637c-44.159 0-78.75-43.253-78.75-98.438 0-55.223 34.591-98.438 78.75-98.438 21.715-0.079 39.277-17.64 39.277-39.375v-177.188c0-21.755 17.64-39.375 39.375-39.375h78.75c21.735 0 39.375 17.62 39.375 39.375v19.688c0 19.688-19.688 28.488-19.688 39.375v137.813c0 0.453 0.315 0.768 0.354 1.221 0.197 2.815 0.965 5.414 2.205 7.777 0.354 0.65 0.728 1.162 1.162 1.732 1.575 2.343 3.563 4.272 5.985 5.768 0.118 0.079 0.157 0.197 0.276 0.276 0.079 0 0.138 0.079 0.217 0.079 1.575 0.886 3.465 1.083 5.237 1.575 49.691-5.276 94.677-45.38 125.547-105.781l0.492 0.236c22.818-42.702 54.495-70.383 94.874-70.383 90.484 0 137.813 138.659 137.813 275.625s-47.329 275.625-137.813 275.625zM558.75 455.375c0 20.416 1.201 40.143 3.229 59.063h55.834c21.735 0 39.375-26.46 39.375-59.063 0-32.642-17.64-59.063-39.375-59.063h-55.834c-2.028 18.92-3.229 38.607-3.229 59.063zM204.375 455.375c0 32.603 17.64 59.063 39.375 59.063h138.088c-12.206-14.352-19.963-35.182-19.963-59.063 0-23.92 7.757-44.75 19.963-59.063h-138.088c-21.735 0-39.375 26.421-39.375 59.063zM401.152 140.375h-78.75v177.188c0 14.352-3.839 27.759-10.572 39.375h13.742v-0.236h59.22c-2.107-6.123-3.327-12.62-3.327-19.451v-137.813c0-18.959 10.592-31.579 16.912-39.099 0.866-1.043 1.89-2.107 2.776-3.268v-16.695zM425.387 396.076h-4.449v0.236c-21.735 0-39.375 26.421-39.375 59.063 0 32.603 17.64 59.063 39.375 59.063h4.449c37.131 0 71.899 14.608 102.493 39.729-5.631-31.697-8.505-65.264-8.505-98.792 0-33.646 2.874-67.331 8.544-99.048-30.614 25.141-65.402 39.749-102.533 39.749zM657.188 219.125c-39.729 0-73.828 56.523-89.401 137.813h50.026c44.139 0 78.75 43.214 78.75 98.438 0 55.184-34.611 98.438-78.75 98.438h-50.026c15.573 81.25 49.672 137.813 89.401 137.813 54.377 0 98.438-105.781 98.438-236.25s-44.061-236.25-98.438-236.25z" />
<glyph unicode="&#xe012;" glyph-name="study" d="M795 573.5c0 27.681-18.841 51.345-45.793 57.566l-256.193 59.122c-4.292 0.965-8.662 1.437-13.013 1.437s-8.722-0.473-13.289-1.496l-255.918-59.063c-26.972-6.221-45.793-29.886-45.793-57.566s18.841-51.345 45.773-57.566l52.664-12.147v-166.537c0-52.251 59.811-98.438 216.563-98.438s216.563 46.187 216.563 98.438v166.537l52.644 12.147c26.952 6.221 45.793 29.886 45.793 57.566zM657.188 337.25c0-21.755-59.063-59.063-177.188-59.063s-177.188 37.308-177.188 59.063v157.441l164.154-37.879c4.292-0.965 8.682-1.437 13.033-1.437s8.741 0.473 13.269 1.496l163.918 37.82v-157.441zM484.43 495.242c-1.477-0.315-2.953-0.492-4.43-0.492s-2.973 0.177-4.43 0.492l-255.938 59.063c-8.938 2.067-15.258 10.021-15.258 19.195s6.32 17.128 15.258 19.195l255.938 59.063c1.457 0.315 2.933 0.492 4.43 0.492s2.973-0.177 4.43-0.492l255.938-59.063c8.918-2.067 15.258-10.021 15.258-19.195s-6.339-17.128-15.258-19.195l-255.938-59.063zM735.938 475.062c0 10.887 8.8 19.688 19.688 19.688 10.867 0 19.688-8.8 19.688-19.688v-177.188c0-10.887-8.82-19.688-19.688-19.688-10.887 0-19.688 8.8-19.688 19.688v177.188zM755.625 258.5c21.735 0 39.375-57.015 39.375-78.75s-17.64-39.375-39.375-39.375c-21.755 0-39.375 17.64-39.375 39.375s17.62 78.75 39.375 78.75z" />
<glyph unicode="&#xe013;" glyph-name="bubble" d="M480 593.187c5.434 0 9.844-4.41 9.844-9.844s-4.43-9.844-9.844-9.844c-104.875 0-196.875-55.204-196.875-118.125 0-5.434-4.41-9.844-9.844-9.844s-9.844 4.41-9.844 9.844c0 74.694 99.166 137.813 216.563 137.813zM480 691.625c-173.978 0-315-105.781-315-236.25 0-81.25 54.712-152.893 137.97-195.418 0-0.532-0.158-0.886-0.158-1.457 0-35.3-26.362-73.297-37.957-93.24 0.020 0 0.039 0 0.039 0-0.925-2.166-1.457-4.548-1.457-7.048 0-9.844 7.973-17.837 17.837-17.837 1.851 0 5.099 0.492 5.020 0.276 61.523 10.080 119.483 66.603 132.95 82.983 19.668-2.894 39.946-4.508 60.756-4.508 173.939 0 315 105.781 315 236.25s-141.041 236.25-315 236.25zM480 258.5c-18.053 0-36.579 1.378-55.046 4.075-1.91 0.315-3.819 0.413-5.709 0.413-11.694 0-22.897-5.197-30.437-14.372-8.426-10.257-32.406-33.154-60.736-49.987 7.678 17.62 13.683 37.367 14.096 57.724 0.118 1.26 0.177 2.54 0.177 3.622 0 14.805-8.288 28.33-21.459 35.063-72.962 37.249-116.511 97.197-116.511 160.335 0 108.557 123.637 196.875 275.625 196.875 151.948 0 275.625-88.318 275.625-196.875s-123.657-196.875-275.625-196.875z" />
<glyph unicode="&#xe014;" glyph-name="sound" d="M696.523 455.316c0 97.689-79.478 177.188-177.188 177.168v0.079c-5.414 0.020-9.804 4.43-9.804 9.844 0 5.434 4.39 9.844 9.844 9.844 0.197 0 0.354-0.079 0.492-0.118 108.439-0.256 196.225-88.141 196.343-196.599 0-0.059 0.039-0.098 0.039-0.158 0-5.434-4.43-9.824-9.844-9.824s-9.804 4.371-9.844 9.765h-0.039zM344.57 713.714c-11.281 11.301-26.401 17.286-41.777 17.286-7.599 0-15.258-1.457-22.562-4.489-22.089-9.135-36.481-30.673-36.481-54.574l-0.020-270.841-61.425-61.464c-23.074-23.034-23.074-60.441 0-83.514l137.813-137.813c11.537-11.537 26.637-17.305 41.757-17.305s30.22 5.768 41.757 17.305l61.445 61.445h270.821c23.92 0 45.458 14.372 54.554 36.461 9.155 22.070 4.115 47.486-12.797 64.378l-433.086 433.125zM437.239 207.588l-61.445-61.445c-5.020-5.001-10.887-5.768-13.919-5.768s-8.899 0.768-13.919 5.768l-137.813 137.813c-5.020 5.040-5.768 10.887-5.768 13.919s0.748 8.918 5.768 13.919l61.425 61.445c0.177 0.197 0.236 0.413 0.413 0.61l165.867-165.887c-0.177-0.138-0.433-0.177-0.61-0.374zM465.077 219.125c-3.052 0-5.887-1.083-8.8-1.732l-174.923 174.923c0.669 2.914 1.752 5.749 1.752 8.781l0.020 237.156 419.088-419.127h-237.136zM754.089 231.272c-3.032-7.383-10.198-12.147-18.191-12.147h-5.847l-446.926 446.965v5.847c0 7.993 4.764 15.14 12.147 18.191 2.422 1.004 4.942 1.496 7.521 1.496 5.276 0 10.218-2.048 13.919-5.749l433.105-433.145c5.65-5.65 7.343-14.077 4.272-21.459zM519.336 691.625c-10.848 0.020-19.648 8.84-19.648 19.688 0 10.887 8.8 19.688 19.688 19.688 0.197 0 0.354-0.079 0.492-0.098 151.928-0.276 274.975-123.421 275.093-275.369 0-0.059 0.039-0.098 0.039-0.158 0-10.887-8.8-19.688-19.688-19.688-10.848 0-19.648 8.781-19.688 19.609h-0.039c0 130.272-105.978 236.25-236.25 236.25v0.079z" />
<glyph unicode="&#xe015;" glyph-name="video" d="M755.625 612.875h-17.463c-10.336 0-20.258-4.075-27.641-11.34l-53.333-52.605v24.57c0 32.622-26.46 59.063-59.063 59.063h-374.063c-32.563 0-59.063-26.48-59.063-59.063v-315c0-32.602 26.44-59.063 59.063-59.063h374.063c32.602 0 59.063 26.46 59.063 59.063v24.038l53.333-52.605c7.383-7.265 17.305-11.34 27.641-11.34h17.463c21.735 0 39.375 17.62 39.375 39.375v315.532c0 21.755-17.64 39.375-39.375 39.375zM224.063 238.812c-10.868 0-19.688 8.84-19.688 19.688v315c0 10.887 8.8 19.688 19.688 19.688h374.063c10.848 0 19.688-8.82 19.688-19.688v-315c0-10.848-8.84-19.688-19.688-19.688h-374.063zM755.625 257.968h-19.688l-78.75 78.75v0.532l-19.688 19.688v118.125l98.438 98.438h19.688v-315.532z" />
<glyph unicode="&#xe016;" glyph-name="stack" d="M793.504 367.667l-78.789 295.431c-4.764 16.793-20.337 28.527-37.839 28.527h-393.75c-17.522 0-33.075-11.734-37.839-28.527l-78.789-295.431c-1.004-3.583-1.496-7.186-1.496-10.73v-137.813c0-43.49 35.26-78.75 78.75-78.75h472.5c43.49 0 78.75 35.26 78.75 78.75v137.813c0 3.544-0.492 7.147-1.496 10.73zM755.625 219.125c0-21.696-17.679-39.375-39.375-39.375h-472.5c-21.715 0-39.375 17.679-39.375 39.375v137.813l78.77 295.332h393.691l78.789-295.332v-137.813zM632.421 612.875h-304.841c-8.918 0-16.734-6.005-19.038-14.628l-67.823-236.25c-1.555-5.926-0.315-12.226 3.426-17.069s9.489-7.678 15.593-7.678h89.933l28.488-56.995c6.694-13.328 20.318-21.755 35.241-21.755h133.206c14.923 0 28.527 8.426 35.221 21.755l28.488 56.995h89.933c6.123 0 11.891 2.855 15.612 7.698s4.961 11.143 3.426 17.069l-67.823 236.25c-2.303 8.623-10.119 14.608-19.038 14.608zM643.032 376.625h-32.721c-15.002 0-28.488-8.308-35.221-21.755l-28.488-56.995h-133.206l-28.488 56.995c-6.733 13.447-20.219 21.755-35.221 21.755h-79.675l57.566 216.563h304.841l57.566-216.563h-46.955z" />
<glyph unicode="&#xe017;" glyph-name="lab" d="M572.177 657.526c-9.312 9.293-21.656 14.411-34.808 14.411s-25.495-5.119-34.847-14.431l-27.759-27.799c-9.312-9.292-14.451-21.656-14.451-34.827 0-9.273 2.54-18.152 7.304-25.85l-267.297-107.080c-17.876-7.855-30.693-23.979-34.296-43.096-3.642-19.235 2.461-38.962 16.419-52.9l250.425-247.669c10.789-10.789 25.121-16.912 40.261-17.266 0.354-0.020 1.181-0.020 1.536-0.020 3.977 0 8.013 0.413 12.009 1.221 19.569 4.056 35.595 17.581 42.86 35.989l105.171 263.34c7.914-5.217 17.227-8.013 26.913-8.013 13.191 0 25.535 5.138 34.808 14.431l27.7 27.72c9.391 9.332 14.529 21.715 14.529 34.906s-5.158 25.594-14.411 34.808l-152.066 152.125zM492.974 152.837c-2.441-6.162-7.816-10.71-14.313-12.049-1.496-0.315-3.012-0.433-4.508-0.413-5.001 0.118-9.824 2.126-13.427 5.749l-250.583 247.826c-4.607 4.587-6.635 11.163-5.414 17.581 1.201 6.379 5.493 11.773 11.458 14.372l122.397 49.022c82.471-27.425 164.962-1.004 247.472-89.027l-93.082-233.061zM696.405 463.644l-27.838-27.818c-3.839-3.859-10.080-3.859-13.919 0l-34.808 34.788-28.192-70.658 2.343 5.965c-59.259 59.161-119.483 66.622-173.821 73.297-17.463 2.146-34.394 4.39-51.030 7.973l167.167 66.957-33.764 33.764c-3.839 3.839-3.839 10.080 0 13.919l27.838 27.858c3.839 3.839 10.080 3.839 13.919 0l152.086-152.125c3.898-3.839 3.898-10.080 0.020-13.919zM489.844 317.562c27.129 0 49.219 22.070 49.219 49.219s-22.070 49.219-49.219 49.219c-27.149 0-49.219-22.070-49.219-49.219s22.089-49.219 49.219-49.219zM489.844 396.312c16.301 0 29.531-13.23 29.531-29.531s-13.23-29.531-29.531-29.531c-16.321 0-29.531 13.23-29.531 29.531s13.21 29.531 29.531 29.531zM745.781 731c-27.149 0-49.219-22.070-49.219-49.219s22.070-49.219 49.219-49.219 49.219 22.070 49.219 49.219-22.070 49.219-49.219 49.219zM745.781 652.25c-16.301 0-29.531 13.23-29.531 29.531s13.23 29.531 29.531 29.531 29.531-13.23 29.531-29.531-13.23-29.531-29.531-29.531zM322.5 396.312c0-21.715 17.66-39.375 39.375-39.375s39.375 17.66 39.375 39.375-17.66 39.375-39.375 39.375-39.375-17.66-39.375-39.375zM361.875 416c10.868 0 19.688-8.8 19.688-19.688s-8.82-19.688-19.688-19.688-19.688 8.8-19.688 19.688 8.82 19.688 19.688 19.688zM401.25 278.187c0 10.873 8.814 19.688 19.688 19.688s19.688-8.814 19.688-19.688v0c0-10.873-8.814-19.688-19.688-19.688s-19.688 8.814-19.688 19.688v0zM716.25 573.5c0 10.873 8.814 19.688 19.688 19.688s19.688-8.814 19.688-19.688v0c0-10.873-8.814-19.688-19.688-19.688s-19.688 8.814-19.688 19.688v0z" />
<glyph unicode="&#xe018;" glyph-name="food" d="M745.781 317.562h-52.979c-0.886 4.705-1.969 9.312-3.15 13.899l94.48 47.23c9.726 4.863 13.643 16.695 8.8 26.421-4.882 9.726-16.656 13.624-26.421 8.8l-90.129-45.045c-34.374 74.183-109.364 125.882-196.383 125.882-105.958 0-194.217-76.545-212.802-177.188h-52.979c-27.129 0-49.219-22.070-49.219-49.219 0-9.647 3.544-18.959 9.942-26.165l68.808-77.411v-14.549c0-27.149 22.089-49.219 49.219-49.219h374.063c27.149 0 49.219 22.070 49.219 49.219v14.549l68.788 77.411c6.418 7.206 9.962 16.518 9.962 26.165 0 27.149-22.070 49.219-49.219 49.219zM672.918 317.562h-11.064l9.804 4.922c0.374-1.654 0.906-3.248 1.26-4.922zM480 475.062c79.321 0 147.656-47.25 178.802-114.995l-17.542-8.761c-27.877 61.327-89.499 104.068-161.26 104.068-84.302 0-154.724-58.925-172.659-137.813h-20.239c18.29 89.755 97.827 157.5 192.898 157.5zM570.090 317.562c-15.218 34.709-49.829 59.063-90.090 59.063s-74.852-24.353-90.090-59.063h-21.144c16.262 45.793 59.909 78.75 111.234 78.75 48.53 0 90.326-29.453 108.439-71.407l-14.648-7.343h-3.701zM480 337.25c-17.384 0-32.878-7.698-43.706-19.688h-24.098c13.663 23.408 38.784 39.375 67.804 39.375 29 0 54.141-15.967 67.784-39.375h-24.117c-10.789 11.99-26.283 19.688-43.667 19.688zM480 416c-62.311 0-115.014-41.58-132.005-98.438h-20.318c17.561 67.804 79.085 118.125 152.322 118.125 63.906 0 118.972-38.351 143.62-93.201l-17.581-8.781c-21.42 48.372-69.832 82.294-126.039 82.294zM676.875 179.75v-29.531c0-5.434-4.43-9.844-9.844-9.844h-374.063c-5.434 0-9.844 4.41-9.844 9.844v29.531l-78.75 88.594c0 5.434 4.41 9.844 9.844 9.844h531.563c5.414 0 9.844-4.41 9.844-9.844l-78.75-88.594zM322.047 500.42c-0.138 0.276-0.236 0.532-0.354 0.827-10.218 24.668-0.059 48.864 9.115 70.698 8.682 20.711 16.38 39.060 8.426 56.956-0.039 0.079-0.059 0.158-0.098 0.236-0.020 0.059-0.039 0.118-0.059 0.177-0.020 0.039-0.020 0.079-0.020 0.118-0.394 1.043-0.63 2.146-0.63 3.327 0 5.316 4.312 9.647 9.647 9.647 4.095 0 7.58-2.559 8.978-6.162 10.986-25.023 1.004-49.632-8.308-71.8-8.623-20.514-15.632-39.572-8.249-56.936 0.039-0.138 0.039-0.256 0-0.394 0.217-0.787 0.354-1.614 0.354-2.461 0-5.453-4.43-9.903-9.883-9.903-3.819 0-7.088 2.166-8.722 5.316-0.020 0-0.039 0-0.039 0-0.059 0.118-0.098 0.236-0.157 0.354zM561.782 503.294c-0.118 0.256-0.217 0.532-0.315 0.787-10.218 24.668-0.079 48.884 9.076 70.717 8.702 20.711 16.38 39.060 8.426 56.956 0 0.079-0.039 0.158-0.079 0.236-0.039 0.059-0.039 0.118-0.079 0.177 0 0.039 0 0.079 0 0.118-0.374 1.043-0.65 2.146-0.65 3.327 0 5.316 4.331 9.647 9.647 9.647 4.115 0 7.58-2.54 8.997-6.162 10.986-25.023 1.004-49.632-8.308-71.8-8.623-20.514-15.612-39.572-8.269-56.936 0.079-0.138 0.079-0.256 0.039-0.394 0.197-0.787 0.354-1.614 0.354-2.461 0-5.453-4.469-9.903-9.922-9.903-3.8 0-7.068 2.185-8.722 5.335h-0.039c-0.039 0.118-0.079 0.236-0.158 0.354zM460.687 589.014c-0.138 0.276-0.236 0.532-0.374 0.807-10.238 24.668-0.079 48.884 9.096 70.717 8.682 20.711 16.38 39.060 8.426 56.956-0.020 0.079-0.059 0.157-0.079 0.236-0.020 0.059-0.039 0.118-0.059 0.177-0.020 0.039-0.020 0.079-0.020 0.118-0.394 1.043-0.63 2.146-0.63 3.327 0 5.316 4.331 9.647 9.647 9.647 4.115 0 7.58-2.559 8.997-6.182 10.986-25.023 1.004-49.632-8.308-71.8-8.623-20.514-15.632-39.572-8.249-56.936 0.039-0.138 0.039-0.256 0-0.394 0.217-0.787 0.354-1.614 0.354-2.461 0-5.453-4.43-9.903-9.883-9.903-3.8 0-7.068 2.185-8.722 5.335-0.020 0-0.039 0-0.039 0-0.059 0.118-0.098 0.236-0.158 0.354z" />
<glyph unicode="&#xe019;" glyph-name="cup" d="M718.435 632.129l-23.92 71.958c-5.335 16.085-20.377 26.913-37.327 26.913h-354.375c-16.971 0-31.992-10.828-37.367-26.913l-24.117-71.997c-20.554-1.319-36.953-18.014-36.953-38.902v-59.063c0-21.735 17.64-39.375 39.375-39.375h20.357c0-1.477-0.591-2.874-0.413-4.351l39.375-354.375c2.205-19.904 19.038-35.024 39.119-35.024h275.625c20.081 0 36.914 15.12 39.099 35.024l39.375 354.375c0.197 1.477-0.413 2.874-0.413 4.351h20.377c21.735 0 39.375 17.64 39.375 39.375v59.063c0 20.967-16.538 37.741-37.19 38.942zM302.813 691.625h354.375l19.688-59.063h-393.75l19.688 59.063zM342.188 140.375l-6.556 59.063h288.737l-6.556-59.063h-275.625zM626.534 219.125h-293.108l-21.873 196.875h336.873l-21.892-196.875zM650.612 435.687h-341.243l-6.556 59.063h354.375l-6.576-59.063zM716.25 534.125h-472.5v59.063h472.5v-59.063z" />
<glyph unicode="&#xe01a;" glyph-name="trash" d="M755.231 596.751c-1.89 30.909-27.307 55.44-58.669 55.44h-59.063v19.727c0 32.622-26.46 59.063-59.063 59.063h-196.875c-32.622 0-59.063-26.44-59.063-59.063v-19.707h-59.063c-31.402 0-56.798-24.531-58.688-55.44h-0.374v-42.978c0-21.735 17.64-39.375 39.375-39.375v0-334.687c0-43.49 35.26-78.75 78.75-78.75h315c43.49 0 78.75 35.26 78.75 78.75v334.687c21.735 0 39.375 17.64 39.375 39.375v42.958h-0.394zM361.875 671.898c0 10.887 8.8 19.688 19.688 19.688h196.875c10.887 0 19.688-8.8 19.688-19.688v-19.688h-236.25v19.688zM676.875 179.711c0-21.696-17.679-39.375-39.375-39.375h-315c-21.715 0-39.375 17.679-39.375 39.375v334.688h393.75v-334.688zM716.25 573.48v-19.688h-472.5v39.355c0 10.887 8.8 19.688 19.688 19.688h433.125c10.887 0 19.688-8.8 19.688-19.688v-19.668zM342.188 179.632h39.375c10.887 0 19.688 8.8 19.688 19.688v255.938c0 10.887-8.8 19.688-19.688 19.688h-39.375c-10.887 0-19.688-8.8-19.688-19.688v-255.938c0-10.887 8.8-19.688 19.688-19.688zM342.188 455.277h39.375v-255.938h-39.375v255.938zM460.313 179.632h39.375c10.887 0 19.688 8.8 19.688 19.688v255.938c0 10.887-8.8 19.688-19.688 19.688h-39.375c-10.887 0-19.688-8.8-19.688-19.688v-255.938c0-10.887 8.8-19.688 19.688-19.688zM460.313 455.277h39.375v-255.938h-39.375v255.938zM578.438 179.632h39.375c10.887 0 19.688 8.8 19.688 19.688v255.938c0 10.887-8.8 19.688-19.688 19.688h-39.375c-10.887 0-19.688-8.8-19.688-19.688v-255.938c0-10.887 8.8-19.688 19.688-19.688zM578.438 455.277h39.375v-255.938h-39.375v255.938z" />
<glyph unicode="&#xe01b;" glyph-name="user" d="M666.674 309.887l-88.984 17.821c-9.441 1.872-16.315 10.253-16.315 19.937v20.426c5.858 8.137 11.351 19.001 17.048 30.352 4.354 8.585 10.904 21.524 13.834 24.576 17.252 16.885 35.643 37.839 41.255 65.14 5.086 24.738 0 37.593-5.9 47.767 0 19.895 0 56.312-6.917 82.555-0.693 31.696-6.51 49.598-21.116 65.549-10.334 11.149-25.552 13.751-37.757 15.827-4.842 0.814-11.474 1.953-13.792 3.215-21.115 11.678-42.559 17.454-68.802 18.106-53.708-2.034-119.621-36.091-141.675-97.326-6.713-18.594-6.062-49.111-5.575-73.644l-0.57-14.282c-5.168-10.172-10.253-23.029-5.127-47.726 5.615-27.423 24.006-48.337 41.177-65.14 2.969-3.092 9.602-16.114 13.997-24.697 5.778-11.31 11.31-22.175 17.17-30.312v-20.386c0-9.683-6.877-18.064-16.357-19.937l-88.984-17.821c-56.842-11.35-98.097-61.682-98.097-119.662v-38.695c0-22.418 18.268-40.688 40.688-40.688h488.251c22.418 0 40.688 18.268 40.688 40.688v38.695c0 57.98-41.255 108.311-98.138 119.662zM724.125 151.531h-488.251v38.694c0 38.653 27.505 72.22 65.425 79.788l88.943 17.821c28.439 5.615 49.070 30.802 49.070 59.811v27.667c0 5.452-2.197 10.7-6.062 14.484-3.499 3.416-11.027 18.227-15.543 27.057-7.649 14.972-14.241 27.911-21.768 35.235-13.508 13.182-26.407 27.668-29.823 44.269-2.645 12.857-0.814 16.478 1.544 21.076 2.077 4.069 5.168 10.172 5.168 18.473l-0.203 15.095c-0.365 17.781-0.975 47.564 3.173 59.037 15.787 43.779 65.873 68.965 103.672 70.431 18.636-0.488 33.282-4.354 48.825-13.020 8.381-4.637 18.146-6.266 26.732-7.731 4.842-0.814 12.938-2.197 14.607-3.255 5.493-5.981 10.050-13.181 10.375-41.177 0-1.831 0.285-3.662 0.814-5.452 6.063-20.792 6.063-56.678 6.063-73.929 0-8.299 3.134-14.403 5.168-18.472 2.359-4.597 4.19-8.219 1.545-21.115-3.376-16.52-16.357-31.043-29.824-44.227-7.568-7.405-14.12-20.344-21.686-35.358-4.394-8.789-11.841-23.517-15.298-26.895-3.908-3.825-6.103-9.072-6.103-14.526v-27.668c0-29.010 20.629-54.196 49.070-59.852l88.984-17.821c37.881-7.527 65.385-41.094 65.385-79.747v-38.695z" />
<glyph unicode="&#xe01c;" glyph-name="key" d="M598.204 731c-108.734 0-196.875-88.161-196.875-196.875 0-25.298 5.296-49.238 14.037-71.446l-239.183-239.164c-6.91-6.93-11.183-13.506-11.183-24.078v-59.063c0-21.066 18.29-39.375 39.375-39.375h59.063c10.552 0 17.227 4.233 24.137 11.104l28.252 28.271h46.128c21.735 0 39.375 17.64 39.375 39.375v39.375h39.375c21.735 0 39.375 17.64 39.375 39.375v46.148l46.64 46.679c22.227-8.761 46.148-14.077 71.485-14.077 108.695 0 196.875 88.161 196.875 196.875s-88.18 196.875-196.875 196.875zM598.204 376.625c-29.138 0-56.149 8.466-79.557 22.286l-6.773-6.753-59.653-59.673c-7.383-7.383-11.537-17.384-11.537-27.838v-46.148h-39.375c-21.735 0-39.375-17.62-39.375-39.375v-39.375h-46.108c-10.434 0-20.455-4.154-27.838-11.537l-27.917-27.917-55.637 0.079-0.059 56.109 229.655 229.241c0 0 0-0.020 0.020-0.039l28.921 28.921c-13.821 23.408-22.286 50.4-22.286 79.538 0 86.979 70.54 157.5 157.5 157.5s157.5-70.521 157.5-157.5-70.501-157.52-157.48-157.52zM712.706 568.795c-22.070 30.752-48.943 57.586-79.833 79.813-5.020 3.642-11.517 4.548-17.364 2.5-27.346-9.627-46.069-28.33-55.637-55.676-0.728-2.048-1.083-4.174-1.083-6.28 0-3.918 1.221-7.796 3.583-11.084 22.148-30.791 48.982-57.645 79.793-79.793 5.040-3.623 11.498-4.548 17.345-2.52 27.385 9.568 46.108 28.311 55.716 55.676 0.728 2.048 1.083 4.174 1.083 6.28-0.020 3.918-1.26 7.796-3.603 11.084zM653.644 514.241c-29.098 20.928-54.436 46.266-75.206 74.675 7.619 21.715 21.873 35.969 42.958 43.726 29.118-20.967 54.416-46.246 75.127-75.029-7.698-21.558-21.912-35.733-42.879-43.372z" />
<glyph unicode="&#xe01d;" glyph-name="fire" d="M598.125 553.812c-1.221-52.664-40.753-97.138-40.753-97.138 0 97.965-77.372 175.888-77.372 175.888s-1.043-58.314-40.222-117.101c-39.178 137.163-156.752 215.539-156.752 215.539 58.787-215.539-19.589-293.934-19.589-450.686 0-91.96 77.844-179.314 196.875-179.314 176.341 0 210.44 64.732 228.67 137.675 25.121 100.426-12.502 217.173-90.858 315.138zM650.809 248.243c-12.659-50.577-26.952-107.868-190.496-107.868-98.595 0-157.5 71.151-157.5 139.939 0 52.684 9.608 95.937 19.766 141.73 12.915 58.058 26.145 117.495 20.416 196.107 60.716-84.046 82.333-195.398 82.333-195.398s56.523 79.36 71.722 116.215c11.635-23.684 22.326-103.281 22.326-182.031 0 0 52.29 43.076 91.507 107.848 41.304-74.064 56.188-151.495 39.926-216.543zM606.63 400.348l3.662-20.377c8.19-45.636 3.603-99.579-11.655-137.458-1.536-3.839-5.237-6.162-9.115-6.162-1.24 0-2.5 0.236-3.701 0.709-5.040 2.028-7.501 7.757-5.453 12.797 11.498 28.527 16.341 68.69 13.269 105.387-19.766-22.089-44.671-45.104-97.886-70.383l-9.962-4.705-3.583 10.395c-7.127 20.672-14.313 41.56-17.423 70.678-10.651-16.793-20.377-31.756-36.717-54.003l-10.001-13.624-6.93 15.435c-16.951 37.898-29.866 67.489-40.103 93.516-9.47-30.417-16.537-65.599-16.537-136.651 0-5.434-4.43-9.844-9.844-9.844-5.453 0-9.844 4.41-9.844 9.844 0 92.708 12.305 128.422 25.298 166.241l10.238 29.728 9.43-26.578c10.139-28.567 23.487-60.047 42.368-102.611 12.442 17.581 20.79 30.811 30.87 46.778l29.886 46.817v-33.646c0-37.879 6.812-62.626 14.313-85.109 52.349 26.342 71.958 49.258 92.689 73.434l16.734 19.392z" />
<glyph unicode="&#xe01e;" glyph-name="clip" d="M743.084 639.709c69.221-69.182 69.221-181.381 0-250.563l-215.913-215.933c-7.698-7.717-20.14-7.717-27.838 0-7.737 7.698-7.737 20.121 0 27.838l213.137 213.157c53.826 53.826 53.826 141.041-0.039 194.887-53.747 53.826-141.041 53.826-194.867 0l-284.425-281.078c-38.45-38.43-38.45-100.761 0-139.191 38.45-38.45 100.741-38.45 139.191 0l287.241 283.835c23.034 23.034 23.034 60.5 0 83.534-23.034 23.015-60.48 23.015-83.514 0l-215.952-215.952c-7.698-7.698-20.14-7.698-27.838 0-7.698 7.717-7.698 20.14 0 27.858l215.932 215.932c38.41 38.43 100.741 38.43 139.191 0 38.45-38.45 38.45-100.761 0-139.21l-287.241-283.854c-53.708-53.727-141.14-53.727-194.867 0s-53.727 141.179 0 194.906l287.241 283.835c69.182 69.221 181.381 69.221 250.563 0z" />
<glyph unicode="&#xe01f;" glyph-name="mail" d="M716.25 632.562h-472.5c-43.49 0-78.75-35.28-78.75-78.75v-255.938c0-43.49 35.26-78.75 78.75-78.75h472.5c43.49 0 78.75 35.26 78.75 78.75v255.938c0 43.47-35.26 78.75-78.75 78.75zM204.375 529.203l137.793-103.359-137.793-103.359v206.719zM755.625 297.875c0-21.735-17.679-39.375-39.375-39.375h-472.5c-21.715 0-39.375 17.64-39.375 39.375l154.192 115.664 85.995-64.516c10.493-7.836 22.956-11.813 35.438-11.813 12.462 0 24.924 3.957 35.418 11.813l86.015 64.516 154.192-115.664zM755.625 322.484l-137.813 103.359 137.813 103.359v-206.719zM503.605 364.773c-6.871-5.158-15.022-7.875-23.605-7.875s-16.754 2.737-23.625 7.875l-252 189.039c0 21.715 17.66 39.375 39.375 39.375h472.5c21.696 0 39.375-17.66 39.375-39.375l-252.020-189.039z" />
<glyph unicode="&#xe020;" glyph-name="search" d="M558.75 730.902c-130.469 0-236.25-105.781-236.25-236.25 0-39.887 9.982-77.431 27.464-110.408l-164.272-164.233 0.138-0.118c-12.836-12.62-20.829-30.102-20.829-49.534 0-38.371 31.106-69.477 69.477-69.477 19.392 0 36.894 7.993 49.514 20.849l-0.039 0.039 164.213 164.194c32.996-17.542 70.599-27.563 110.585-27.563 130.469 0 236.25 105.781 236.25 236.25s-105.781 236.25-236.25 236.25zM259.402 146.34c-6.339-6.576-15.12-10.69-24.924-10.69-19.195 0-34.748 15.533-34.748 34.729 0 9.804 4.134 18.565 10.69 24.924l-0.177 0.158 158.799 158.799c13.88-18.723 30.417-35.26 49.101-49.179l-158.74-158.74zM558.75 297.757c-108.714 0-196.875 88.18-196.875 196.875 0 108.714 88.161 196.875 196.875 196.875 108.695 0 196.875-88.161 196.875-196.875 0-108.695-88.18-196.875-196.875-196.875zM558.75 632.464c5.414 0 9.844-4.41 9.844-9.844s-4.43-9.844-9.844-9.844c-65.244 0-118.125-52.9-118.125-118.125 0-5.434-4.41-9.844-9.844-9.844s-9.844 4.41-9.844 9.844c0 76.112 61.681 137.813 137.813 137.813z" />
<glyph unicode="&#xe021;" glyph-name="settings" d="M763.323 481.363l-60.323 12.088c-3.032 8.722-6.615 17.187-10.572 25.377l34.178 51.266c10.415 15.612 8.347 36.422-4.922 49.672l-37.879 37.879c-7.619 7.619-17.679 11.537-27.877 11.537-7.54 0-15.159-2.166-21.794-6.615l-51.266-34.158c-8.229 3.977-16.695 7.521-25.417 10.553l-12.088 60.342c-3.662 18.428-19.845 31.658-38.607 31.658h-53.55c-18.762 0-34.926-13.25-38.607-31.658l-12.088-60.342c-8.722-3.032-17.187-6.595-25.377-10.553l-51.247 34.158c-6.674 4.449-14.273 6.615-21.833 6.615-10.178 0-20.239-3.918-27.858-11.537l-37.859-37.879c-13.269-13.269-15.337-34.059-4.922-49.672l34.158-51.266c-3.977-8.21-7.521-16.675-10.553-25.397l-60.362-12.068c-18.408-3.682-31.657-19.845-31.657-38.607v-53.55c0-18.762 13.25-34.945 31.657-38.607l60.342-12.108c3.032-8.722 6.595-17.187 10.553-25.377l-34.138-51.266c-10.415-15.612-8.347-36.422 4.922-49.672l37.879-37.879c7.619-7.619 17.679-11.537 27.858-11.537 7.56 0 15.179 2.185 21.814 6.615l51.266 34.178c8.21-3.997 16.675-7.54 25.397-10.572l12.068-60.322c3.682-18.428 19.845-31.677 38.607-31.677h53.55c18.762 0 34.945 13.269 38.607 31.677l12.108 60.322c8.722 3.032 17.187 6.615 25.377 10.572l51.266-34.178c6.654-4.43 14.273-6.615 21.794-6.615 10.198 0 20.258 3.918 27.877 11.537l37.879 37.879c13.269 13.269 15.337 34.059 4.922 49.672l-34.178 51.266c3.997 8.229 7.54 16.695 10.572 25.417l60.323 12.068c18.408 3.642 31.677 19.845 31.677 38.607v53.55c0 18.762-13.269 34.926-31.677 38.607zM695.263 377.117c-13.683-2.737-24.885-12.502-29.453-25.692-2.54-7.265-5.493-14.313-8.8-21.144-6.123-12.58-5.079-27.425 2.658-39.021l34.178-51.266-37.879-37.879-51.266 34.178c-6.576 4.39-14.195 6.615-21.833 6.615-5.847 0-11.734-1.299-17.148-3.918-6.851-3.308-13.88-6.3-21.184-8.84-13.151-4.567-22.916-15.77-25.653-29.453l-12.108-60.362h-53.55l-12.068 60.362c-2.737 13.683-12.502 24.885-25.673 29.453-7.265 2.54-14.332 5.493-21.164 8.8-5.434 2.658-11.301 3.957-17.168 3.957-7.658 0-15.258-2.225-21.833-6.615l-51.266-34.178-37.879 37.879 34.158 51.266c7.737 11.616 8.741 26.46 2.697 38.981-3.308 6.851-6.28 13.88-8.82 21.184-4.567 13.151-15.789 22.916-29.452 25.653l-60.342 12.108-0.039 53.57 60.362 12.068c13.663 2.737 24.885 12.502 29.453 25.673 2.54 7.265 5.473 14.333 8.8 21.164 6.103 12.561 5.079 27.405-2.677 39.001l-34.138 51.266 37.859 37.879 51.266-34.158c6.576-4.39 14.195-6.615 21.833-6.615 5.847 0 11.714 1.299 17.148 3.918 6.832 3.308 13.88 6.28 21.164 8.82 13.171 4.567 22.936 15.789 25.673 29.452l12.088 60.342 53.55 0.020 12.068-60.362c2.737-13.663 12.502-24.885 25.692-29.452 7.265-2.54 14.313-5.473 21.144-8.8 5.453-2.638 11.301-3.938 17.187-3.938 7.658 0 15.258 2.225 21.833 6.615l51.266 34.158 37.879-37.879-34.178-51.266c-7.737-11.616-8.722-26.44-2.697-38.981 3.308-6.832 6.3-13.88 8.84-21.164 4.567-13.171 15.77-22.936 29.452-25.673l60.322-12.088 0.059-53.55-60.362-12.088zM480 553.793c-76.092 0-137.813-61.72-137.813-137.812 0-76.112 61.72-137.813 137.813-137.813s137.813 61.72 137.813 137.813c0 76.092-61.72 137.812-137.813 137.812zM480 295.375c-66.583 0-120.586 54.023-120.586 120.586 0 66.583 54.003 120.586 120.586 120.586 66.563 0 120.586-54.003 120.586-120.586 0-66.563-54.023-120.586-120.586-120.586zM480 494.73c-43.509 0-78.75-35.241-78.75-78.75 0-43.49 35.241-78.75 78.75-78.75 43.49 0 78.75 35.26 78.75 78.75s-35.26 78.75-78.75 78.75zM480 356.898c-32.603 0-59.063 26.46-59.063 59.063s26.46 59.063 59.063 59.063 59.063-26.46 59.063-59.063c0-32.602-26.46-59.063-59.063-59.063z" />
<glyph unicode="&#xe022;" glyph-name="like" d="M739.166 524.833c-24.609 6.457-82.471 6.379-167.108 8.623 3.997 18.467 4.922 35.123 4.922 64.693 0 70.639-51.463 132.851-96.981 132.851-32.15 0-58.649-26.283-59.063-58.61-0.433-39.651-12.698-108.124-78.75-142.853-4.843-2.559-18.703-9.391-20.731-10.277l1.043-0.886c-10.336 8.918-24.668 15.75-39.375 15.75h-59.063c-32.563 0-59.063-26.499-59.063-59.063v-315c0-32.563 26.499-59.063 59.063-59.063h59.063c23.428 0 43.037 14.155 52.526 34 0.236-0.079 0.65-0.197 0.925-0.236 1.299-0.354 2.835-0.728 4.705-1.221 0.354-0.098 0.532-0.138 0.906-0.236 11.34-2.815 33.173-8.033 79.833-18.762 10.001-2.284 62.843-13.545 117.574-13.545h107.632c32.799 0 56.444 12.62 70.521 37.957 0.197 0.394 4.725 9.233 8.426 21.184 2.776 8.997 3.8 21.735 0.453 34.65 21.144 14.529 27.956 36.501 32.386 50.794 7.422 23.448 5.197 41.068 0.039 53.688 11.891 11.222 22.030 28.33 26.303 54.456 2.658 16.183-0.197 32.839-7.658 46.699 11.143 12.521 16.222 28.271 16.813 42.84l0.236 4.115c0.138 2.579 0.256 4.174 0.256 9.844 0 24.865-17.227 56.582-55.834 67.607zM302.813 160.062c0-10.887-8.8-19.688-19.688-19.688h-59.063c-10.887 0-19.688 8.8-19.688 19.688v315c0 10.887 8.8 19.688 19.688 19.688h59.063c10.887 0 19.688-8.8 19.688-19.688v-315zM755.172 444.842c-0.394-9.726-4.469-28.842-38.922-28.842-29.531 0-39.375 0-39.375 0-5.453 0-9.844-4.41-9.844-9.844s4.39-9.844 9.844-9.844c0 0 8.623 0 38.154 0s33.41-24.491 31.5-36.304c-2.441-14.687-9.332-42.446-42.584-42.446-33.213 0-46.758 0-46.758 0-5.453 0-9.844-4.39-9.844-9.844 0-5.414 4.39-9.844 9.844-9.844 0 0 23.389 0 38.765 0 33.232 0 30.299-25.338 25.535-40.458-6.28-19.865-10.119-38.292-51.995-38.292-14.155 0-32.11 0-32.11 0-5.453 0-9.844-4.39-9.844-9.844 0-5.414 4.39-9.844 9.844-9.844 0 0 13.643 0 30.87 0 21.538 0 22.542-20.377 20.298-27.681-2.461-7.993-5.375-13.919-5.493-14.195-5.946-10.73-15.533-17.187-35.831-17.187h-107.632c-54.062 0-107.691 12.265-109.069 12.58-81.782 18.841-86.093 20.298-91.232 21.755 0 0-16.656 2.815-16.656 17.345l-0.138 271.924c0 9.233 5.887 17.581 15.632 20.514 1.221 0.473 2.874 0.984 4.056 1.477 89.933 37.249 117.318 118.913 118.125 185.968 0.118 9.43 7.383 19.688 19.688 19.688 20.81 0 57.606-41.777 57.606-93.476 0-46.679-1.89-54.751-18.231-103.399 196.875 0 195.497-2.835 212.861-7.383 21.538-6.162 23.389-23.999 23.389-30.142 0-6.753-0.197-5.768-0.453-12.383zM253.594 219.125c-16.301 0-29.531-13.23-29.531-29.531s13.23-29.531 29.531-29.531 29.531 13.23 29.531 29.531-13.23 29.531-29.531 29.531zM253.594 179.75c-5.414 0-9.844 4.43-9.844 9.844s4.43 9.844 9.844 9.844 9.844-4.43 9.844-9.844-4.43-9.844-9.844-9.844z" />
<glyph unicode="&#xe023;" glyph-name="calendar" d="M742.513 671.937h-85.326v39.375c0 10.887-8.8 19.688-19.688 19.688s-19.688-8.8-19.688-19.688v-39.375h-118.125v39.375c0 10.887-8.82 19.688-19.688 19.688s-19.688-8.8-19.688-19.688v-39.375h-118.125v39.375c0 10.887-8.82 19.688-19.688 19.688s-19.688-8.8-19.688-19.688v-39.375h-85.306c-29 0-52.507-23.487-52.507-52.487v-465.944c0-29 23.507-52.507 52.507-52.507h525.007c29 0 52.487 23.507 52.487 52.507v465.944c0 29-23.487 52.487-52.487 52.487zM755.625 153.507c0-7.245-5.887-13.132-13.112-13.132h-525.007c-7.245 0-13.132 5.887-13.132 13.132v465.944c0 7.225 5.887 13.112 13.132 13.112h85.306v-39.375c0-10.887 8.82-19.688 19.688-19.688s19.688 8.8 19.688 19.688v39.375h118.125v-39.375c0-10.887 8.82-19.688 19.687-19.688s19.688 8.8 19.688 19.688v39.375h118.125v-39.375c0-10.887 8.8-19.688 19.688-19.688s19.688 8.8 19.688 19.688v39.375h85.326c7.225 0 13.112-5.887 13.112-13.112v-465.944zM302.813 494.75h78.75v-59.063h-78.75zM302.813 396.312h78.75v-59.063h-78.75zM302.813 297.875h78.75v-59.063h-78.75zM440.625 297.875h78.75v-59.063h-78.75zM440.625 396.312h78.75v-59.063h-78.75zM440.625 494.75h78.75v-59.063h-78.75zM578.438 297.875h78.75v-59.063h-78.75zM578.438 396.312h78.75v-59.063h-78.75zM578.438 494.75h78.75v-59.063h-78.75z" />
<glyph unicode="&#xe024;" glyph-name="camera" d="M480 534.105c-86.999 0-157.5-70.501-157.5-157.5 0-86.979 70.501-157.5 157.5-157.5 86.979 0 157.5 70.521 157.5 157.5s-70.521 157.5-157.5 157.5zM569.677 299.726c-42.446-49.534-117.003-55.263-166.537-12.797-49.553 42.446-55.263 117.023-12.797 166.537 42.427 49.553 117.003 55.263 166.537 12.797 49.514-42.427 55.243-117.022 12.797-166.537zM480 455.355c5.434 0 9.844-4.41 9.844-9.844s-4.41-9.844-9.844-9.844c-32.622 0-59.043-26.44-59.063-59.043v-0.039c0-5.414-4.41-9.844-9.844-9.844s-9.844 4.43-9.844 9.844v0.039c0.020 43.47 35.26 78.73 78.75 78.73zM745.624 552.986l-85.326 14.234-27.031 67.607c-9.037 22.542-30.575 37.111-54.83 37.111h-196.875c-24.255 0-45.793-14.569-54.849-37.131l-27.011-67.587-85.306-14.234c-28.626-4.745-49.396-29.236-49.396-58.236v-295.312c0-32.563 26.499-59.063 59.063-59.063h511.875c32.563 0 59.063 26.499 59.063 59.063v295.313c0 29-20.77 53.491-49.376 58.236zM755.625 199.437c0-10.887-8.8-19.688-19.688-19.688h-511.875c-10.887 0-19.688 8.8-19.688 19.688v295.313c0 9.627 6.969 17.837 16.459 19.412l107.179 17.857 35.26 88.161c3.012 7.462 10.238 12.383 18.29 12.383h196.875c8.033 0 15.258-4.902 18.27-12.383l35.26-88.161 107.198-17.857c9.489-1.575 16.459-9.785 16.459-19.412v-295.313z" />
<glyph unicode="&#xe025;" glyph-name="tag" d="M783.010 457.678l-98.438 157.5c-14.372 23.015-39.611 37.013-66.76 37.013h-374.063c-43.49 0-78.75-35.26-78.75-78.75v-315c0-43.49 35.26-78.75 78.75-78.75h374.063c27.149 0 52.369 13.998 66.76 37.032l98.438 157.5c15.986 25.495 15.986 57.921 0 83.455zM749.62 395.092l-98.438-157.539c-7.225-11.576-19.727-18.487-33.37-18.487h-374.063c-21.715 0-39.375 17.679-39.375 39.375v315c0 21.715 17.66 39.375 39.375 39.375h374.063c13.643 0 26.145-6.93 33.37-18.487l98.438-157.5c7.934-12.698 7.934-29.078 0-41.738zM617.813 475.003c-32.642 0-59.063-26.44-59.063-59.063s26.421-59.063 59.063-59.063c32.602 0 59.063 26.46 59.063 59.063 0 32.622-26.46 59.063-59.063 59.063zM617.813 376.546c-21.755 0-39.375 17.64-39.375 39.375s17.62 39.375 39.375 39.375c21.735 0 39.375-17.64 39.375-39.375 0-21.715-17.64-39.375-39.375-39.375z" />
<glyph unicode="&#xe026;" glyph-name="note" d="M783.463 581.67l-118.125 118.125c-7.383 7.383-17.423 11.517-27.838 11.517h-413.438c-32.563 0-59.063-26.48-59.063-59.062v-472.5c0-32.563 26.499-59.063 59.063-59.063h511.875c32.563 0 59.063 26.499 59.063 59.063v374.063c0 10.454-4.154 20.475-11.537 27.858zM755.625 179.75c0-10.887-8.8-19.688-19.688-19.688h-511.875c-10.887 0-19.688 8.8-19.688 19.688v472.5c0 10.887 8.8 19.688 19.688 19.688h393.75v-78.75h-0.039c0-32.622 26.46-59.063 59.063-59.063h78.789v-354.375zM696.523 553.812h-19.688c-21.696 0-39.375 17.66-39.375 39.375h0.039v78.75l118.125-118.125h-59.102zM470.156 573.5c-5.434 0-9.844 4.39-9.844 9.844s4.41 9.844 9.844 9.844h98.438c5.414 0 9.844-4.41 9.844-9.844s-4.43-9.844-9.844-9.844h-98.438zM470.156 514.437c-5.434 0-9.844 4.41-9.844 9.844s4.41 9.844 9.844 9.844h98.438c5.414 0 9.844-4.41 9.844-9.844s-4.43-9.844-9.844-9.844h-98.438zM460.313 465.219c0 5.453 4.41 9.844 9.844 9.844h236.25c5.414 0 9.844-4.41 9.844-9.844s-4.43-9.844-9.844-9.844h-236.25c-5.434 0-9.844 4.41-9.844 9.844zM706.406 356.937c5.414 0 9.844-4.39 9.844-9.844 0-5.414-4.43-9.844-9.844-9.844h-452.813c-5.434 0-9.844 4.43-9.844 9.844 0 5.453 4.41 9.844 9.844 9.844h452.813zM706.406 297.875c5.414 0 9.844-4.39 9.844-9.844 0-5.414-4.43-9.844-9.844-9.844h-452.813c-5.434 0-9.844 4.43-9.844 9.844 0 5.453 4.41 9.844 9.844 9.844h452.813zM706.406 238.812c5.414 0 9.844-4.39 9.844-9.844 0-5.414-4.43-9.844-9.844-9.844h-452.813c-5.434 0-9.844 4.43-9.844 9.844 0 5.453 4.41 9.844 9.844 9.844h452.813zM706.406 416c5.414 0 9.844-4.41 9.844-9.844s-4.43-9.844-9.844-9.844h-452.813c-5.434 0-9.844 4.39-9.844 9.844s4.41 9.844 9.844 9.844h452.813zM263.438 455.375h137.813c10.887 0 19.688 8.8 19.688 19.688v118.125c0 10.887-8.8 19.688-19.688 19.688h-137.813c-10.887 0-19.688-8.8-19.688-19.688v-118.125c0-10.868 8.8-19.688 19.688-19.688zM283.125 573.5h98.438v-78.75h-98.438v78.75z" />
<glyph unicode="&#xe027;" glyph-name="clock" d="M460.313 534.125c0 10.873 8.814 19.688 19.688 19.688s19.688-8.814 19.688-19.688v0c0-10.873-8.814-19.688-19.688-19.688s-19.688 8.814-19.688 19.688v0zM460.313 297.875c0 10.873 8.814 19.688 19.688 19.688s19.688-8.814 19.688-19.688v0c0-10.873-8.814-19.688-19.688-19.688s-19.688 8.814-19.688 19.688v0zM342.188 416c0 10.873 8.814 19.688 19.688 19.688s19.688-8.814 19.688-19.688v0c0-10.873-8.814-19.688-19.688-19.688s-19.688 8.814-19.688 19.688v0zM578.438 416c0 10.873 8.814 19.688 19.688 19.688s19.688-8.814 19.688-19.688v0c0-10.873-8.814-19.688-19.688-19.688s-19.688 8.814-19.688 19.688v0zM376.778 332.486c0 10.873 8.814 19.688 19.688 19.688s19.688-8.814 19.688-19.688v0c0-10.873-8.814-19.688-19.688-19.688s-19.688 8.814-19.688 19.688v0zM376.778 499.534c0 10.873 8.814 19.688 19.688 19.688s19.688-8.814 19.688-19.688v0c0-10.873-8.814-19.688-19.688-19.688s-19.688 8.814-19.688 19.688v0zM543.827 332.486c0 10.873 8.814 19.688 19.688 19.688s19.688-8.814 19.688-19.688v0c0-10.873-8.814-19.688-19.688-19.688s-19.688 8.814-19.688 19.688v0zM676.875 455.375c-1.378 0-2.54-0.65-3.878-0.787-6.851 34.355-23.034 65.087-45.222 90.444l-28.271 153.799c-3.445 18.644-19.727 32.169-38.706 32.169h-157.5c-18.979 0-35.241-13.545-38.725-32.189l-27.562-148.621c-33.075-35.182-53.885-82.058-53.885-134.19 0-50.853 19.963-96.567 51.601-131.473l27.799-151.357c3.465-18.624 19.747-32.169 38.725-32.169h157.5c18.959 0 35.221 13.545 38.725 32.189l28.035 151.239c23.408 25.81 40.418 57.487 47.486 93.023 1.339-0.177 2.5-0.827 3.878-0.827 21.735 0 39.375 17.64 39.375 39.375 0 21.755-17.64 39.375-39.375 39.375zM403.298 691.625h157.5l19.688-106.057c-29.078 16.912-62.37 27.307-98.438 27.307-36.048 0-69.359-10.395-98.438-27.307l19.688 106.057zM558.75 140.375h-157.5l-19.688 106.057c29.059-16.892 62.37-27.307 98.438-27.307 36.048 0 69.379 10.415 98.438 27.307l-19.688-106.057zM480 258.5c-86.842 0-157.5 70.678-157.5 157.5 0 86.842 70.658 157.5 157.5 157.5s157.5-70.658 157.5-157.5c0-86.822-70.678-157.5-157.5-157.5zM577.276 513.926c2.382-2.382 2.618-6.221 0.551-8.84l-47.762-59.476-36.382-43.805c-3.721-3.583-8.84-5.414-13.762-5.453-5.296 0.039-10.238 2.087-13.919 5.749s-5.69 8.564-5.69 13.742c0 5.355 2.067 10.356 5.827 14.136l102.218 84.361c2.697 2.166 6.536 1.969 8.918-0.413z" />
<glyph unicode="&#xe028;" glyph-name="lock" d="M657.188 475.062v78.75c0 97.867-79.321 177.188-177.188 177.188s-177.188-79.321-177.188-177.188v-78.75c-32.622 0-59.063-26.44-59.063-59.063v-137.813c0-97.867 79.321-177.188 177.188-177.188h118.125c97.867 0 177.188 79.321 177.188 177.188v137.813c0 32.642-26.46 59.063-59.063 59.063zM342.188 553.812c0 76.112 61.701 137.813 137.813 137.813s137.813-61.701 137.813-137.813v-78.75h-39.375v78.711c0 54.377-44.061 98.437-98.438 98.437s-98.438-44.061-98.438-98.437v-78.711h-39.375v78.75zM558.75 553.812v-78.75h-157.5v78.75c0 43.49 35.26 78.75 78.75 78.75s78.75-35.26 78.75-78.75zM676.875 356.937v-78.75c0-75.974-61.838-137.813-137.813-137.813h-118.125c-75.974 0-137.813 61.838-137.813 137.813v137.813c0 10.868 8.82 19.688 19.688 19.688 13.132 0 26.243 0 39.375 0h275.625c13.112 0 26.224 0 39.375 0 10.848 0 19.688-8.82 19.688-19.688v-59.063zM480 356.937c21.735 0 39.375-17.62 39.375-39.375 0-11.99-6.457-34.808-13.112-52.802-5.375-14.529-10.868-25.909-26.263-25.909-14.155 0-20.888 11.497-26.243 26.106-6.576 17.955-13.132 40.655-13.132 52.605 0 21.755 17.64 39.375 39.375 39.375z" />
<glyph unicode="&#xe029;" glyph-name="vynil" d="M597.16 708.359c-161.477 64.654-344.827-13.821-409.5-175.317-64.693-161.516 13.821-344.886 175.317-409.539 161.497-64.673 344.846 13.821 409.52 175.317 64.693 161.516-13.84 344.846-175.337 409.539zM377.625 160.043c-141.081 56.503-209.908 217.232-153.425 358.332 56.503 141.081 217.252 209.928 358.352 153.405 141.081-56.483 209.908-217.232 153.425-358.313-56.523-141.1-217.252-209.908-358.352-153.425zM494.746 452.481c-20.18 8.092-43.116-1.732-51.207-21.912s1.733-43.096 21.892-51.188c20.18-8.092 43.135 1.732 51.207 21.893 8.072 20.18-1.732 43.096-21.892 51.207zM472.755 397.632c-10.080 4.056-14.982 15.514-10.966 25.613 4.056 10.080 15.533 14.982 25.613 10.966 10.060-4.036 14.963-15.514 10.946-25.613-4.036-10.080-15.514-14.982-25.594-10.966zM523.982 525.561c-60.559 24.255-129.307-5.197-153.562-65.737-24.255-60.559 5.197-129.307 65.737-153.563 60.559-24.255 129.308 5.178 153.563 65.737s-5.158 129.327-65.737 153.563zM450.823 342.822c-40.32 16.124-59.968 62.075-43.844 102.375 16.144 40.3 62.055 59.968 102.355 43.844 40.34-16.144 59.988-62.094 43.883-102.395-16.163-40.3-62.094-59.988-102.395-43.824zM626.317 357.371h-0.039c-16.085-40.143-46.915-70.009-83.79-85.956-0.138-0.059-0.217-0.217-0.413-0.295-5.001-2.126-10.769 0.177-12.915 5.197-2.146 4.981 0.197 10.769 5.158 12.895 32.406 13.88 59.555 40.123 73.71 75.482v-0.020c2.028 5.060 7.757 7.521 12.797 5.473 5.040-2.008 7.501-7.737 5.493-12.777zM693.905 340.912c5.040-2.028 7.501-7.757 5.493-12.797-24.117-60.204-70.403-105.033-125.705-128.914-0.236-0.098-0.413-0.315-0.65-0.433-5.001-2.126-10.769 0.158-12.915 5.178-2.146 5.001 0.197 10.789 5.158 12.915 50.951 21.814 93.594 63.059 115.822 118.578 2.028 5.040 7.757 7.501 12.797 5.473zM657.345 355.54c5.040-2.028 7.501-7.757 5.493-12.797-20.101-50.183-58.669-87.511-104.738-107.415-0.217-0.118-0.335-0.295-0.532-0.394-5.001-2.126-10.769 0.177-12.915 5.178s0.197 10.789 5.197 12.935h-0.039c41.718 17.857 76.584 51.581 94.736 97.020 2.028 5.060 7.757 7.501 12.797 5.473zM431.037 555.545c2.146-5.020-0.177-10.789-5.178-12.954-32.406-13.86-59.555-40.123-73.69-75.442h-0.020c-2.008-5.040-7.737-7.501-12.797-5.473-5.040 2.028-7.501 7.737-5.473 12.797h0.020c16.065 40.123 46.915 70.009 83.79 85.956 0.138 0.059 0.236 0.217 0.413 0.276 5.001 2.146 10.789-0.138 12.935-5.158zM400.029 627.936c2.146-5.001-0.177-10.769-5.158-12.935-50.951-21.814-93.575-63.059-115.822-118.558-2.028-5.060-7.757-7.501-12.797-5.473-5.060 2.008-7.521 7.737-5.473 12.817 24.117 60.204 70.383 105.013 125.705 128.914 0.197 0.098 0.374 0.315 0.61 0.413 5.001 2.126 10.789-0.177 12.935-5.178zM410.346 578.835v-0.059c-41.678-17.837-76.565-51.581-94.736-97.020-2.028-5.060-7.757-7.481-12.797-5.473-5.020 2.048-7.501 7.757-5.453 12.817 20.081 50.164 58.649 87.531 104.738 107.454 0.197 0.079 0.315 0.276 0.512 0.354 5.001 2.146 10.789-0.177 12.935-5.158 2.146-5.020-0.197-10.789-5.178-12.915z" />
<glyph unicode="&#xe02a;" glyph-name="truck" d="M653.88 505.677c-3.662 5.473-9.804 8.761-16.38 8.761h-19.688c-10.887 0-19.688-8.8-19.688-19.688v-118.125c0-10.887 8.8-19.688 19.688-19.688h78.75c10.887 0 19.688 8.8 19.688 19.688v29.531c0 3.878-1.162 7.698-3.308 10.927l-59.063 88.594zM696.563 376.625h-78.75v118.125h19.688l59.063-88.594v-29.531zM785.078 429.072l-78.75 118.125c-10.986 16.478-29.374 26.303-49.14 26.303h-78.75v39.375c0 32.563-26.499 59.063-59.063 59.063h-295.313c-32.563 0-59.063-26.499-59.063-59.063v-216.563c0-32.563 26.499-59.063 59.063-59.063v0-59.063c0-32.563 26.499-59.063 59.063-59.063h22.483c8.8-33.882 39.375-59.063 75.974-59.063 36.56 0 67.134 25.18 75.935 59.063h103.989c8.8-33.882 39.375-59.063 75.974-59.063 36.56 0 67.134 25.18 75.935 59.063h22.523c32.563 0 59.063 26.499 59.063 59.063v118.125c0 11.694-3.426 23.034-9.922 32.76zM224.063 376.625c-10.868 0-19.688 8.8-19.688 19.688v216.563c0 10.887 8.82 19.688 19.688 19.688h295.313c10.887 0 19.688-8.8 19.688-19.688v-216.563c0-10.887-8.8-19.688-19.688-19.688h-295.313zM381.582 199.437c-21.755 0-39.375 17.64-39.375 39.375s17.62 39.375 39.375 39.375c21.735 0 39.375-17.64 39.375-39.375s-17.66-39.375-39.375-39.375zM637.5 199.437c-21.755 0-39.375 17.64-39.375 39.375s17.62 39.375 39.375 39.375c21.735 0 39.375-17.64 39.375-39.375s-17.64-39.375-39.375-39.375zM755.625 278.187c0-10.887-8.8-19.688-19.688-19.688h-22.503c-8.8 33.882-39.375 59.063-75.935 59.063-36.599 0-67.174-25.18-75.974-59.063h-103.989c-8.8 33.882-39.375 59.063-75.935 59.063-36.599 0-67.174-25.18-75.974-59.063h-22.503c-10.868 0-19.688 8.8-19.688 19.688v59.063h255.938c32.563 0 59.063 26.499 59.063 59.063v137.813h78.75c6.576 0 12.718-3.288 16.38-8.761l78.75-118.125c2.146-3.229 3.308-7.048 3.308-10.927v-118.125z" />
<glyph unicode="&#xe02b;" glyph-name="paperplane" d="M786.003 727.85c-3.268 2.107-6.989 3.15-10.69 3.15-3.8 0-7.619-1.083-10.927-3.308l-590.625-393.75c-6.083-4.036-9.43-11.143-8.643-18.428 0.748-7.265 5.473-13.545 12.265-16.222l154.035-61.642 72.43-126.748c3.465-6.083 9.903-9.844 16.872-9.922 0.079 0 0.138 0 0.217 0 6.91 0 13.328 3.662 16.872 9.568l40.891 68.178 190.87-76.328c2.343-0.945 4.804-1.398 7.304-1.398 3.347 0 6.654 0.847 9.647 2.54 5.197 2.914 8.761 8.033 9.765 13.919l98.438 590.625c1.28 7.737-2.146 15.494-8.722 19.766zM226.74 321.953l456.258 304.192-331.734-355.103c-1.752 1.043-3.308 2.422-5.237 3.189l-119.287 47.722zM365.596 257.201c-0.039 0.079-0.098 0.118-0.138 0.197l372.94 399.164-317.933-495.377-54.869 96.016zM661.46 148.073l-168.151 67.252c-3.997 1.575-8.151 2.107-12.265 2.343l258.93 401.389-78.514-470.984z" />
<glyph unicode="&#xe02c;" glyph-name="bulb" d="M480 731c-119.621 0-216.563-96.941-216.563-216.563 0-79.36 72.607-163.465 99.048-237.333 39.434-110.152 35.063-176.105 117.515-176.105 83.672 0 78.061 65.638 117.515 175.652 26.519 74.025 99.048 159.036 99.048 237.786 0 119.621-96.981 216.563-216.563 216.563zM531.030 195.972l-97.611-12.187c-3.485 10.080-7.225 21.873-11.773 37.268-0.059 0.197-0.138 0.413-0.177 0.61l121.826 15.218c-1.732-5.808-3.583-11.911-5.197-17.384-2.579-8.84-4.883-16.518-7.068-23.527zM415.74 240.624c-3.583 11.852-7.619 24.334-12.108 37.564h152.893c-2.422-7.068-4.843-14.155-6.93-20.849l-133.855-16.715zM480 140.375c-19.943 0-29.118 2.303-39.316 24.609l83.436 10.454c-12.088-32.563-20.888-35.063-44.12-35.063zM571.98 317.562h-183.743c-9.804 21.262-21.578 42.525-33.193 63.335-25.692 45.97-52.231 93.516-52.231 133.54 0 97.709 79.478 177.188 177.188 177.188s177.188-79.478 177.188-177.188c0-39.729-26.578-87.531-52.29-133.777-11.497-20.731-23.192-41.954-32.918-63.098zM480 632.562c5.414 0 9.844-4.41 9.844-9.844s-4.41-9.844-9.844-9.844c-54.278 0-98.438-44.159-98.438-98.438 0-5.434-4.41-9.844-9.844-9.844s-9.844 4.41-9.844 9.844c0 65.146 52.979 118.125 118.125 118.125z" />
<glyph unicode="&#xe02d;" glyph-name="pen" d="M743.714 680.206c-32.386 32.347-75.029 50.794-117.062 50.794-35.457 0-68.099-13.151-91.941-36.953l-95.819-96.548c-0.295-0.276-0.63-0.453-0.925-0.748-0.158-0.157-0.256-0.374-0.413-0.512l0.039-0.039-203.352-204.927c-9.371-9.312-16.163-20.908-19.943-33.567l-46.246-167.501c-0.039-0.453-3.052-13.604-3.052-20.298 0-38.036 30.89-68.906 68.985-68.906 7.58 0 22.247 3.623 22.778 3.701l166.911 43.883c12.679 3.76 24.196 10.612 33.567 20.002l300.49 302.853c54.653 54.692 48.49 146.357-14.018 208.766zM480.276 262.536c-1.614 17.758-6.635 35.182-14.155 51.719l186.145 186.126c11.379-35.949 5.532-73.552-19.412-98.516-0.158-0.157-0.354-0.256-0.492-0.413l0.276-0.256-152.145-153.366c0 4.902 0.236 9.706-0.217 14.707zM456.237 332.21c-7.343 12.068-15.691 23.723-26.027 34.040-12.029 12.029-25.83 21.459-40.241 29.374l187.661 187.661c14.726-6.536 28.842-15.848 41.304-28.311 10.651-10.612 18.88-22.503 25.22-34.867l-187.917-187.897zM371.443 404.936c-18.231 7.343-37.328 11.537-56.464 11.793l151.653 152.814c23.212 22.641 57.015 29.157 90.307 20.908l-185.496-185.515zM247.038 142.875c-2.146-0.492-8.82-2.185-13.348-2.5-16.183 0.197-29.315 13.348-29.315 29.531 0.236 3.308 1.555 8.997 2.008 11.064l20.731 75.088c22.503 0.61 46.718-8.151 65.756-27.228 19.333-19.294 28.429-43.982 27.444-66.76l-73.277-19.195zM339.707 167.209c-0.473 26.421-11.222 53.904-32.918 75.561-20.514 20.534-47.368 32.386-74.143 33.449l19.609 71.013c1.418 4.725 4.233 9.391 7.698 13.466 39.493 28.271 100.229 19.924 142.419-22.306 44.632-44.612 51.522-109.974 17.148-148.995-2.284-1.201-4.587-2.343-7.068-3.071l-72.745-19.117zM729.854 499.239l-33.154-33.41c0 4.449 0.532 8.722 0.118 13.269-3.465 38.095-21.223 74.931-50.065 103.733-32.071 32.091-74.596 50.498-116.708 50.617l32.602 32.878c16.321 16.282 39.099 25.298 64.004 25.298 31.677 0 64.221-14.332 89.243-39.277 23.487-23.448 37.485-52.585 39.493-82.058 1.851-27.503-7.225-52.723-25.535-71.052z" />
<glyph unicode="&#xe02e;" glyph-name="params" d="M322.5 612.462v59.476c0 32.563-26.499 59.063-59.063 59.063s-59.063-26.499-59.063-59.063v-59.476c-23.782-18.014-39.375-46.226-39.375-78.337s15.593-60.322 39.375-78.297v-295.765c0-32.563 26.499-59.063 59.063-59.063s59.063 26.499 59.063 59.063v295.765c23.782 17.955 39.375 46.187 39.375 78.297s-15.593 60.322-39.375 78.337zM243.75 671.937c0 10.887 8.8 19.688 19.688 19.688s19.688-8.8 19.688-19.688v-41.344c-6.359 1.28-12.935 1.969-19.688 1.969s-13.328-0.689-19.688-1.969v41.344zM283.125 160.062c0-10.887-8.8-19.688-19.688-19.688s-19.688 8.8-19.688 19.688v277.633c6.359-1.319 12.935-2.008 19.688-2.008s13.328 0.689 19.688 2.008v-277.633zM319.842 517.588c-0.315-1.043-0.591-2.067-0.965-3.111-1.87-5.197-4.272-10.119-7.442-14.49-0.079-0.118-0.197-0.197-0.276-0.315-3.426-4.686-7.501-8.84-12.127-12.344-0.079-0.079-0.138-0.118-0.197-0.158-4.745-3.583-10.041-6.457-15.73-8.466-6.162-2.225-12.718-3.642-19.668-3.642s-13.506 1.418-19.688 3.662c-5.69 2.008-10.986 4.882-15.73 8.466-0.059 0.039-0.118 0.079-0.197 0.157-4.627 3.504-8.702 7.658-12.128 12.344-0.079 0.118-0.197 0.197-0.276 0.315-3.17 4.39-5.572 9.312-7.442 14.49-0.374 1.043-0.65 2.067-0.965 3.111-1.555 5.257-2.638 10.749-2.638 16.518 0 5.808 1.083 11.301 2.658 16.577 0.315 1.043 0.591 2.067 0.965 3.071 1.851 5.197 4.252 10.119 7.442 14.529 0.079 0.118 0.197 0.197 0.276 0.315 3.426 4.646 7.501 8.84 12.127 12.344 0.079 0.039 0.138 0.118 0.197 0.157 4.725 3.524 10.021 6.418 15.711 8.446 6.182 2.205 12.738 3.623 19.688 3.623s13.506-1.418 19.688-3.623c5.69-2.048 10.986-4.922 15.73-8.466 0.059-0.039 0.118-0.118 0.197-0.158 4.627-3.504 8.702-7.698 12.127-12.344 0.079-0.118 0.197-0.197 0.276-0.315 3.17-4.39 5.572-9.312 7.422-14.51 0.374-1.004 0.669-2.028 0.965-3.071 1.575-5.276 2.658-10.769 2.658-16.577 0-5.768-1.083-11.261-2.658-16.537zM755.625 612.462v59.476c0 32.563-26.499 59.063-59.063 59.063s-59.063-26.499-59.063-59.063v-59.476c-23.802-18.014-39.375-46.226-39.375-78.337s15.573-60.322 39.375-78.297v-295.765c0-32.563 26.499-59.063 59.063-59.063s59.063 26.499 59.063 59.063v295.765c23.763 17.955 39.375 46.187 39.375 78.297s-15.612 60.322-39.375 78.337zM676.875 671.937c0 10.887 8.8 19.688 19.688 19.688s19.688-8.8 19.688-19.688v-41.344c-6.379 1.28-12.954 1.969-19.688 1.969-6.773 0-13.348-0.689-19.688-1.969v41.344zM716.25 160.062c0-10.887-8.8-19.688-19.688-19.688s-19.688 8.8-19.688 19.688v277.633c6.339-1.319 12.915-2.008 19.688-2.008 6.733 0 13.309 0.689 19.688 2.008v-277.633zM752.967 517.588c-0.315-1.043-0.61-2.067-0.965-3.111-1.89-5.197-4.272-10.119-7.462-14.49-0.079-0.118-0.197-0.197-0.276-0.315-3.426-4.686-7.501-8.84-12.108-12.344-0.079-0.079-0.157-0.118-0.197-0.158-4.764-3.583-10.041-6.457-15.73-8.466-6.162-2.225-12.738-3.642-19.668-3.642-6.969 0-13.506 1.418-19.688 3.662-5.69 2.008-11.005 4.882-15.73 8.466-0.079 0.039-0.118 0.079-0.197 0.157-4.646 3.504-8.722 7.658-12.147 12.344-0.079 0.118-0.197 0.197-0.276 0.315-3.15 4.39-5.572 9.312-7.422 14.49-0.394 1.043-0.65 2.067-0.965 3.111-1.555 5.257-2.638 10.749-2.638 16.518 0 5.808 1.083 11.301 2.658 16.577 0.315 1.043 0.571 2.067 0.965 3.071 1.851 5.197 4.272 10.119 7.422 14.529 0.079 0.118 0.197 0.197 0.276 0.315 3.426 4.646 7.501 8.84 12.147 12.344 0.079 0.039 0.118 0.118 0.197 0.157 4.725 3.544 10.041 6.418 15.73 8.466 6.162 2.185 12.698 3.603 19.668 3.603 6.93 0 13.506-1.418 19.688-3.623 5.69-2.048 10.966-4.922 15.73-8.466 0.039-0.039 0.118-0.118 0.197-0.158 4.607-3.504 8.682-7.698 12.108-12.344 0.079-0.118 0.197-0.197 0.276-0.315 3.189-4.43 5.572-9.352 7.462-14.529 0.354-1.004 0.65-2.048 0.965-3.071 1.555-5.257 2.638-10.749 2.638-16.557 0-5.768-1.083-11.261-2.658-16.537zM539.063 376.212v295.726c0 32.563-26.499 59.063-59.063 59.063s-59.063-26.499-59.063-59.063v-295.726c-23.782-17.994-39.375-46.226-39.375-78.337s15.593-60.322 39.375-78.297v-59.515c0-32.563 26.499-59.063 59.063-59.063s59.063 26.499 59.063 59.063v59.515c23.763 17.955 39.375 46.187 39.375 78.297s-15.612 60.322-39.375 78.337zM460.313 671.937c0 10.887 8.8 19.688 19.688 19.688s19.688-8.8 19.688-19.688v-277.594c-6.379 1.26-12.954 1.969-19.688 1.969-6.753 0-13.328-0.689-19.688-1.969v277.594zM499.688 160.062c0-10.887-8.8-19.688-19.688-19.688s-19.688 8.8-19.688 19.688v41.383c6.359-1.319 12.935-2.008 19.688-2.008 6.733 0 13.309 0.689 19.688 2.008v-41.383zM536.405 281.337c-0.315-1.043-0.61-2.067-0.965-3.111-1.89-5.197-4.272-10.119-7.462-14.49-0.079-0.118-0.197-0.197-0.276-0.315-3.426-4.686-7.501-8.84-12.108-12.344-0.079-0.079-0.157-0.118-0.197-0.158-4.764-3.583-10.041-6.457-15.73-8.466-6.162-2.225-12.738-3.642-19.668-3.642-6.95 0-13.506 1.417-19.688 3.662-5.69 2.008-10.986 4.882-15.73 8.466-0.059 0.039-0.118 0.079-0.197 0.158-4.627 3.504-8.702 7.658-12.127 12.344-0.079 0.118-0.197 0.197-0.276 0.315-3.17 4.39-5.572 9.312-7.442 14.49-0.374 1.043-0.65 2.067-0.965 3.111-1.555 5.257-2.638 10.749-2.638 16.518 0 5.808 1.083 11.301 2.658 16.577 0.315 1.043 0.591 2.067 0.965 3.071 1.87 5.197 4.272 10.119 7.442 14.529 0.079 0.118 0.197 0.197 0.276 0.315 3.426 4.646 7.501 8.84 12.127 12.344 0.079 0.039 0.138 0.118 0.197 0.158 4.745 3.544 10.041 6.418 15.73 8.466 6.162 2.185 12.718 3.603 19.668 3.603 6.93 0 13.506-1.417 19.688-3.623 5.69-2.047 10.966-4.922 15.73-8.466 0.039-0.039 0.118-0.118 0.197-0.158 4.607-3.504 8.682-7.698 12.108-12.344 0.079-0.118 0.197-0.197 0.276-0.315 3.189-4.43 5.572-9.352 7.462-14.529 0.354-1.004 0.65-2.048 0.965-3.071 1.555-5.257 2.638-10.749 2.638-16.557 0-5.768-1.083-11.261-2.658-16.538z" />
<glyph unicode="&#xe02f;" glyph-name="world" d="M470.156 731c-168.545 0-305.156-136.612-305.156-305.156s136.612-305.156 305.156-305.156 305.156 136.612 305.156 305.156-136.612 305.156-305.156 305.156zM735.445 435.687h-118.046c-1.083 43.608-8.84 85.267-22.601 123.401 26.578 11.084 51.148 25.83 73.553 43.253 39.828-44.71 64.732-102.769 67.095-166.655zM459.269 160.614c-32.721 27.247-60.165 62.626-80.246 103.714 25.771 8.052 53.077 12.462 81.29 13.368v-117.121c-0.354 0-0.689 0.020-1.043 0.039zM481.004 691.074c37.131-30.909 67.43-72.312 87.924-120.606-28.074-9.588-57.901-15.159-88.948-16.144v136.808c0.374-0.020 0.689-0.039 1.024-0.059zM513.803 687.727c54.338-9.037 103.084-34.414 141.041-71.151-20.613-15.809-43.135-29.197-67.489-39.336-17.916 42.466-43.057 80.010-73.553 110.486zM460.313 691.133v-136.808c-31.047 1.004-60.893 6.556-88.948 16.144 20.495 48.293 50.794 89.696 87.924 120.606 0.354 0.020 0.669 0.039 1.024 0.059zM352.937 577.221c-24.314 10.139-46.856 23.527-67.469 39.336 37.938 36.737 86.704 62.114 141.041 71.151-30.516-30.457-55.637-68.001-73.572-110.486zM363.942 552.316c30.358-10.533 62.705-16.675 96.37-17.699v-98.93h-117.712c1.063 41.226 8.367 80.62 21.341 116.629zM460.313 416v-118.617c-31.047-0.945-61.071-6.024-89.362-15.14-17.049 40.596-27.11 85.818-28.35 133.757h117.712zM426.509 163.961c-48.687 8.092-92.905 29.295-128.855 60.086 19.392 13.447 40.359 24.826 62.764 33.469 17.168-35.595 39.631-67.193 66.091-93.555zM480 160.555v117.121c28.192-0.906 55.519-5.316 81.29-13.368-20.101-41.088-47.526-76.466-80.246-103.714-0.335 0-0.689-0.020-1.043-0.039zM579.894 257.516c22.385-8.643 43.332-20.042 62.764-33.469-35.949-30.772-80.167-51.995-128.855-60.086 26.46 26.362 48.904 57.96 66.091 93.555zM569.362 282.243c-28.311 9.115-58.334 14.195-89.362 15.14v118.617h117.712c-1.24-47.939-11.32-93.161-28.35-133.757zM480 435.687v98.93c33.646 1.024 65.993 7.147 96.37 17.679 12.954-36.008 20.258-75.403 21.341-116.629h-117.712zM271.982 602.342c22.404-17.423 46.974-32.169 73.533-43.253-13.762-38.135-21.518-79.793-22.601-123.401h-118.046c2.363 63.886 27.267 121.944 67.115 166.655zM204.867 416h118.046c1.221-50.302 11.734-97.808 29.59-140.51-24.944-9.726-48.195-22.68-69.654-38.017-46.226 46.010-75.403 108.911-77.982 178.526zM657.463 237.493c-21.459 15.317-44.71 28.291-69.674 38.017 17.876 42.702 28.37 90.208 29.61 140.51h118.046c-2.579-69.635-31.776-132.536-77.982-178.526z" />
<glyph unicode="&#xe032;" glyph-name="arrow-left" d="M618.569 182.333c8.443-8.536 8.443-22.302 0-30.839s-22.081-8.536-30.524 0l-246.645 249.070c-8.442 8.536-8.442 22.334 0 30.839l246.645 249.102c8.442 8.536 22.081 8.536 30.524 0s8.443-22.303 0-30.839l-224.91-233.667 224.91-233.667z" />
<glyph unicode="&#xe033;" glyph-name="arrow-right" d="M341.39 182.333c-8.442-8.536-8.442-22.302 0-30.839s22.081-8.536 30.524 0l246.645 249.070c8.442 8.536 8.442 22.334 0 30.839l-246.645 249.102c-8.442 8.536-22.081 8.536-30.524 0s-8.442-22.303 0-30.839l224.91-233.667-224.91-233.667z" />
<glyph unicode="&#xe034;" glyph-name="arrow-left2" d="M555.569 308.333c8.442-8.536 8.442-22.334 0-30.839-8.442-8.536-22.081-8.536-30.524 0l-120.645 123.070c-8.442 8.536-8.442 22.334 0 30.839l120.645 123.102c8.442 8.536 22.081 8.536 30.524 0s8.442-22.303 0-30.839l-98.91-107.667 98.91-107.667z" />
<glyph unicode="&#xe035;" glyph-name="arrow-right1" d="M404.431 308.333c-8.442-8.536-8.442-22.334 0-30.839 8.41-8.536 22.081-8.536 30.524 0l120.645 123.070c8.442 8.536 8.442 22.334 0 30.839l-120.645 123.102c-8.442 8.536-22.081 8.536-30.524 0s-8.442-22.302-0.031-30.807l98.941-107.699-98.91-107.667z" />
<glyph unicode="&#xe036;" glyph-name="arrow-left3" d="M605.969 560.9l0.031-289.8-252 144.9z" />
<glyph unicode="&#xe037;" glyph-name="arrow-right2" d="M354.031 560.9l-0.031-289.8 252 144.9z" />
<glyph unicode="&#xe038;" glyph-name="arrow-left1" d="M525.265 588.747c-13.168-12.852-141.813-147.923-141.813-147.923-7.025-6.867-10.522-15.845-10.522-24.822s3.496-17.955 10.522-24.822c0 0 128.647-135.072 141.813-147.893 13.167-12.852 36.855-13.733 50.903 0 14.018 13.703 15.12 32.823-0.031 49.613l-118.030 123.102 118.030 123.102c15.151 16.822 14.048 35.941 0.031 49.643-14.079 13.702-37.768 12.852-50.903 0z" />
<glyph unicode="&#xe039;" glyph-name="arrow-right3" d="M434.735 588.747c13.167-12.852 141.813-147.923 141.813-147.923 7.057-6.867 10.553-15.845 10.553-24.822s-3.496-17.955-10.553-24.822c0 0-128.647-135.072-141.813-147.893-13.167-12.852-36.824-13.733-50.903 0-14.048 13.703-15.151 32.823 0 49.613l118.062 123.102-118.030 123.102c-15.151 16.822-14.048 35.941 0 49.643s37.737 12.852 50.873 0z" />
<glyph unicode="&#xe900;" glyph-name="external" d="M747.75 666.11c0 0 0-155.61 0-155.61 0-8.82-6.93-15.75-15.75-15.75s-15.75 6.93-15.75 15.75c0 0 0 119.7 0 119.7s-224.91-225.54-224.91-225.54c-6.3-6.3-16.38-6.3-22.68 0s-6.3 16.38 0 22.68c0 0 225.54 224.91 225.54 224.91s-119.7 0-119.7 0c-8.82 0-15.75 6.93-15.75 15.75s6.93 15.75 15.75 15.75c0 0 155.61 0 155.61 0 0.63 0 1.26 0 1.89 0 9.45 0.63 17.010-8.19 15.75-17.64 0 0 0 0 0 0zM448.5 589.25c8.82 0 15.75-6.93 15.75-15.75s-6.93-15.75-15.75-15.75c0 0-157.5 0-157.5 0-10.71 0-22.68-5.67-32.13-15.12s-15.12-21.42-15.12-32.13c0 0 0-283.5 0-283.5 0-20.16 5.67-30.24 13.86-37.17s20.16-10.080 33.39-10.080c0 0 283.5 0 283.5 0 10.71 0 22.68 5.67 32.13 15.12s15.12 21.42 15.12 32.13c0 0 0 157.5 0 157.5 0 8.82 6.93 15.75 15.75 15.75s15.75-6.93 15.75-15.75c0 0 0-157.5 0-157.5 0-20.79-10.080-40.32-24.57-54.18-13.86-14.49-33.39-24.57-54.18-24.57 0 0-283.5 0-283.5 0-18.27 0-37.8 4.41-53.55 17.64-15.12 12.6-25.2 34.020-25.2 61.11 0 0 0 283.5 0 283.5 0 20.79 10.080 40.32 24.57 54.18 13.86 14.49 33.39 24.57 54.18 24.57 0 0 157.5 0 157.5 0z" />
<glyph unicode="&#xe901;" glyph-name="menu" d="M720.838 438.233h-482.506c-13.175 0-22.233-9.058-22.233-22.233s9.058-22.233 22.233-22.233h483.327c13.175 0 22.233 9.058 22.233 22.233-0.825 13.175-9.879 22.233-23.053 22.233zM720.838 284.258h-482.506c-13.175 0-22.233-9.058-22.233-22.233s9.058-22.233 22.233-22.233h483.327c13.175 0 22.233 9.058 22.233 22.233-0.825 13.175-9.879 22.233-23.053 22.233zM238.335 547.742h483.327c13.175 0 22.233 9.058 22.233 22.233s-9.058 22.233-22.233 22.233h-483.327c-13.175 0-22.233-9.058-22.233-22.233s9.058-22.233 22.233-22.233z" />
<glyph unicode="&#xe902;" glyph-name="close" d="M513.469 416l195.891 195.891c9.844 9.844 9.844 23.625 0 33.469s-23.625 9.844-33.469 0l-195.891-195.891-196.875 194.906c-8.859 9.844-23.625 9.844-32.484 0s-9.844-23.625 0-33.469l195.891-194.906-195.891-195.891c-9.844-9.844-9.844-23.625 0-33.469 4.922-3.938 9.844-6.891 16.734-6.891s11.813 1.969 16.734 6.891l196.875 195.891 196.875-194.906c4.922-3.938 11.813-6.891 16.734-6.891s11.813 1.969 16.734 6.891c9.844 9.844 9.844 23.625 0 33.469l-197.859 194.906z" />
<glyph unicode="&#xe903;" glyph-name="translation" d="M613.683 356.677c-1.641 5.467-8.383 8.024-15.308 8.024-6.743 0-13.487-2.558-15.127-8.024l-35.179-114.639c-0.181-0.731-0.364-1.459-0.364-1.822 0-5.835 8.566-9.842 14.946-9.842 4.012 0 7.106 1.271 8.020 4.737l6.92 24.242h41.74l6.93-24.242c0.909-3.467 4.007-4.737 8.016-4.737 6.381 0 14.946 4.189 14.946 9.842 0 0.545-0.181 1.095-0.364 1.822zM582.517 277.947l15.853 55.951 15.863-55.951zM707.816 469.465h-174.356v74.468l56.664 40.473c4.472 3.195 7.126 8.348 7.126 13.844 0 5.499-2.655 10.654-7.126 13.849l-57.346 40.961c-4.48 30.141-30.53 53.337-61.893 53.337h-218.698c-34.508 0-62.579-28.071-62.579-62.579v-218.702c0-34.504 28.071-62.574 62.579-62.574h174.352v-74.469l-56.664-40.473c-4.472-3.195-7.126-8.353-7.126-13.849s2.654-10.654 7.126-13.843l57.346-40.961c4.48-30.141 30.53-53.336 61.893-53.336h218.702c34.504 0 62.574 28.076 62.574 62.579v218.698c0 34.508-28.072 62.579-62.574 62.579zM252.188 396.565c-15.742 0-28.55 12.805-28.55 28.551v218.702c0 15.738 12.805 28.545 28.55 28.545h218.697c15.738 0 28.546-12.805 28.546-28.545 0-5.499 2.655-10.655 7.126-13.849l44.404-31.717-44.404-31.717c-4.472-3.195-7.126-8.353-7.126-13.849v-83.222h-10.316c-34.504 0-62.574-28.072-62.574-62.574v-10.326zM736.362 188.188c0-15.743-12.805-28.55-28.545-28.55h-218.702c-15.738 0-28.545 12.805-28.545 28.55 0 5.497-2.654 10.654-7.126 13.843l-44.404 31.717 44.404 31.717c4.472 3.195 7.126 8.353 7.126 13.849v127.575c0 15.743 12.805 28.551 28.545 28.551h218.702c15.738 0 28.545-12.805 28.545-28.551zM413.813 549.538c5.294 0 9.593 4.299 9.593 9.598s-4.299 9.599-9.593 9.599h-42.683v23.298c0 5.299-4.299 9.599-9.599 9.599-5.294 0-9.593-4.299-9.593-9.599v-23.298h-42.684c-5.294 0-9.593-4.299-9.593-9.599s4.299-9.598 9.593-9.598h13.227c2.115-20.264 10.852-38.576 23.994-52.761-10.897-6.521-23.621-10.291-37.222-10.291-5.294 0-9.593-4.295-9.593-9.593s4.299-9.599 9.593-9.599c19.416 0 37.43 6.071 52.278 16.394 14.854-10.326 32.866-16.394 52.282-16.394 5.294 0 9.593 4.299 9.593 9.599s-4.299 9.593-9.593 9.593c-13.598 0-26.325 3.757-37.222 10.291 13.143 14.183 21.879 32.498 23.994 52.761zM361.532 508.767c-10.497 10.897-17.625 25.044-19.714 40.77h39.432c-2.088-15.727-9.217-29.874-19.718-40.77z" />
<glyph unicode="&#xe904;" glyph-name="update" d="M304.239 394.668c-0.892 7.445-1.349 14.831-1.349 21.332 0 97.056 80.062 177.114 177.115 177.114 45.273 0 87.654-18.254 118.831-46.719l-15.63-15.906c-3.521-3.52-4.875-8.672-3.521-13.552 1.63-4.61 5.422-8.135 10.302-9.213 2.734-0.547 92.366-29.429 86.657-28.286 7.261-2.416 18.002 5.329 15.999 15.995-0.551 2.734-20.399 102.304-19.246 96.604-1.084 4.875-4.612 8.948-9.489 10.302-4.61 1.355-9.759 0-13.286-3.52l-13.286-13.010c-40.936 38.217-97.148 61.535-157.329 61.535-127.143 0-231.335-104.19-231.335-231.335v-0.536c0-7.645 0.351-13.549 0.757-18.063 0.536-5.987 4.956-10.89 10.849-12.073l27.847-5.566c9.066-1.812 17.218 5.786 16.122 14.907zM699.812 446.697l-27.926 5.688c-9.073 1.85-17.279-5.758-16.167-14.925 0.968-7.909 1.402-15.602 1.402-21.469 0-97.050-80.063-177.114-177.114-177.114-45.273 0-87.654 18.254-118.831 46.988l15.631 15.63c3.52 3.52 4.875 8.672 3.52 13.552-1.63 4.612-5.422 8.135-10.302 9.213-2.734 0.551-92.366 29.43-86.657 28.286-4.612 0.813-9.218-0.541-12.197-3.796-3.255-2.984-4.612-7.859-3.802-12.198 0.551-2.734 20.402-101.402 19.249-95.696 1.084-4.88 4.61-8.949 9.485-10.302 5.653-1.42 10.382 0.299 13.286 3.521l13.015 13.010c40.936-38.223 97.144-62.446 157.595-62.446 127.143 0 231.335 104.19 231.335 231.335v0.817c0 6.006-0.216 11.903-0.719 17.77-0.514 5.992-4.908 10.913-10.803 12.113z" />
<glyph unicode="&#xe905;" glyph-name="water" d="M744.548 372.631c-8.892-6.669-14.767-11.075-28.303-11.075s-19.41 4.407-28.303 11.075c-10.965 8.223-24.61 18.457-50.452 18.457s-39.486-10.234-50.45-18.457c-8.893-6.668-14.766-11.075-28.301-11.075s-19.408 4.405-28.3 11.075c-10.963 8.223-24.609 18.457-50.45 18.457s-39.483-10.234-50.448-18.457c-8.891-6.668-14.764-11.075-28.298-11.075s-19.408 4.407-28.301 11.075c-10.963 8.223-24.609 18.457-50.45 18.457s-39.484-10.234-50.45-18.457c-8.891-6.668-14.766-11.075-28.301-11.075s-19.407 4.405-28.298 11.075c-10.965 8.223-24.609 18.457-50.449 18.457v-36.914c13.535 0 19.407-4.405 28.299-11.075 10.963-8.223 24.608-18.457 50.449-18.457s39.484 10.234 50.45 18.457c8.891 6.668 14.766 11.075 28.301 11.075s19.409-4.406 28.301-11.075c10.963-8.223 24.609-18.457 50.45-18.457s39.483 10.234 50.448 18.457c8.891 6.668 14.765 11.075 28.298 11.075 13.536 0 19.408-4.406 28.301-11.075 10.963-8.223 24.609-18.457 50.449-18.457s39.486 10.234 50.45 18.457c8.892 6.668 14.766 11.075 28.301 11.075s19.41-4.406 28.303-11.075c10.964-8.223 24.61-18.457 50.452-18.457s39.487 10.234 50.452 18.457c8.893 6.669 14.767 11.075 28.303 11.075v36.914c-25.842-0.001-39.488-10.235-50.453-18.457zM716.245 276.093c-13.536 0-19.41 4.407-28.303 11.075-10.965 8.223-24.61 18.457-50.452 18.457s-39.486-10.234-50.45-18.457c-8.893-6.668-14.766-11.075-28.301-11.075s-19.408 4.405-28.3 11.075c-10.963 8.223-24.609 18.457-50.45 18.457s-39.483-10.234-50.448-18.457c-8.891-6.668-14.764-11.075-28.298-11.075s-19.408 4.407-28.301 11.075c-10.963 8.223-24.609 18.457-50.45 18.457s-39.484-10.234-50.45-18.457c-8.891-6.668-14.766-11.075-28.301-11.075s-19.407 4.405-28.298 11.075c-10.965 8.223-24.609 18.457-50.449 18.457v-36.914c13.535 0 19.407-4.405 28.299-11.075 10.963-8.223 24.608-18.457 50.449-18.457s39.484 10.235 50.45 18.457c8.891 6.667 14.766 11.075 28.301 11.075s19.409-4.406 28.301-11.075c10.963-8.223 24.609-18.457 50.45-18.457s39.483 10.235 50.448 18.457c8.891 6.667 14.765 11.075 28.298 11.075s19.408-4.406 28.3-11.075c10.963-8.223 24.609-18.457 50.449-18.457s39.486 10.235 50.45 18.457c8.892 6.667 14.766 11.075 28.301 11.075s19.41-4.406 28.303-11.075c10.964-8.223 24.61-18.457 50.452-18.457s39.487 10.235 50.452 18.457c8.893 6.669 14.767 11.075 28.303 11.075v36.914c-25.84 0-39.487-10.234-50.452-18.457-8.894-6.669-14.768-11.075-28.305-11.075zM716.245 190.63c-13.536 0-19.41 4.406-28.303 11.075-10.965 8.223-24.61 18.457-50.452 18.457s-39.486-10.235-50.45-18.457c-8.893-6.668-14.766-11.075-28.301-11.075s-19.408 4.405-28.3 11.075c-10.963 8.223-24.609 18.457-50.45 18.457s-39.483-10.235-50.448-18.457c-8.891-6.668-14.764-11.075-28.298-11.075s-19.408 4.406-28.301 11.075c-10.963 8.223-24.609 18.457-50.45 18.457s-39.484-10.235-50.45-18.457c-8.891-6.668-14.766-11.075-28.301-11.075s-19.407 4.405-28.298 11.075c-10.965 8.223-24.609 18.457-50.449 18.457v-36.914c13.535 0 19.407-4.405 28.299-11.075 10.963-8.223 24.608-18.457 50.449-18.457s39.484 10.235 50.45 18.457c8.891 6.668 14.766 11.075 28.301 11.075s19.409-4.406 28.301-11.075c10.963-8.223 24.609-18.457 50.45-18.457s39.483 10.235 50.448 18.457c8.891 6.668 14.765 11.075 28.298 11.075s19.408-4.406 28.3-11.075c10.963-8.223 24.609-18.457 50.449-18.457s39.486 10.235 50.45 18.457c8.892 6.668 14.766 11.075 28.301 11.075s19.41-4.406 28.303-11.075c10.964-8.223 24.61-18.457 50.452-18.457s39.487 10.235 50.452 18.457c8.893 6.669 14.767 11.075 28.303 11.075v36.914c-25.84 0-39.487-10.235-50.452-18.457-8.894-6.669-14.768-11.075-28.305-11.075zM591.357 522.63v-3.076h36.914v3.076c0 30.193 24.564 54.756 54.756 54.756v36.914c-29.883 0-56.467-14.377-73.213-36.576-16.745 22.196-43.329 36.576-73.213 36.576v-36.914c30.191 0 54.756-24.562 54.756-54.756zM434.543 597.003v-2.641h36.914v2.641c0 24.464 19.902 44.366 44.366 44.366v36.914c-25.283 0-47.904-11.606-62.825-29.77-14.919 18.162-37.54 29.77-62.825 29.77v-36.914c24.464 0 44.367-19.902 44.367-44.366z" />
<glyph unicode="&#xf182;" glyph-name="female" horiz-adv-x="731" d="M615 359.75q0-14.063-9.844-23.906t-23.906-9.844q-17.93 0-28.125 15.117l-79.804 119.883h-15.819v-46.407l86.836-144.492q3.164-5.273 3.164-11.602 0-9.141-6.68-15.819t-15.82-6.68h-67.5v-95.625q0-16.172-11.602-27.773t-27.773-11.602h-56.25q-16.172 0-27.773 11.602t-11.602 27.773v95.625h-67.5q-9.141 0-15.819 6.68t-6.68 15.82q0 6.328 3.164 11.602l86.836 144.492v46.406h-15.82l-79.804-119.883q-10.194-15.117-28.124-15.117-14.063 0-23.906 9.844t-9.844 23.906q0 10.195 5.625 18.634l90 135q25.664 37.617 61.875 37.617h135q36.211 0 61.875-37.617l90.001-135q5.625-8.438 5.625-18.634zM468.75 641q0-32.695-23.028-55.722t-55.722-23.028-55.722 23.028-23.028 55.722 23.028 55.722 55.722 23.028 55.722-23.028 23.028-55.722z" />
<glyph unicode="&#xf183;" glyph-name="male" horiz-adv-x="585" d="M525 483.5v-146.25q0-14.063-9.844-23.906t-23.906-9.844-23.906 9.844-9.844 23.906v123.75h-22.5v-320.625q0-16.173-11.602-27.773t-27.773-11.602-27.773 11.602-11.602 27.773v163.125h-22.5v-163.125q0-16.173-11.602-27.773t-27.773-11.602-27.773 11.602-11.602 27.773v320.625h-22.499v-123.75q0-14.063-9.844-23.906t-23.906-9.844-23.906 9.844-9.844 23.906v146.25q0 28.125 19.688 47.813t47.813 19.688h225q28.124 0 47.812-19.688t19.688-47.813zM423.75 641q0-32.695-23.028-55.722t-55.722-23.028-55.722 23.028-23.028 55.722 23.028 55.722 55.722 23.028 55.722-23.028 23.028-55.722z" />
</font>
</defs>
</svg>
