<?xml version="1.0" standalone="no"?>
<!DOCTYPE svg PUBLIC "-//W3C//DTD SVG 1.1//EN" "http://www.w3.org/Graphics/SVG/1.1/DTD/svg11.dtd" >
<svg xmlns="http://www.w3.org/2000/svg">
<metadata>Generated by IcoMoon</metadata>
<defs>
<font id="lineconsx" horiz-adv-x="1024">
<font-face units-per-em="1024" ascent="960" descent="-64" />
<missing-glyph horiz-adv-x="1024" />
<glyph unicode="&#x20;" horiz-adv-x="512" d="" />
<glyph unicode="&#xe000;" glyph-name="phone" d="M627.042 686.084h-288.75c-29.922 0-54.141-24.237-54.141-54.141v-469.219c0-29.922 24.237-54.141 54.141-54.141h288.75c29.885 0 54.141 24.255 54.141 54.141v469.219c0 29.922-24.255 54.141-54.141 54.141zM645.089 162.724c0-9.944-8.103-18.047-18.047-18.047h-288.75c-9.962 0-18.047 8.067-18.047 18.047v36.166h324.844v-36.166zM645.089 216.937h-324.844v360.865h324.844v-360.865zM645.089 595.849h-324.844v36.094c0 9.962 8.085 18.047 18.047 18.047h288.75c9.944 0 18.047-8.085 18.047-18.047v-36.094zM518.76 622.92c0-4.981-4.061-9.024-9.024-9.024h-54.141c-4.999 0-9.024 4.043-9.024 9.024v0c0 4.999 4.024 9.024 9.024 9.024h54.141c4.963 0 9.024-4.024 9.024-9.024v0zM500.714 171.82c0-4.963-4.061-9.024-9.024-9.024h-18.047c-4.981 0-9.024 4.061-9.024 9.024v0c0 4.999 4.043 9.024 9.024 9.024h18.047c4.963 0 9.024-4.024 9.024-9.024v0z" />
<glyph unicode="&#xe001;" glyph-name="news" d="M717.276 686.084h-397.031c-29.904 0-54.141-24.219-54.141-54.141v-36.094h-18.047c-29.904 0-54.141-24.219-54.141-54.141v-360.937c0-39.866 32.322-72.188 72.188-72.188h433.125c39.866 0 72.188 32.322 72.188 72.188v451.172c0 29.922-24.255 54.141-54.141 54.141zM735.323 180.771c0-19.888-16.206-36.094-36.094-36.094h-433.125c-19.905 0-36.094 16.206-36.094 36.094v360.937c0 9.962 8.085 18.047 18.047 18.047h18.047v-360.937c0-9.98 8.067-18.047 18.047-18.047s18.047 8.067 18.047 18.047v433.125c0 9.962 8.085 18.047 18.047 18.047h397.031c9.944 0 18.047-8.085 18.047-18.047v-451.172zM545.795 451.384c-4.963 0-9.024 4.043-9.024 9.024s4.061 9.024 9.024 9.024h144.375c4.999 0 9.024-4.043 9.024-9.024s-4.024-9.024-9.024-9.024h-144.375zM545.795 505.525c-4.963 0-9.024 4.043-9.024 9.024s4.061 9.024 9.024 9.024h144.375c4.999 0 9.024-4.043 9.024-9.024s-4.024-9.024-9.024-9.024h-144.375zM545.795 559.665c-4.963 0-9.024 4.043-9.024 9.024s4.061 9.024 9.024 9.024h144.375c4.999 0 9.024-4.043 9.024-9.024s-4.024-9.024-9.024-9.024h-144.375zM491.69 198.746c4.981 0 9.024-4.061 9.024-9.024 0-4.999-4.061-9.024-9.024-9.024h-144.375c-4.981 0-9.024 4.024-9.024 9.024 0 4.963 4.043 9.024 9.024 9.024h144.375zM491.69 252.886c4.981 0 9.024-4.061 9.024-9.024 0-4.999-4.061-9.024-9.024-9.024h-144.375c-4.981 0-9.024 4.024-9.024 9.024 0 4.963 4.043 9.024 9.024 9.024h144.375zM491.69 307.027c4.981 0 9.024-4.061 9.024-9.024 0-4.999-4.061-9.024-9.024-9.024h-144.375c-4.981 0-9.024 4.024-9.024 9.024 0 4.963 4.043 9.024 9.024 9.024h144.375zM690.205 198.746c4.963 0 9.024-4.061 9.024-9.024 0-4.999-4.061-9.024-9.024-9.024h-144.375c-4.999 0-9.024 4.024-9.024 9.024 0 4.963 4.024 9.024 9.024 9.024h144.375zM690.205 252.886c4.963 0 9.024-4.061 9.024-9.024 0-4.999-4.061-9.024-9.024-9.024h-144.375c-4.999 0-9.024 4.024-9.024 9.024 0 4.963 4.024 9.024 9.024 9.024h144.375zM690.205 307.027c4.963 0 9.024-4.061 9.024-9.024 0-4.999-4.061-9.024-9.024-9.024h-144.375c-4.999 0-9.024 4.024-9.024 9.024 0 4.963 4.024 9.024 9.024 9.024h144.375zM690.205 415.309c4.963 0 9.024-4.043 9.024-9.024s-4.061-9.024-9.024-9.024h-342.891c-4.981 0-9.024 4.042-9.024 9.024s4.043 9.024 9.024 9.024h342.891zM690.205 361.168c4.963 0 9.024-4.061 9.024-9.024 0-4.999-4.061-9.024-9.024-9.024h-342.891c-4.981 0-9.024 4.024-9.024 9.024 0 4.963 4.043 9.024 9.024 9.024h342.891zM356.339 451.474h126.329c9.98 0 18.047 8.067 18.047 18.047v126.256c0 9.98-8.067 18.047-18.047 18.047h-126.329c-9.98 0-18.047-8.067-18.047-18.047v-126.256c0-9.962 8.067-18.047 18.047-18.047zM374.385 577.802h90.235v-90.235h-90.235v90.235z" />
<glyph unicode="&#xe002;" glyph-name="photo" d="M681.183 686.084h-397.031c-39.866 0-72.188-32.322-72.188-72.188v-433.125c0-39.866 32.322-72.188 72.188-72.188h397.031c39.866 0 72.188 32.322 72.188 72.188v433.125c0 39.866-32.322 72.188-72.188 72.188zM717.276 180.771c0-19.888-16.206-36.094-36.094-36.094h-397.031c-19.905 0-36.094 16.206-36.094 36.094v433.125c0 19.905 16.188 36.094 36.094 36.094h397.031c19.888 0 36.094-16.188 36.094-36.094v-433.125zM663.135 613.896h-360.937c-9.98 0-18.047-8.067-18.047-18.047v-324.844c0-9.98 8.067-18.047 18.047-18.047h360.937c9.98 0 18.047 8.067 18.047 18.047v324.844c0 9.98-8.067 18.047-18.047 18.047zM663.135 595.849v-250.292l-58.652 63.706c-3.447 3.898-8.355 6.118-13.535 6.118s-10.125-2.22-13.535-6.118l-46.994-53.238-142.498 161.519c-3.429 3.899-8.355 6.118-13.536 6.118s-10.106-2.22-13.536-6.118l-58.652-67.64v145.945h360.937zM302.198 422.599l72.188 83.016 156.033-176.877 49.846-57.732h-278.066v151.594zM604.303 271.005l-61.865 71.375 48.51 54.952 72.188-79.028v-47.301h-58.833zM554.854 451.474c29.885 0 54.141 24.237 54.141 54.141s-24.255 54.141-54.141 54.141c-29.922 0-54.141-24.237-54.141-54.141s24.219-54.141 54.141-54.141zM554.854 541.709c19.888 0 36.094-16.188 36.094-36.094s-16.206-36.094-36.094-36.094c-19.924 0-36.094 16.188-36.094 36.094s16.17 36.094 36.094 36.094z" />
<glyph unicode="&#xe003;" glyph-name="shop" d="M760.589 483.959l-54.141 72.152c-2.111 2.833-4.62 5.287-7.219 7.634v86.246c0 19.924-16.17 36.094-36.094 36.094h-360.937c-19.942 0-36.094-16.17-36.094-36.094v-86.264c-2.599-2.328-5.108-4.764-7.219-7.58l-54.123-72.169c-7.002-9.312-10.846-20.844-10.846-32.502v-18.047c0-29.849 24.291-54.141 54.141-54.141v0-234.61c0-19.924 16.17-36.094 36.094-36.094h397.031c19.924 0 36.094 16.17 36.094 36.094v234.61c29.849 0 54.141 24.291 54.141 54.141v18.047c0 11.658-3.844 23.19-10.829 32.485zM663.135 649.99v-72.188h-360.937v72.188h360.937zM377.869 415.38h-75.598l72.188 126.329h39.505l-36.094-126.329zM432.749 541.709h40.894v-126.329h-76.988l36.094 126.329zM491.69 541.709h40.894l36.094-126.329h-76.988v126.329zM551.335 541.709h39.505l72.188-126.329h-75.598l-36.094 126.329zM230.010 433.427v18.047c0 3.916 1.263 7.706 3.61 10.829l54.141 72.188c3.411 4.548 8.752 7.219 14.438 7.219h51.47l-72.188-126.329h-33.423c-9.962 0-18.047 8.067-18.047 18.047zM554.854 144.677h-135.351v180.469h135.351v-180.469zM681.183 144.677h-108.281v180.469c0 9.98-8.103 18.047-18.047 18.047h-135.351c-9.962 0-18.047-8.067-18.047-18.047v-180.469h-117.305v234.61h397.031v-234.61zM735.323 433.427c0-9.98-8.067-18.047-18.047-18.047h-33.459l-72.188 126.329h51.506c5.667 0 11.027-2.671 14.419-7.219l54.141-72.188c2.364-3.122 3.627-6.912 3.627-10.829v-18.047z" />
<glyph unicode="&#xe004;" glyph-name="wallet" d="M482.667 325.146c0 19.934 16.16 36.094 36.094 36.094s36.094-16.16 36.094-36.094v0c0-19.934-16.16-36.094-36.094-36.094s-36.094 16.16-36.094 36.094v0zM717.294 451.474c-0.018 0-0.018 0 0 0l-0.018 108.281v54.141c0 29.904-24.255 54.141-54.141 54.141h-369.961c-54.736 0-99.258-44.54-99.258-99.258v-360.938c0-54.718 44.522-99.258 99.258-99.258h324.844c54.718 0 99.258 44.54 99.258 99.258v27.070c0 0 0 0 0.018 0 72.152 54.159 72.152 162.404 0 216.562zM293.174 631.943h369.961c9.944 0 18.047-8.085 18.047-18.047v-111.602c-5.667 2.021-11.694 3.321-18.047 3.321h-0.018v90.235c0 9.98-8.085 18.047-18.047 18.047h-378.985c-9.962 0-18.047-8.067-18.047-18.047v-71.159c-11.135 11.388-18.029 26.908-18.029 44.089 0 34.885 28.262 63.164 63.164 63.164zM645.071 577.802h-378.985v18.047h378.985v-18.047zM645.071 559.755v-18.047h-378.985v18.047h378.985zM645.071 523.661v-18.047h-351.896c-9.745 0-18.841 2.382-27.070 6.317v11.731h378.966zM681.183 207.841c0-34.885-28.279-63.164-63.164-63.164h-324.844c-34.903 0-63.164 28.279-63.164 63.164v284.437c17.163-14.203 39.18-22.757 63.164-22.757h369.961c9.944 0 18.047-8.085 18.047-18.047v-36.094h-162.422c-49.846 0-90.235-40.389-90.235-90.235s40.407-90.235 90.235-90.235h162.422v-27.070zM704.228 271.005h-185.467c-29.849 0-54.141 24.291-54.141 54.141s24.291 54.141 54.141 54.141h162.422c11.135 0.145 22.18 5.54 28.911 14.51 1.876 2.526 3.339 5.36 4.512 8.32 0.162 0.397 0.451 0.704 0.596 1.119 12.975-17.018 20.123-37.88 20.123-60.042 0-27.756-11.207-53.509-31.095-72.188z" />
<glyph unicode="&#xe005;" glyph-name="t-shirt" d="M757.881 569.898l-90.235 72.188c-6.407 5.125-14.383 7.904-22.558 7.904h-324.844c-8.193 0-16.152-2.779-22.558-7.904l-90.235-72.188c-11.803-9.456-16.459-25.266-11.677-39.613l36.094-108.281c3.555-10.665 11.893-19.076 22.541-22.721 3.79-1.3 7.761-1.949 11.694-1.949 6.28 0 12.506 1.643 18.047 4.836v-221.399c0-19.924 16.17-36.094 36.094-36.094h324.844c19.924 0 36.094 16.17 36.094 36.094v221.399c5.54-3.195 11.766-4.836 18.047-4.836 3.953 0 7.904 0.65 11.694 1.949 10.648 3.646 18.968 12.055 22.523 22.721l36.094 108.281c4.801 14.348 0.145 30.157-11.658 39.613zM550.415 613.896c-9.98-20.952-36.418-36.094-67.748-36.094s-57.786 15.142-67.748 36.094h135.496zM699.229 433.427l-54.141 36.094v-288.75h-324.844v288.75l-54.141-36.094-36.094 108.281 90.235 72.188h75.382c10.052-31.077 45.045-54.141 87.040-54.141 41.977 0 76.988 23.064 87.022 54.141h75.4l90.235-72.188-36.094-108.281z" />
<glyph unicode="&#xe006;" glyph-name="heart" d="M720.759 591.067c-65.492 64.896-170.218 66.25-238.056 5.198-67.856 61.053-172.546 59.699-238.074-5.198-67.513-66.845-67.513-175.217 0-242.099 19.292-19.112 199.472-197.451 199.472-197.451 21.349-21.151 55.873-21.151 77.204 0 0 0 197.289 195.303 199.472 197.451 67.532 66.882 67.532 175.253-0.018 242.099zM695.043 374.45l-199.472-197.451c-7.092-7.056-18.661-7.056-25.717 0l-199.472 197.451c-53.238 52.697-53.238 138.438 0 191.134 51.325 50.802 133.835 52.588 187.85 4.007l24.471-22.017 24.454 22.017c54.032 48.582 136.543 46.813 187.868-4.007 53.238-52.679 53.238-138.419 0.018-191.134zM360.904 550.714c4.999 0 9.024-4.043 9.024-9.024s-4.043-9.024-9.024-9.024h-0.018c-32.376 0-58.635-26.258-58.635-58.635v-0.018c0-4.981-4.043-9.024-9.024-9.024s-9.024 4.043-9.024 9.024v0c0 42.338 34.307 76.645 76.627 76.681 0.036 0 0.036 0.018 0.072 0.018z" />
<glyph unicode="&#xe007;" glyph-name="cloud" d="M661.583 448.893c-7.886 82.348-76.446 146.955-160.869 146.955-65.312 0-121.221-38.765-147.010-94.385-7.761 2.455-15.846 4.151-24.417 4.151-44.846 0-81.211-36.382-81.211-81.211 0-8.915 1.787-17.343 4.439-25.338-34.885-20.339-58.581-57.66-58.581-100.954 0-64.788 52.517-117.305 117.305-117.305v-0.036l324.825 0.036c74.768 0 135.351 60.583 135.351 135.351 0 65.979-47.301 120.787-109.833 132.735zM636.065 216.901v-0.036h-324.825c-44.775 0.036-81.211 36.455-81.211 81.247 0 28.875 15.214 54.952 40.678 69.788 24.743 14.203 26.438 17.018 16.062 42.536-1.751 5.252-2.599 9.817-2.599 13.95 0 24.887 20.231 45.117 45.117 45.117 0 0 11.839 0.848 24.417-4.151 20.7-8.247 22.956-0.361 32.737 20.916 20.7 44.63 65.546 73.487 114.273 73.487 64.969 0 118.676-49.142 124.956-114.309 2.22-25.843 2.22-25.843 29.145-31.997 46.669-8.915 80.507-49.846 80.507-97.29 0-54.736-44.522-99.258-99.258-99.258z" />
<glyph unicode="&#xe008;" glyph-name="display" d="M681.183 595.921l-397.031-0.072c-9.98 0-18.047-7.995-18.047-17.975v-252.656c0-9.98 8.067-18.047 18.047-18.047h397.031c9.98 0 18.047 8.067 18.047 18.047v252.656c0 9.98-8.067 18.047-18.047 18.047zM681.183 325.146h-397.031v252.729h397.031v-252.729zM717.276 668.036h-469.219c-29.904 0-54.141-24.219-54.141-54.141v-360.937c0-29.849 24.147-54.032 53.96-54.104h180.649v-21.963l-112.648-14.636c-8.049-2.003-13.679-9.222-13.679-17.506 0-9.98 8.067-18.047 18.047-18.047h324.844c9.98 0 18.047 8.067 18.047 18.047 0 8.284-5.631 15.503-13.679 17.524l-112.648 14.618v21.963h180.649c29.814 0.072 53.96 24.255 53.96 54.104v360.937c0 29.922-24.255 54.141-54.141 54.141zM735.323 252.959c0-9.944-8.103-18.047-18.047-18.047h-469.219c-9.962 0-18.047 8.103-18.047 18.047v360.937c0 9.962 8.085 18.047 18.047 18.047h469.219c9.944 0 18.047-8.085 18.047-18.047v-360.937z" />
<glyph unicode="&#xe009;" glyph-name="diamond" d="M760.841 511.444l-91.679 91.696c-6.768 6.768-15.971 10.576-25.518 10.576h-321.938c-9.565 0-18.75-3.808-25.518-10.576l-91.679-91.696c-7.092-7.074-10.63-16.405-10.594-25.753 0.054-8.482 3.086-16.946 9.132-23.75l252.638-269.043c6.858-7.724 16.675-12.128 26.98-12.128s20.123 4.404 26.962 12.128l252.656 269.043c6.172 6.948 9.204 15.647 9.132 24.327-0.072 9.132-3.627 18.227-10.576 25.175zM522.713 487.388h-80.11l40.064 33.368 40.046-33.368zM496.78 532.504l49.304 41.111 36.418-36.418-45.695-38.061-40.028 33.368zM428.526 499.136l-45.695 38.061 36.418 36.418 49.322-41.111-40.046-33.368zM527.604 469.341l-44.937-224.737-44.937 224.737h89.874zM546.011 469.341h88.538l-132.807-221.417 44.269 221.417zM550.866 487.388l44.449 37.014 37.014-37.014h-81.463zM567.613 577.622h63.38l-34.578-28.821-28.803 28.821zM482.667 544.235l-40.064 33.387h80.092l-40.028-33.387zM368.899 548.801l-34.578 28.821h63.399l-28.821-28.821zM370.018 524.402l44.432-37.014h-81.446l37.014 37.014zM419.322 469.341l44.269-221.417-132.825 221.417h88.556zM423.184 280.245l-177.581 189.095h64.138l113.443-189.095zM655.592 469.341h64.157l-177.617-189.131 113.46 189.131zM657.848 487.388l-48.6 48.6 41.453 34.56 83.142-83.16h-75.995zM314.578 570.584l41.526-34.596-48.618-48.6h-77.367l84.459 83.196z" />
<glyph unicode="&#xe00a;" glyph-name="banknote" d="M760.859 495.039l-180.469 180.469c-8.951 8.951-21.927 12.543-34.216 9.51-6.479-1.589-12.272-4.927-16.856-9.51-4.097-4.097-7.183-9.168-8.951-14.834-8.175-26.511-22.306-49.557-43.223-70.455-27.936-27.919-64.319-49.069-102.813-71.429-40.858-23.678-83.070-48.221-117.665-82.799-29.398-29.434-49.412-62.171-61.143-100.178-3.953-12.832-0.505-26.71 8.951-36.202l180.469-180.469c8.951-8.951 21.927-12.543 34.216-9.51 6.479 1.624 12.271 4.927 16.856 9.51 4.097 4.097 7.183 9.168 8.951 14.87 8.193 26.511 22.324 49.557 43.258 70.455 27.919 27.919 64.283 49.033 102.813 71.375 40.822 23.713 83.052 48.257 117.629 82.835 29.398 29.398 49.412 62.171 61.161 100.178 3.934 12.813 0.469 26.746-8.97 36.184zM410.479 144.677c-59.771 59.771-120.697 120.716-180.469 180.469 51.289 166.050 273.591 158.794 324.844 324.844 59.771-59.753 120.716-120.697 180.505-180.469-51.308-166.013-273.608-158.794-324.879-324.844zM546.95 417.185c-5.883 4.927-11.803 8.284-17.759 9.944-5.919 1.66-11.839 2.328-17.83 1.895-5.92-0.451-11.983-1.805-18.047-4.132-6.064-2.364-12.163-4.927-18.299-7.904-9.691 11.135-19.382 22.144-29.074 32.358 4.367 3.953 8.608 5.956 12.687 6.099 4.097 0.181 8.031-0.253 11.766-1.191 3.808-0.956 7.291-1.768 10.503-2.4 3.249-0.632 6.064 0.072 8.536 2.148 2.617 2.256 4.061 5.179 4.259 8.698 0.181 3.555-1.155 7.020-4.132 10.395-3.808 4.367-8.392 7.020-13.896 7.995-5.432 0.956-10.991 0.885-16.783-0.379-5.703-1.299-11.135-3.447-16.278-6.479s-9.276-6.136-12.344-9.168c-1.173 1.119-2.346 2.22-3.519 3.321-1.299 1.191-2.923 1.841-4.873 1.805-1.967 0-3.591-0.848-4.927-2.4-1.3-1.516-1.895-3.284-1.66-5.143 0.181-1.931 0.956-3.411 2.292-4.548 1.173-0.993 2.346-1.967 3.519-2.996-4.62-5.576-8.428-11.731-11.423-18.227-3.032-6.515-4.836-12.975-5.505-19.238-0.704-6.317-0.036-12.092 1.895-17.452 1.931-5.396 5.505-9.98 10.719-14.311 8.5-7.056 18.498-10.052 30.102-9.384 11.568 0.704 24.039 4.151 37.448 11.351 10.648-12.308 21.332-24.525 31.997-35.877-4.512-3.808-8.464-5.991-11.947-6.695-3.483-0.74-6.587-0.667-9.402 0.181-2.815 0.885-5.432 2.148-7.832 3.772-2.4 1.66-4.764 3.068-7.129 4.223-2.328 1.155-4.728 1.805-7.183 1.841s-5.071-1.155-7.959-3.627c-2.96-2.58-4.439-5.576-4.439-8.951 0-3.357 1.552-6.768 4.584-10.214 3.068-3.447 7.056-6.352 11.875-8.644s10.269-3.735 16.26-4.132c5.991-0.415 12.308 0.488 18.968 2.96 6.695 2.437 13.318 6.84 19.851 13.391 3.141-3.068 6.317-5.991 9.475-8.807 1.336-1.155 2.96-1.732 4.927-1.588 1.895 0.072 3.555 0.956 4.873 2.545 1.336 1.624 1.895 3.411 1.697 5.287-0.181 1.895-0.956 3.357-2.256 4.404-3.176 2.545-6.352 5.216-9.51 8.031 5.396 6.623 9.728 13.607 12.94 20.52 3.212 6.948 5.108 13.644 5.739 19.851 0.632 6.244-0.108 11.875-2.148 16.982-2.021 5.179-5.613 9.619-10.756 13.896zM446.049 404.949c-5.108-0.216-9.565 1.48-13.463 5.252-1.66 1.588-2.815 3.519-3.519 5.811-0.74 2.292-0.993 4.801-0.704 7.543 0.253 2.707 1.065 5.54 2.472 8.392 1.336 2.852 3.321 5.703 5.847 8.464 9.15-9.095 18.281-19.076 27.431-29.398-6.93-3.808-12.958-5.847-18.065-6.064zM531.177 368.82c-1.624-2.996-3.483-5.667-5.667-7.995-10.125 10.214-20.231 21.44-30.319 32.953 2.58 1.155 5.287 2.364 8.212 3.591s5.847 2.040 8.771 2.545c2.996 0.451 5.956 0.325 8.915-0.379 2.923-0.74 5.703-2.328 8.284-4.836 2.545-2.545 4.151-5.179 4.801-8.031 0.704-2.887 0.74-5.811 0.253-8.807-0.523-3.014-1.588-6.010-3.249-9.041zM459.513 285.804c3.555 2.869 8.789 2.725 12.055-0.596 3.537-3.519 3.537-9.276 0-12.795-0.289-0.289-0.596-0.488-0.92-0.74l0.036-0.036c-11.423-8.681-20.808-16.495-30.932-26.619-9.15-9.132-17.415-18.75-24.562-28.514l-11.532-15.791c-0.361-0.65-0.794-1.245-1.336-1.805-3.537-3.519-9.294-3.519-12.813 0-3.068 3.068-3.447 7.796-1.191 11.315l-0.036 0.036 12.344 16.856c7.706 10.539 16.567 20.862 26.366 30.662 10.196 10.233 21.205 19.365 32.485 28.027h0.036zM525.582 546.852c9.132 9.132 17.379 18.715 24.544 28.532l11.983 16.423c0.433 0.776 0.92 1.552 1.588 2.22 3.555 3.555 9.312 3.555 12.867 0 3.375-3.393 3.519-8.752 0.451-12.344l0.036-0.036-12.344-16.928c-7.724-10.54-16.567-20.826-26.366-30.626-10.196-10.196-21.187-19.365-32.466-28.027l-0.072 0.036c-3.592-3.303-9.168-3.23-12.615 0.253-3.555 3.555-3.555 9.348 0 12.904 0.632 0.667 1.371 1.137 2.111 1.552 10.611 8.103 20.844 16.603 30.283 26.042z" />
<glyph unicode="&#xe00b;" glyph-name="data" d="M482.667 686.084c-121.709 0-252.656-36.69-252.656-117.305v-342.891c0-80.58 130.948-117.305 252.656-117.305 121.69 0 252.656 36.725 252.656 117.305v342.891c0 80.615-130.984 117.305-252.656 117.305zM699.229 225.889c0-44.829-96.966-81.211-216.562-81.211-119.615 0-216.563 36.383-216.563 81.211v67.424c37.284-38.422 127.231-58.4 216.563-58.4s179.278 19.978 216.562 58.4v-67.424zM699.229 334.17h-0.072c0-0.181 0.072-0.379 0.072-0.559 0-44.557-96.966-80.651-216.562-80.651s-216.563 36.094-216.563 80.651c0 0.181 0.072 0.379 0.072 0.559h-0.072v67.424c37.284-38.422 127.231-58.4 216.563-58.4s179.278 19.978 216.562 58.4v-67.424zM699.229 442.451h-0.072c0-0.181 0.072-0.379 0.072-0.559 0-44.557-96.966-80.651-216.562-80.651s-216.563 36.094-216.563 80.651c0 0.181 0.072 0.379 0.072 0.559h-0.072v62.009c47.301-36.040 133.998-52.986 216.563-52.986s169.262 16.946 216.562 52.986v-62.009zM482.667 487.568c-119.615 0-216.563 36.383-216.563 81.211 0 44.864 96.948 81.211 216.563 81.211 119.597 0 216.562-36.347 216.562-81.211 0-44.829-96.966-81.211-216.562-81.211zM627.042 216.865c0 9.967 8.079 18.047 18.047 18.047s18.047-8.079 18.047-18.047v0c0-9.967-8.079-18.047-18.047-18.047s-18.047 8.079-18.047 18.047v0zM627.042 325.146c0 9.967 8.079 18.047 18.047 18.047s18.047-8.079 18.047-18.047v0c0-9.967-8.079-18.047-18.047-18.047s-18.047 8.079-18.047 18.047v0zM627.042 433.427c0 9.967 8.079 18.047 18.047 18.047s18.047-8.080 18.047-18.047v0c0-9.967-8.079-18.047-18.047-18.047s-18.047 8.079-18.047 18.047v0z" />
<glyph unicode="&#xe00c;" glyph-name="music" d="M758.531 677.62c-6.551 5.505-14.762 8.464-23.19 8.464-2.075 0-4.186-0.181-6.28-0.559l-306.833-54.141c-17.253-3.031-29.814-18.011-29.814-35.535v-309.864c-18.318 13.283-42.085 21.115-68.47 21.115-15.339 0-30.68-2.545-45.641-7.508-34.253-11.423-61.72-34.326-75.364-62.875-10.54-22.072-11.893-46.073-3.862-67.603 13.734-36.779 52.751-60.529 99.402-60.529 15.339 0 30.68 2.509 45.622 7.508 34.235 11.388 61.703 34.289 75.345 62.804 5.865 12.308 8.608 25.194 8.717 37.971h0.325v288.75c2.075 0 4.186 0.181 6.28 0.523l300.57 53.040v-219.053c-18.335 13.283-42.085 21.115-68.488 21.115-15.339 0-30.697-2.545-45.641-7.508-34.253-11.423-61.72-34.326-75.328-62.875-10.539-22.072-11.911-46.074-3.88-67.603 13.752-36.779 52.733-60.529 99.402-60.529 15.34 0 30.697 2.509 45.641 7.508 34.217 11.388 61.684 34.289 75.328 62.804 5.883 12.308 8.608 25.194 8.735 37.971h0.325v378.985c0 10.648-4.728 20.79-12.904 27.63zM332.661 150.309c-43.24-14.419-87.942-0.325-99.781 31.401-11.875 31.762 13.553 69.192 56.776 83.611 43.24 14.419 87.942 0.361 99.781-31.401 11.893-31.744-13.536-69.192-56.776-83.611zM674.92 204.449c-43.277-14.419-87.979-0.325-99.818 31.401-11.874 31.762 13.571 69.192 56.776 83.611 43.277 14.419 87.979 0.361 99.818-31.401 11.893-31.744-13.517-69.192-56.776-83.611zM734.601 595.849l-306.833-54.141v54.141l306.833 54.141v-54.141z" />
<glyph unicode="&#xe00d;" glyph-name="location" d="M482.702 365.824c59.717 0 108.281 48.582 108.281 108.281s-48.564 108.281-108.281 108.281c-59.717 0-108.281-48.564-108.281-108.281s48.564-108.281 108.281-108.281zM482.702 564.339c49.773 0 90.235-40.461 90.235-90.235s-40.461-90.234-90.235-90.234c-49.773 0-90.235 40.461-90.235 90.234s40.461 90.235 90.235 90.235zM482.667 686.084c-119.434 0-216.563-95.937-216.563-216.581 0-126.328 108.3-255.562 187.254-346.392 0.289-0.361 12.958-14.527 28.622-14.527 0.036 0 1.317 0 1.39 0 15.647 0 28.333 14.167 28.622 14.527 78.991 90.83 187.272 220.046 187.272 346.392 0 120.643-97.146 216.581-216.598 216.581zM484.778 146.789c-0.379-0.361-1.48-1.155-2.437-1.768-0.181 0.488-1.516 1.552-2.328 2.4-66.142 76.104-177.816 204.543-177.816 322.083 0 99.511 80.976 180.487 180.469 180.487 99.546 0 180.504-80.976 180.504-180.505 0-117.521-111.674-245.961-178.393-322.696z" />
<glyph unicode="&#xe00e;" glyph-name="star" d="M769.269 459.469c-4.999 14.419-17.83 24.977-33.279 27.269l-150.258 22.342-65.312 135.604c-6.876 14.239-21.584 23.353-37.754 23.353s-30.878-9.113-37.754-23.353l-65.312-135.604-150.276-22.342c-15.43-2.292-28.262-12.85-33.242-27.269-4.963-14.456-1.209-30.373 9.691-41.237l110.122-109.941-25.537-152.514c-2.599-15.358 4.061-30.77 17.109-39.758 7.165-4.927 15.592-7.435 24.020-7.435 6.93 0 13.878 1.697 20.177 5.071l131.003 70.527 131.020-70.527c6.298-3.375 13.247-5.071 20.158-5.071 8.428 0 16.856 2.509 24.039 7.435 13.048 8.987 19.671 24.4 17.090 39.758l-25.554 152.514 110.158 109.941c10.883 10.883 14.618 26.8 9.691 41.237zM619.607 336.642c-9.24-9.204-13.427-22.18-11.315-34.903l25.555-152.514-131.020 70.491c-6.28 3.393-13.21 5.071-20.177 5.071-6.93 0-13.878-1.697-20.158-5.071l-131.020-70.491 25.554 152.514c2.129 12.723-2.057 25.699-11.297 34.903l-110.122 109.941 150.258 22.379c13.733 2.040 25.554 10.63 31.455 22.884l65.347 135.568 65.33-135.586c5.92-12.254 17.722-20.826 31.438-22.884l150.294-22.379-110.122-109.924z" />
<glyph unicode="&#xe00f;" glyph-name="tv" d="M594.016 530.447c-48.853 10.052-98.445 15.141-147.352 15.141s-98.482-5.089-147.352-15.142c-6.317-1.3-11.478-5.883-13.517-12.038-26.023-79.063-26.023-159.228 0-238.291 2.021-6.136 7.183-10.72 13.517-12.019 48.871-10.034 98.445-15.141 147.352-15.141 48.889 0 98.499 5.108 147.352 15.16 6.352 1.299 11.496 5.883 13.535 12.019 26.006 79.063 26.006 159.228 0 238.291-2.040 6.136-7.2 10.719-13.535 12.019zM590.389 285.768c-95.811-19.671-191.64-19.671-287.433 0-24.922 75.671-24.922 151.323 0 227.012 95.811 19.689 191.64 19.689 287.433 0 24.922-75.671 24.922-151.323 0-227.012zM750.735 572.027c-3.483 14.69-15.791 25.663-30.77 27.467-78.684 9.565-158.488 14.402-237.208 14.402-78.702 0-158.505-4.836-237.19-14.383-14.979-1.822-27.269-12.777-30.752-27.485-27.594-115.915-27.594-233.455 0-349.387 3.483-14.691 15.773-25.663 30.752-27.45 37.916-4.62 76.085-7.995 114.255-10.395-2.057-1.317-3.393-2.653-3.393-4.024 0-9.98 56.559-18.047 126.329-18.047s126.329 8.067 126.329 18.047c0 1.371-1.336 2.707-3.393 4.024 38.169 2.4 76.338 5.775 114.237 10.395 14.979 1.805 27.286 12.759 30.77 27.45 27.63 115.933 27.63 233.472 0.036 349.387zM715.615 230.995c-155.239-18.823-310.479-18.823-465.7 0-26.403 110.898-26.403 221.796 0 332.676 155.239 18.841 310.479 18.841 465.7 0 26.403-110.88 26.403-221.778 0-332.676zM672.267 469.521c14.943 0 27.070 12.127 27.070 27.070s-12.127 27.070-27.070 27.070-27.070-12.127-27.070-27.070 12.128-27.070 27.070-27.070zM672.267 505.615c4.963 0 9.024-4.061 9.024-9.024s-4.061-9.024-9.024-9.024-9.024 4.061-9.024 9.024 4.043 9.024 9.024 9.024zM690.314 289.052c4.963 0 9.024-4.024 9.024-9.024 0-4.963-4.061-9.024-9.024-9.024h-54.141c-4.999 0-9.024 4.061-9.024 9.024 0 4.999 4.024 9.024 9.024 9.024h54.141zM708.361 343.193c4.963 0 9.024-4.024 9.024-9.024 0-4.963-4.061-9.024-9.024-9.024h-54.141c-4.999 0-9.024 4.061-9.024 9.024 0 4.999 4.024 9.024 9.024 9.024h54.141zM708.361 397.334c4.963 0 9.024-4.043 9.024-9.024s-4.061-9.024-9.024-9.024h-54.141c-4.999 0-9.024 4.042-9.024 9.024s4.024 9.024 9.024 9.024h54.141zM437.64 473.059c4.981 0.199 9.024-3.681 9.024-8.662s-4.061-9.168-9.024-9.348l-67.657-4.638c-4.927-0.505-9.51-4.945-10.179-9.853l-3.014-34.199c-0.199-4.963-4.421-9.024-9.348-9.024-4.945 0-8.789 4.061-8.536 9.024l5.505 50.278c0.831 4.909 5.54 9.385 10.467 9.944l82.763 6.479z" />
<glyph unicode="&#xe010;" glyph-name="eye" d="M770.785 401.376c-0.181 0.758-0.072 1.57-0.361 2.31-0.108 0.307-0.379 0.469-0.488 0.758-0.181 0.433-0.145 0.92-0.379 1.336-52.336 100.178-166.266 171.95-286.458 171.95-120.21 0-234.122-71.664-286.494-171.825-0.235-0.415-0.199-0.902-0.379-1.336-0.126-0.289-0.379-0.451-0.488-0.758-0.289-0.74-0.181-1.552-0.361-2.31-0.325-1.354-0.632-2.653-0.632-4.043s0.325-2.671 0.632-4.042c0.181-0.758 0.072-1.57 0.361-2.31 0.108-0.307 0.379-0.469 0.488-0.758 0.181-0.434 0.145-0.92 0.379-1.336 52.354-100.178 166.284-171.95 286.494-171.95 120.192 0 234.122 71.664 286.458 171.825 0.253 0.415 0.216 0.902 0.379 1.336 0.108 0.289 0.379 0.451 0.488 0.758 0.289 0.74 0.181 1.552 0.361 2.31 0.307 1.371 0.632 2.671 0.632 4.043s-0.325 2.689-0.632 4.042zM483.082 253.175c-101.333 0-200.536 57.588-249.968 144.285 49.701 86.806 148.76 144.194 249.968 144.194 101.297 0 200.519-57.605 249.949-144.285-49.701-86.824-148.742-144.194-249.949-144.194zM483.082 469.54c4.981 0 8.987-4.024 8.987-9.024 0-4.963-4.024-9.005-8.987-9.005v-0.018c-29.849 0-54.123-24.273-54.123-54.086 0-4.981-4.043-9.024-9.005-9.024-4.981 0-9.024 4.043-9.024 9.024 0 39.793 32.25 72.043 72.043 72.115 0.036 0 0.072 0.018 0.108 0.018zM482.667 523.661c-69.788 0-126.329-56.559-126.329-126.329s56.559-126.329 126.329-126.329c69.751 0 126.329 56.577 126.329 126.329 0 69.788-56.577 126.329-126.329 126.329zM482.667 289.052c-59.717 0-108.281 48.564-108.281 108.281s48.564 108.281 108.281 108.281c59.717 0 108.281-48.564 108.281-108.281s-48.564-108.281-108.281-108.281z" />
<glyph unicode="&#xe011;" glyph-name="megaphone" d="M645.089 686.084c-37.050 0-66.159-25.446-87.058-64.716l-0.379 0.216c-30.355-59.428-75.544-97.922-125.047-97.922h-166.501c-40.479 0-72.188-39.649-72.188-90.235 0-50.621 31.708-90.235 72.188-90.235 19.905-0.072 36.004-16.17 36.004-36.094v-162.422c0-19.942 16.17-36.094 36.094-36.094h72.188c19.924 0 36.094 16.152 36.094 36.094v18.047c0 18.047-18.047 26.114-18.047 36.094v126.329c0 0.415 0.289 0.704 0.324 1.119 0.181 2.58 0.885 4.963 2.021 7.129 0.325 0.596 0.667 1.065 1.065 1.588 1.444 2.148 3.266 3.916 5.486 5.287 0.108 0.072 0.144 0.181 0.253 0.253 0.072 0 0.126 0.072 0.199 0.072 1.444 0.812 3.176 0.993 4.801 1.444 45.55-4.836 86.787-41.598 115.085-96.966l0.451 0.216c20.917-39.143 49.954-64.518 86.968-64.518 82.944 0 126.329 127.104 126.329 252.656s-43.385 252.656-126.329 252.656zM554.854 433.427c0 18.715 1.101 36.798 2.96 54.141h51.181c19.924 0 36.094-24.255 36.094-54.141 0-29.922-16.17-54.141-36.094-54.141h-51.181c-1.859 17.343-2.96 35.39-2.96 54.141zM230.010 433.427c0 29.886 16.17 54.141 36.094 54.141h126.581c-11.189-13.156-18.299-32.25-18.299-54.141 0-21.927 7.111-41.021 18.299-54.141h-126.581c-19.924 0-36.094 24.219-36.094 54.141zM410.389 144.677h-72.187v162.422c0 13.156-3.519 25.446-9.691 36.094h12.597v-0.216h54.285c-1.931-5.613-3.050-11.568-3.050-17.83v-126.329c0-17.379 9.709-28.947 15.503-35.841 0.794-0.956 1.732-1.931 2.545-2.996v-15.304zM432.605 379.070h-4.078v0.216c-19.924 0-36.094 24.219-36.094 54.141 0 29.886 16.17 54.141 36.094 54.141h4.078c34.037 0 65.907 13.391 93.952 36.418-5.162-29.056-7.796-59.825-7.796-90.559 0-30.842 2.635-61.72 7.832-90.794-28.063 23.046-59.952 36.437-93.989 36.437zM645.089 216.865c-36.418 0-67.676 51.813-81.951 126.329h45.857c40.461 0 72.188 39.613 72.188 90.235 0 50.585-31.727 90.235-72.188 90.235h-45.857c14.275 74.479 45.533 126.329 81.951 126.329 49.846 0 90.235-96.966 90.235-216.563s-40.389-216.562-90.235-216.562z" />
<glyph unicode="&#xe012;" glyph-name="study" d="M771.417 541.709c0 25.374-17.271 47.066-41.977 52.769l-234.844 54.195c-3.934 0.885-7.94 1.317-11.929 1.317s-7.995-0.434-12.182-1.371l-234.592-54.141c-24.724-5.703-41.977-27.395-41.977-52.769s17.271-47.066 41.959-52.769l48.275-11.135v-152.659c0-47.897 54.827-90.235 198.516-90.235s198.516 42.338 198.516 90.235v152.659l48.257 11.135c24.706 5.703 41.977 27.396 41.977 52.769zM645.089 325.146c0-19.942-54.141-54.141-162.422-54.141s-162.422 34.199-162.422 54.141v144.321l150.474-34.722c3.934-0.885 7.959-1.317 11.947-1.317s8.013 0.434 12.163 1.371l150.258 34.668v-144.321zM486.728 469.972c-1.354-0.289-2.707-0.451-4.061-0.451s-2.725 0.162-4.061 0.451l-234.61 54.141c-8.193 1.895-13.987 9.186-13.987 17.595s5.793 15.701 13.987 17.595l234.61 54.141c1.336 0.289 2.689 0.451 4.061 0.451s2.725-0.162 4.061-0.451l234.61-54.141c8.175-1.895 13.987-9.186 13.987-17.595s-5.811-15.701-13.987-17.595l-234.61-54.141zM717.276 451.474c0 9.98 8.067 18.047 18.047 18.047 9.961 0 18.047-8.067 18.047-18.047v-162.422c0-9.98-8.085-18.047-18.047-18.047-9.98 0-18.047 8.067-18.047 18.047v162.422zM735.323 252.959c19.924 0 36.094-52.264 36.094-72.188s-16.17-36.094-36.094-36.094c-19.942 0-36.094 16.17-36.094 36.094s16.152 72.188 36.094 72.188z" />
<glyph unicode="&#xe013;" glyph-name="bubble" d="M482.667 559.755c4.981 0 9.024-4.043 9.024-9.024s-4.061-9.024-9.024-9.024c-96.135 0-180.469-50.604-180.469-108.281 0-4.981-4.043-9.024-9.024-9.024s-9.024 4.043-9.024 9.024c0 68.47 90.902 126.329 198.516 126.329zM482.667 649.99c-159.48 0-288.75-96.966-288.75-216.563 0-74.479 50.153-140.152 126.473-179.133 0-0.488-0.145-0.812-0.145-1.336 0-32.358-24.165-67.189-34.794-85.47 0.018 0 0.036 0 0.036 0-0.848-1.986-1.336-4.169-1.336-6.461 0-9.024 7.309-16.351 16.351-16.351 1.697 0 4.674 0.451 4.602 0.253 56.396 9.24 109.526 61.053 121.871 76.068 18.029-2.653 36.617-4.132 55.693-4.132 159.444 0 288.75 96.966 288.75 216.562s-129.288 216.563-288.75 216.563zM482.667 252.959c-16.549 0-33.531 1.263-50.459 3.735-1.751 0.289-3.501 0.379-5.233 0.379-10.719 0-20.989-4.764-27.901-13.174-7.724-9.402-29.706-30.391-55.675-45.821 7.038 16.152 12.543 34.253 12.921 52.914 0.108 1.155 0.162 2.328 0.162 3.32 0 13.571-7.597 25.969-19.671 32.141-66.882 34.145-106.802 89.097-106.802 146.974 0 99.511 113.334 180.469 252.656 180.469 139.286 0 252.656-80.958 252.656-180.469s-113.352-180.469-252.656-180.469z" />
<glyph unicode="&#xe014;" glyph-name="sound" d="M681.146 433.373c0 89.548-72.855 162.422-162.422 162.404v0.072c-4.963 0.018-8.987 4.061-8.987 9.024 0 4.981 4.024 9.024 9.024 9.024 0.181 0 0.325-0.072 0.451-0.108 99.402-0.235 179.873-80.796 179.981-180.216 0-0.054 0.036-0.090 0.036-0.145 0-4.981-4.061-9.005-9.024-9.005s-8.987 4.007-9.024 8.951h-0.036zM358.522 670.238c-10.341 10.359-24.201 15.846-38.296 15.846-6.966 0-13.986-1.336-20.682-4.115-20.248-8.374-33.441-28.117-33.441-50.026l-0.018-248.271-56.306-56.342c-21.151-21.115-21.151-55.404 0-76.555l126.329-126.329c10.576-10.576 24.417-15.863 38.277-15.863s27.702 5.287 38.277 15.863l56.325 56.325h248.253c21.927 0 41.67 13.174 50.008 33.423 8.392 20.231 3.772 43.529-11.731 59.013l-396.995 397.031zM443.469 206.289l-56.325-56.325c-4.602-4.584-9.98-5.287-12.759-5.287s-8.157 0.704-12.759 5.287l-126.329 126.329c-4.602 4.62-5.287 9.98-5.287 12.759s0.686 8.175 5.287 12.759l56.306 56.325c0.162 0.181 0.216 0.379 0.379 0.559l152.045-152.063c-0.162-0.127-0.397-0.162-0.559-0.343zM468.987 216.865c-2.798 0-5.396-0.993-8.067-1.588l-160.346 160.346c0.613 2.671 1.606 5.27 1.606 8.049l0.018 217.393 384.164-384.2h-217.375zM733.915 228c-2.779-6.768-9.348-11.135-16.675-11.135h-5.36l-409.682 409.718v5.36c0 7.327 4.367 13.878 11.135 16.675 2.22 0.92 4.53 1.371 6.894 1.371 4.836 0 9.367-1.877 12.759-5.27l397.013-397.050c5.179-5.179 6.731-12.904 3.916-19.671zM518.725 649.99c-9.944 0.018-18.011 8.103-18.011 18.047 0 9.98 8.067 18.047 18.047 18.047 0.181 0 0.325-0.072 0.451-0.090 139.267-0.253 252.060-113.136 252.169-252.422 0-0.054 0.036-0.090 0.036-0.145 0-9.98-8.067-18.047-18.047-18.047-9.944 0-18.011 8.049-18.047 17.975h-0.036c0 119.416-97.146 216.563-216.563 216.563v0.072z" />
<glyph unicode="&#xe015;" glyph-name="video" d="M735.323 577.802h-16.008c-9.475 0-18.57-3.735-25.338-10.395l-48.889-48.221v22.523c0 29.904-24.255 54.141-54.141 54.141h-342.891c-29.849 0-54.141-24.273-54.141-54.141v-288.75c0-29.885 24.237-54.141 54.141-54.141h342.891c29.885 0 54.141 24.255 54.141 54.141v22.035l48.889-48.221c6.768-6.66 15.863-10.395 25.338-10.395h16.008c19.924 0 36.094 16.152 36.094 36.094v289.238c0 19.942-16.17 36.094-36.094 36.094zM248.058 234.911c-9.962 0-18.047 8.103-18.047 18.047v288.75c0 9.98 8.067 18.047 18.047 18.047h342.891c9.944 0 18.047-8.085 18.047-18.047v-288.75c0-9.944-8.103-18.047-18.047-18.047h-342.891zM735.323 252.471h-18.047l-72.188 72.188v0.488l-18.047 18.047v108.281l90.235 90.235h18.047v-289.238z" />
<glyph unicode="&#xe016;" glyph-name="stack" d="M770.045 353.028l-72.223 270.812c-4.367 15.394-18.642 26.15-34.686 26.15h-360.937c-16.062 0-30.319-10.756-34.686-26.15l-72.223-270.812c-0.92-3.284-1.371-6.587-1.371-9.836v-126.329c0-39.866 32.322-72.188 72.188-72.188h433.125c39.866 0 72.188 32.322 72.188 72.188v126.329c0 3.249-0.451 6.551-1.371 9.836zM735.323 216.865c0-19.888-16.206-36.094-36.094-36.094h-433.125c-19.905 0-36.094 16.206-36.094 36.094v126.329l72.206 270.721h360.883l72.223-270.721v-126.329zM622.386 577.802h-279.438c-8.175 0-15.339-5.505-17.452-13.409l-62.171-216.562c-1.425-5.432-0.289-11.207 3.141-15.647s8.698-7.038 14.294-7.038h82.439l26.114-52.245c6.136-12.217 18.625-19.942 32.304-19.942h122.106c13.679 0 26.15 7.724 32.286 19.942l26.114 52.245h82.439c5.613 0 10.9 2.617 14.311 7.056s4.548 10.214 3.14 15.647l-62.171 216.563c-2.111 7.904-9.276 13.391-17.452 13.391zM632.113 361.24h-29.994c-13.752 0-26.114-7.616-32.286-19.942l-26.114-52.245h-122.106l-26.114 52.245c-6.172 12.326-18.534 19.942-32.286 19.942h-73.035l52.769 198.516h279.438l52.769-198.516h-43.042z" />
<glyph unicode="&#xe017;" glyph-name="lab" d="M567.162 618.732c-8.536 8.519-19.851 13.21-31.907 13.21s-23.37-4.692-31.943-13.228l-25.446-25.482c-8.536-8.518-13.247-19.851-13.247-31.925 0-8.5 2.328-16.639 6.695-23.696l-245.022-98.157c-16.386-7.2-28.135-21.981-31.438-39.505-3.339-17.632 2.256-35.715 15.051-48.492l229.556-227.030c9.89-9.89 23.028-15.503 36.906-15.827 0.325-0.018 1.083-0.018 1.408-0.018 3.646 0 7.345 0.379 11.008 1.119 17.938 3.718 32.629 16.116 39.288 32.99l96.407 241.395c7.255-4.782 15.791-7.345 24.67-7.345 12.092 0 23.407 4.71 31.907 13.228l25.392 25.41c8.608 8.554 13.318 19.905 13.318 31.997s-4.728 23.461-13.21 31.907l-139.394 139.448zM494.56 156.101c-2.238-5.649-7.165-9.817-13.12-11.045-1.371-0.289-2.761-0.397-4.132-0.379-4.584 0.108-9.005 1.949-12.308 5.27l-229.701 227.174c-4.223 4.205-6.082 10.233-4.963 16.116 1.101 5.847 5.035 10.792 10.503 13.174l112.197 44.937c75.598-25.14 151.215-0.92 226.849-81.608l-85.325-213.639zM681.038 441.007l-25.518-25.5c-3.519-3.537-9.24-3.537-12.759 0l-31.907 31.889-25.843-64.77 2.148 5.468c-54.321 54.231-109.526 61.070-159.336 67.189-16.008 1.967-31.528 4.024-46.777 7.309l153.236 61.377-30.95 30.95c-3.519 3.519-3.519 9.24 0 12.759l25.518 25.536c3.519 3.519 9.24 3.519 12.759 0l139.412-139.448c3.573-3.519 3.573-9.24 0.018-12.759zM491.69 307.099c24.868 0 45.117 20.231 45.117 45.117s-20.231 45.117-45.117 45.117c-24.887 0-45.117-20.231-45.117-45.117s20.248-45.117 45.117-45.117zM491.69 379.286c14.943 0 27.070-12.128 27.070-27.070s-12.127-27.070-27.070-27.070c-14.961 0-27.070 12.127-27.070 27.070s12.109 27.070 27.070 27.070zM726.299 686.084c-24.887 0-45.117-20.231-45.117-45.117s20.231-45.117 45.117-45.117 45.117 20.231 45.117 45.117-20.231 45.117-45.117 45.117zM726.299 613.896c-14.943 0-27.070 12.127-27.070 27.070s12.127 27.070 27.070 27.070 27.070-12.128 27.070-27.070-12.128-27.070-27.070-27.070zM338.292 379.286c0-19.905 16.188-36.094 36.094-36.094s36.094 16.188 36.094 36.094-16.188 36.094-36.094 36.094-36.094-16.188-36.094-36.094zM374.385 397.334c9.962 0 18.047-8.067 18.047-18.047s-8.085-18.047-18.047-18.047-18.047 8.067-18.047 18.047 8.085 18.047 18.047 18.047zM410.479 271.005c0 9.967 8.079 18.047 18.047 18.047s18.047-8.079 18.047-18.047v0c0-9.967-8.079-18.047-18.047-18.047s-18.047 8.079-18.047 18.047v0zM699.229 541.709c0 9.967 8.079 18.047 18.047 18.047s18.047-8.080 18.047-18.047v0c0-9.967-8.079-18.047-18.047-18.047s-18.047 8.080-18.047 18.047v0z" />
<glyph unicode="&#xe018;" glyph-name="food" d="M726.299 307.099h-48.564c-0.812 4.313-1.805 8.536-2.887 12.741l86.607 43.294c8.915 4.458 12.506 15.304 8.067 24.219-4.475 8.915-15.268 12.489-24.219 8.067l-82.618-41.291c-31.51 68.001-100.25 115.392-180.018 115.392-97.128 0-178.032-70.166-195.069-162.422h-48.564c-24.868 0-45.117-20.231-45.117-45.117 0-8.843 3.249-17.379 9.113-23.985l63.074-70.96v-13.337c0-24.887 20.248-45.117 45.117-45.117h342.891c24.887 0 45.117 20.231 45.117 45.117v13.337l63.056 70.96c5.883 6.606 9.132 15.142 9.132 23.985 0 24.887-20.231 45.117-45.117 45.117zM659.508 307.099h-10.142l8.987 4.512c0.343-1.516 0.83-2.977 1.155-4.512zM482.667 451.474c72.711 0 135.351-43.312 163.902-105.412l-16.080-8.031c-25.554 56.216-82.041 95.396-147.822 95.396-77.277 0-141.83-54.015-158.271-126.329h-18.552c16.766 82.275 89.675 144.375 176.823 144.375zM565.249 307.099c-13.95 31.817-45.677 54.141-82.582 54.141s-68.614-22.324-82.583-54.141h-19.382c14.907 41.977 54.917 72.188 101.964 72.188 44.486 0 82.799-26.999 99.402-65.456l-13.427-6.731h-3.393zM482.667 325.146c-15.935 0-30.138-7.057-40.064-18.047h-22.090c12.524 21.457 35.552 36.094 62.154 36.094 26.583 0 49.629-14.636 62.135-36.094h-22.107c-9.89 10.991-24.093 18.047-40.028 18.047zM482.667 397.334c-57.118 0-105.43-38.115-121.005-90.235h-18.625c16.098 62.154 72.495 108.281 139.628 108.281 58.58 0 109.058-35.155 131.652-85.434l-16.116-8.049c-19.635 44.341-64.013 75.436-115.536 75.436zM663.135 180.771v-27.070c0-4.981-4.061-9.024-9.024-9.024h-342.891c-4.981 0-9.024 4.043-9.024 9.024v27.070l-72.188 81.211c0 4.981 4.042 9.024 9.024 9.024h487.266c4.963 0 9.024-4.043 9.024-9.024l-72.188-81.211zM337.876 474.719c-0.126 0.253-0.216 0.488-0.324 0.758-9.367 22.612-0.054 44.792 8.355 64.806 7.959 18.985 15.015 35.805 7.724 52.21-0.036 0.072-0.054 0.145-0.090 0.216-0.018 0.054-0.036 0.108-0.054 0.162-0.018 0.036-0.018 0.072-0.018 0.108-0.361 0.956-0.577 1.967-0.577 3.050 0 4.873 3.953 8.843 8.843 8.843 3.754 0 6.948-2.346 8.23-5.648 10.070-22.938 0.92-45.496-7.616-65.817-7.904-18.805-14.329-36.274-7.562-52.191 0.036-0.126 0.036-0.235 0-0.361 0.199-0.721 0.325-1.479 0.325-2.256 0-4.999-4.061-9.078-9.059-9.078-3.501 0-6.497 1.986-7.995 4.873-0.018 0-0.036 0-0.036 0-0.054 0.108-0.090 0.216-0.144 0.325zM557.634 477.353c-0.108 0.235-0.199 0.488-0.289 0.721-9.366 22.612-0.072 44.81 8.32 64.824 7.977 18.985 15.015 35.805 7.724 52.21 0 0.072-0.036 0.145-0.072 0.216-0.036 0.054-0.036 0.108-0.072 0.162 0 0.036 0 0.072 0 0.108-0.343 0.956-0.596 1.967-0.596 3.050 0 4.873 3.97 8.843 8.843 8.843 3.772 0 6.948-2.328 8.247-5.649 10.070-22.938 0.92-45.496-7.616-65.817-7.904-18.805-14.311-36.274-7.58-52.191 0.072-0.126 0.072-0.235 0.036-0.361 0.181-0.721 0.325-1.479 0.325-2.256 0-4.999-4.097-9.078-9.095-9.078-3.483 0-6.479 2.003-7.995 4.89h-0.036c-0.036 0.108-0.072 0.216-0.145 0.325zM464.963 555.93c-0.127 0.253-0.216 0.488-0.343 0.74-9.385 22.612-0.072 44.81 8.338 64.824 7.959 18.985 15.015 35.805 7.724 52.21-0.018 0.072-0.054 0.144-0.072 0.216-0.018 0.054-0.036 0.108-0.054 0.162-0.018 0.036-0.018 0.072-0.018 0.108-0.361 0.956-0.577 1.967-0.577 3.050 0 4.873 3.97 8.843 8.843 8.843 3.772 0 6.948-2.346 8.247-5.667 10.070-22.938 0.92-45.496-7.616-65.817-7.904-18.805-14.329-36.274-7.562-52.191 0.036-0.127 0.036-0.235 0-0.361 0.199-0.721 0.325-1.479 0.325-2.256 0-4.999-4.061-9.078-9.059-9.078-3.483 0-6.479 2.003-7.995 4.89-0.018 0-0.036 0-0.036 0-0.054 0.108-0.090 0.216-0.145 0.325z" />
<glyph unicode="&#xe019;" glyph-name="cup" d="M701.232 595.452l-21.927 65.962c-4.89 14.745-18.679 24.67-34.216 24.67h-324.844c-15.557 0-29.326-9.926-34.253-24.67l-22.107-65.997c-18.841-1.209-33.874-16.513-33.874-35.66v-54.141c0-19.924 16.17-36.094 36.094-36.094h18.661c0-1.354-0.542-2.635-0.379-3.988l36.094-324.844c2.021-18.245 17.452-32.105 35.859-32.105h252.656c18.408 0 33.838 13.86 35.841 32.105l36.094 324.844c0.181 1.354-0.379 2.635-0.379 3.988h18.679c19.924 0 36.094 16.17 36.094 36.094v54.141c0 19.22-15.16 34.596-34.091 35.697zM320.245 649.99h324.844l18.047-54.141h-360.937l18.047 54.141zM356.339 144.677l-6.010 54.141h264.676l-6.010-54.141h-252.656zM616.989 216.865h-268.682l-20.050 180.469h308.8l-20.068-180.469zM639.061 415.38h-312.806l-6.010 54.141h324.844l-6.028-54.141zM699.229 505.615h-433.125v54.141h433.125v-54.141z" />
<glyph unicode="&#xe01a;" glyph-name="trash" d="M734.962 563.022c-1.732 28.333-25.031 50.82-53.78 50.82h-54.141v18.083c0 29.904-24.255 54.141-54.141 54.141h-180.469c-29.904 0-54.141-24.237-54.141-54.141v-18.065h-54.141c-28.785 0-52.065-22.487-53.797-50.82h-0.343v-39.397c0-19.924 16.17-36.094 36.094-36.094v0-306.796c0-39.866 32.322-72.188 72.188-72.188h288.75c39.866 0 72.188 32.322 72.188 72.188v306.796c19.924 0 36.094 16.17 36.094 36.094v39.378h-0.361zM374.385 631.907c0 9.98 8.067 18.047 18.047 18.047h180.469c9.98 0 18.047-8.067 18.047-18.047v-18.047h-216.562v18.047zM663.135 180.735c0-19.888-16.206-36.094-36.094-36.094h-288.75c-19.905 0-36.094 16.206-36.094 36.094v306.797h360.937v-306.797zM699.229 541.69v-18.047h-433.125v36.075c0 9.98 8.067 18.047 18.047 18.047h397.031c9.98 0 18.047-8.067 18.047-18.047v-18.029zM356.339 180.663h36.094c9.98 0 18.047 8.067 18.047 18.047v234.61c0 9.98-8.067 18.047-18.047 18.047h-36.094c-9.98 0-18.047-8.067-18.047-18.047v-234.61c0-9.98 8.067-18.047 18.047-18.047zM356.339 433.338h36.094v-234.61h-36.094v234.61zM464.62 180.663h36.094c9.98 0 18.047 8.067 18.047 18.047v234.61c0 9.98-8.067 18.047-18.047 18.047h-36.094c-9.98 0-18.047-8.067-18.047-18.047v-234.61c0-9.98 8.067-18.047 18.047-18.047zM464.62 433.338h36.094v-234.61h-36.094v234.61zM572.901 180.663h36.094c9.98 0 18.047 8.067 18.047 18.047v234.61c0 9.98-8.067 18.047-18.047 18.047h-36.094c-9.98 0-18.047-8.067-18.047-18.047v-234.61c0-9.98 8.067-18.047 18.047-18.047zM572.901 433.338h36.094v-234.61h-36.094v234.61z" />
<glyph unicode="&#xe01b;" glyph-name="user" d="M653.784 300.063l-81.569 16.336c-8.654 1.716-14.955 9.399-14.955 18.276v18.724c5.37 7.459 10.405 17.418 15.627 27.823 3.991 7.87 9.995 19.73 12.681 22.528 15.814 15.478 32.673 34.686 37.817 59.712 4.662 22.677 0 34.46-5.408 43.786 0 18.237 0 51.619-6.341 75.675-0.635 29.055-5.967 45.465-19.356 60.087-9.473 10.22-23.423 12.605-34.611 14.508-4.438 0.746-10.518 1.79-12.643 2.947-19.355 10.705-39.012 16-63.068 16.597-49.232-1.864-109.653-33.083-129.869-89.215-6.154-17.044-5.557-45.018-5.11-67.507l-0.522-13.092c-4.737-9.324-9.399-21.11-4.7-43.749 5.147-25.138 22.005-44.309 37.746-59.712 2.722-2.834 8.802-14.771 12.831-22.639 5.296-10.367 10.368-20.327 15.739-27.786v-18.687c0-8.876-6.304-16.559-14.994-18.276l-81.569-16.336c-52.105-10.404-89.922-56.542-89.922-109.69v-35.47c0-20.55 16.746-37.297 37.297-37.297h447.563c20.55 0 37.297 16.746 37.297 37.297v35.47c0 53.148-37.817 99.285-89.96 109.69zM706.448 154.904h-447.563v35.469c0 35.432 25.213 66.202 59.973 73.139l81.531 16.336c26.069 5.147 44.981 28.235 44.981 54.827v25.361c0 4.998-2.014 9.808-5.557 13.277-3.207 3.131-10.108 16.708-14.248 24.802-7.012 13.724-13.054 25.585-19.954 32.299-12.382 12.084-24.206 25.362-27.338 40.58-2.425 11.786-0.746 15.105 1.415 19.32 1.904 3.73 4.737 9.324 4.737 16.934l-0.186 13.837c-0.335 16.299-0.894 43.6 2.909 54.117 14.471 40.131 60.384 63.218 95.033 64.562 17.083-0.447 30.509-3.991 44.756-11.935 7.683-4.251 16.634-5.744 24.504-7.087 4.438-0.746 11.86-2.014 13.39-2.984 5.035-5.483 9.212-12.083 9.51-37.746 0-1.678 0.261-3.357 0.746-4.998 5.558-19.059 5.558-51.955 5.558-67.768 0-7.607 2.873-13.203 4.737-16.933 2.162-4.214 3.841-7.534 1.416-19.355-3.095-15.143-14.994-28.456-27.339-40.541-6.937-6.788-12.943-18.649-19.879-32.411-4.028-8.057-10.854-21.557-14.023-24.654-3.582-3.506-5.594-8.316-5.594-13.315v-25.362c0-26.592 18.91-49.68 44.981-54.864l81.569-16.336c34.724-6.9 59.936-37.67 59.936-73.101v-35.47z" />
<glyph unicode="&#xe01c;" glyph-name="key" d="M591.020 686.084c-99.673 0-180.469-80.814-180.469-180.469 0-23.19 4.855-45.135 12.867-65.492l-219.251-219.234c-6.334-6.352-10.251-12.38-10.251-22.071v-54.141c0-19.311 16.766-36.094 36.094-36.094h54.141c9.673 0 15.791 3.88 22.126 10.179l25.898 25.915h42.284c19.924 0 36.094 16.17 36.094 36.094v36.094h36.094c19.924 0 36.094 16.17 36.094 36.094v42.302l42.753 42.789c20.375-8.031 42.302-12.904 65.528-12.904 99.637 0 180.469 80.814 180.469 180.469s-80.832 180.469-180.469 180.469zM591.020 361.24c-26.71 0-51.47 7.76-72.927 20.429l-6.209-6.19-54.682-54.7c-6.768-6.768-10.576-15.935-10.576-25.518v-42.302h-36.094c-19.924 0-36.094-16.152-36.094-36.094v-36.094h-42.266c-9.565 0-18.75-3.808-25.518-10.576l-25.591-25.591-51.001 0.072-0.054 51.433 210.517 210.138c0 0 0-0.018 0.018-0.036l26.511 26.511c-12.669 21.457-20.429 46.2-20.429 72.91 0 79.731 64.662 144.375 144.375 144.375s144.375-64.644 144.375-144.375-64.626-144.393-144.357-144.393zM695.981 537.396c-20.231 28.189-44.864 52.787-73.18 73.162-4.602 3.339-10.557 4.169-15.917 2.292-25.067-8.825-42.23-25.969-51.001-51.036-0.667-1.877-0.993-3.826-0.993-5.757 0-3.591 1.119-7.146 3.284-10.16 20.302-28.225 44.9-52.841 73.144-73.144 4.62-3.321 10.54-4.169 15.9-2.31 25.103 8.771 42.266 25.952 51.073 51.036 0.667 1.877 0.993 3.826 0.993 5.757-0.018 3.591-1.155 7.146-3.303 10.16zM641.84 487.388c-26.673 19.184-49.9 42.411-68.939 68.452 6.984 19.905 20.050 32.972 39.378 40.082 26.692-19.22 49.881-42.392 68.866-68.777-7.057-19.762-20.086-32.755-39.306-39.758z" />
<glyph unicode="&#xe01d;" glyph-name="fire" d="M590.948 523.661c-1.119-48.275-37.357-89.043-37.357-89.043 0 89.801-70.924 161.231-70.924 161.231s-0.956-53.454-36.87-107.343c-35.913 125.733-143.689 197.577-143.689 197.577 53.888-197.577-17.957-269.44-17.957-413.129 0-84.297 71.357-164.371 180.469-164.371 161.646 0 192.903 59.338 209.614 126.202 23.028 92.057-11.46 199.075-83.286 288.876zM639.242 243.556c-11.604-46.362-24.706-98.879-174.621-98.879-90.379 0-144.375 65.222-144.375 128.277 0 48.294 8.807 87.942 18.119 129.919 11.839 53.22 23.966 107.704 18.715 179.765 55.656-77.042 75.472-179.115 75.472-179.115s51.813 72.747 65.745 106.53c10.665-21.71 20.465-94.674 20.465-166.862 0 0 47.933 39.486 83.881 98.861 37.862-67.892 51.506-138.87 36.599-198.498zM598.744 382.986l3.357-18.679c7.508-41.833 3.303-91.281-10.684-126.003-1.408-3.519-4.801-5.649-8.355-5.649-1.137 0-2.292 0.216-3.393 0.65-4.62 1.859-6.876 7.111-4.999 11.731 10.54 26.15 14.979 62.966 12.163 96.605-18.119-20.248-40.948-41.345-89.729-64.518l-9.132-4.313-3.284 9.529c-6.533 18.949-13.12 38.097-15.971 64.788-9.763-15.394-18.679-29.11-33.657-49.503l-9.168-12.489-6.353 14.149c-15.538 34.74-27.377 61.865-36.761 85.723-8.681-27.882-15.159-60.132-15.159-125.263 0-4.981-4.061-9.024-9.024-9.024-4.999 0-9.024 4.042-9.024 9.024 0 84.982 11.28 117.72 23.19 152.388l9.385 27.251 8.644-24.363c9.294-26.186 21.53-55.043 38.837-94.060 11.405 16.116 19.058 28.243 28.298 42.88l27.396 42.916v-30.842c0-34.722 6.244-57.407 13.12-78.017 47.987 24.147 65.961 45.153 84.965 67.314l15.34 17.776z" />
<glyph unicode="&#xe01e;" glyph-name="clip" d="M723.827 602.4c63.453-63.417 63.453-166.266 0-229.683l-197.92-197.939c-7.056-7.074-18.462-7.074-25.518 0-7.092 7.056-7.092 18.444 0 25.518l195.376 195.394c49.341 49.34 49.341 129.288-0.036 178.646-49.268 49.341-129.288 49.341-178.628 0l-260.723-257.655c-35.246-35.227-35.246-92.364 0-127.592 35.246-35.246 92.346-35.246 127.592 0l263.304 260.182c21.115 21.115 21.115 55.458 0 76.573-21.115 21.097-55.44 21.097-76.555 0l-197.956-197.956c-7.056-7.057-18.462-7.057-25.518 0-7.056 7.074-7.056 18.462 0 25.536l197.938 197.938c35.209 35.227 92.346 35.227 127.592 0 35.246-35.246 35.246-92.364 0-127.609l-263.304-260.2c-49.232-49.25-129.378-49.25-178.628 0s-49.25 129.414 0 178.664l263.304 260.182c63.417 63.453 166.266 63.453 229.683 0z" />
<glyph unicode="&#xe01f;" glyph-name="mail" d="M699.229 595.849h-433.125c-39.866 0-72.188-32.34-72.188-72.188v-234.61c0-39.866 32.322-72.188 72.188-72.188h433.125c39.866 0 72.188 32.322 72.188 72.188v234.61c0 39.848-32.322 72.188-72.188 72.188zM230.010 501.103l126.31-94.746-126.31-94.746v189.492zM735.323 289.052c0-19.924-16.206-36.094-36.094-36.094h-433.125c-19.905 0-36.094 16.17-36.094 36.094l141.343 106.025 78.829-59.14c9.619-7.183 21.043-10.829 32.485-10.829 11.423 0 22.847 3.627 32.466 10.829l78.847 59.14 141.343-106.025zM735.323 311.611l-126.329 94.746 126.329 94.746v-189.492zM504.305 350.376c-6.298-4.728-13.77-7.219-21.638-7.219s-15.358 2.509-21.656 7.219l-231 173.286c0 19.905 16.188 36.094 36.094 36.094h433.125c19.888 0 36.094-16.188 36.094-36.094l-231.018-173.286z" />
<glyph unicode="&#xe020;" glyph-name="search" d="M554.854 685.994c-119.597 0-216.562-96.966-216.562-216.563 0-36.563 9.15-70.978 25.175-101.207l-150.583-150.547 0.126-0.108c-11.766-11.568-19.093-27.594-19.093-45.406 0-35.173 28.514-63.687 63.687-63.687 17.776 0 33.82 7.327 45.388 19.112l-0.036 0.036 150.529 150.511c30.246-16.080 64.716-25.266 101.37-25.266 119.597 0 216.563 96.966 216.563 216.562s-96.966 216.563-216.563 216.563zM280.452 150.145c-5.811-6.028-13.86-9.799-22.847-9.799-17.595 0-31.852 14.239-31.852 31.835 0 8.987 3.79 17.018 9.799 22.847l-0.162 0.145 145.566 145.566c12.723-17.163 27.882-32.322 45.009-45.081l-145.512-145.512zM554.854 288.944c-99.654 0-180.469 80.832-180.469 180.469 0 99.655 80.814 180.469 180.469 180.469 99.637 0 180.469-80.814 180.469-180.469 0-99.637-80.832-180.469-180.469-180.469zM554.854 595.759c4.963 0 9.024-4.043 9.024-9.024s-4.061-9.024-9.024-9.024c-59.807 0-108.281-48.492-108.281-108.281 0-4.981-4.043-9.024-9.024-9.024s-9.024 4.043-9.024 9.024c0 69.769 56.541 126.329 126.329 126.329z" />
<glyph unicode="&#xe021;" glyph-name="settings" d="M742.379 457.25l-55.296 11.081c-2.779 7.995-6.064 15.755-9.691 23.262l31.33 46.994c9.547 14.311 7.651 33.387-4.512 45.533l-34.722 34.722c-6.984 6.984-16.206 10.576-25.554 10.576-6.912 0-13.896-1.985-19.978-6.064l-46.994-31.312c-7.543 3.646-15.304 6.894-23.299 9.674l-11.081 55.313c-3.357 16.892-18.191 29.020-35.39 29.020h-49.088c-17.198 0-32.015-12.146-35.39-29.020l-11.081-55.313c-7.995-2.779-15.755-6.045-23.262-9.674l-46.976 31.312c-6.118 4.078-13.084 6.064-20.014 6.064-9.33 0-18.552-3.591-25.537-10.576l-34.704-34.722c-12.163-12.163-14.059-31.221-4.512-45.533l31.312-46.994c-3.646-7.526-6.894-15.285-9.674-23.281l-55.332-11.062c-16.874-3.375-29.019-18.191-29.019-35.39v-49.087c0-17.198 12.146-32.033 29.019-35.39l55.314-11.099c2.779-7.995 6.045-15.755 9.674-23.262l-31.293-46.994c-9.547-14.311-7.651-33.387 4.512-45.533l34.722-34.722c6.984-6.984 16.206-10.576 25.537-10.576 6.93 0 13.914 2.003 19.996 6.064l46.994 31.33c7.526-3.664 15.285-6.912 23.281-9.691l11.062-55.295c3.375-16.892 18.191-29.037 35.39-29.037h49.088c17.198 0 32.033 12.163 35.39 29.037l11.099 55.295c7.995 2.779 15.755 6.064 23.262 9.691l46.994-31.33c6.1-4.061 13.084-6.064 19.978-6.064 9.348 0 18.57 3.591 25.554 10.576l34.722 34.722c12.163 12.163 14.059 31.221 4.512 45.533l-31.33 46.994c3.664 7.543 6.912 15.304 9.691 23.299l55.296 11.062c16.874 3.339 29.037 18.191 29.037 35.39v49.087c0 17.198-12.163 32.015-29.037 35.39zM679.991 361.691c-12.543-2.509-22.811-11.46-26.999-23.551-2.328-6.66-5.035-13.12-8.067-19.382-5.613-11.532-4.656-25.14 2.437-35.769l31.33-46.994-34.722-34.722-46.994 31.33c-6.028 4.024-13.012 6.064-20.014 6.064-5.36 0-10.756-1.191-15.719-3.591-6.28-3.032-12.723-5.775-19.419-8.103-12.055-4.186-21.006-14.456-23.515-26.999l-11.099-55.332h-49.087l-11.062 55.332c-2.509 12.543-11.46 22.811-23.534 26.999-6.66 2.328-13.138 5.035-19.4 8.067-4.981 2.437-10.359 3.627-15.737 3.627-7.020 0-13.986-2.040-20.014-6.064l-46.994-31.33-34.722 34.722 31.312 46.994c7.092 10.648 8.013 24.255 2.472 35.733-3.032 6.28-5.757 12.723-8.085 19.419-4.186 12.055-14.473 21.006-26.998 23.515l-55.313 11.099-0.036 49.106 55.332 11.062c12.524 2.509 22.811 11.46 26.999 23.534 2.328 6.66 5.017 13.139 8.067 19.4 5.594 11.514 4.656 25.121-2.454 35.751l-31.293 46.994 34.704 34.722 46.994-31.311c6.028-4.024 13.012-6.064 20.014-6.064 5.36 0 10.738 1.191 15.719 3.591 6.263 3.032 12.723 5.757 19.4 8.085 12.073 4.186 21.025 14.473 23.534 26.998l11.081 55.313 49.088 0.018 11.062-55.332c2.509-12.524 11.46-22.811 23.551-26.998 6.66-2.328 13.12-5.017 19.382-8.067 4.999-2.418 10.359-3.61 15.755-3.61 7.020 0 13.987 2.040 20.014 6.064l46.994 31.312 34.722-34.722-31.33-46.994c-7.092-10.648-7.995-24.237-2.472-35.733 3.032-6.263 5.775-12.723 8.103-19.4 4.186-12.073 14.456-21.025 26.998-23.534l55.295-11.081 0.054-49.087-55.332-11.081zM482.667 523.644c-69.751 0-126.329-56.577-126.329-126.328 0-69.769 56.577-126.329 126.329-126.329s126.329 56.577 126.329 126.329c0 69.751-56.577 126.328-126.329 126.328zM482.667 286.761c-61.034 0-110.537 49.521-110.537 110.537 0 61.034 49.503 110.537 110.537 110.537 61.016 0 110.537-49.503 110.537-110.537 0-61.016-49.521-110.537-110.537-110.537zM482.667 469.503c-39.883 0-72.188-32.304-72.188-72.187 0-39.866 32.304-72.188 72.188-72.188 39.866 0 72.187 32.322 72.187 72.188s-32.322 72.187-72.187 72.187zM482.667 343.157c-29.886 0-54.141 24.255-54.141 54.141s24.255 54.141 54.141 54.141 54.141-24.255 54.141-54.141c0-29.885-24.255-54.141-54.141-54.141z" />
<glyph unicode="&#xe022;" glyph-name="like" d="M720.236 497.097c-22.558 5.919-75.598 5.847-153.182 7.904 3.664 16.928 4.512 32.196 4.512 59.302 0 64.752-47.174 121.78-88.899 121.78-29.471 0-53.762-24.093-54.141-53.726-0.397-36.347-11.64-99.114-72.188-130.949-4.439-2.346-17.144-8.608-19.003-9.421l0.956-0.812c-9.475 8.175-22.612 14.438-36.094 14.438h-54.141c-29.849 0-54.141-24.291-54.141-54.141v-288.75c0-29.849 24.291-54.141 54.141-54.141h54.141c21.476 0 39.451 12.975 48.149 31.167 0.216-0.072 0.596-0.181 0.848-0.216 1.191-0.325 2.599-0.667 4.313-1.119 0.325-0.090 0.488-0.126 0.831-0.216 10.395-2.58 30.409-7.364 73.18-17.199 9.168-2.094 57.606-12.416 107.776-12.416h98.663c30.066 0 51.74 11.568 64.644 34.794 0.181 0.361 4.331 8.464 7.724 19.419 2.545 8.247 3.483 19.924 0.415 31.763 19.382 13.318 25.626 33.459 29.687 46.561 6.804 21.494 4.764 37.646 0.036 49.214 10.9 10.287 20.194 25.969 24.111 49.918 2.437 14.834-0.181 30.102-7.020 42.807 10.214 11.478 14.87 25.915 15.412 39.27l0.216 3.772c0.127 2.364 0.235 3.826 0.235 9.024 0 22.793-15.791 51.867-51.181 61.973zM320.245 162.724c0-9.98-8.067-18.047-18.047-18.047h-54.141c-9.98 0-18.047 8.067-18.047 18.047v288.75c0 9.98 8.067 18.047 18.047 18.047h54.141c9.98 0 18.047-8.067 18.047-18.047v-288.75zM734.908 423.772c-0.361-8.916-4.097-26.438-35.678-26.438-27.070 0-36.094 0-36.094 0-4.999 0-9.024-4.043-9.024-9.024s4.024-9.024 9.024-9.024c0 0 7.904 0 34.974 0s30.626-22.45 28.875-33.279c-2.238-13.463-8.554-38.909-39.035-38.909-30.445 0-42.861 0-42.861 0-4.999 0-9.024-4.024-9.024-9.024 0-4.963 4.024-9.024 9.024-9.024 0 0 21.44 0 35.535 0 30.463 0 27.774-23.226 23.407-37.087-5.757-18.21-9.276-35.101-47.662-35.101-12.975 0-29.434 0-29.434 0-4.999 0-9.024-4.024-9.024-9.024 0-4.963 4.024-9.024 9.024-9.024 0 0 12.506 0 28.298 0 19.743 0 20.663-18.679 18.606-25.374-2.256-7.327-4.927-12.759-5.035-13.012-5.451-9.836-14.239-15.755-32.845-15.755h-98.663c-49.557 0-98.717 11.243-99.98 11.532-74.967 17.271-78.919 18.606-83.629 19.942 0 0-15.268 2.58-15.268 15.9l-0.126 249.264c0 8.464 5.396 16.116 14.329 18.805 1.119 0.434 2.635 0.902 3.718 1.354 82.439 34.145 107.541 109.004 108.281 170.471 0.108 8.644 6.768 18.047 18.047 18.047 19.076 0 52.805-38.296 52.805-85.686 0-42.789-1.733-50.188-16.712-94.782 180.469 0 179.206-2.599 195.123-6.768 19.743-5.649 21.44-21.999 21.44-27.63 0-6.19-0.181-5.287-0.415-11.351zM275.128 216.865c-14.943 0-27.070-12.128-27.070-27.070s12.128-27.070 27.070-27.070 27.070 12.128 27.070 27.070-12.128 27.070-27.070 27.070zM275.128 180.771c-4.963 0-9.024 4.061-9.024 9.024s4.061 9.024 9.024 9.024 9.024-4.061 9.024-9.024-4.061-9.024-9.024-9.024z" />
<glyph unicode="&#xe023;" glyph-name="calendar" d="M723.304 631.943h-78.216v36.094c0 9.98-8.067 18.047-18.047 18.047s-18.047-8.067-18.047-18.047v-36.094h-108.281v36.094c0 9.98-8.085 18.047-18.047 18.047s-18.047-8.067-18.047-18.047v-36.094h-108.281v36.094c0 9.98-8.085 18.047-18.047 18.047s-18.047-8.067-18.047-18.047v-36.094h-78.197c-26.583 0-48.131-21.53-48.131-48.113v-427.115c0-26.583 21.548-48.131 48.131-48.131h481.256c26.583 0 48.113 21.548 48.113 48.131v427.115c0 26.583-21.53 48.113-48.113 48.113zM735.323 156.715c0-6.641-5.396-12.038-12.019-12.038h-481.256c-6.641 0-12.038 5.396-12.038 12.038v427.115c0 6.623 5.396 12.019 12.038 12.019h78.197v-36.094c0-9.98 8.085-18.047 18.047-18.047s18.047 8.067 18.047 18.047v36.094h108.281v-36.094c0-9.98 8.085-18.047 18.046-18.047s18.047 8.067 18.047 18.047v36.094h108.281v-36.094c0-9.98 8.067-18.047 18.047-18.047s18.047 8.067 18.047 18.047v36.094h78.216c6.623 0 12.019-5.396 12.019-12.019v-427.115zM320.245 469.521h72.188v-54.141h-72.188zM320.245 379.286h72.188v-54.141h-72.188zM320.245 289.052h72.188v-54.141h-72.188zM446.573 289.052h72.187v-54.141h-72.187zM446.573 379.286h72.187v-54.141h-72.187zM446.573 469.521h72.187v-54.141h-72.187zM572.901 289.052h72.188v-54.141h-72.188zM572.901 379.286h72.188v-54.141h-72.188zM572.901 469.521h72.188v-54.141h-72.188z" />
<glyph unicode="&#xe024;" glyph-name="camera" d="M482.667 505.597c-79.749 0-144.375-64.626-144.375-144.375 0-79.731 64.626-144.375 144.375-144.375 79.731 0 144.375 64.644 144.375 144.375s-64.644 144.375-144.375 144.375zM564.871 290.749c-38.909-45.406-107.253-50.658-152.659-11.731-45.424 38.909-50.658 107.271-11.731 152.659 38.891 45.424 107.253 50.658 152.659 11.731 45.388-38.891 50.639-107.27 11.731-152.659zM482.667 433.409c4.981 0 9.024-4.043 9.024-9.024s-4.043-9.024-9.024-9.024c-29.904 0-54.123-24.237-54.141-54.123v-0.036c0-4.963-4.043-9.024-9.024-9.024s-9.024 4.061-9.024 9.024v0.036c0.018 39.847 32.322 72.169 72.188 72.169zM726.155 522.904l-78.216 13.048-24.778 61.973c-8.284 20.663-28.027 34.018-50.261 34.018h-180.469c-22.234 0-41.977-13.355-50.278-34.037l-24.76-61.955-78.197-13.048c-26.241-4.35-45.28-26.8-45.28-53.383v-270.703c0-29.849 24.291-54.141 54.141-54.141h469.219c29.849 0 54.141 24.291 54.141 54.141v270.704c0 26.583-19.039 49.033-45.261 53.383zM735.323 198.818c0-9.98-8.067-18.047-18.047-18.047h-469.219c-9.98 0-18.047 8.067-18.047 18.047v270.704c0 8.825 6.388 16.351 15.087 17.794l98.247 16.369 32.322 80.814c2.761 6.84 9.385 11.351 16.766 11.351h180.469c7.364 0 13.986-4.493 16.747-11.351l32.322-80.814 98.265-16.369c8.698-1.444 15.087-8.97 15.087-17.794v-270.704z" />
<glyph unicode="&#xe025;" glyph-name="tag" d="M760.426 435.538l-90.235 144.375c-13.174 21.097-36.31 33.929-61.197 33.929h-342.891c-39.866 0-72.188-32.322-72.188-72.188v-288.75c0-39.866 32.322-72.188 72.188-72.188h342.891c24.887 0 48.005 12.832 61.197 33.946l90.235 144.375c14.654 23.37 14.654 53.094 0 76.5zM729.818 378.168l-90.235-144.411c-6.623-10.611-18.083-16.946-30.589-16.946h-342.891c-19.905 0-36.094 16.206-36.094 36.094v288.75c0 19.905 16.188 36.094 36.094 36.094h342.891c12.506 0 23.966-6.353 30.589-16.946l90.235-144.375c7.273-11.64 7.273-26.655 0-38.26zM608.995 451.42c-29.922 0-54.141-24.237-54.141-54.141s24.219-54.141 54.141-54.141c29.885 0 54.141 24.255 54.141 54.141 0 29.903-24.255 54.141-54.141 54.141zM608.995 361.168c-19.942 0-36.094 16.17-36.094 36.094s16.152 36.094 36.094 36.094c19.924 0 36.094-16.17 36.094-36.094 0-19.905-16.17-36.094-36.094-36.094z" />
<glyph unicode="&#xe026;" glyph-name="note" d="M760.841 549.198l-108.281 108.281c-6.768 6.768-15.971 10.557-25.518 10.557h-378.985c-29.849 0-54.141-24.273-54.141-54.14v-433.125c0-29.849 24.291-54.141 54.141-54.141h469.219c29.849 0 54.141 24.291 54.141 54.141v342.891c0 9.583-3.808 18.769-10.576 25.536zM735.323 180.771c0-9.98-8.067-18.047-18.047-18.047h-469.219c-9.98 0-18.047 8.067-18.047 18.047v433.125c0 9.98 8.067 18.047 18.047 18.047h360.938v-72.188h-0.036c0-29.904 24.255-54.141 54.141-54.141h72.223v-324.844zM681.146 523.661h-18.047c-19.888 0-36.094 16.188-36.094 36.094h0.036v72.188l108.281-108.281h-54.177zM473.643 541.709c-4.981 0-9.024 4.024-9.024 9.024s4.043 9.024 9.024 9.024h90.235c4.963 0 9.024-4.043 9.024-9.024s-4.061-9.024-9.024-9.024h-90.235zM473.643 487.568c-4.981 0-9.024 4.043-9.024 9.024s4.043 9.024 9.024 9.024h90.235c4.963 0 9.024-4.043 9.024-9.024s-4.061-9.024-9.024-9.024h-90.235zM464.62 442.451c0 4.999 4.043 9.024 9.024 9.024h216.562c4.963 0 9.024-4.043 9.024-9.024s-4.061-9.024-9.024-9.024h-216.562c-4.981 0-9.024 4.043-9.024 9.024zM690.205 343.193c4.963 0 9.024-4.024 9.024-9.024 0-4.963-4.061-9.024-9.024-9.024h-415.079c-4.981 0-9.024 4.061-9.024 9.024 0 4.999 4.043 9.024 9.024 9.024h415.079zM690.205 289.052c4.963 0 9.024-4.024 9.024-9.024 0-4.963-4.061-9.024-9.024-9.024h-415.079c-4.981 0-9.024 4.061-9.024 9.024 0 4.999 4.043 9.024 9.024 9.024h415.079zM690.205 234.911c4.963 0 9.024-4.024 9.024-9.024 0-4.963-4.061-9.024-9.024-9.024h-415.079c-4.981 0-9.024 4.061-9.024 9.024 0 4.999 4.043 9.024 9.024 9.024h415.079zM690.205 397.334c4.963 0 9.024-4.043 9.024-9.024s-4.061-9.024-9.024-9.024h-415.079c-4.981 0-9.024 4.024-9.024 9.024s4.043 9.024 9.024 9.024h415.079zM284.151 433.427h126.329c9.98 0 18.047 8.067 18.047 18.047v108.281c0 9.98-8.067 18.047-18.047 18.047h-126.329c-9.98 0-18.047-8.067-18.047-18.047v-108.281c0-9.962 8.067-18.047 18.047-18.047zM302.198 541.709h90.235v-72.188h-90.235v72.188z" />
<glyph unicode="&#xe027;" glyph-name="clock" d="M464.62 505.615c0 9.967 8.079 18.047 18.047 18.047s18.047-8.080 18.047-18.047v0c0-9.967-8.079-18.047-18.047-18.047s-18.047 8.080-18.047 18.047v0zM464.62 289.052c0 9.967 8.079 18.047 18.047 18.047s18.047-8.079 18.047-18.047v0c0-9.967-8.079-18.047-18.047-18.047s-18.047 8.079-18.047 18.047v0zM356.339 397.334c0 9.967 8.079 18.047 18.047 18.047s18.047-8.080 18.047-18.047v0c0-9.967-8.079-18.047-18.047-18.047s-18.047 8.079-18.047 18.047v0zM572.901 397.334c0 9.967 8.079 18.047 18.047 18.047s18.047-8.080 18.047-18.047v0c0-9.967-8.079-18.047-18.047-18.047s-18.047 8.079-18.047 18.047v0zM388.047 320.779c0 9.967 8.079 18.047 18.047 18.047s18.047-8.080 18.047-18.047v0c0-9.967-8.079-18.047-18.047-18.047s-18.047 8.080-18.047 18.047v0zM388.047 473.906c0 9.967 8.079 18.047 18.047 18.047s18.047-8.080 18.047-18.047v0c0-9.967-8.079-18.047-18.047-18.047s-18.047 8.080-18.047 18.047v0zM541.175 320.779c0 9.967 8.079 18.047 18.047 18.047s18.047-8.080 18.047-18.047v0c0-9.967-8.079-18.047-18.047-18.047s-18.047 8.080-18.047 18.047v0zM663.135 433.427c-1.263 0-2.328-0.596-3.555-0.721-6.28 31.492-21.115 59.663-41.453 82.907l-25.915 140.982c-3.158 17.090-18.083 29.488-35.481 29.488h-144.375c-17.397 0-32.304-12.416-35.498-29.507l-25.265-136.236c-30.319-32.25-49.395-75.22-49.395-123.007 0-46.615 18.299-88.52 47.301-120.517l25.482-138.744c3.176-17.072 18.101-29.488 35.498-29.488h144.375c17.379 0 32.286 12.416 35.498 29.507l25.699 138.636c21.457 23.659 37.050 52.696 43.529 85.271 1.227-0.162 2.292-0.758 3.555-0.758 19.924 0 36.094 16.17 36.094 36.094 0 19.942-16.17 36.094-36.094 36.094zM412.356 649.99h144.375l18.047-97.219c-26.655 15.503-57.173 25.031-90.235 25.031-33.044 0-63.579-9.529-90.235-25.031l18.047 97.219zM554.854 144.677h-144.375l-18.047 97.219c26.637-15.484 57.172-25.031 90.235-25.031 33.044 0 63.597 9.547 90.235 25.031l-18.047-97.219zM482.667 252.959c-79.605 0-144.375 64.788-144.375 144.375 0 79.605 64.77 144.375 144.375 144.375s144.375-64.77 144.375-144.375c0-79.587-64.788-144.375-144.375-144.375zM571.836 487.099c2.183-2.184 2.4-5.703 0.505-8.103l-43.782-54.52-33.35-40.155c-3.411-3.284-8.103-4.963-12.615-4.999-4.855 0.036-9.385 1.913-12.759 5.27s-5.216 7.85-5.216 12.597c0 4.909 1.895 9.493 5.341 12.958l93.7 77.331c2.472 1.986 5.991 1.805 8.175-0.379z" />
<glyph unicode="&#xe028;" glyph-name="lock" d="M645.089 451.474v72.188c0 89.711-72.711 162.422-162.422 162.422s-162.422-72.711-162.422-162.422v-72.188c-29.904 0-54.141-24.237-54.141-54.141v-126.329c0-89.711 72.711-162.422 162.422-162.422h108.281c89.711 0 162.422 72.711 162.422 162.422v126.329c0 29.922-24.255 54.141-54.141 54.141zM356.339 523.661c0 69.769 56.559 126.329 126.329 126.329s126.329-56.559 126.329-126.329v-72.188h-36.094v72.152c0 49.846-40.389 90.234-90.235 90.234s-90.235-40.389-90.235-90.234v-72.152h-36.094v72.188zM554.854 523.661v-72.188h-144.375v72.188c0 39.866 32.322 72.188 72.188 72.188s72.187-32.322 72.187-72.188zM663.135 343.193v-72.188c0-69.643-56.685-126.329-126.329-126.329h-108.281c-69.643 0-126.329 56.685-126.329 126.329v126.329c0 9.962 8.085 18.047 18.047 18.047 12.038 0 24.056 0 36.094 0h252.656c12.019 0 24.039 0 36.094 0 9.944 0 18.047-8.085 18.047-18.047v-54.141zM482.667 343.193c19.924 0 36.094-16.152 36.094-36.094 0-10.991-5.919-31.907-12.019-48.402-4.927-13.318-9.962-23.75-24.074-23.75-12.975 0-19.147 10.539-24.056 23.93-6.028 16.459-12.038 37.267-12.038 48.221 0 19.942 16.17 36.094 36.094 36.094z" />
<glyph unicode="&#xe029;" glyph-name="vynil" d="M590.063 665.329c-148.021 59.266-316.091-12.669-375.375-160.707-59.302-148.056 12.669-316.146 160.707-375.411 148.039-59.284 316.109 12.669 375.393 160.707 59.302 148.056-12.687 316.109-160.726 375.411zM388.823 162.706c-129.324 51.794-192.416 199.129-140.64 328.471 51.794 129.324 199.148 192.434 328.489 140.621 129.324-51.776 192.416-199.129 140.64-328.454-51.813-129.342-199.148-192.416-328.489-140.64zM496.184 430.775c-18.498 7.418-39.523-1.588-46.94-20.086s1.589-39.505 20.068-46.922c18.498-7.418 39.54 1.588 46.94 20.069 7.399 18.498-1.588 39.505-20.068 46.94zM476.025 380.496c-9.24 3.718-13.733 14.221-10.052 23.479 3.718 9.24 14.239 13.733 23.479 10.052 9.222-3.7 13.716-14.221 10.034-23.479-3.7-9.24-14.221-13.733-23.461-10.052zM522.983 497.765c-55.512 22.234-118.531-4.764-140.765-60.259-22.234-55.512 4.764-118.531 60.259-140.766 55.512-22.234 118.532 4.746 140.766 60.259s-4.728 118.55-60.259 140.766zM455.921 330.254c-36.96 14.78-54.971 56.902-40.19 93.844 14.799 36.942 56.884 54.971 93.825 40.19 36.978-14.799 54.989-56.92 40.226-93.862-14.816-36.942-56.919-54.989-93.862-40.172zM616.791 343.59h-0.036c-14.745-36.798-43.005-64.175-76.807-78.793-0.127-0.054-0.199-0.199-0.379-0.27-4.584-1.949-9.872 0.162-11.839 4.764-1.967 4.566 0.181 9.872 4.728 11.82 29.706 12.723 54.592 36.779 67.568 69.192v-0.018c1.859 4.638 7.111 6.894 11.731 5.017 4.62-1.841 6.876-7.092 5.035-11.712zM678.746 328.503c4.62-1.859 6.876-7.111 5.035-11.731-22.107-55.187-64.536-96.28-115.23-118.171-0.216-0.090-0.379-0.289-0.596-0.397-4.584-1.949-9.872 0.145-11.839 4.746-1.967 4.584 0.181 9.89 4.728 11.839 46.705 19.996 85.794 57.804 106.17 108.696 1.859 4.62 7.111 6.876 11.731 5.017zM645.233 341.912c4.62-1.859 6.876-7.111 5.035-11.731-18.426-46.001-53.78-80.218-96.010-98.464-0.199-0.108-0.307-0.27-0.488-0.361-4.584-1.949-9.872 0.162-11.839 4.746s0.181 9.89 4.764 11.857h-0.036c38.241 16.369 70.202 47.283 86.841 88.935 1.859 4.638 7.111 6.876 11.731 5.017zM437.784 525.25c1.967-4.602-0.162-9.89-4.746-11.875-29.706-12.705-54.592-36.779-67.549-69.155h-0.018c-1.841-4.62-7.092-6.876-11.731-5.017-4.62 1.859-6.876 7.092-5.017 11.731h0.018c14.726 36.779 43.005 64.175 76.808 78.793 0.126 0.054 0.216 0.199 0.379 0.253 4.584 1.967 9.89-0.126 11.857-4.728zM409.36 591.608c1.967-4.584-0.162-9.872-4.728-11.857-46.705-19.996-85.777-57.804-106.17-108.678-1.859-4.638-7.111-6.876-11.731-5.017-4.638 1.841-6.894 7.092-5.017 11.749 22.107 55.187 64.518 96.262 115.23 118.171 0.181 0.090 0.343 0.289 0.559 0.379 4.584 1.949 9.89-0.162 11.857-4.746zM418.817 546.599v-0.054c-38.205-16.351-70.185-47.283-86.841-88.935-1.859-4.638-7.111-6.858-11.731-5.017-4.602 1.877-6.876 7.111-4.999 11.749 18.408 45.984 53.762 80.237 96.010 98.5 0.181 0.072 0.289 0.253 0.469 0.325 4.584 1.967 9.89-0.162 11.857-4.728 1.967-4.602-0.181-9.89-4.746-11.839z" />
<glyph unicode="&#xe02a;" glyph-name="truck" d="M642.057 479.538c-3.357 5.017-8.987 8.031-15.015 8.031h-18.047c-9.98 0-18.047-8.067-18.047-18.047v-108.281c0-9.98 8.067-18.047 18.047-18.047h72.188c9.98 0 18.047 8.067 18.047 18.047v27.070c0 3.555-1.065 7.056-3.032 10.016l-54.141 81.211zM681.183 361.24h-72.188v108.281h18.047l54.141-81.211v-27.070zM762.321 409.316l-72.188 108.281c-10.070 15.105-26.926 24.111-45.045 24.111h-72.188v36.094c0 29.849-24.291 54.141-54.141 54.141h-270.704c-29.849 0-54.141-24.291-54.141-54.141v-198.516c0-29.849 24.291-54.141 54.141-54.141v0-54.141c0-29.849 24.291-54.141 54.141-54.141h20.609c8.067-31.058 36.094-54.141 69.643-54.141 33.513 0 61.539 23.082 69.607 54.141h95.323c8.067-31.058 36.094-54.141 69.643-54.141 33.513 0 61.539 23.082 69.607 54.141h20.646c29.849 0 54.141 24.291 54.141 54.141v108.281c0 10.719-3.141 21.114-9.095 30.030zM248.058 361.24c-9.962 0-18.047 8.067-18.047 18.047v198.516c0 9.98 8.085 18.047 18.047 18.047h270.704c9.98 0 18.047-8.067 18.047-18.047v-198.516c0-9.98-8.067-18.047-18.047-18.047h-270.704zM392.45 198.818c-19.942 0-36.094 16.17-36.094 36.094s16.152 36.094 36.094 36.094c19.924 0 36.094-16.17 36.094-36.094s-16.188-36.094-36.094-36.094zM627.042 198.818c-19.942 0-36.094 16.17-36.094 36.094s16.152 36.094 36.094 36.094c19.924 0 36.094-16.17 36.094-36.094s-16.17-36.094-36.094-36.094zM735.323 271.005c0-9.98-8.067-18.047-18.047-18.047h-20.628c-8.067 31.058-36.094 54.141-69.607 54.141-33.549 0-61.576-23.082-69.643-54.141h-95.323c-8.067 31.058-36.094 54.141-69.607 54.141-33.549 0-61.576-23.082-69.643-54.141h-20.628c-9.962 0-18.047 8.067-18.047 18.047v54.141h234.61c29.849 0 54.141 24.291 54.141 54.141v126.329h72.188c6.028 0 11.658-3.014 15.015-8.031l72.188-108.281c1.967-2.96 3.032-6.461 3.032-10.016v-108.281z" />
<glyph unicode="&#xe02b;" glyph-name="paperplane" d="M763.169 683.196c-2.996 1.931-6.407 2.888-9.799 2.888-3.483 0-6.984-0.993-10.016-3.032l-541.406-360.937c-5.576-3.7-8.644-10.214-7.923-16.892 0.686-6.66 5.017-12.416 11.243-14.87l141.199-56.505 66.394-116.186c3.176-5.576 9.078-9.024 15.466-9.095 0.072 0 0.126 0 0.199 0 6.334 0 12.217 3.357 15.466 8.771l37.483 62.496 174.964-69.967c2.148-0.866 4.404-1.282 6.695-1.282 3.068 0 6.099 0.776 8.843 2.328 4.764 2.671 8.031 7.364 8.951 12.759l90.235 541.406c1.173 7.092-1.967 14.203-7.995 18.119zM250.512 311.124l418.236 278.843-304.089-325.511c-1.606 0.956-3.032 2.22-4.801 2.923l-109.346 43.745zM377.796 251.768c-0.036 0.072-0.090 0.108-0.126 0.181l341.862 365.9-291.439-454.096-50.297 88.015zM649.005 151.734l-154.138 61.648c-3.664 1.444-7.472 1.931-11.243 2.148l237.353 367.94-71.971-431.735z" />
<glyph unicode="&#xe02c;" glyph-name="bulb" d="M482.667 686.084c-109.653 0-198.516-88.863-198.516-198.516 0-72.747 66.556-149.843 90.794-217.555 36.148-100.973 32.141-161.43 107.722-161.43 76.699 0 71.556 60.168 107.722 161.014 24.309 67.856 90.794 145.783 90.794 217.97 0 109.653-88.899 198.516-198.516 198.516zM529.444 195.641l-89.477-11.171c-3.195 9.24-6.623 20.050-10.792 34.162-0.054 0.181-0.126 0.379-0.162 0.559l111.674 13.95c-1.588-5.324-3.284-10.918-4.764-15.935-2.364-8.103-4.476-15.141-6.479-21.566zM423.762 236.572c-3.284 10.864-6.984 22.306-11.099 34.434h140.152c-2.22-6.479-4.439-12.975-6.352-19.112l-122.7-15.322zM482.667 144.677c-18.281 0-26.692 2.111-36.040 22.558l76.483 9.583c-11.081-29.849-19.147-32.141-40.443-32.141zM566.982 307.099h-168.431c-8.987 19.49-19.78 38.981-30.427 58.057-23.551 42.139-47.878 85.723-47.878 122.412 0 89.567 72.855 162.422 162.422 162.422s162.422-72.855 162.422-162.422c0-36.418-24.363-80.237-47.933-122.629-10.539-19.003-21.259-38.458-30.175-57.84zM482.667 595.849c4.963 0 9.024-4.043 9.024-9.024s-4.043-9.024-9.024-9.024c-49.755 0-90.235-40.479-90.235-90.235 0-4.981-4.043-9.024-9.024-9.024s-9.024 4.043-9.024 9.024c0 59.717 48.564 108.281 108.281 108.281z" />
<glyph unicode="&#xe02d;" glyph-name="pen" d="M724.404 639.523c-29.687 29.651-68.777 46.561-107.307 46.561-32.502 0-62.424-12.055-84.279-33.874l-87.834-88.502c-0.27-0.253-0.577-0.415-0.848-0.686-0.145-0.144-0.235-0.343-0.379-0.469l0.036-0.036-186.406-187.85c-8.59-8.536-14.816-19.166-18.281-30.77l-42.392-153.543c-0.036-0.415-2.798-12.47-2.798-18.606 0-34.866 28.316-63.164 63.236-63.164 6.948 0 20.393 3.321 20.88 3.393l153.002 40.226c11.622 3.447 22.18 9.728 30.77 18.335l275.449 277.615c50.099 50.134 44.449 134.161-12.85 191.369zM482.92 256.658c-1.479 16.278-6.082 32.25-12.975 47.409l170.633 170.615c10.431-32.953 5.071-67.423-17.794-90.306-0.145-0.144-0.325-0.235-0.451-0.379l0.253-0.235-139.466-140.586c0 4.494 0.216 8.897-0.199 13.481zM460.884 320.526c-6.731 11.062-14.383 21.746-23.858 31.203-11.027 11.027-23.678 19.671-36.888 26.926l172.023 172.023c13.499-5.991 26.438-14.527 37.862-25.952 9.763-9.728 17.307-20.628 23.118-31.961l-172.257-172.239zM383.156 387.192c-16.712 6.731-34.217 10.576-51.759 10.81l139.015 140.079c21.278 20.754 52.264 26.727 82.781 19.166l-170.038-170.055zM269.118 146.969c-1.967-0.451-8.085-2.003-12.236-2.292-14.834 0.181-26.872 12.236-26.872 27.070 0.216 3.032 1.425 8.247 1.841 10.142l19.003 68.831c20.628 0.559 42.825-7.472 60.276-24.959 17.722-17.686 26.060-40.317 25.157-61.197l-67.171-17.595zM354.065 169.275c-0.434 24.219-10.287 49.412-30.175 69.264-18.804 18.823-43.421 29.687-67.964 30.662l17.975 65.095c1.3 4.331 3.88 8.608 7.056 12.344 36.202 25.915 91.877 18.264 130.551-20.447 40.913-40.894 47.228-100.809 15.719-136.579-2.094-1.101-4.205-2.148-6.479-2.815l-66.683-17.524zM711.699 473.636l-30.391-30.626c0 4.078 0.488 7.995 0.108 12.163-3.176 34.92-19.454 68.687-45.893 95.089-29.398 29.417-68.38 46.29-106.982 46.399l29.885 30.138c14.961 14.925 35.841 23.19 58.67 23.19 29.037 0 58.869-13.138 81.806-36.004 21.53-21.494 34.361-48.203 36.202-75.22 1.697-25.211-6.623-48.329-23.407-65.131z" />
<glyph unicode="&#xe02e;" glyph-name="params" d="M338.292 577.424v54.52c0 29.849-24.291 54.141-54.141 54.141s-54.141-24.291-54.141-54.141v-54.52c-21.8-16.513-36.094-42.374-36.094-71.809s14.294-55.295 36.094-71.772v-271.118c0-29.849 24.291-54.141 54.141-54.141s54.141 24.291 54.141 54.141v271.118c21.8 16.459 36.094 42.338 36.094 71.772s-14.294 55.295-36.094 71.809zM266.104 631.943c0 9.98 8.067 18.047 18.047 18.047s18.047-8.067 18.047-18.047v-37.899c-5.829 1.173-11.857 1.805-18.047 1.805s-12.217-0.632-18.047-1.805v37.899zM302.198 162.724c0-9.98-8.067-18.047-18.047-18.047s-18.047 8.067-18.047 18.047v254.497c5.829-1.209 11.857-1.841 18.047-1.841s12.217 0.632 18.047 1.841v-254.497zM335.855 490.456c-0.289-0.956-0.542-1.895-0.885-2.852-1.714-4.764-3.916-9.276-6.822-13.282-0.072-0.108-0.181-0.181-0.253-0.289-3.141-4.296-6.876-8.103-11.116-11.315-0.072-0.072-0.127-0.108-0.181-0.145-4.35-3.284-9.204-5.919-14.419-7.761-5.649-2.040-11.658-3.339-18.029-3.339s-12.38 1.3-18.047 3.357c-5.216 1.841-10.070 4.475-14.419 7.761-0.054 0.036-0.108 0.072-0.181 0.144-4.241 3.212-7.977 7.020-11.117 11.315-0.072 0.108-0.181 0.181-0.253 0.289-2.906 4.024-5.108 8.536-6.822 13.283-0.343 0.956-0.596 1.895-0.885 2.852-1.425 4.819-2.418 9.853-2.418 15.142 0 5.324 0.993 10.359 2.436 15.196 0.289 0.956 0.542 1.895 0.885 2.815 1.697 4.764 3.898 9.276 6.822 13.318 0.072 0.108 0.181 0.181 0.253 0.289 3.141 4.259 6.876 8.103 11.116 11.315 0.072 0.036 0.126 0.108 0.181 0.144 4.331 3.23 9.186 5.883 14.402 7.742 5.667 2.021 11.677 3.321 18.047 3.321s12.381-1.3 18.047-3.321c5.216-1.877 10.070-4.512 14.419-7.76 0.054-0.036 0.108-0.108 0.181-0.145 4.241-3.212 7.977-7.056 11.116-11.315 0.072-0.108 0.181-0.181 0.253-0.289 2.906-4.024 5.108-8.536 6.804-13.301 0.343-0.92 0.613-1.859 0.885-2.815 1.444-4.836 2.437-9.872 2.437-15.196 0-5.287-0.993-10.323-2.437-15.159zM735.323 577.424v54.52c0 29.849-24.291 54.141-54.141 54.141s-54.141-24.291-54.141-54.141v-54.52c-21.819-16.513-36.094-42.374-36.094-71.809s14.275-55.295 36.094-71.772v-271.118c0-29.849 24.291-54.141 54.141-54.141s54.141 24.291 54.141 54.141v271.118c21.783 16.459 36.094 42.338 36.094 71.772s-14.311 55.295-36.094 71.809zM663.135 631.943c0 9.98 8.067 18.047 18.047 18.047s18.047-8.067 18.047-18.047v-37.899c-5.847 1.173-11.875 1.805-18.047 1.805-6.209 0-12.236-0.632-18.047-1.805v37.899zM699.229 162.724c0-9.98-8.067-18.047-18.047-18.047s-18.047 8.067-18.047 18.047v254.497c5.811-1.209 11.839-1.841 18.047-1.841 6.172 0 12.2 0.632 18.047 1.841v-254.497zM732.886 490.456c-0.289-0.956-0.559-1.895-0.885-2.852-1.732-4.764-3.916-9.276-6.84-13.282-0.072-0.108-0.181-0.181-0.253-0.289-3.14-4.296-6.876-8.103-11.099-11.315-0.072-0.072-0.144-0.108-0.181-0.145-4.367-3.284-9.204-5.919-14.419-7.761-5.649-2.040-11.677-3.339-18.029-3.339-6.388 0-12.38 1.3-18.047 3.357-5.216 1.841-10.088 4.475-14.419 7.761-0.072 0.036-0.108 0.072-0.181 0.144-4.259 3.212-7.995 7.020-11.135 11.315-0.072 0.108-0.181 0.181-0.253 0.289-2.888 4.024-5.108 8.536-6.803 13.283-0.361 0.956-0.596 1.895-0.885 2.852-1.425 4.819-2.418 9.853-2.418 15.142 0 5.324 0.993 10.359 2.436 15.196 0.289 0.956 0.523 1.895 0.885 2.815 1.697 4.764 3.916 9.276 6.803 13.318 0.072 0.108 0.181 0.181 0.253 0.289 3.141 4.259 6.876 8.103 11.135 11.315 0.072 0.036 0.108 0.108 0.181 0.144 4.331 3.249 9.204 5.883 14.419 7.76 5.649 2.003 11.64 3.303 18.029 3.303 6.352 0 12.38-1.3 18.047-3.321 5.216-1.877 10.052-4.512 14.419-7.76 0.036-0.036 0.108-0.108 0.181-0.145 4.223-3.212 7.959-7.056 11.099-11.315 0.072-0.108 0.181-0.181 0.253-0.289 2.923-4.061 5.108-8.573 6.84-13.318 0.325-0.92 0.596-1.877 0.885-2.815 1.425-4.819 2.418-9.853 2.418-15.177 0-5.287-0.993-10.323-2.437-15.159zM536.808 360.861v271.082c0 29.849-24.291 54.141-54.141 54.141s-54.141-24.291-54.141-54.141v-271.082c-21.8-16.495-36.094-42.374-36.094-71.809s14.294-55.295 36.094-71.772v-54.555c0-29.849 24.291-54.141 54.141-54.141s54.141 24.291 54.141 54.141v54.555c21.783 16.459 36.094 42.338 36.094 71.772s-14.311 55.295-36.094 71.809zM464.62 631.943c0 9.98 8.067 18.047 18.047 18.047s18.047-8.067 18.047-18.047v-254.461c-5.847 1.155-11.875 1.805-18.047 1.805-6.19 0-12.217-0.632-18.047-1.805v254.461zM500.714 162.724c0-9.98-8.067-18.047-18.047-18.047s-18.047 8.067-18.047 18.047v37.934c5.829-1.209 11.857-1.841 18.047-1.841 6.172 0 12.2 0.632 18.047 1.841v-37.934zM534.371 273.893c-0.289-0.956-0.559-1.895-0.885-2.852-1.732-4.764-3.916-9.276-6.84-13.283-0.072-0.108-0.181-0.181-0.253-0.289-3.141-4.296-6.876-8.103-11.099-11.315-0.072-0.072-0.144-0.108-0.181-0.145-4.367-3.284-9.204-5.919-14.419-7.76-5.649-2.040-11.677-3.339-18.029-3.339-6.371 0-12.38 1.299-18.047 3.357-5.216 1.841-10.070 4.475-14.419 7.76-0.054 0.036-0.108 0.072-0.181 0.145-4.241 3.212-7.977 7.020-11.116 11.315-0.072 0.108-0.181 0.181-0.253 0.289-2.906 4.024-5.108 8.536-6.822 13.283-0.343 0.956-0.596 1.895-0.885 2.852-1.425 4.819-2.418 9.853-2.418 15.142 0 5.324 0.993 10.359 2.437 15.196 0.289 0.956 0.542 1.895 0.885 2.815 1.714 4.764 3.916 9.276 6.822 13.318 0.072 0.108 0.181 0.181 0.253 0.289 3.141 4.259 6.876 8.103 11.116 11.315 0.072 0.036 0.127 0.108 0.181 0.145 4.35 3.249 9.204 5.883 14.419 7.76 5.649 2.003 11.658 3.303 18.029 3.303 6.353 0 12.381-1.299 18.047-3.321 5.216-1.876 10.052-4.512 14.419-7.76 0.036-0.036 0.108-0.108 0.181-0.145 4.223-3.212 7.959-7.057 11.099-11.315 0.072-0.108 0.181-0.181 0.253-0.289 2.923-4.061 5.108-8.573 6.84-13.318 0.325-0.92 0.596-1.877 0.885-2.815 1.425-4.819 2.418-9.853 2.418-15.177 0-5.287-0.993-10.323-2.437-15.16z" />
<glyph unicode="&#xe02f;" glyph-name="world" d="M473.643 686.084c-154.5 0-279.726-125.228-279.726-279.726s125.228-279.726 279.726-279.726 279.726 125.228 279.726 279.726-125.228 279.726-279.726 279.726zM716.825 415.38h-108.209c-0.993 39.974-8.103 78.161-20.718 113.118 24.363 10.16 46.886 23.678 67.424 39.649 36.509-40.984 59.338-94.205 61.504-152.767zM463.663 163.23c-29.994 24.976-55.151 57.407-73.559 95.071 23.623 7.381 48.654 11.423 74.516 12.254v-107.361c-0.325 0-0.632 0.018-0.956 0.036zM483.587 649.485c34.037-28.333 61.811-66.286 80.597-110.555-25.734-8.789-53.076-13.896-81.536-14.799v125.407c0.343-0.018 0.632-0.036 0.939-0.054zM513.653 646.417c49.81-8.284 94.494-31.546 129.288-65.222-18.895-14.492-39.54-26.764-61.865-36.058-16.423 38.927-39.469 73.342-67.424 101.279zM464.62 649.539v-125.407c-28.46 0.92-55.819 6.010-81.536 14.799 18.787 44.269 46.561 82.221 80.597 110.556 0.325 0.018 0.613 0.036 0.939 0.054zM366.192 545.12c-22.288 9.294-42.951 21.566-61.847 36.058 34.776 33.676 79.479 56.938 129.288 65.222-27.973-27.919-51.001-62.334-67.441-101.279zM376.28 522.29c27.828-9.655 57.48-15.285 88.339-16.224v-90.686h-107.903c0.974 37.79 7.67 73.902 19.563 106.91zM464.62 397.334v-108.732c-28.46-0.866-55.982-5.522-81.915-13.878-15.628 37.213-24.851 78.667-25.988 122.611h107.903zM433.633 166.298c-44.63 7.418-85.163 26.854-118.117 55.079 17.776 12.326 36.996 22.757 57.534 30.68 15.737-32.629 36.328-61.594 60.583-85.759zM482.667 163.176v107.361c25.843-0.831 50.892-4.873 74.516-12.254-18.426-37.664-43.565-70.094-73.559-95.071-0.307 0-0.632-0.018-0.956-0.036zM574.236 252.057c20.52-7.923 39.721-18.372 57.534-30.68-32.953-28.208-73.486-47.662-118.117-55.079 24.255 24.165 44.829 53.13 60.583 85.759zM564.582 274.723c-25.952 8.355-53.473 13.012-81.915 13.878v108.732h107.903c-1.137-43.944-10.377-85.398-25.987-122.611zM482.667 415.38v90.686c30.842 0.939 60.494 6.551 88.339 16.206 11.875-33.007 18.57-69.119 19.563-106.91h-107.903zM291.983 568.147c20.537-15.971 43.060-29.488 67.405-39.649-12.615-34.957-19.725-73.144-20.718-113.118h-108.209c2.166 58.562 24.995 111.782 61.522 152.767zM230.461 397.334h108.209c1.119-46.11 10.756-89.657 27.124-128.801-22.865-8.915-44.179-20.79-63.85-34.849-42.374 42.176-69.119 99.835-71.483 163.649zM645.341 233.702c-19.671 14.041-40.984 25.933-63.868 34.849 16.386 39.144 26.006 82.691 27.143 128.801h108.209c-2.364-63.832-29.128-121.491-71.483-163.649z" />
<glyph unicode="&#xe032;" glyph-name="arrow-left" d="M609.688 183.139c7.739-7.825 7.739-20.444 0-28.269s-20.241-7.825-27.98 0l-226.091 228.314c-7.739 7.825-7.739 20.473 0 28.269l226.091 228.343c7.738 7.825 20.241 7.825 27.98 0s7.739-20.444 0-28.269l-206.167-214.195 206.167-214.195z" />
<glyph unicode="&#xe033;" glyph-name="arrow-right" d="M355.608 183.139c-7.739-7.825-7.739-20.444 0-28.269s20.241-7.825 27.98 0l226.091 228.314c7.739 7.825 7.739 20.473 0 28.269l-226.091 228.343c-7.738 7.825-20.241 7.825-27.98 0s-7.739-20.444 0-28.269l206.167-214.195-206.167-214.195z" />
<glyph unicode="&#xe034;" glyph-name="arrow-left2" d="M551.938 298.639c7.738-7.825 7.738-20.473 0-28.269-7.739-7.825-20.241-7.825-27.98 0l-110.591 112.814c-7.739 7.825-7.739 20.473 0 28.269l110.591 112.843c7.738 7.825 20.241 7.825 27.98 0s7.738-20.444 0-28.269l-90.667-98.695 90.667-98.695z" />
<glyph unicode="&#xe035;" glyph-name="arrow-right1" d="M413.395 298.639c-7.739-7.825-7.739-20.473 0-28.269 7.709-7.825 20.241-7.825 27.98 0l110.591 112.814c7.738 7.825 7.738 20.473 0 28.269l-110.591 112.843c-7.738 7.825-20.241 7.825-27.98 0s-7.739-20.444-0.028-28.24l90.696-98.724-90.667-98.695z" />
<glyph unicode="&#xe036;" glyph-name="arrow-left3" d="M598.138 530.159l0.028-265.65-231 132.825z" />
<glyph unicode="&#xe037;" glyph-name="arrow-right2" d="M367.195 530.159l-0.028-265.65 231 132.825z" />
<glyph unicode="&#xe038;" glyph-name="arrow-left1" d="M524.16 555.685c-12.071-11.781-129.995-135.596-129.995-135.596-6.44-6.295-9.645-14.525-9.645-22.754s3.205-16.459 9.645-22.754c0 0 117.926-123.816 129.995-135.569 12.070-11.781 33.784-12.589 46.661 0 12.85 12.561 13.86 30.088-0.028 45.479l-108.194 112.843 108.194 112.843c13.888 15.42 12.877 32.946 0.028 45.506-12.906 12.56-34.621 11.781-46.661 0z" />
<glyph unicode="&#xe039;" glyph-name="arrow-right3" d="M441.174 555.685c12.070-11.781 129.995-135.596 129.995-135.596 6.469-6.295 9.674-14.525 9.674-22.754s-3.205-16.459-9.674-22.754c0 0-117.926-123.816-129.995-135.569-12.070-11.781-33.755-12.589-46.661 0-12.877 12.561-13.888 30.088 0 45.479l108.224 112.843-108.194 112.843c-13.888 15.42-12.877 32.946 0 45.506s34.592 11.781 46.634 0z" />
<glyph unicode="&#xe900;" glyph-name="external" d="M728.104 626.601c0 0 0-142.642 0-142.642 0-8.085-6.352-14.438-14.438-14.438s-14.438 6.352-14.438 14.438c0 0 0 109.725 0 109.725s-206.167-206.745-206.167-206.745c-5.775-5.775-15.015-5.775-20.79 0s-5.775 15.015 0 20.79c0 0 206.745 206.167 206.745 206.167s-109.725 0-109.725 0c-8.085 0-14.438 6.352-14.438 14.438s6.352 14.438 14.438 14.438c0 0 142.643 0 142.643 0 0.577 0 1.155 0 1.732 0 8.663 0.577 15.592-7.507 14.438-16.17 0 0 0 0 0 0zM453.792 556.146c8.085 0 14.438-6.353 14.438-14.438s-6.353-14.438-14.438-14.438c0 0-144.375 0-144.375 0-9.817 0-20.79-5.198-29.453-13.86s-13.86-19.635-13.86-29.452c0 0 0-259.875 0-259.875 0-18.48 5.197-27.72 12.705-34.072s18.48-9.24 30.608-9.24c0 0 259.875 0 259.875 0 9.817 0 20.79 5.197 29.452 13.86s13.86 19.635 13.86 29.452c0 0 0 144.375 0 144.375 0 8.085 6.352 14.438 14.438 14.438s14.438-6.352 14.438-14.438c0 0 0-144.375 0-144.375 0-19.058-9.24-36.96-22.523-49.665-12.705-13.283-30.608-22.523-49.665-22.523 0 0-259.875 0-259.875 0-16.748 0-34.65 4.043-49.088 16.17-13.86 11.55-23.1 31.185-23.1 56.018 0 0 0 259.875 0 259.875 0 19.058 9.24 36.96 22.523 49.665 12.705 13.283 30.607 22.523 49.665 22.523 0 0 144.375 0 144.375 0z" />
<glyph unicode="&#xe901;" glyph-name="menu" d="M703.435 417.714h-442.297c-12.077 0-20.38-8.303-20.38-20.38s8.303-20.38 20.38-20.38h443.050c12.077 0 20.38 8.303 20.38 20.38-0.756 12.077-9.056 20.38-21.132 20.38zM703.435 276.57h-442.297c-12.077 0-20.38-8.303-20.38-20.38s8.303-20.38 20.38-20.38h443.050c12.077 0 20.38 8.303 20.38 20.38-0.756 12.077-9.056 20.38-21.132 20.38zM261.14 518.097h443.050c12.077 0 20.38 8.303 20.38 20.38s-8.303 20.38-20.38 20.38h-443.050c-12.077 0-20.38-8.303-20.38-20.38s8.303-20.38 20.38-20.38z" />
<glyph unicode="&#xe902;" glyph-name="close" d="M513.347 397.334l179.567 179.567c9.024 9.024 9.024 21.656 0 30.68s-21.656 9.024-30.68 0l-179.567-179.567-180.469 178.664c-8.121 9.024-21.656 9.024-29.777 0s-9.024-21.656 0-30.68l179.567-178.664-179.567-179.567c-9.024-9.024-9.024-21.656 0-30.68 4.512-3.61 9.024-6.317 15.34-6.317s10.829 1.805 15.339 6.317l180.469 179.567 180.469-178.664c4.512-3.61 10.829-6.317 15.34-6.317s10.829 1.805 15.34 6.317c9.024 9.024 9.024 21.656 0 30.68l-181.371 178.664z" />
<glyph unicode="&#xe903;" glyph-name="translation" d="M605.209 342.954c-1.504 5.011-7.684 7.355-14.032 7.355-6.181 0-12.363-2.345-13.866-7.355l-32.247-105.086c-0.166-0.67-0.334-1.337-0.334-1.67 0-5.349 7.852-9.022 13.7-9.022 3.678 0 6.514 1.165 7.352 4.342l6.343 22.222h38.262l6.352-22.222c0.833-3.178 3.673-4.342 7.348-4.342 5.849 0 13.7 3.84 13.7 9.022 0 0.5-0.166 1.004-0.334 1.67zM576.641 270.785l14.532 51.288 14.541-51.288zM691.498 446.343h-159.826v68.262l51.942 37.1c4.099 2.929 6.532 7.652 6.532 12.69 0 5.041-2.434 9.766-6.532 12.695l-52.567 37.548c-4.107 27.629-27.986 48.892-56.735 48.892h-200.473c-31.632 0-57.364-25.732-57.364-57.364v-200.477c0-31.629 25.732-57.359 57.364-57.359h159.823v-68.263l-51.942-37.1c-4.099-2.929-6.532-7.657-6.532-12.695s2.433-9.766 6.532-12.689l52.567-37.548c4.107-27.629 27.986-48.891 56.735-48.891h200.477c31.629 0 57.36 25.736 57.36 57.364v200.473c0 31.632-25.733 57.364-57.36 57.364zM273.839 379.518c-14.43 0-26.171 11.738-26.171 26.172v200.477c0 14.426 11.738 26.166 26.171 26.166h200.472c14.427 0 26.167-11.738 26.167-26.166 0-5.041 2.434-9.767 6.532-12.695l40.704-29.074-40.704-29.074c-4.099-2.929-6.532-7.657-6.532-12.695v-76.287h-9.456c-31.629 0-57.36-25.733-57.36-57.359v-9.466zM717.665 188.506c0-14.431-11.738-26.171-26.166-26.171h-200.477c-14.426 0-26.166 11.738-26.166 26.171 0 5.039-2.433 9.766-6.532 12.689l-40.704 29.074 40.704 29.074c4.099 2.929 6.532 7.657 6.532 12.695v116.944c0 14.431 11.738 26.172 26.166 26.172h200.477c14.427 0 26.166-11.738 26.166-26.172zM421.995 519.744c4.853 0 8.794 3.941 8.794 8.798s-3.941 8.799-8.794 8.799h-39.126v21.357c0 4.857-3.941 8.799-8.799 8.799-4.853 0-8.794-3.941-8.794-8.799v-21.357h-39.127c-4.853 0-8.794-3.941-8.794-8.799s3.941-8.798 8.794-8.798h12.125c1.939-18.575 9.948-35.361 21.995-48.364-9.989-5.978-21.653-9.433-34.12-9.433-4.853 0-8.794-3.937-8.794-8.794s3.941-8.799 8.794-8.799c17.798 0 34.311 5.565 47.922 15.028 13.616-9.466 30.127-15.028 47.925-15.028 4.853 0 8.794 3.941 8.794 8.799s-3.941 8.794-8.794 8.794c-12.465 0-24.131 3.444-34.12 9.433 12.048 13.001 20.056 29.79 21.994 48.364zM374.071 482.37c-9.622 9.989-16.156 22.957-18.071 37.373h36.146c-1.914-14.416-8.449-27.385-18.075-37.373z" />
<glyph unicode="&#xe904;" glyph-name="update" d="M321.552 377.779c-0.818 6.825-1.237 13.595-1.237 19.554 0 88.968 73.39 162.354 162.355 162.354 41.5 0 80.349-16.733 108.928-42.826l-14.327-14.58c-3.228-3.227-4.469-7.949-3.228-12.423 1.494-4.226 4.97-7.457 9.443-8.445 2.506-0.501 84.669-26.977 79.436-25.929 6.656-2.215 16.502 4.885 14.666 14.662-0.505 2.506-18.699 93.779-17.642 88.554-0.994 4.469-4.228 8.202-8.698 9.444-4.226 1.242-8.946 0-12.179-3.227l-12.179-11.926c-37.525 35.032-89.052 56.407-144.218 56.407-116.548 0-212.057-95.507-212.057-212.057v-0.491c0-7.008 0.322-12.42 0.694-16.558 0.491-5.488 4.543-9.983 9.945-11.067l25.526-5.102c8.31-1.661 15.783 5.304 14.779 13.665zM684.161 425.473l-25.599 5.214c-8.317 1.696-15.839-5.278-14.82-13.681 0.887-7.25 1.285-14.302 1.285-19.68 0-88.962-73.391-162.354-162.354-162.354-41.5 0-80.349 16.733-108.928 43.072l14.328 14.327c3.227 3.227 4.469 7.949 3.227 12.423-1.494 4.228-4.97 7.457-9.444 8.445-2.506 0.505-84.669 26.977-79.436 25.929-4.228 0.745-8.45-0.496-11.181-3.48-2.984-2.735-4.228-7.204-3.485-11.181 0.505-2.506 18.702-92.952 17.645-87.721 0.994-4.473 4.226-8.203 8.695-9.443 5.182-1.302 9.517 0.274 12.179 3.228l11.93 11.926c37.525-35.038 89.049-57.242 144.462-57.242 116.548 0 212.057 95.508 212.057 212.057v0.749c0 5.505-0.198 10.911-0.659 16.289-0.471 5.493-4.499 10.004-9.903 11.104z" />
<glyph unicode="&#xe905;" glyph-name="water" d="M725.169 357.579c-8.151-6.113-13.536-10.152-25.944-10.152s-17.793 4.040-25.944 10.152c-10.051 7.538-22.559 16.919-46.248 16.919s-36.195-9.381-46.246-16.919c-8.152-6.112-13.535-10.152-25.943-10.152s-17.791 4.038-25.942 10.152c-10.049 7.538-22.558 16.919-46.246 16.919s-36.193-9.381-46.244-16.919c-8.15-6.112-13.534-10.152-25.94-10.152s-17.791 4.040-25.943 10.152c-10.049 7.538-22.558 16.919-46.246 16.919s-36.194-9.381-46.246-16.919c-8.15-6.112-13.536-10.152-25.943-10.152s-17.79 4.038-25.94 10.152c-10.051 7.538-22.558 16.919-46.245 16.919v-33.838c12.407 0 17.79-4.038 25.941-10.152 10.049-7.538 22.557-16.919 46.245-16.919s36.194 9.381 46.246 16.919c8.15 6.112 13.536 10.152 25.943 10.152s17.792-4.039 25.943-10.152c10.049-7.538 22.558-16.919 46.246-16.919s36.193 9.381 46.244 16.919c8.15 6.112 13.535 10.152 25.94 10.152 12.408 0 17.791-4.039 25.943-10.152 10.049-7.538 22.558-16.919 46.245-16.919s36.196 9.381 46.246 16.919c8.151 6.112 13.535 10.152 25.943 10.152s17.793-4.039 25.944-10.152c10.050-7.538 22.559-16.919 46.248-16.919s36.196 9.381 46.248 16.919c8.152 6.113 13.536 10.152 25.944 10.152v33.838c-23.688-0.001-36.197-9.382-46.249-16.919zM699.225 269.086c-12.408 0-17.793 4.040-25.944 10.152-10.051 7.538-22.559 16.919-46.248 16.919s-36.195-9.381-46.246-16.919c-8.152-6.112-13.535-10.152-25.943-10.152s-17.791 4.038-25.942 10.152c-10.049 7.538-22.558 16.919-46.246 16.919s-36.193-9.381-46.244-16.919c-8.15-6.112-13.534-10.152-25.94-10.152s-17.791 4.040-25.943 10.152c-10.049 7.538-22.558 16.919-46.246 16.919s-36.194-9.381-46.246-16.919c-8.15-6.112-13.536-10.152-25.943-10.152s-17.79 4.038-25.94 10.152c-10.051 7.538-22.558 16.919-46.245 16.919v-33.838c12.407 0 17.79-4.038 25.941-10.152 10.049-7.538 22.557-16.919 46.245-16.919s36.194 9.382 46.246 16.919c8.15 6.111 13.536 10.152 25.943 10.152s17.792-4.039 25.943-10.152c10.049-7.538 22.558-16.919 46.246-16.919s36.193 9.382 46.244 16.919c8.15 6.111 13.535 10.152 25.94 10.152s17.791-4.039 25.942-10.152c10.049-7.538 22.558-16.919 46.245-16.919s36.196 9.382 46.246 16.919c8.151 6.111 13.535 10.152 25.943 10.152s17.793-4.039 25.944-10.152c10.050-7.538 22.559-16.919 46.248-16.919s36.196 9.382 46.248 16.919c8.152 6.113 13.536 10.152 25.944 10.152v33.838c-23.687 0-36.196-9.381-46.248-16.919-8.153-6.113-13.537-10.152-25.946-10.152zM699.225 190.745c-12.408 0-17.793 4.039-25.944 10.152-10.051 7.538-22.559 16.919-46.248 16.919s-36.195-9.382-46.246-16.919c-8.152-6.112-13.535-10.152-25.943-10.152s-17.791 4.038-25.942 10.152c-10.049 7.538-22.558 16.919-46.246 16.919s-36.193-9.382-46.244-16.919c-8.15-6.112-13.534-10.152-25.94-10.152s-17.791 4.039-25.943 10.152c-10.049 7.538-22.558 16.919-46.246 16.919s-36.194-9.382-46.246-16.919c-8.15-6.112-13.536-10.152-25.943-10.152s-17.79 4.038-25.94 10.152c-10.051 7.538-22.558 16.919-46.245 16.919v-33.838c12.407 0 17.79-4.038 25.941-10.152 10.049-7.538 22.557-16.919 46.245-16.919s36.194 9.382 46.246 16.919c8.15 6.112 13.536 10.152 25.943 10.152s17.792-4.039 25.943-10.152c10.049-7.538 22.558-16.919 46.246-16.919s36.193 9.382 46.244 16.919c8.15 6.112 13.535 10.152 25.94 10.152s17.791-4.039 25.942-10.152c10.049-7.538 22.558-16.919 46.245-16.919s36.196 9.382 46.246 16.919c8.151 6.112 13.535 10.152 25.943 10.152s17.793-4.039 25.944-10.152c10.050-7.538 22.559-16.919 46.248-16.919s36.196 9.382 46.248 16.919c8.152 6.113 13.536 10.152 25.944 10.152v33.838c-23.687 0-36.196-9.382-46.248-16.919-8.153-6.113-13.537-10.152-25.946-10.152zM584.744 495.078v-2.82h33.838v2.82c0 27.677 22.517 50.193 50.193 50.193v33.838c-27.393 0-51.761-13.179-67.112-33.528-15.35 20.346-39.718 33.528-67.112 33.528v-33.838c27.675 0 50.193-22.515 50.193-50.193zM440.998 563.253v-2.421h33.838v2.421c0 22.425 18.243 40.669 40.669 40.669v33.838c-23.176 0-43.912-10.639-57.59-27.289-13.676 16.649-34.412 27.289-57.59 27.289v-33.838c22.425 0 40.67-18.243 40.67-40.669z" />
<glyph unicode="&#xf182;" glyph-name="female" horiz-adv-x="731" d="M606.417 345.771q0-12.891-9.024-21.914t-21.914-9.024q-16.436 0-25.781 13.857l-73.154 109.893h-14.501v-42.54l79.6-132.451q2.9-4.834 2.9-10.635 0-8.379-6.123-14.501t-14.502-6.123h-61.875v-87.656q0-14.824-10.635-25.459t-25.459-10.635h-51.563q-14.824 0-25.459 10.635t-10.635 25.459v87.656h-61.875q-8.379 0-14.501 6.123t-6.123 14.502q0 5.801 2.9 10.635l79.6 132.451v42.539h-14.502l-73.154-109.893q-9.344-13.857-25.78-13.857-12.891 0-21.914 9.024t-9.024 21.914q0 9.345 5.156 17.081l82.5 123.75q23.525 34.482 56.719 34.482h123.75q33.193 0 56.719-34.482l82.501-123.75q5.156-7.735 5.156-17.081zM472.354 603.584q0-29.97-21.109-51.079t-51.078-21.109-51.079 21.109-21.109 51.079 21.109 51.078 51.079 21.109 51.078-21.109 21.109-51.078z" />
<glyph unicode="&#xf183;" glyph-name="male" horiz-adv-x="585" d="M523.917 459.209v-134.062q0-12.891-9.024-21.914t-21.914-9.024-21.914 9.024-9.024 21.914v113.437h-20.625v-293.906q0-14.825-10.635-25.459t-25.459-10.635-25.459 10.635-10.635 25.459v149.531h-20.625v-149.531q0-14.825-10.635-25.459t-25.459-10.635-25.459 10.635-10.635 25.459v293.906h-20.624v-113.437q0-12.891-9.024-21.914t-21.914-9.024-21.914 9.024-9.024 21.914v134.062q0 25.781 18.047 43.829t43.829 18.047h206.25q25.78 0 43.828-18.047t18.047-43.829zM431.104 603.584q0-29.97-21.109-51.079t-51.078-21.109-51.079 21.109-21.109 51.079 21.109 51.078 51.079 21.109 51.078-21.109 21.109-51.078z" />
</font>
</defs>
</svg>
