<svg xmlns="http://www.w3.org/2000/svg" xmlns:xlink="http://www.w3.org/1999/xlink" width="512" height="512" preserveAspectRatio="xMidYMid meet" xmlns:v="https://vecta.io/nano"><defs><path id="A" d="M377.9 65.54l1 .1 1 .1 1 .15 1 .18 1 .2 1 .24 1 .27.98.3.98.33.97.36.97.4.97.42.95.45.96.48.95.5.94.55.94.57.94.6.93.64.92.66.26.2.27.2.28.22.28.23.3.24.6.52.3.27.32.28.64.58.33.3.33.3.34.32 1 .98.68.68.35.34 1 1.04.67.7.33.35.96 1.05.3.35.3.34.3.35.3.34.56.66.26.33.26.32.25.32.24.3.23.3 2 2.65-1.23 3.75-.3.86-.32.84-.32.83-.35.82-.35.8-.37.78-.38.77-.4.75-.4.73-.43.72-.43.7-.45.68-.47.67-.47.65-.5.63-.5.62-.5.6-.53.58-.54.56-.55.55-.56.52-.57.5-.6.5-.6.47-.6.46-.62.43-.63.42-.64.4-.65.38-.66.36-.67.34-.7.33-.7.3-.7.28-.7.27-.73.24-.73.23-.74.2-.75.2-.76.16-.35.07-.34.06-.33.06-.34.06-.32.05-.33.05-.32.04-.32.05-.3.03-.3.04-.32.03-.3.02-.3.03h-.3l-.62.02-.63.02h-.32l-.32-.01h-.32l-.33-.01-.66-.04-.34-.02-.7-.06-.36-.03-.74-.08-.38-.04-.4-.05-.4-.06-.4-.05-.4-.06-.43-.07-.88-.14-.46-.08-.47-.08-.43-.07-.88-.14-.44-.06-1.35-.18-.9-.1-.46-.04-.45-.05-.46-.04-1.8-.12-1.33-.06-1.3-.03h-.83l-.4.01h-.4-.4l-.4.02-.74.04-.36.02-.68.06-.33.04-.3.04-.3.04-.3.04-.28.05-.27.06-.25.05-.42.1-.84.24-.42.14-.42.15-.43.16-.42.16-.42.18-.42.2-.42.2-.4.2-.42.22-.4.22-.82.48-.4.25-.4.26-.78.54-.4.28-.38.3-.37.3-.37.3-.72.62-.34.32-.68.66-.32.33-.32.34-.3.34-.3.35-.3.35-.28.35-.27.36-.26.36-.24.36-.24.37-.22.36-.2.37-.24.44-.24.5-.13.27-.12.28-.13.3-.13.3-.26.62-.14.33-.26.66-.4 1.02-.12.35-.13.34-.12.35-.24.68-.1.34-.22.66-.2.64-.18.6-.08.3-.07.28-.07.27-.07.25-.06.25-.05.22-.04.22-.03.2-.03.18-.02.16-.01.15v.2l.01.03v.03l.02.04h.02.02.01.02l.02-.02.01-.02.02-.02.04-.06.04-.08.03-.05.04-.1.06-.12v-.07l.06-.14.02-.08.03-.08.03-.1.03-.08.03-.1.03-.1.06-.2.12-.44.03-.12.17-.56.17-.54.2-.55.2-.54.4-1.06.22-.52.22-.5.24-.5.48-1 .26-.48.26-.5.26-.47.56-.92.3-.45.3-.44.3-.44.62-.84.64-.8.33-.4.34-.38.68-.72.35-.35.36-.34.72-.64.37-.3.37-.3.37-.28.38-.27.4-.26.38-.24.4-.23.4-.22.4-.2.26-.13.54-.24.56-.24.3-.1.6-.22.6-.2.3-.1.3-.1.32-.1.32-.08.3-.1.33-.08.32-.08.64-.14.33-.07.32-.06.33-.06.32-.06.64-.1.64-.08.3-.04.3-.03.62-.04.3-.02.3-.01.58-.02.28.01h.28l.28.01.52.04.12.01.13.02h.14l.14.02.32.04.36.06.18.02.2.03.2.04.2.03.22.03.22.04.46.08.48.08.25.05.25.04.26.05.26.04.26.05.8.15.28.05.27.06.84.15.28.06.28.05.28.06.3.05.28.06.28.05.27.06.28.05.28.06.57.1.56.12.54.1.53.1.52.1.5.1.5.08.48.08.94.14.45.06.44.06.44.05.43.04.42.04.4.04.4.02.4.03.4.02.78.02h.76l.38-.01h.38l.38-.01.37-.03.38-.03.37-.03.38-.04.38-.05.38-.04.38-.06.4-.06.38-.06.4-.07.4-.08.82-.16.4-.1.6-.13.6-.16.6-.16.6-.17.6-.2.58-.2.57-.2.57-.22.57-.23.56-.25.55-.25.55-.26.54-.28.54-.3.53-.3.53-.3.52-.32.5-.33.5-.34.5-.35.5-.37.5-.37.48-.38.48-.4.47-.4.46-.4.46-.43.45-.43.88-.9.43-.47.42-.47.42-.5.4-.5.4-.5.78-1.04.38-.54.37-.54.53-.8.16-.26.34-.56.18-.3.17-.3.18-.32.18-.3.17-.33.36-.66.18-.34.17-.34.18-.35.17-.34.17-.35.34-.68.32-.68.15-.34.15-.33.15-.32.14-.32.14-.3.12-.3.13-.3.1-.28.1-.27.1-.27.1-.25.08-.24.08-.22.07-.2.05-.2.05-.17.04-.17.03-.14.02-.13v-.1l.02-.12.02-.06.02-.05.04-.06.1-.1.07-.04.16-.1.1-.04.1-.04.26-.08.15-.04.16-.03.18-.04.2-.03.2-.04.22-.03.24-.03.25-.03.27-.03.28-.03.3-.03.32-.02.34-.03.36-.03.38-.02.4-.03.42-.02.44-.03.46-.02.47-.03 1.03-.04.54-.03.57-.02.6-.03.62-.02 1.65-.06 2.1-.04h1.5l1.9.04.46.02.9.04.88.06.43.03 1.28.12.4.04.42.05.4.05 1.6.24.4.07.4.07.4.08.4.07.38.08.4.1.76.18.4.1.38.1 1.45.4 1.43.44 1.4.47 1.36.5 1.32.55 1.3.58 1.26.62 1.23.65 1.2.7 1.17.72 1.13.76 1.1.8 1.07.83 1.04.87 1 .9.97.94.95.97.9 1.02.88 1.04.84 1.1.82 1.12.78 1.16.75 1.2.72 1.23.7 1.26.65 1.3.63 1.34.6 1.37.56 1.4.52 1.45.5 1.48.46 1.5.43 1.56.4 1.6.37 1.62.33 1.66.3 1.7.27 1.74.24 1.77.2 1.8.55 5.2-1.56 1.33-.4.34-.44.35-.46.35-.48.35-.5.37-.52.36-.54.37-.56.37-.58.38-.6.38-.6.37-.6.38-1.28.76-.65.38-.66.38-.67.37-1.36.74-2.07 1.08-.7.34-.7.35-1.38.66-.7.32-1.36.62-.68.3-1.32.56-.65.26-.63.25-.63.23-.6.23-.6.2-.58.2-.57.18-.55.17-.28.08-.27.08-.26.08-.5.14-.24.07-.24.06-.46.12-.88.2-.2.04-.22.04-.2.04-.2.03-.22.04-.2.03-.22.02-.22.03-.23.03-.22.02-.24.02-.23.02h-.25l-.24.01-.26.02-.26.01-.83.03-.3.01h-.3-.3-.33-.34l-.35.01h-.36l-.38.01h-.37l-.36-.01h-1l-.3-.01h-.3-.3-.28l-.77-.03-.48-.02-.22-.02-.22-.01-.22-.02-.2-.02-.2-.02-.2-.02-.2-.02-.18-.02-.2-.03-.54-.1-.34-.08-.18-.03-.17-.05-.17-.04-.17-.05-.18-.04-.17-.05-.18-.06-.18-.05-.18-.06-.2-.06-.38-.14-.48-.17-.48-.18-.47-.2-.94-.42-.46-.22-.46-.23-.46-.24-.45-.25-.44-.27-.45-.27-.44-.28-.43-.3-.44-.3-.42-.3-.43-.32-.42-.33-.42-.34-.4-.35-.4-.36-.8-.75-.8-.8-.4-.4-.38-.42-.38-.43-.38-.44-.38-.45-.37-.46-.36-.47-.37-.48-.36-.5-.35-.5-.35-.5-.35-.52-.68-1.08-.33-.55-.34-.56-.28-.47-.28-.46-.3-.46-.3-.44-.3-.44-.3-.43-.3-.42-.3-.4-.32-.4-.3-.4-.64-.76-.33-.37-.33-.36-.33-.35-.34-.34-.7-.67-.36-.32-.35-.3-.36-.3-.37-.3-.37-.3-.37-.28-.76-.54-.4-.25-.4-.25-.4-.24-.4-.24-.82-.44-.84-.42-.43-.2-.44-.2-.44-.18-.44-.17-.45-.17-.46-.16-.24-.08-.22-.08-.22-.07-.2-.07-.2-.07-.2-.06-.2-.05-.18-.06-.18-.05-.34-.08-.16-.04-.32-.06-.15-.03-.3-.04-.14-.01-.15-.02h-.14l-.15-.01h-.14l-.15.01-.14.01-.3.02-.15.02-.15.03-.16.02-.16.03-.17.04-.17.03-.17.05-.18.04-.38.1-.4.12-.22.06-.22.07-.2.05-.18.07-.2.06-.2.08-.2.07-.2.08-.38.18-.2.1-.2.1-.2.1-.2.1-.2.1-.2.1-.57.36-.2.13-.2.12-.2.14-.2.13-.72.56-.18.15-.5.45-.16.16-.17.16-.3.3-.15.16-.15.17-.14.16-.14.17-.14.16-.13.17-.12.17-.05.06-.05.07-.05.05-.04.06-.03.05-.06.08-.02.04-.04.06v.02.04.01h.03l.04-.02.03-.02h.04l.08-.06.05-.03.1-.08.06-.05.07-.05.14-.12.16-.14.1-.08.1-.07.1-.1.1-.1.1-.1.22-.2.12-.1.34-.3.34-.3.34-.28.34-.27.34-.25.34-.24.35-.23.34-.22.35-.2.34-.2.35-.18.35-.16.34-.15.35-.14.36-.13.35-.1.35-.1.36-.1.35-.07.36-.07.72-.08.37-.03.36-.01.74.02.37.03.37.04.38.05.76.14.38.1.38.1.4.1.4.13.4.15.4.15.4.17.4.18.4.2.66.34.32.18.33.2.64.4.64.42.32.22.3.22.3.23.62.48.3.24.3.25.3.25.58.52.28.27.28.26.55.55.52.56.25.28.25.3.48.58.23.3.44.58.2.3.2.3.2.3.2.3.36.6.32.6.15.3.06.13.14.28.08.15.07.15.16.3.16.32.1.16.08.16.1.17.1.16.1.17.1.16.18.34.1.17.18.34.1.17.1.16.1.17.1.17.1.16.1.17.1.16.18.32.1.16.1.16.18.3.1.14.08.15.18.28.24.4.52.78.54.76.55.73.58.72.6.7.6.68.63.64.64.63.65.6.67.58.7.56.7.53.7.52.74.5.74.46.76.45.77.42.8.4.8.37.8.35.82.33.84.3.85.27.86.26.87.23.88.2.9.18.9.16.9.13.92.1.94.08.94.05.95.04h.96.97l.98-.04 1-.07 1-.1 1-.12 1-.15.6-.1.6-.1.6-.12.63-.13.63-.15.65-.16.66-.17.66-.18.68-.2.68-.2.7-.22.7-.22.7-.23 1.42-.5.72-.26.72-.27.73-.28.72-.3 1.46-.6.73-.3.72-.32.73-.32.72-.33 1.44-.68 1.42-.7 1.4-.72.7-.37.68-.37.68-.38 1.32-.76 1.28-.78.62-.4.6-.4.16-.1.15-.1.16-.1.15-.1.16-.1.15-.1.15-.1.15-.1.3-.18.14-.1.28-.16.14-.1.13-.08.14-.07.13-.08.12-.07.13-.07.12-.07.1-.07.12-.06.1-.06.1-.06.2-.1.18-.1.16-.08.08-.03.07-.04.06-.03.06-.02.1-.04.08-.02.03-.01h.07l.06.02.12.03.15.06.06.02.05.03.06.03.07.02.06.03.07.04.07.03.07.04.08.03.07.04.16.08.08.05.08.04.1.05.1.04.08.05.18.1.1.06.1.05.1.05.1.06.1.05.1.06.1.06.1.06.1.06.2.12.64.4.64.43.63.44.63.45.63.46.62.47.6.5.6.5.6.5.6.52.6.53.58.54.58.55.57.57.56.57 1.1 1.16.54.6.53.6.52.6.5.62.5.63.5.63.48.64.47.65.46.65.45.66.44.66.43.67.42.67.4.67.4.68.38.68.37.7.35.7.34.7.33.7.3.7.3.7.3.7.2.47.18.47.17.46.34.88.15.44.15.43.15.42.14.4.13.42.13.4.24.8.22.8.2.8.18.8.08.4.08.4.08.4.07.4.07.42.12.84.05.44.06.43.04.45.05.45.12 1.42.03.5.06 1.02.04 1.07.08 2.2v1.1 1.68.56.56l-.02.56-.01.56-.06 1.64v.53l-.03.53-.03.52-.03.5-.08 1-.03.47-.05.46-.04.45-.04.43-.05.4-.05.4-.05.38-.05.36-.05.34-.05.32-.06.3-.05.28-.06.25-.06.22-.05.2-.06.18-.06.14-.06.12-.07.1-.06.05-.04.02h-.1l-.04-.01h-.04l-.05-.01-.05-.02-.05-.01-.12-.04-.14-.04-.14-.06-.08-.03-.07-.03-.1-.04-.08-.04-.08-.03-.1-.04-.1-.05-.1-.04-.1-.05-.1-.04-.1-.05-.2-.1-.1-.06-.1-.05-.1-.06-.1-.06-.1-.05-.1-.06-.1-.07-.33-.18-.1-.07-.73-.44-.74-.43-.77-.44-.78-.43-.8-.43-.82-.42-.83-.42-.84-.42-.86-.4-.87-.4-.88-.4-.9-.4-.9-.4-.9-.4-.92-.4-.92-.38-.94-.37-1.88-.72-.95-.35-.95-.34-.96-.34-.95-.33-.96-.32-.96-.3-.96-.3-1.92-.58-.95-.27-1.9-.52-.94-.24-.93-.23-.93-.22-.92-.2-.92-.2-.9-.18-.9-.17-.88-.16-.88-.15-.37-.06-.4-.05-.43-.05-.47-.05-.5-.05-.5-.04-.54-.04-.55-.03-.58-.04-.6-.03-.6-.03-.62-.02-1.28-.04-.66-.02h-.66l-1.34-.02h-2.7l-1.97.03-1.88.06-.6.02-.6.03-.56.03-.55.04-.53.03-.5.04-.47.04-.45.05-.42.05-.4.05-.36.05-.33.06-.72.14-.7.15-.7.16-.7.16-1.38.36-.7.2-.67.2-.68.2-.67.22-.67.23-.66.24-.66.25-.66.26-.66.28-.65.28-.65.3-.66.3-.65.32-.65.33-.65.34-.65.35-.66.37-.65.38-.66.4-.66.4-.66.42-.66.43-.67.44-.67.46-.67.47-.68.5-.68.5-.7.5-.7.53-.7.54-.7.56-.7.58-.72.6-.73.6-.4.35-.43.37-.45.4-.48.42-.5.45-.5.47-1.08 1-.56.53-1.16 1.12-1.82 1.8-1.25 1.25-1.93 1.96-.65.66-.65.67-1.3 1.36-.64.68-.65.68-.63.68-.64.67-.62.68-1.23 1.33-.6.66-.6.65-.58.64-1.1 1.25-.54.6-.5.6-.5.57-.48.56-.46.55-4.76 5.7 5.9-6.17 1.2-1.24 1.17-1.2 1.14-1.17 2.2-2.25 1.07-1.07 1.04-1.05 1.03-1 1-1 .98-.96.97-.92.94-.9.93-.88.9-.84.9-.83.88-.8 1.72-1.52.84-.73.82-.7.82-.68.8-.66.8-.64.8-.62.77-.6.77-.58.77-.57.75-.55.76-.53.75-.5.74-.5.74-.48.74-.47.74-.46.75-.45.74-.44 1.48-.84 1.5-.8.44-.22.43-.22.84-.42.4-.2.4-.2.78-.36.4-.17.38-.17.37-.16.38-.15.36-.15.37-.15.36-.14.37-.13.36-.13.72-.24.35-.12.36-.1.36-.1.37-.1.36-.1.37-.1.36-.1.38-.08.37-.1.76-.16.4-.07.8-.14.4-.07.4-.06.42-.07.43-.06.44-.05.44-.06.46-.06.73-.08.75-.07.74-.06.76-.05.76-.04.76-.03.78-.02.77-.01h.78l1.58.02.8.03.8.04.8.05.8.06.82.07.8.07.82.1 1.65.2 1.66.24.83.14.84.14.84.15.84.16 1.7.36.84.2.85.2.86.2.85.2.86.23.85.24.86.24 1.72.52.86.27 1.72.58.56.2 1.16.42.6.23.6.23.6.24.6.25.62.25.62.27.63.26.63.28.64.28.63.3.64.3.64.3.65.3 1.28.62 1.28.64.63.32.64.33 1.26.66.62.33.6.34.6.33.6.34 1.18.68.58.34 1.14.68.55.34.54.33.53.34 1.02.66.5.33.48.33.36.24.12.07.12.08.12.07.12.08.24.14.1.07.24.14.1.07.12.06.1.07.33.18.1.05.1.06.4.2.36.16.08.04.16.06.07.02.07.03.07.02.06.02h.06l.05.01.06.01.04.01h.1l.05.01.06.01.12.04.06.03.07.03.08.03.07.04.16.1.1.05.1.06.1.07.3.2.1.1.1.08.22.18.24.2.12.1.13.1.13.12.13.1.13.13.14.12.14.13.14.14.14.13.15.14.45.45.15.16.48.48.87.93.87.94.84.96.83.97.8.98.8 1 .78 1 .77 1.02.75 1.04.73 1.04.7 1.06.7 1.07.68 1.08.67 1.1.64 1.1.63 1.1.62 1.12.6 1.13.57 1.14.56 1.15.54 1.16.52 1.17.5 1.17.48 1.2.47 1.2.44 1.2.43 1.2.4 1.2.4 1.22.37 1.22.35 1.23.33 1.23.3 1.24.3 1.25.27 1.25.25 1.25.23 1.26.2 1.26.2 1.26.17 1.27.04.38.04.4.04.42.04.44.03.46.04.47.03.5.02.5.03.5.04 1.07.04 1.1.01.56.02.57.01.57v.58l.01.58v2.34l-.01.6v.57l-.01.58-.02.57-.01.56-.02.56v.55l-.04 1.06-.03.52-.02.5-.03.5-.04.48-.03.45-.04.45-.04.42-.04.4-.04.4-.03.26-.04.27-.08.58-.05.3-.04.32-.05.32-.05.33-.06.34-.05.34-.18 1.05-.06.36-.12.7-.06.36-.07.35-.12.68-.07.34-.12.64-.07.32-.06.3-.06.3-.05.28-.06.27-.06.25-.05.24-.05.23-.05.2-.05.2-.04.17-.05.16-.03.13-.04.1-.03.1-.03.06-.03.04h-.01l-.01.01-.01-.01h-.06l-.02-.01h-.02l-.1-.03-.04-.01-.03-.01-.08-.02-.04-.02-.04-.01h-.05l-.04-.01-.1-.04-.05-.01-.05-.02h-.06l-.05-.02-.06-.02-.06-.03-.18-.06-.06-.03-.06-.02-.07-.03-.06-.02-.07-.03-.06-.02-.14-.06-.07-.02-.17-.07-.17-.06-.18-.06-.2-.06-.6-.15-.42-.08-.44-.06-.23-.03-.22-.02-.46-.04h-.24l-.46-.02h-.7l-.46.02-.46.04-.44.04-.22.03-.2.03-.2.04-.4.08-.38.1-.18.05-.34.12-.16.06-.15.07-.2.1-.14.08-.16.1-.1.05-.18.12-.3.2-.33.24-.12.08-.1.1-.12.1-.13.1-.12.1-.13.1-.12.1-.13.1-.13.1-.14.1-.26.22-.14.1-.13.12-.14.1-.13.12-.14.1-.14.12-.13.12-.28.24-.13.1-.13.12-.14.12-.13.13-.13.12-.3.26-.28.25-.3.26-.28.24-.28.25-.28.23-.27.24-.56.46-.54.44-.28.2-.27.2-.28.2-.27.2-.28.2-.27.2-.28.2-1.12.76-.28.18-.3.2-.28.18-.3.18-.3.17-.3.18-.3.17-.3.18-.3.17-.62.34-.32.17-.3.17-.33.17-.32.17-.33.17-.34.16-.34.17-.47.23-1.33.62-.42.2-.4.18-.4.18-.4.17-.4.16-.74.3-.37.14-.36.14-1.05.36-.34.1-.34.1-.33.1-.34.1-.66.16-.34.07-.33.07-.33.06-.34.06-.33.05-.34.05-.35.04-.34.04-.35.04-.36.03-.36.02-.75.04-.38.02-.8.02h-2.42l-.27-.01h-.27l-.25-.01-.24-.01h-.24l-.22-.01-.2-.01-.2-.02h-.2l-.2-.02-.36-.04-.17-.02-.64-.12-.15-.03-.15-.04-.15-.05-.15-.04-.3-.1-.15-.06-.15-.05-.16-.07-.16-.06-.16-.07-.17-.08-.17-.07-.18-.1-.2-.08-.2-.1-.2-.1-.2-.1-.13-.06-.12-.07-.14-.07-.4-.2-.14-.08-.26-.16-.14-.08-.13-.08-.14-.1-.13-.08-.14-.1-.13-.08-.13-.1-.14-.1-.26-.18-.12-.1-.26-.18-.12-.1-.36-.27-.1-.1-.12-.1-.1-.1-.1-.1-.1-.1-.1-.08-.1-.1-.1-.1-.18-.16-.24-.24-.07-.08-.07-.07-.06-.08-.14-.14-.12-.14-.07-.06-.06-.06-.06-.07-.12-.12-.06-.05-.05-.06-.06-.05-.1-.1-.05-.04-.05-.05-.05-.04-.04-.04-.05-.04-.04-.03-.04-.04-.04-.03-.03-.02-.04-.03-.1-.06-.03-.01-.06-.03h-.04l-.02.02v.1l.03.1.04.1.06.1.07.12.08.12.1.13.12.14.12.15.13.15.15.16.16.16.16.17.36.36.2.18.2.2.2.18.2.2.88.76.46.38.23.18.24.18.46.36.23.16.22.17.23.16.22.15.22.14.2.14.2.13.2.12.2.1.2.1.7.35.27.12.28.1.28.12.3.1.3.1.6.2.3.1.3.08.3.1.32.08.96.2.33.06.34.06.33.05.68.1.68.08.34.03.35.02.35.03.34.02.7.02h1.06l.7-.02.35-.02.35-.03.35-.02.35-.04.35-.03.35-.05.55-.08.56-.1.57-.1.57-.1.58-.12.58-.13 1.16-.28 1.18-.32.6-.18.6-.18 1.18-.38.6-.2.6-.2 1.18-.44 1.18-.48.58-.24.58-.25.58-.26 1.14-.54.56-.27.55-.28 1.1-.58.53-.3.53-.3.52-.3.52-.3.5-.3.5-.32.96-.64.46-.33.45-.33.44-.33.4-.3.37-.3.35-.27.34-.25.3-.24.3-.23.28-.22.27-.2.26-.2.24-.18.23-.17.22-.16.2-.15.2-.13.18-.13.18-.12.17-.1.16-.1.15-.1.28-.16.14-.07.13-.06.12-.06.12-.04.12-.05.12-.04.1-.03.12-.03.22-.04.12-.02.1-.01.12-.01.13-.01h.25l.14-.01h.5l.1.01h.1l.4.04.18.02.1.02.1.02.08.02.18.04.1.03.08.02.1.04.08.03.1.03.08.04.1.04.08.04.1.05.08.04.1.05.1.06.1.05.18.12.1.07.1.06.1.08.1.07.3.24.1.1.22.18.08.07.07.06.1.07.56.42.1.06.08.05.08.06.32.2.07.05.08.04.08.05.07.04.08.04.2.12.07.03.06.03.07.03.06.03.07.03h.05l.12.04.05.02.15.03h.04.12l.04.01h.05l.04.01.05.01.04.02.05.01.15.06.06.03.05.02.06.03.05.03.06.03.06.04.06.03.05.04.24.16.07.05.06.05.06.04.18.15.06.06.12.1.06.06.05.06.06.05.12.12.1.12.06.06.05.06.06.07.05.07.06.06.06.07.06.08.12.14.07.07.12.16.07.07.06.08.07.08.07.07.06.08.14.16.06.08.07.08.07.07.07.08.06.08.07.08.06.07.07.08.06.07.07.08.12.14.07.08.12.14.06.06.05.07.06.06.05.07.06.06.1.12.05.05.1.12.05.08.06.07.06.08.07.1.07.1.08.1.07.1.1.1.08.1.18.24.18.26.1.13.2.28.1.15.1.14.1.15.1.16.1.15.12.16.1.16.12.16.1.17.12.16.12.17.1.17.48.68.12.18.24.34.12.18.1.17.12.17.44.65.43.66.42.66.42.68.4.68.4.7.4.7.4.7.76 1.44.37.73.36.73.35.74.35.75.34.75.66 1.52.62 1.54.3.78.3.78.28.78.28.8.27.8.26.8.5 1.6.23.8.23.8.22.8.2.8.2.8.2.8.18.8.17.82.16.8.16.82.28 1.62.12.82.05.4.06.4.04.45.05.47.04.5.04.52.04.54.03.57.03.58.06 1.2.04 1.27.04 1.32.02 1.35v.7l.01.68v1.4l-.01.7v.7l-.02 1.36-.08 2.64-.03.63-.03.62-.03.6-.03.58-.04.57-.08 1.07-.05.5-.04.47-.06.45-.05.43-.12.84-.13.85-.14.85-.15.86-.16.86-.17.86-.17.87-.38 1.74-.42 1.76-.22.9-.24.88-.24.9-.25.9-.26.9-.54 1.8-.3.9-.3.9-.3.92-.32.9-.32.93-.33.92-.7 1.86-.36.93-.37.94-.38.94-.38.95-.4.94-.4.95-.4.96-.86 1.92-.44.96-.45.97-1.4 2.9-4.58 9.33-2.33-.32-.62-.08-.65-.1-.65-.1-.68-.1-.68-.1-1.42-.24-.72-.13-.74-.13-.75-.14-.76-.14-.76-.15-1.56-.32-.8-.17-1.6-.34-1.62-.36-.8-.2-1.64-.38-2.46-.6-2.46-.63-.8-.22-.8-.2-.8-.22-.8-.22-.8-.23-.8-.22-.78-.22-1.54-.46-.75-.23-1.48-.46-.96-.3-.97-.32-1.94-.68-.97-.35-.98-.36-.97-.37-.97-.38-.98-.4-.97-.4-.97-.4-.97-.4-1.92-.84-.96-.43-.96-.44-.95-.44-.94-.46-.94-.45-.94-.46-.92-.47-.93-.47-.9-.48-.9-.48-.9-.5-.9-.5-.88-.5-.87-.5-.86-.5-.85-.5-.84-.5-.83-.5-.8-.5-.8-.52-.8-.52-.78-.52-.76-.53-.75-.52-.73-.53-.72-.53-1.3-.96-1.26-.98-1.24-1-1.2-1-1.2-1.02-1.15-1.04-1.13-1.05-1.1-1.06-1.08-1.08-1.05-1.1-1.02-1.1-1-1.12-.97-1.13-.95-1.15-.92-1.16-.9-1.18-.87-1.2-.84-1.2-.8-1.2-.78-1.23-.76-1.24-.74-1.26-.7-1.27-.68-1.28-.65-1.3-.63-1.3-.6-1.33-.57-1.33-.54-1.35-.52-1.36-.5-1.38-.46-1.4-.44-1.4-.4-1.4-.38-1.43-.36-1.44-.33-1.45-.3-1.47-.27-1.48-.25-1.5-.07-.45-.06-.48-.07-.5-.05-.53-.06-.55-.05-.58-.05-.6-.08-1.25-.08-1.3-.06-1.36-.03-.7-.06-2.15-.03-2.2v-2.2l.03-2.17.06-2.1.06-1.33.03-.65.04-.63.03-.6.05-.6.04-.57.05-.55.06-.52.05-.5.06-.48.1-.76.1-.77.12-.78.26-1.58.14-.8.45-2.43.16-.8.17-.82.34-1.62.18-.82.18-.8.2-.8.38-1.6.6-2.34.2-.76.2-.75.2-.74.2-.73.2-.72.2-.7.2-.7.22-.67.2-.66.2-.63.22-.62.2-.6.2-.58.2-.55.2-.54.2-.5.2-.5.2-.46.2-.43.4-.8.4-.8.4-.78.42-.77.43-.76.44-.74.45-.73.46-.72.47-.7.47-.7.48-.67.5-.66.5-.64.5-.63.5-.62.52-.6.53-.58.53-.57.53-.55.55-.54.55-.52.55-.5.56-.5.57-.47.56-.45.58-.44.58-.4.58-.4.6-.4.6-.36.6-.35.6-.32.6-.3.6-.3.6-.27.6-.25.6-.23.62-.22.6-.2.62-.17.44-.1.44-.1.45-.1.45-.08.9-.14.92-.1.46-.04.46-.03.47-.02.47-.01h.47l.95.02.47.03.48.03.5.04.48.05.48.06.98.14.98.18.5.1.5.1.5.12 1 .26.5.15 1 .32.5.17.5.18.5.2.5.2 1.02.42.5.22.5.24.16.07.15.07.16.07.15.07.15.06.15.07.14.07.56.24.26.12.12.05.13.06.12.05.22.1.1.04.1.05.2.08.1.03.1.04.24.1.07.03.12.04.05.02h.05l.05.02.04.01h.03l.03.01h.03l.02-.02-.01-.01v-.01h-.02l-.04-.04-.06-.04-.04-.03-.04-.02-.05-.03-.05-.04-.06-.03-.12-.08-.14-.08-.08-.04-.08-.05-.1-.05-.08-.04-.1-.06-.2-.1-.1-.06-.1-.05-.44-.24-.24-.12-.12-.07-.12-.06-.13-.06-.26-.14-.13-.06-.13-.07-.14-.07-.13-.07-.3-.14-.3-.15-.32-.15-.33-.14-.34-.15-.35-.14-.72-.28-.37-.14-.38-.14-.38-.13-1.17-.4-.4-.13-.8-.24-.4-.1-.4-.12-.4-.1-1.2-.3-.4-.1-.78-.18-.4-.08-.38-.07-.37-.07-.74-.12-.35-.06-.35-.05-.33-.04-.33-.03-.32-.03-.3-.03-.6-.02-.27-.01-.45.01-.46.02-.47.03-.47.04-.47.05-.47.07-.48.08-.48.1-.48.1-.5.1-.5.12-.48.14-.5.14-.98.32-.98.36-.98.4-.48.22-.5.22-.96.48-.47.25-.48.26-.47.27-.47.28-.46.28-.46.3-.45.3-.45.3-.88.64-.86.68-.42.34-.4.36-.8.72-.4.38-.64.65-.63.66-.6.67-.6.68-.6.7-.57.7-.56.7-.55.73-.53.74-.52.76-.5.77-.5.8-.5.8-.47.83-.46.84-.45.85-.44.88-.44.9-.42.92-.4.94-.4.96-.4.98-.4 1-.37 1.03-.37 1.06-.36 1.1-.35 1.1-.35 1.13-.34 1.17-.33 1.2-.32 1.23-.32 1.25-.32 1.28-.3 1.32-.3 1.34-.3 1.38-.3 1.42-.3 1.44-.3 1.5-.28 1.52-.08.44-.07.43-.07.4-.14.8-.06.38-.06.37-.05.37-.06.35-.1.7-.04.34-.05.34-.04.34-.04.33-.03.34-.04.33-.06.68v.34l-.03.35-.02.36-.03.36v.36l-.01.38-.02.38-.02.4-.03 1.26v.9l-.01.48v.5l-.01.52v1.08l-.01.58v1.98l.01.76.03 2.17.06 2.06.06 1.3.04.63.03.63.05.62.04.6.05.6.06.6.05.6.07.57.06.57.07.56.08.56.08.55.08.54.1.55.1.53.1.54.1.53.22 1.06.12.53.13.52.12.53.14.52.28 1.06.3 1.06.16.54.34 1.08 1.05 3.38-4.4-2.24-1-.5-1-.48-.97-.45-.97-.43-.97-.42-.95-.38-.95-.37-.94-.35-.93-.32-.92-.3-.9-.28-.9-.26-.9-.24-.9-.22-.87-.2-.87-.18-.86-.15-.85-.13-.85-.1-.83-.1-.82-.06-.82-.05-.8-.02h-.8l-.78.02-.78.04-.76.06-.76.1-.75.1-.73.13-.73.15-.72.17-.7.2-.7.2-.7.24-.67.26-.67.28-.65.3-.64.33-.64.34-.24.14-.24.15-.5.32-.25.18-.26.18-.26.2-.26.2-.26.2-.27.2-.27.22-.26.22-.27.23-.54.48-.27.25-.26.25-.54.52-.52.52-.52.54-.25.27-.25.28-.24.28-.25.27-.23.28-.24.28-.22.28-.23.27-.42.56-.2.27-.2.27-.2.27-.18.27-.17.27-.17.26-.16.26-.12.2-.13.22-.13.23-.13.24-.4.75-.26.52-.14.27-.26.54-.12.27-.13.27-.12.27-.13.27-.12.26-.1.27-.12.26-.1.26-.1.25-.1.25-.1.24-.1.24-.18.44-.07.2-.08.2-.06.2-.06.18-.06.16-.05.16-.03.14-.04.13-.02.12-.02.1-.01.08.01.07.01.05.01.04h.01.01.02.02l.06-.06.02-.03.02-.02.02-.03.02-.04.02-.03.02-.04.03-.04.02-.05.03-.05.02-.05.06-.1.1-.18.06-.14.03-.06.03-.08.06-.14.04-.08.06-.16.04-.08.06-.16.04-.1.03-.08.04-.1.03-.1.18-.45.18-.46.2-.45.42-.9.46-.9.5-.88.52-.88.56-.86.3-.43.3-.42.3-.4.62-.82.3-.4.33-.4.32-.38.33-.38.34-.37.68-.72.34-.34.35-.34.35-.33.35-.32.36-.3.35-.3.36-.3.72-.54.36-.25.36-.24.36-.23.36-.22.36-.2.35-.2.46-.22.92-.42.47-.2.47-.18.47-.17.47-.16.47-.14.48-.14.48-.13.98-.22.5-.1.5-.08.5-.07.5-.06.5-.05.5-.04.52-.03.5-.02h1.04l.53.01.53.03 1.07.08.54.06.55.07.55.08.56.1.55.1.57.1 1.14.26.58.14 1.16.32.6.18.6.18.6.2.4.14.4.14.4.15.4.14.4.15.4.15.4.16.4.16.4.16.4.17.4.16.38.17.78.36.76.36.4.2.76.38 1.14.6.76.42 1.52.88.37.23.38.24.38.23.38.24 1.52 1 .38.26.4.27.76.54.46.32.2.16.2.15.38.28.36.28.32.26.15.12.15.13.28.24.26.24.12.12.1.12.12.12.1.12.1.12.1.12.1.13.1.12.1.13.1.13.18.28.1.14.18.3.18.32.1.17.1.17.1.18.1.2.1.2.1.2.1.2.25.48.26.5.27.5.27.5.3.5.6 1.02.3.5.33.52.32.53.34.52.34.53.35.52.72 1.06.74 1.06.38.53.4.53.38.53.4.52.4.52.8 1.04.82 1.02.82 1 .42.5.4.5.42.48.42.47.4.47.42.46.42.45.42.44.42.43.4.43.83.8 1.26 1.2 1.3 1.2 1.34 1.18 1.37 1.16 1.4 1.14 1.44 1.13 1.46 1.12 1.5 1.1 1.53 1.08 1.56 1.06 1.6 1.05 1.62 1.02 1.65 1 1.67 1 1.7.97 1.73.96 1.76.93 1.78.92 1.8.9 1.83.88 1.86.86 1.88.83 1.9.82 1.92.8 1.95.77 1.97.75 2 .73 2 .7 2.03.7 2.05.66 2.07.64 2.1.62 2.1.6 2.13.57 2.13.55 2.16.52 2.17.5 2.18.48 2.2.45 2.2.42 5.86 1.05v3.07.6l-.02.62-.03.6-.04.62-.05.62-.06.62-.07.62-.1.6-.1.62-.1.6-.1.62-.13.6-.14.6-.14.6-.16.6-.16.6-.18.6-.38 1.18-.42 1.16-.22.57-.24.57-.24.56-.25.56-.25.54-.27.54-.28.54-.28.52-.3.52-.3.5-.3.5-.3.5-.33.48-.33.47-.34.46-.34.45-.36.44-.35.43-.37.42-.26.28-.55.55-.3.28-.3.27-.3.27-.32.27-.33.26-.33.27-.34.25-.35.26-.34.25-.36.24-.35.24-.72.46-.36.2-.35.2-.36.2-.35.2-.36.2-.34.17-.35.17-.34.16-.33.14-.32.14-.32.12-.3.12-.3.1-.3.08-.27.08-.27.06-.26.05-.24.03-.22.02h-.2l-.2-.01-.18-.03-.16-.05-.14-.06-.12-.06-.14-.05-.16-.06-.2-.06-.22-.07-.24-.06-.26-.07-.3-.07-.3-.08-.33-.07-.35-.08-.36-.07-.38-.08-.4-.08-.4-.08-.42-.08-.44-.08-.45-.1-.45-.08-.47-.08-.96-.16-.98-.16-.5-.08-.5-.08-.5-.07-.5-.08-1.02-.14-.5-.07-.5-.07-.5-.06-1.47-.18-.94-.1-.46-.05-.45-.04-.5-.05-.5-.04-2.06-.12-1.6-.06-1.6-.03h-1.6l-2.1.04-1.02.04-1 .06-1.45.1-.47.04-.45.04-.45.05-.44.05-.84.1-.4.05-.4.06-.37.06-.37.07-.34.06-.34.07-.3.07-.75.2-.44.12-.43.13-.42.13-.4.13-.4.14-.4.13-.38.14-.38.15-.36.14-.36.16-.35.15-.34.16-.33.16-.32.16-.32.17-.3.17-.6.36-.28.2-.28.18-.54.4-.26.2-.25.2-.48.42-.24.23-.22.22-.22.23-.22.24-.2.24-.4.5-.2.26-.18.27-.2.27-.34.56-.17.3-.13.22-.13.2-.1.2-.22.38-.1.18-.1.17-.1.16-.14.3-.07.13-.06.12-.05.1-.04.1-.04.1-.03.08-.02.08-.02.06v.05.07h.01l.01.01.02-.01h.03l.04-.03.1-.1.05-.06.07-.08.06-.08.08-.1.08-.1.18-.26.1-.15.1-.17.12-.17.12-.2.12-.2.14-.2.28-.4.15-.2.32-.4.16-.2.18-.2.17-.2.18-.2.57-.54.2-.18.2-.17.2-.18.2-.16.2-.17.44-.32.22-.15.22-.16.23-.14.23-.15.24-.14.23-.14.48-.26.24-.12.25-.13.24-.1.75-.33.25-.1.5-.18.25-.08.26-.08.25-.08.57-.15.58-.14.6-.13.6-.1.63-.1.63-.1.65-.08.67-.07.67-.06.7-.05.7-.03 1.44-.04.74.01.75.01.77.02 1.57.08.8.06.8.07.82.08.84.1.84.1.86.1.87.13.87.14.9.15.9.16.9.17 1.84.38.94.2 1.9.44 1.94.5 1 .26 1 .27 2 .58 3.2.96v4.26l-.01 1.26-.02 1.25-.05 1.26-.06 1.26-.08 1.25-.1 1.26-.12 1.25-.13 1.25-.15 1.24-.17 1.24-.18 1.24-.2 1.23-.22 1.23-.23 1.23-.52 2.42-.3 1.2-.3 1.2-.3 1.2-.34 1.18-.35 1.18-.36 1.17-.38 1.15-.4 1.15-.4 1.14-.43 1.13-.44 1.12-.46 1.1-.47 1.1-.48 1.1-.5 1.07-.52 1.06-.53 1.05-.54 1.03-.56 1.02-.57 1-.6 1-.6.97-.6.96-.63.95-.28.4-.3.4-.32.43-.32.44-.35.44-.35.45-.37.45-.38.47-.4.46-.4.47-.4.47-.42.48-.43.48-.43.47-1.35 1.44-.47.48-.46.48-.94.94-.48.46-.48.47-.96.9-.47.45-.96.86-.48.42-.47.4-.47.4-.46.4-.46.38-.46.37-.45.35-.44.35-.44.32-.42.32-.42.3-.4.3-.62.4-.63.42-.64.4-1.32.8-.67.4-.68.4-.7.4-.7.4-.7.38-1.44.74-.74.37-.74.36-.74.35-.76.35-1.52.68-.78.33-.77.33-.8.32-.78.3-.8.3-.8.3-.8.3-.8.28-.8.28-.8.28-.82.26-.8.26-.82.25-.82.24-.8.23-.83.23-.82.22-.82.2-.82.2-1.64.38-.82.18-.42.1-.4.08-.36.1-.35.07-.33.08-.3.06-.3.06-.28.05-.27.05-.5.06-.24.02h-.46l-.23-.02-.22-.03-.23-.04-.22-.05-.23-.06-.23-.1-.24-.1-.24-.1-.26-.13-.26-.14-.28-.16-.3-.18-.3-.2-.32-.22-.35-.23-.36-.26-.38-.27-.4-.3-.43-.32-.46-.34-1-.75-1.12-.85-.6-.46-.65-.5-1.37-1.04-1.35-1.05-1.32-1.05-1.3-1.05-1.27-1.06-1.24-1.06-1.22-1.06-1.2-1.07-1.17-1.07-1.14-1.07-1.1-1.08-1.08-1.08-1.06-1.08-1.04-1.08-1-1.1-.98-1.1-.96-1.1-.92-1.1-.9-1.1-.87-1.1-.84-1.1-.82-1.1-.78-1.1-.76-1.1-.73-1.1-.7-1.1-.67-1.1-.65-1.1-.62-1.1-.6-1.1-.56-1.1-.53-1.1-.5-1.1-.47-1.1-.45-1.1-.42-1.1-.38-1.1-.36-1.1-.33-1.1-.3-1.1-.12-.5-.12-.5-.22-1.02-.27-1.53-.08-.52-.07-.52-.06-.52-.06-.53-.06-.52-.04-.53-.04-.52-.03-.53-.03-.52-.02-.53-.02-1.05v-.52l.02-1.04.04-1.03.03-.52.04-.5.04-.5.06-.5.05-.5.07-.5.14-.98.08-.48.1-.48.1-.47.1-.46.1-.46.1-.45.12-.45.13-.44.1-.3.1-.3.5-1.5.33-.9.1-.3.1-.3.12-.3.12-.3.12-.3.12-.3.13-.3.12-.3.52-1.16.14-.28.13-.3.56-1.12.15-.28.14-.28.45-.8.15-.26.15-.27.3-.52.16-.26.15-.25.16-.25.13-.2.1-.18.1-.17.1-.16.08-.15.08-.13.07-.13.06-.1.06-.1.04-.1.04-.07.02-.07.02-.05v-.04-.03-.02-.01h-.02l-.02.01-.08.06-.1.1-.06.07-.14.16-.16.2-.1.12-.2.26-.22.3-.24.34-.13.18-.13.2-.14.2-.14.2-.15.22-.33.5-.32.5-.3.48-.3.5-.58.98-.27.48-.27.5-.52.96-.24.5-.23.48-.23.5-.22.5-.2.48-.2.5-.38.98-.17.5-.17.5-.32 1-.14.5-.14.5-.13.5-.13.52-.22 1.04-.1.52-.1.53-.1.54-.08.54-.07.54-.07.55-.06.56-.05.56-.05.57-.04.57-.06 1.17-.04 1.26-.01.62v1.22l.01.6.04 1.17.03.6.04.57.05.57.12 1.14.07.56.08.56.18 1.12.22 1.12.12.56.13.56.14.56.15.56.16.57.16.56.18.58.2.57.2.58.42 1.18.23.6.23.6.25.6.25.62.27.63.28.63.28.65.6 1.32.32.68.43.87.45.88.47.9.5.9.52.9.54.9.56.9.58.92.6.92.62.93.64.93.66.93.68.93.7.94.7.94 1.47 1.87.77.94.77.93.8.94.8.93.83.93.83.92.85.92.86.92.87.9.88.9.9.9 1.82 1.78.93.88.93.87 1.9 1.72.96.84.96.83.98.82.98.8 1 .8 5.93 4.67-1.42 2.52-.42.73-.43.72-.45.7-.45.7-.47.68-.47.67-.5.66-.5.64-.5.63-.52.62-.53.6-.54.6-.55.58-.57.56-.57.55-.58.54-.6.52-.6.5-.62.5-.62.48-.63.46-.64.46-.65.44-.66.42-.67.4-.68.4-.7.38-.7.37-.7.35-.7.34-.73.32-.73.3-.74.3-.75.28-.76.26-.76.25-.78.23-.78.22-.8.2-.8.2-.18.04-.57.12-.2.03-.2.04-.2.03-.2.04-.2.03-.2.04-.42.06-.44.06-.23.02-.22.03-.23.03-.23.02-.24.03-.23.02-.48.04-.25.02-.24.02-.25.02-.25.01h-.25l-.26.01-.26.02-.78.03-.54.02h-.27-.27-.55-.28-.28-1.47l-1.5-.05-1.5-.1-1.52-.13-1.55-.17-1.55-.22-1.58-.25-1.6-.3-1.62-.33-1.63-.38-1.64-.42-1.67-.45-1.68-.5-1.7-.54-1.72-.58-1.73-.62-1.76-.66-1.77-.7-1.78-.74-1.8-.8-1.82-.82-1.84-.86-1.86-.9-1.88-.94-1.9-.98-1.9-1.03-1.93-1.06-1.94-1.1-1.96-1.15-1.98-1.18-2-1.23-2-1.26-2.03-1.3-2.05-1.35-2.07-1.4-2.08-1.42-2.1-1.47-2.12-1.5-2.13-1.55-2.16-1.6-5.67-4.25V315.7l4.18 3.88.88.83.86.83.85.83.84.84 1.63 1.7.8.85.78.86.77.86.75.86.74.86.73.87.7.87.7.87.68.88.67.88.65.88.64.88.62.9.6.88.6.9.57.9.57.9.54.9.54.9.5.9.5.9.5.9.47.9.45.9.44.9.42.9.4.9.4.9.37.9.36.9.34.9.32.9.3.9.37 1.17.35 1.15.33 1.15.3 1.13.27 1.12.25 1.12.22 1.1.2 1.1.18 1.1.14 1.08.12 1.08.1 1.07.07 1.07.04 1.06.02 1.06-.01 1.06-.04 1.06-.06 1.06-.1 1.06-.12 1.06-.14 1.06-.17 1.06-.2 1.07-.22 1.07-.25 1.08-.28 1.08-.3 1.1-.33 1.1-.36 1.1-.4 1.12-.42 1.12-.44 1.14-.47 1.14-.5 1.16-.53 1.17-.56 1.2-.6 1.2-.6 1.2-.64 1.23-.67 1.25-.34.6-.32.6-.32.6-.3.6-.3.57-.56 1.12-.52 1.08-.25.53-.24.52-.46 1.02-.22.5-.2.5-.2.5-.38.98-.18.5-.18.48-.17.48-.16.48-.3.96-.15.5-.14.48-.13.48-.26.98-.12.5-.1.5-.12.5-.1.5-.1.5-.1.52-.1.53-.1.53-.1.55-.08.55-.1.56-.1.66-.1.67-.07.68-.07.7-.06.7-.05.7-.08 1.44-.03.74-.02.74-.01.75v1.5l.02.77v.77l.03.77.08 1.56.05.8.12 1.58.16 1.58.1.8.1.8.1.8.1.8.12.8.26 1.58.14.78.14.8.16.77.16.78.16.77.36 1.52.2.76.2.74.2.74.35 1.24.37 1.25.38 1.25.4 1.25.42 1.26.44 1.27.45 1.28.47 1.27.48 1.3.5 1.3.52 1.3.53 1.3.55 1.3.56 1.3.58 1.3.6 1.3 1.24 2.64.64 1.33 1.33 2.66.7 1.33.7 1.34 1.45 2.68.75 1.34.76 1.35.77 1.34.8 1.35.8 1.35.82 1.35.83 1.36.85 1.35.86 1.35.87 1.36.9 1.35.9 1.36.92 1.35.93 1.36.94 1.35.36.5.34.48.33.46.3.43.3.4.27.38.26.35.24.33.22.3.2.27.2.25.17.22.15.2.14.17.12.14.1.12.08.1.06.07.05.04.03.01.01-.01-.01-.04-.03-.06-.04-.1-.06-.12-.08-.14-.1-.17-.1-.2-.14-.22-.15-.25-.17-.27-.2-.3-.44-.67-.24-.37-.27-.4-.28-.42-.3-.46-.32-.48-.34-.5-1.4-2.1-1.36-2.1-1.33-2.08-1.3-2.07-1.26-2.07-1.23-2.06-1.2-2.06-1.15-2.05-1.12-2.04-1.08-2.03-1.05-2.03-1-2.02-.97-2-.94-2-.9-1.98-.87-1.98-.83-1.96-.8-1.96-.76-1.93-.72-1.93-.68-1.92-.64-1.9-.6-1.88-.56-1.87-.53-1.86-.5-1.84-.46-1.82-.4-1.8-.38-1.8-.33-1.78-.3-1.75-.26-1.74-.22-1.72-.18-1.7-.14-1.68-.1-1.66-.06-1.64-.02-1.62.03-1.6.06-1.57.04-.8.05-.8.05-.78.06-.75.14-1.47.08-.7.1-.7.1-.7.1-.68.1-.67.12-.66.13-.65.28-1.3.16-.64.17-.64.18-.64.2-.63.42-1.28.23-.64.24-.65.25-.65.26-.66.28-.67.3-.67.3-.7.33-.7.33-.7.36-.72.75-1.48.4-.77.42-.78.44-.8.45-.83.47-.84.5-.86.5-.9.44-.76.42-.75.4-.75.4-.75.76-1.46.36-.73.68-1.44.33-.72.3-.7.3-.7.3-.7.54-1.4.25-.7.25-.7.23-.7.22-.7.4-1.38.2-.7.18-.7.16-.7.3-1.38.13-.7.24-1.4.1-.7.1-.7.08-.7.14-1.43.05-.72.04-.72.06-1.47.02-1.48-.02-1.27-.04-1.26-.07-1.27-.1-1.26-.13-1.26-.15-1.26-.18-1.26-.2-1.25-.23-1.26-.27-1.25-.3-1.25-.32-1.25-.35-1.25-.37-1.25-.4-1.25-.43-1.24-.46-1.25-.5-1.24-.52-1.24-.54-1.24-.57-1.24-.6-1.24-.63-1.24-.65-1.24-.7-1.23-.7-1.24-.74-1.24-.77-1.23-.8-1.23-.82-1.24-.86-1.23-.88-1.23-.9-1.24-.94-1.23-.97-1.23-1-1.23-1.03-1.23-1.05-1.23-1.08-1.24-1.1-1.23-3.43-3.75 2.28.37.1.01.1.02.12.01.13.01.13.02h.15.16l.16.02.17.01.18.01.2.02.4.02h.2l.22.02.22.01.94.04.25.01 1.3.05h.27l.56.02h.27l.3.01h.28l.28.01h.3l.28.01h.86l.3.01h.28l2.32-.04 2.3-.1 2.28-.16 2.26-.2 2.25-.28 2.23-.34 2.2-.4 2.2-.46 2.17-.5 2.15-.57 2.13-.64 2.1-.7 2.1-.75 2.07-.8 2.05-.87 2.03-.92 2-.98 2-1.04 1.96-1.1 1.94-1.15 1.92-1.2 1.9-1.27 1.88-1.32 1.84-1.4 1.83-1.43 1.8-1.5 1.78-1.55 1.75-1.6 1.73-1.66 1.7-1.72 1.68-1.77 1.66-1.83 1.62-1.88 1.6-1.94 1.58-2 1.55-2.05 1.52-2.1 1.5-2.16 1.46-2.2 1.44-2.27.33-.53.7-1.2.37-.66.4-.7.4-.73.85-1.54.44-.82.44-.83.45-.86.45-.87.46-.88.92-1.8.45-.9.46-.9.44-.9.45-.9.43-.9.43-.88.4-.86.4-.85.38-.82.38-.8.36-.77.34-.75.32-.7.3-.67.27-.64.26-.6.22-.54.2-.5.17-.45.14-.4.1-.34.08-.28.04-.22.01-.15-.03-.08h-.02v.02l-.04.04-.06.08-.06.1-.04.06-.04.07-.05.08-.04.08-.05.08-.05.1-.06.1-.05.1-.12.22-.07.12-.06.12-.07.13-.07.14-.07.13-.07.15-.08.14-.07.15-.24.48-.1.17-.08.17-.1.17-.08.17-.18.36-.1.2-.1.18-.18.38-.98 2.05-1 2.02-1 2-1.03 1.96-1.05 1.93-1.07 1.9-1.1 1.87-1.1 1.84-1.13 1.82-1.13 1.78-1.16 1.75-1.17 1.73-1.2 1.7-1.2 1.66-1.22 1.63-1.24 1.6-1.25 1.56-1.26 1.54-1.28 1.5-1.3 1.47-1.3 1.43-1.32 1.4-1.34 1.37-1.35 1.33-1.37 1.3-1.37 1.26-1.4 1.23-1.4 1.2-1.4 1.16-1.43 1.12-1.44 1.1-1.45 1.04-1.46 1.02-1.47.97-1.5.94-1.5.9-1.5.87-1.5.82-1.53.8-1.53.75-1.2.55-1.2.53-1.22.5-1.2.5-1.23.47-1.23.45-1.24.43-1.24.4-1.25.4-1.25.36-1.25.34-1.27.32-1.26.3-1.27.28-1.28.26-1.27.24-1.28.2-1.3.2-1.28.18-1.3.15-1.3.13-1.3.1-1.3.1-1.3.06-1.3.05-1.3.02h-1.3l-1.3-.03-1.3-.04-1.3-.07-1.3-.1-1.3-.1-1.3-.13-1.3-.15-1.3-.18-1.3-.2-1.28-.22-1.28-.24-1.28-.27-1.27-.28-5-1.2V194.07l1-2.33.4-.9.4-.9.4-.88.4-.87.4-.85.4-.84.4-.83.4-.8.4-.8.4-.8.4-.78.4-.76.4-.75.4-.74.4-.72.4-.7.4-.7.4-.7.4-.67.4-.66.4-.65.4-.63.4-.62.4-.6.4-.6.4-.58.4-.57.4-.56.4-.54.4-.53.4-.52.4-.5.4-.5.4-.48.4-.47.8-.9.8-.85.4-.4.57-.55.57-.53.57-.5.58-.5.57-.47.58-.45.57-.43.58-.42.58-.4.58-.38.6-.35.58-.34.58-.3.58-.3.58-.27.6-.26.58-.23.58-.22.58-.2.58-.18.58-.16.57-.13.58-.12.57-.1.57-.07.57-.06.57-.03.57-.02.56.01.56.03.56.05.55.07.55.1.55.1.54.13.54.15.54.18.53.2.53.22.52.23.34.17.33.17.32.17.62.36.3.2.3.2.56.4.26.22.27.2.25.22.25.23.24.23.23.24.44.5.2.25.2.26.38.54.36.56.17.3.16.3.3.6.14.32.13.3.13.33.12.33.1.33.1.35.1.34.1.36.16.72.07.38.07.37.06.4.05.35.04.35.04.36.03.35.06 1.06v.36.37.36l-.02.74-.03.38-.06.78-.05.4-.04.4-.12.82-.07.43-.08.43-.18.9-.2.94-.24.98-.13.5-.13.53-.15.53-.15.55-.16.56-.17.58-.17.6-.18.6-.2.63-.2.64-.2.66-.2.67-.23.7-.9 2.75-.85 2.7-.8 2.66-.75 2.62-.7 2.58-.66 2.53-.6 2.5-.57 2.44-.52 2.4-.48 2.35-.43 2.3-.38 2.27-.34 2.2-.3 2.18-.25 2.12-.2 2.08-.15 2.04-.1 2-.06 1.94-.02 1.9.04 1.85.07 1.8.13 1.76.17 1.7.22 1.67.26 1.62.3 1.57.36 1.53.4 1.48.45 1.43.5 1.4.54 1.34.6 1.3.63 1.24.68 1.2.73 1.14.77 1.1.8 1.05.87 1 .9.96.17.17.2.17.2.18.2.18.2.18.22.2.23.18.23.2.48.38.25.18.26.2.25.2.26.18.26.2.52.36.26.17.26.18.26.16.26.17.25.16.5.3.48.28.23.13.44.24.4.2.2.1.18.08.17.07.16.06.14.05.13.04.12.02.1.02h.1l.02-.02v-.02l-.01-.02-.02-.01-.01-.02-.05-.05-.03-.02-.03-.03-.04-.02-.04-.03-.04-.04-.1-.06-.06-.04-.05-.04-.07-.03-.06-.04-.07-.05-.07-.04-.08-.04-.07-.05-.08-.04-.1-.05-.08-.05-.27-.15-.1-.05-.1-.06-.1-.05-.1-.06-.1-.05-.1-.06-.1-.06-.1-.05-.1-.06-.43-.23-.43-.24-.42-.26-.42-.27-.42-.28-.4-.3-.4-.3-.4-.32-.4-.33-.4-.35-.4-.36-.4-.37-.38-.38-.38-.4-.37-.4-.37-.4-.36-.42-.36-.43-.34-.44-.35-.44-.66-.92-.32-.47-.3-.47-.3-.5-.3-.48-.3-.5-.54-1-.26-.5-.25-.52-.46-1.04-.22-.52-.4-1.06-.18-.54-.17-.53-.16-.54-.15-.54-.23-.96-.2-.98-.2-1-.17-1.02-.16-1.05-.13-1.06-.12-1.1-.1-1.1-.08-1.12-.05-1.14-.04-1.16-.01-1.18v-1.2l.02-1.22.04-1.23.07-1.25.08-1.27.1-1.28.12-1.3.14-1.32.16-1.34.17-1.35.2-1.36.22-1.38.23-1.4.26-1.4.27-1.43.3-1.44.3-1.45.33-1.47.35-1.48.76-3 .4-1.52.43-1.53.45-1.55.46-1.56.5-1.57.5-1.58.52-1.6.1-.26.08-.26.1-.28.1-.28.1-.3.1-.3.1-.3.1-.3.1-.32.1-.32.22-.66.12-.34.1-.34.12-.34.12-.35.1-.34.12-.35.12-.36.12-.35.12-.36.13-.35.12-.35.12-.36.6-1.75.24-.68.1-.33.12-.33.1-.33.1-.32.22-.62.1-.3.1-.3.1-.3.17-.5.17-.47.15-.45.15-.42.14-.4.14-.4.12-.37.12-.35.32-.96.1-.3.08-.28.08-.27.08-.26.06-.26.07-.24.05-.25.06-.23.04-.23.05-.23.04-.23.03-.22.06-.46.04-.46.02-.24.01-.25.02-.25v-.26-.27l.01-.27v-1.96l-.01-.38v-.56-1.1l-.02-.53-.03-.5-.08-1-.1-.94-.07-.45-.07-.44-.07-.43-.1-.42-.1-.4-.1-.4-.22-.78-.12-.37-.14-.37-.14-.36-.14-.35-.16-.34-.34-.66-.18-.33-.2-.3-.2-.32-.2-.3-.22-.3-.23-.3-.48-.58-.26-.28-.27-.3-.57-.55-.3-.27-.3-.27-.32-.27-.33-.27-.26-.2-.27-.2-.26-.2-.27-.2-.52-.36-.26-.17-.27-.16-.26-.16-.26-.15-.27-.14-.26-.14-.27-.13-.26-.13-.54-.24-.28-.1-.27-.1-.28-.1-.56-.18-.58-.16-.3-.08-.3-.06-.3-.07-.3-.06-.3-.05-.64-.1-.66-.08-.33-.03-.35-.03-.7-.04-.37-.02-.36-.01-.76-.02H358l-.22.01h-.2l-.4.02-.38.02h-.18l-.18.01-.18.02-.34.04-.16.03-.17.02-.48.1-.16.04-.16.03-.32.08-.32.1-.5.15-.17.06-.18.06-.18.07-.2.06-.2.08-.2.07-.2.08-.2.08-.36.14-.35.14-.35.15-.34.15-.34.16-.34.15-.34.16-.33.17-.33.16-.33.17-.32.18-.33.18-.64.36-.32.2-.3.2-.32.2-.3.2-.3.2-.3.2-.62.44-.3.22-.62.46-.3.24-.3.24-.3.25-.3.26-.3.26-.3.26-.3.27-.3.27-.3.3-.3.28-.6.6-.3.3-.3.3-.6.6-.3.3-.58.62-.3.33-.3.33-.3.34-.6.7-.3.36-.6.74-.3.38-.6.76-.3.4-.3.4-.9 1.2-.3.4-.87 1.23-.56.82-.27.4-.28.4-.26.4-.27.4-.25.4-.26.4-.25.4-.24.4-.7 1.17-.63 1.14-1.5 2.74V98.05l2.84-3.93.6-.84.3-.4.3-.4.28-.4.3-.38.28-.38.28-.36.27-.36.28-.35.27-.35.27-.34.8-1 .27-.32.26-.3.54-.62.27-.3.27-.3.27-.3.83-.9.56-.58.87-.87.3-.28.3-.3.3-.3.3-.3.32-.3.32-.3.66-.6.34-.3.35-.3.4-.36.4-.35.4-.35 1.2-1 .4-.33.4-.32.4-.32.38-.3.4-.3.4-.3.38-.3.4-.3.38-.28.38-.3.4-.28 1.14-.8.4-.26.76-.52.4-.25.38-.25.4-.24.38-.25.4-.23.4-.24.78-.46.4-.23.4-.23 1.2-.66.4-.2.4-.22.82-.42 1.08-.53 1.08-.5 1.07-.47 1.07-.43 1.07-.4 1.06-.38 1.06-.34 1.06-.3 1.05-.28 1.06-.25 1.04-.22 1.05-.2 1.04-.16 1.04-.13 1.03-.1 1.03-.07 1.03-.03 1.02-.01 1.02.03 1.02.05zm-103.33-.04l1.03.07 1.03.1 1.04.13 1.04.16 1.05.2 1.04.22 1.06.25 1.05.28 1.06.3 1.06.34 1.06.38 1.07.4 1.07.43 1.07.47 1.08.5 1.08.53.82.42.4.22.4.2 1.2.66.4.23.4.23.78.46.4.24.4.23.38.25.4.24.38.25.4.25.76.52.4.26 1.14.8.4.28.38.3.38.28.4.3.38.3.4.3.4.3.38.3.4.32.4.32.78.66.8.68.4.35.4.35.4.36.35.3.34.3.66.6.32.3.32.3.3.3.6.6.3.28.87.87.56.58 1.1 1.18.27.3.27.3.54.62.26.3.27.32.8 1 .27.34.27.35.28.35.27.36.28.36.28.38.3.38.28.4.3.4.3.4.6.84 2.84 3.93v83.54l-1.5-2.74-.63-1.14-.7-1.17-.24-.4-.25-.4-.26-.4-.25-.4-.27-.4-.26-.4-.28-.4-.27-.4-.56-.82-.87-1.23-.3-.4-.9-1.2-.3-.4-.3-.4-.6-.76-.3-.38-.6-.74-.3-.36-.6-.7-.3-.34-.3-.33-.3-.33-.58-.62-.88-.9-.3-.3-.3-.3-.6-.6-.3-.28-.3-.3-.3-.27-.3-.27-.3-.26-.3-.26-.3-.26-.3-.25-.3-.24-.3-.24-.62-.46-.3-.22-.62-.44-.3-.2-.3-.2-.3-.2-.32-.2-.3-.2-.32-.2-.64-.36-.33-.18-.32-.18-.33-.17-.33-.16-.33-.17-.34-.16-.34-.15-.34-.16-.34-.15-.35-.15-.35-.14-.36-.14-.2-.08-.2-.08-.2-.07-.2-.08-.2-.06-.18-.07-.18-.06-.17-.06-.5-.15-.32-.1-.32-.08-.16-.03-.16-.04-.48-.1-.17-.02-.16-.03-.34-.04-.18-.02-.18-.01h-.18l-.38-.02-.4-.02h-.2l-.22-.01h-1.75l-1.12.03-.37.02-.7.04-.35.03-.33.03-.66.08-.64.1-.3.05-.3.06-.3.07-.3.06-.3.08-.58.16-.56.18-.28.1-.27.1-.28.1-.54.24-.26.13-.27.13-.26.14-.27.14-.26.15-.26.16-.27.16-.26.17-.52.36-.27.2-.26.2-.27.2-.26.2-.33.27-.32.27-.3.27-.3.27-.57.55-.53.57-.48.58-.23.3-.22.3-.2.3-.2.32-.2.3-.18.33-.34.66-.16.34-.14.35-.14.36-.14.37-.12.37-.22.78-.1.4-.1.4-.1.42-.07.43-.07.44-.07.45-.1.94-.04.5-.04.5-.03.5-.02.53-.02 1.1v.56l-.01.38V175l.01.27v.27l.01.26.02.25.01.25v.24l.04.46.06.46.03.22.04.23.05.23.04.23.06.23.05.25.07.24.06.26.08.26.08.27.08.28.1.3.32.96.12.35.12.37.14.4.14.4.15.42.15.45.17.47.17.5.1.3.1.3.1.3.22.62.1.32.1.33.12.33.1.33.24.68.6 1.75.12.36.12.35.13.35.12.36.12.35.12.36.12.35.1.34.12.35.12.34.1.34.12.34.22.66.1.32.1.32.1.3.1.3.1.3.1.3.1.28.1.28.08.26.1.26.52 1.6.5 1.58.5 1.57.46 1.56.45 1.55.43 1.53.4 1.52.38 1.5.38 1.5.35 1.48.33 1.47.3 1.45.3 1.44.27 1.43.26 1.4.23 1.4.22 1.38.2 1.36.17 1.35.16 1.34.14 1.32.12 1.3.1 1.28.08 1.27.07 1.25.04 1.23.02 1.22v1.2l-.01 1.18-.04 1.16-.05 1.14-.08 1.12-.1 1.1-.12 1.1-.13 1.06-.16 1.05-.17 1.02-.2 1-.2.98-.23.96-.15.54-.16.54-.17.53-.18.54-.4 1.06-.22.52-.46 1.04-.25.52-.26.5-.54 1-.3.5-.3.48-.3.5-.3.47-.32.47-.66.92-.35.44-.34.44-.36.43-.36.42-.37.4-.37.4-.38.4-.38.38-.4.37-.4.36-.4.35-.4.33-.4.32-.4.3-.4.3-.42.28-.42.27-.42.26-.43.24-.43.23-.1.06-.1.05-.1.06-.1.06-.1.05-.1.06-.1.05-.1.06-.1.05-.27.15-.08.05-.1.05-.08.04-.07.05-.08.04-.07.04-.07.05-.06.04-.07.03-.05.04-.06.04-.1.06-.04.04-.04.03-.04.02-.03.03-.03.02-.05.05-.01.02-.02.01v.02.02.02h.1l.1-.02.12-.02.13-.04.14-.05.16-.06.17-.07.18-.08.2-.1.4-.2.44-.24.23-.13.48-.28.5-.3.25-.16.26-.17.26-.16.26-.18.26-.17.52-.36.26-.2.26-.18.25-.2.26-.2.25-.18.48-.38.23-.2.23-.18.22-.2.2-.18.4-.36.18-.17.17-.17.9-.96.87-1 .8-1.05.77-1.1.73-1.14.68-1.2.63-1.24.6-1.3.54-1.34.5-1.4.45-1.43.4-1.48.36-1.53.3-1.57.26-1.62.22-1.67.17-1.7.13-1.76.07-1.8.04-1.85-.02-1.9-.06-1.94-.1-2-.15-2.04-.2-2.08-.25-2.12-.3-2.18-.34-2.2-.38-2.27-.43-2.3-.48-2.35-.52-2.4-.57-2.44-.6-2.5-.66-2.53-.7-2.58-.75-2.62-.8-2.66-.85-2.7-.9-2.75-.23-.7-.2-.67-.2-.66-.2-.64-.2-.63-.2-.6-.17-.6-.17-.58-.16-.56-.15-.55-.15-.53-.13-.53-.13-.5-.24-.98-.2-.94-.18-.9-.08-.43-.07-.43-.12-.82-.04-.4-.05-.4-.1-1.16-.03-1.1v-.37l.01-.36.06-1.06.03-.35.04-.36.04-.35.05-.35.06-.4.07-.37.07-.38.16-.72.1-.36.1-.34.1-.35.1-.33.12-.33.13-.33.13-.3.14-.32.3-.6.16-.3.17-.3.36-.56.38-.54.2-.26.2-.25.44-.5.23-.24.24-.23.25-.23.25-.22.27-.2.26-.22.56-.4.3-.2.3-.2.62-.36.32-.17.33-.17.34-.17.52-.23.53-.22.53-.2.54-.18.54-.15.54-.13.55-.1.55-.1.55-.07.56-.05.56-.03.56-.01.57.02.57.03.57.06.57.07.57.1.58.12.57.13.58.16.58.18.58.2.58.22.58.23.6.26.58.27.58.3.58.3.58.34.6.35.58.38.58.4.58.42.57.43.58.45.57.47.58.5.57.5.57.53.57.55.4.4.4.42.4.43.4.44.4.45.4.47.4.48.4.5.4.5.4.52.4.53.4.54.4.56.4.57.4.58.4.6.4.6.4.62.4.63.4.65.4.66.4.67.4.7.4.7.4.7.4.72.4.74.4.75.4.76.4.78.4.8.4.8.4.8.4.83.4.84.4.85.4.87.4.88.4.9.4.9 1 2.33v114.77l-5 1.2-1.27.28-1.28.27-1.28.24-1.28.22-1.3.2-1.3.18-1.3.15-1.3.13-1.3.1-1.3.1-1.3.07-1.3.04-1.3.03h-1.3l-1.3-.02-1.3-.05-1.3-.06-1.3-.1-1.3-.1-1.3-.13-1.3-.15-1.28-.18-1.3-.2-1.28-.2-1.27-.24-1.28-.26-1.27-.28-1.26-.3-1.27-.32-1.25-.34-1.25-.36-1.25-.4-1.24-.4-1.24-.43-1.23-.45-1.23-.47-1.2-.5-1.22-.5-1.2-.53-1.2-.55-1.53-.75-1.53-.8-1.5-.82-1.5-.87-1.5-.9-1.5-.94-1.47-.97-1.46-1.02-1.45-1.04-1.44-1.1-1.43-1.12-1.4-1.16-1.4-1.2-1.4-1.23-1.37-1.26-1.37-1.3-1.35-1.33-1.34-1.37-1.32-1.4-1.3-1.43-1.3-1.47-1.28-1.5-1.26-1.54-1.25-1.56-1.24-1.6-1.22-1.63-1.2-1.66-1.2-1.7-1.17-1.73-1.16-1.75-1.13-1.78-1.13-1.82-1.1-1.84-1.1-1.87-1.07-1.9-1.05-1.93-1.03-1.96-1-2-1-2.02-.98-2.05-.18-.38-.1-.18-.1-.2-.18-.36-.08-.17-.1-.17-.08-.17-.1-.17-.24-.48-.07-.15-.08-.14-.07-.15-.07-.13-.07-.14-.07-.13-.06-.12-.07-.12-.12-.22-.05-.1-.06-.1-.05-.1-.05-.08-.04-.08-.05-.08-.04-.07-.04-.06-.06-.1-.06-.08-.04-.04-.01-.02h-.02l-.03.08.01.15.04.22.08.28.1.34.14.4.17.45.2.5.22.54.26.6.27.64.3.67.32.7.34.75.36.77.77 1.62.4.85.4.86.43.88.43.9.45.9.44.9.46.9.45.9.92 1.8.46.88.45.87.45.86.44.83.44.82.43.78.42.76.4.73.4.7.37.66.7 1.2.33.53 1.44 2.27 1.46 2.2 1.5 2.16 1.52 2.1 1.55 2.05 1.58 2 1.6 1.94 1.62 1.88 1.66 1.83 1.68 1.77 1.7 1.72 1.73 1.66 1.75 1.6 1.78 1.55 1.8 1.5 1.83 1.43 1.84 1.4 1.88 1.32 1.9 1.27 1.92 1.2 1.94 1.15 1.96 1.1 2 1.04 2 .98 2.03.92 2.05.87 2.07.8 2.1.75 2.1.7 2.13.64 2.15.57 2.17.5 2.2.46 2.2.4 2.23.34 2.25.28 2.26.2 2.28.16 2.3.1 2.32.04h.28l.3-.01h.86l.28-.01h.3l.28-.01h.28l.3-.01h.27l.56-.02h.27l.27-.01 1.04-.04.25-.01.7-.03.23-.01.22-.01.22-.02h.2l.4-.02.2-.02.18-.01.17-.01.16-.02h.16.15l.13-.02.13-.01.12-.01.1-.02.1-.01 2.28-.37-3.43 3.75-1.1 1.23-1.08 1.24-1.05 1.23-1.03 1.23-1 1.23-.97 1.23-.94 1.23-.9 1.24-.88 1.23-.86 1.23-.82 1.24-.8 1.23-.77 1.23-.74 1.24-.7 1.24-.7 1.23-.65 1.24-.63 1.24-.6 1.24-.57 1.24-.54 1.24-.52 1.24-.5 1.24-.46 1.25-.43 1.24-.4 1.25-.37 1.25-.35 1.25-.32 1.25-.3 1.25-.27 1.25-.23 1.26-.2 1.25-.18 1.26-.15 1.26-.13 1.26-.1 1.26-.07 1.27-.04 1.26-.02 1.27.02 1.48.06 1.47.04.72.05.72.07.72.07.7.08.7.1.7.1.7.24 1.4.13.7.3 1.38.16.7.18.7.2.7.4 1.38.22.7.23.7.25.7.25.7.54 1.4.3.7.3.7.3.7.33.72.68 1.44.36.73.76 1.46.4.75.4.75.42.75.44.76.5.9.5.86.47.84.45.83.44.8.42.78.4.77.75 1.48.36.72.33.7.33.7.3.7.3.67.28.67.26.66.25.65.24.65.23.64.22.64.2.64.2.63.18.64.17.64.16.64.28 1.3.13.65.12.66.1.67.1.68.1.7.1.7.08.7.07.73.07.74.06.75.1 1.57.04.8.06 1.57.03 1.6-.02 1.62-.06 1.64-.1 1.66-.14 1.68-.18 1.7-.22 1.72-.26 1.74-.3 1.75-.33 1.78-.38 1.8-.4 1.8-.46 1.82-.5 1.84-.53 1.86-.56 1.87-.6 1.88-.64 1.9-.68 1.92-.72 1.93-.76 1.93-.8 1.96-.83 1.96-.87 1.98-.9 1.98-.94 2-.97 2-1 2.02-1.05 2.03-1.08 2.03-1.12 2.04-1.15 2.05-1.2 2.06-1.23 2.06-1.26 2.07-1.3 2.07-1.33 2.08-1.36 2.1-1.4 2.1-.34.5-.32.48-.3.46-.28.42-.27.4-.24.37-.44.67-.2.3-.17.27-.15.25-.14.22-.1.2-.1.17-.08.14-.06.12-.04.1-.03.06v.04.01l.03-.01.05-.04.06-.07.08-.1.1-.12.12-.14.14-.17.15-.2.17-.22.2-.25.2-.27.22-.3.24-.33.26-.35.27-.38.3-.4.3-.43.33-.46.34-.48.36-.5.94-1.35.93-1.36.92-1.35.9-1.36.9-1.35.87-1.36.86-1.35.85-1.35.83-1.36.82-1.35.8-1.35.8-1.35.77-1.34.76-1.35.75-1.34 1.45-2.68.7-1.34.7-1.33 1.33-2.66.64-1.33 1.24-2.64.6-1.3.58-1.3.56-1.3.55-1.3.53-1.3.52-1.3.5-1.3.95-2.56.45-1.28.44-1.27.42-1.26.4-1.25.38-1.25.37-1.25.35-1.24.2-.74.2-.74.2-.76.36-1.52.16-.77.16-.78.16-.77.14-.8.14-.78.26-1.58.12-.8.1-.8.1-.8.1-.8.1-.8.16-1.58.12-1.58.05-.8.08-1.56.03-.77.01-.77.02-.77v-1.5l-.01-.75-.02-.74-.03-.74-.08-1.44-.05-.7-.06-.7-.07-.7-.07-.68-.1-.67-.1-.66-.1-.56-.08-.55-.1-.55-.1-.53-.1-.53-.1-.52-.1-.5-.1-.5-.12-.5-.1-.5-.12-.5-.26-.98-.13-.48-.14-.48-.15-.5-.3-.96-.16-.48-.17-.48-.18-.48-.18-.5-.38-.98-.2-.5-.2-.5-.22-.5-.46-1.02-.24-.52-.25-.53-.52-1.08-.56-1.12-.3-.57-.3-.6-.32-.6-.32-.6-.34-.6-.67-1.25-.64-1.23-.6-1.2-.6-1.2-.56-1.2-.53-1.17-.5-1.16-.47-1.14-.44-1.14-.42-1.12-.4-1.12-.36-1.1-.33-1.1-.3-1.1-.28-1.08-.25-1.08-.22-1.07-.2-1.07-.17-1.06-.14-1.06-.12-1.06-.1-1.06-.06-1.06-.04-1.06-.01-1.06.02-1.06.04-1.06.07-1.07.1-1.07.12-1.08.14-1.08.18-1.1.2-1.1.22-1.1.25-1.12.27-1.12.3-1.13.33-1.15.35-1.15.37-1.17.3-.9.32-.9.34-.9.36-.9.37-.9.4-.9.4-.9.42-.9.44-.9.45-.9.47-.9.5-.9.5-.9.5-.9.54-.9.54-.9.57-.9.57-.9.6-.9.6-.88.62-.9.64-.88.65-.88.67-.88.68-.88.7-.87.7-.87.73-.87.74-.86.75-.86.77-.86.78-.86.8-.85.8-.84.82-.85.84-.84.85-.83.86-.83.88-.83.88-.82 3.3-3.06v204.7l-5.67 4.25-2.16 1.6-2.13 1.55-2.12 1.5-2.1 1.47-2.08 1.42-2.07 1.4-2.05 1.35-2.03 1.3-2 1.26-2 1.23-1.98 1.18-1.96 1.15-1.94 1.1-1.93 1.06-1.9 1.03-1.9.98-1.88.94-1.86.9-1.84.86-1.82.82-1.8.8-1.78.74-1.77.7-1.76.66-1.73.62-1.72.58-1.7.54-1.68.5-1.67.45-1.64.42-1.63.38-1.62.33-1.6.3-1.58.25-1.55.22-1.55.17-1.52.13-1.5.1-1.5.05h-1.47-.28-.28-.55-.27-.27l-.54-.02-.78-.03-.26-.02-.26-.01h-.25l-.25-.01-.25-.02-.24-.02-.25-.02-.48-.04-.23-.02-.24-.03-.23-.02-.23-.03-.22-.03-.23-.02-.44-.06-.42-.06-.2-.04-.2-.03-.2-.04-.2-.03-.2-.04-.2-.03-.57-.12-.18-.04-.8-.2-.8-.2-.78-.22-.78-.23-.76-.25-.76-.26-.75-.28-.74-.3-.73-.3-.73-.32-.7-.34-.7-.35-.7-.37-.7-.38-.68-.4-.67-.4-.66-.42-.65-.44-.64-.46-.63-.46-.62-.48-.62-.5-.6-.5-.6-.52-.58-.54-.57-.55-.57-.56-.55-.58-.54-.6-.53-.6-.52-.62-.5-.63-.5-.64-.5-.66-.47-.67-.47-.68-.45-.7-.45-.7-.43-.72-.42-.73-1.42-2.52 5.93-4.67 1-.8.98-.8.98-.82.96-.83.96-.84 1.9-1.72.93-.87.93-.88.92-.9.9-.9.9-.9.88-.9.87-.9.86-.92.85-.92.83-.92.83-.93.8-.93.8-.94.77-.93.77-.94.74-.94.73-.93.7-.94.7-.94.68-.93.66-.93.64-.93.62-.93.6-.92.58-.92.56-.9.54-.9.52-.9.5-.9.47-.9.45-.88.43-.87.32-.68.3-.67.3-.65.28-.65.28-.63.27-.63.25-.62.25-.6.23-.6.23-.6.42-1.18.2-.58.2-.57.18-.58.16-.56.16-.57.15-.56.14-.56.13-.56.12-.56.22-1.12.18-1.12.08-.56.07-.56.12-1.14.05-.57.04-.57.03-.6.02-.58.02-.6.01-.6v-1.22l-.01-.62-.04-1.26-.06-1.17-.04-.57-.05-.57-.05-.56-.06-.56-.07-.55-.07-.54-.08-.54-.1-.54-.1-.53-.1-.52-.22-1.04-.13-.52-.13-.5-.14-.5-.14-.5-.32-1-.17-.5-.17-.5-.38-.98-.2-.5-.2-.48-.22-.5-.23-.5-.23-.48-.24-.5-.52-.96-.26-.5-.28-.48-.58-.98-.3-.5-.3-.48-.32-.5-.33-.5-.15-.22-.14-.2-.14-.2-.13-.2-.13-.18-.24-.34-.22-.3-.2-.26-.1-.12-.16-.2-.14-.16-.06-.07-.1-.1-.08-.06v-.01h-.02l-.01.01-.01.02.01.03.01.04.02.05v.07l.04.07.04.1.06.1.06.1.07.13.08.13.08.15.1.16.1.17.1.18.13.2.16.25.15.25.16.26.3.52.15.27.15.26.45.8.14.28.15.28.56 1.12.13.3.14.28.52 1.16.12.3.13.3.12.3.12.3.12.3.12.3.1.3.1.3.33.9.5 1.5.1.3.1.3.13.44.12.45.1.45.1.46.1.46.1.47.1.48.08.48.14.98.07.5.05.5.06.5.04.5.04.5.03.52.04 1.03.02 1.04v.52l-.02 1.05-.02.53-.06 1.05-.04.52-.04.53-.06.52-.06.53-.06.52-.07.52-.08.52-.27 1.53-.22 1.02-.12.5-.12.5-.3 1.1-.33 1.1-.36 1.1-.38 1.1-.42 1.1-.45 1.1-.47 1.1-.5 1.1-.53 1.1-.56 1.1-.6 1.1-.62 1.1-.65 1.1-.67 1.1-.7 1.1-.73 1.1-.76 1.1-.78 1.1-.82 1.1-.84 1.1-.87 1.1-.9 1.1-.92 1.1-.96 1.1-.98 1.1-1 1.1-1.04 1.08-1.06 1.08-1.08 1.08-1.1 1.08-1.14 1.07-1.17 1.07-1.2 1.07-1.22 1.06-1.24 1.06-1.27 1.06-1.3 1.05-1.32 1.05-1.35 1.05-1.37 1.04-1.26.95-.58.44-.54.4-1 .75-.46.34-.43.32-.4.3-.38.27-.36.26-.35.23-.32.22-.3.2-.3.18-.28.16-.26.14-.26.13-.24.1-.24.1-.23.1-.23.06-.22.05-.23.04-.22.03-.23.02h-.46l-.24-.02-.5-.06-.27-.05-.28-.05-.3-.06-.3-.06-.33-.08-.35-.07-.36-.1-.4-.08-.42-.1-.82-.18-1.64-.38-.82-.2-.82-.2-.82-.22-.83-.23-.8-.23-.82-.24-.82-.25-.8-.26-.82-.26-.8-.28-.8-.28-.8-.28-.8-.3-.8-.3-.8-.3-.78-.3-.8-.32-.77-.33-.78-.33-1.52-.68-.76-.35-.74-.35-.74-.36-.74-.37-1.44-.74-.7-.38-.7-.4-.7-.4-.68-.4-.67-.4-1.32-.8-.64-.4-.63-.42-.62-.4-.4-.3-.42-.3-.42-.32-.44-.32-.44-.35-.45-.35-.46-.37-.46-.38-.46-.4-.47-.4-.95-.83-.96-.86-.47-.45-.96-.9-.48-.47-.48-.46-.94-.94-.46-.48-.47-.48-1.35-1.44-.43-.47-.43-.48-.42-.48-.4-.47-.4-.47-.4-.46-.38-.47-.37-.45-.35-.45-.35-.44-.32-.44-.32-.43-.3-.4-.28-.4-.63-.95-.6-.96-.6-.97-.6-1-.57-1-.56-1.02-.54-1.03-.53-1.05-.52-1.06-.5-1.07-.48-1.1-.47-1.1-.46-1.1-.44-1.12-.43-1.13-.4-1.14-.4-1.15-.38-1.15-.36-1.17-.35-1.18-.34-1.18-.3-1.2-.3-1.2-.3-1.2-.52-2.42-.23-1.23-.22-1.23-.2-1.23-.18-1.24-.17-1.24-.15-1.24-.13-1.25-.12-1.25-.1-1.26-.08-1.25-.06-1.26-.05-1.26-.02-1.25-.01-1.26v-4.26l3.2-.96 2-.58 1-.27 1-.26 1.94-.5 1.9-.44.94-.2 1.84-.38.9-.17.9-.16.9-.15.87-.14.87-.13.86-.1.84-.1.84-.1.82-.08.8-.07.8-.06 1.57-.08.77-.02 1.5-.02.73.02.7.02.7.03.7.05.67.06.67.07.65.08.63.1.63.1.6.1.6.13.58.14.57.15.25.08.26.08.25.08.5.18.25.1.75.33.24.1.25.13.24.12.48.26.23.14.24.14.23.15.23.14.22.16.22.15.44.32.2.17.2.16.2.18.2.17.2.18.57.54.18.2.17.2.18.2.16.2.32.4.15.2.28.4.14.2.12.2.12.2.12.17.1.17.1.15.18.26.08.1.08.1.06.08.07.08.05.06.1.1.04.03h.03l.02.01.01-.01h.01v-.07l-.01-.05-.02-.06-.02-.08-.03-.08-.04-.1-.04-.1-.05-.1-.06-.12-.06-.13-.08-.15-.07-.15-.1-.16-.1-.17-.1-.18-.22-.38-.1-.2-.13-.2-.13-.22-.17-.3-.34-.56-.2-.27-.18-.27-.2-.26-.4-.5-.2-.24-.22-.24-.22-.23-.22-.22-.24-.23-.48-.42-.25-.2-.26-.2-.54-.4-.28-.18-.28-.2-.6-.36-.3-.17-.32-.17-.32-.16-.33-.16-.34-.16-.35-.15-.36-.16-.36-.14-.38-.15-.38-.14-.4-.13-.4-.14-.4-.13-.42-.13-.43-.13-.44-.12-.75-.2-.3-.07-.34-.07-.34-.06-.37-.07-.37-.06-.4-.06-.4-.05-.84-.1-.44-.05-.45-.05-.45-.04-.47-.04-.96-.06-.5-.03-1-.06-1.02-.04-1.57-.03h-.53-1.6l-1.6.03-1.6.06-1.55.1-.5.03-.5.04-.5.05-.45.04-.46.05-.94.1-1.97.24-.5.07-.5.07-1.02.14-.5.08-.5.07-.5.08-.5.08-.98.16-.96.16-.47.08-.45.08-.45.1-.44.08-.42.08-.4.08-.4.08-.38.08-.36.07-.35.08-.33.07-.3.08-.3.07-.26.07-.24.06-.22.07-.2.06-.16.06-.14.05-.12.06-.14.06-.16.05-.18.03-.2.01h-.2l-.22-.02-.24-.03-.26-.05-.27-.06-.27-.08-.3-.08-.3-.1-.3-.12-.32-.12-.32-.14-.33-.14-.34-.16-.35-.17-.34-.17-.36-.2-.35-.2-.36-.2-.35-.2-.36-.2-.72-.46-.35-.24-.36-.24-.34-.25-.35-.26-.34-.25-.33-.27-.33-.26-.32-.27-.3-.27-.3-.27-.3-.28-.55-.55-.26-.28-.37-.42-.35-.43-.36-.44-.34-.45-.34-.46-.33-.47-.33-.48-.3-.5-.3-.5-.3-.5-.3-.52-.28-.52-.28-.54-.27-.54-.25-.54-.25-.56-.24-.56-.24-.57-.22-.57-.42-1.16-.38-1.18-.18-.6-.16-.6-.16-.6-.14-.6-.14-.6-.13-.6-.1-.62-.1-.6-.1-.62-.1-.6-.07-.62-.06-.62-.05-.62-.04-.62-.03-.6-.02-.62-.01-.6v-3.07l5.86-1.05 2.2-.42 2.2-.45 2.18-.48 2.17-.5 2.16-.52 2.13-.55 2.13-.57 2.1-.6 2.1-.62 2.07-.64 2.05-.66 2.03-.7 2-.7 2-.73 1.97-.75 1.95-.77 1.92-.8 1.9-.82 1.88-.83 1.86-.86 1.83-.88 1.8-.9 1.78-.92 1.76-.93 1.73-.96 1.7-.97 1.67-1 1.65-1 1.62-1.02 1.6-1.05 1.56-1.06 1.53-1.08 1.5-1.1 1.46-1.12 1.44-1.13 1.4-1.14 1.37-1.16 1.34-1.18 1.3-1.2 1.26-1.2.83-.8.4-.43.42-.43.42-.44.42-.45.42-.46.4-.47.42-.47.42-.48.4-.5.42-.5.82-1 .82-1.02.8-1.04.4-.52.4-.52.38-.53.4-.53.38-.53.74-1.06.72-1.06.35-.52.34-.53.34-.52.32-.53.33-.52.3-.5.6-1.02.3-.5.27-.5.27-.5.26-.5.25-.48.1-.2.1-.2.1-.2.1-.2.1-.18.1-.17.1-.17.18-.32.18-.3.1-.14.18-.28.1-.13.1-.13.1-.12.1-.13.1-.12.1-.12.1-.12.12-.12.1-.12.12-.12.26-.24.28-.24.15-.13.15-.12.16-.13.17-.13.17-.14.18-.14.38-.28.2-.15.2-.16.46-.32.76-.54.4-.27.38-.26 1.52-1 .38-.24.38-.23.38-.24.37-.23 1.52-.88.76-.42 1.14-.6.76-.38.4-.2.76-.36.78-.36.38-.17.4-.16.4-.17.4-.16.4-.16.4-.16.4-.15.4-.15.4-.14.4-.15.4-.14.4-.14.6-.2.6-.18.6-.18 1.16-.32.58-.14 1.14-.26.57-.1.55-.1.56-.1.55-.08.55-.07.54-.06.54-.04.53-.04.53-.03.53-.01h1.04l.5.02.52.03.5.04.5.05.5.06.5.07.5.08.5.1.98.22.48.13.48.14.47.14.47.16.47.17.47.18.47.2.92.42.46.22.35.2.36.2.36.22.36.23.36.24.36.25.72.54.36.3.35.3.36.3.35.32.35.33.35.34.34.34.68.72.34.37.33.38.32.38.33.4.3.4.62.82.3.4.3.42.3.43.56.86.52.88.5.88.46.9.42.9.2.45.18.46.18.45.03.1.04.1.03.08.04.1.06.16.04.08.06.16.04.08.06.14.03.08.03.06.06.14.1.18.06.1.02.05.03.05.02.05.03.04.02.04.02.03.02.04.02.03.02.02.02.03.06.06h.02.02.01.01l.01-.04.01-.05.01-.07-.01-.08-.02-.1-.02-.12-.04-.13-.03-.14-.05-.16-.06-.16-.06-.18-.06-.2-.08-.2-.07-.2-.18-.44-.1-.24-.1-.24-.1-.25-.1-.25-.1-.26-.12-.26-.1-.27-.12-.26-.13-.27-.12-.27-.13-.27-.12-.27-.26-.54-.14-.27-.26-.52-.4-.75-.13-.24-.13-.23-.13-.22-.12-.2-.16-.26-.17-.26-.17-.27-.18-.27-.2-.27-.2-.27-.2-.27-.42-.56-.23-.27-.22-.28-.24-.28-.23-.28-.25-.27-.24-.28-.25-.28-.25-.27-.52-.54-.52-.52-.8-.77-.27-.25-.54-.48-.27-.23-.26-.22-.27-.22-.27-.2-.26-.2-.26-.2-.26-.2-.26-.18-.25-.18-.5-.32-.24-.15-.24-.14-.64-.34-.64-.33-.65-.3-.67-.28-.67-.26-.7-.24-.7-.2-.7-.2-.72-.17-.73-.15-.73-.13-.75-.1-.76-.1-.76-.06-.78-.04-.78-.02h-.8l-.8.02-.82.05-.82.06-.83.1-.85.1-.85.13-.86.15-.87.18-.87.2-.9.22-.9.24-.9.26-.9.28-.92.3-.93.32-.94.35-.95.37-.95.38-.97.42-.97.43-.97.45-1 .48-1 .5-4.4 2.24 1.05-3.38.34-1.08.16-.54.3-1.06.28-1.06.14-.52.12-.53.13-.52.12-.53.22-1.06.1-.53.1-.54.1-.53.1-.55.08-.54.08-.55.08-.56.07-.56.06-.57.07-.57.05-.6.06-.6.05-.6.04-.6.05-.62.03-.63.04-.63.06-1.3.04-1.36.02-.7.04-2.93v-1.98-.58-1.08l-.01-.52v-.5l-.03-1.4-.02-.85-.01-.4-.02-.4-.02-.38-.01-.38-.02-.36-.03-.36-.02-.36-.03-.35-.02-.34-.06-.68-.04-.33-.03-.34-.04-.33-.04-.34-.05-.34-.04-.34-.1-.7-.06-.35-.05-.37-.06-.37-.06-.38-.14-.8-.07-.4-.07-.43-.08-.44-.28-1.52-.3-1.5-.3-1.44-.3-1.42-.3-1.38-.3-1.34-.3-1.32-.32-1.28-.32-1.25-.32-1.23-.33-1.2-.34-1.17-.35-1.13-.35-1.1-.36-1.1-.37-1.06-.37-1.03-.4-1-.4-.98-.4-.96-.4-.94-.42-.92-.44-.9-.44-.88-.45-.85-.46-.84-.47-.83-.5-.8-.5-.8-.5-.77-.52-.76-.53-.74-.55-.73-.56-.7-.57-.7-.6-.7-.6-.68-.6-.67-.63-.66-.64-.65-.4-.38-.8-.72-.4-.36-.42-.34-.86-.68-.88-.64-.45-.3-.45-.3-.46-.3-.46-.28-.47-.28-.47-.27-.47-.26-.48-.25-.96-.48-.5-.22-.48-.22-.98-.4-.98-.36-.98-.32-.5-.14-.48-.14-.5-.12-.5-.1-.48-.1-.48-.1-.48-.08-.47-.07-.47-.05-.47-.04-.47-.03-.46-.02-.45-.01-.27.01-.3.01-.3.01-.3.03-.32.03-.33.03-.33.04-.35.05-.35.06-.74.12-.37.07-.38.07-.4.08-.78.18-.4.1-1.2.3-.4.1-.4.12-.4.1-.8.24-.4.13-1.17.4-.38.13-.38.14-.37.14-.72.28-.35.14-.34.15-.33.14-.32.15-.3.15-.3.14-.13.07-.14.07-.13.07-.13.06-.26.14-.13.06-.12.06-.12.07-.24.12-.44.24-.1.05-.1.06-.2.1-.1.06-.08.04-.1.05-.08.05-.08.04-.14.08-.12.08-.06.03-.05.04-.05.03-.04.02-.04.03-.06.04-.04.04h-.02v.01.01l.02.02h.03l.03-.01h.03l.04-.01.05-.02h.05l.05-.02.12-.04.07-.03.24-.1.1-.04.1-.03.2-.08.1-.05.1-.04.22-.1.12-.05.13-.06.12-.05.26-.12.56-.24.14-.07.15-.07.15-.06.15-.07.16-.07.15-.07.16-.07.5-.24.5-.22 1.02-.42.5-.2.5-.2.5-.18.5-.17 1-.32.5-.15 1-.26.5-.12.5-.1.5-.1.98-.18.98-.14.48-.06.48-.05.5-.04.48-.03.47-.03.95-.02h.47l.47.01.47.02.46.03.46.04.92.1.9.14.45.08.45.1.44.1.44.1.62.17.6.2.62.22.6.23.6.25.6.27.6.3.6.3.6.32.6.35.6.36.6.4.58.4.58.4.58.44.56.45.57.47.56.5.55.5.55.52.55.54.53.55.53.57.53.58.52.6.5.62.5.63.5.64.5.66.48.67.47.7.47.7.46.72.45.73.44.74.43.76.42.77.4.78.4.8.4.8.2.43.2.46.2.5.2.5.2.54.2.55.2.58.2.6.22.62.2.63.2.66.22.67.2.7.2.7.2.72.2.73.2.74.2.75.2.76.6 2.34.38 1.6.2.8.18.8.18.82.34 1.62.17.82.16.8.45 2.43.14.8.26 1.58.12.78.1.77.1.76.06.48.05.5.06.52.05.55.04.57.05.6.03.6.04.63.1 1.98.06 2.1.03 2.17v2.2l-.03 2.2-.06 2.15-.1 2.06-.04.66-.04.65-.04.63-.04.62-.05.6-.05.58-.06.55-.05.53-.07.5-.06.48-.07.45-.25 1.5-.27 1.48-.3 1.47-.33 1.45-.36 1.44-.38 1.43-.4 1.4-.44 1.4-.46 1.4-.5 1.38-.52 1.36-.54 1.35-.57 1.33-.6 1.33-.63 1.3-.65 1.3-.68 1.28-.7 1.27-.74 1.26-.76 1.24-.78 1.23-.8 1.2-.84 1.2-.87 1.2-.9 1.18-.92 1.16-.95 1.15-.97 1.13-1 1.12-1.02 1.1-1.05 1.1-1.08 1.08-1.1 1.06-1.13 1.05-1.15 1.04-1.2 1.02-1.2 1-1.24 1-1.26.98-1.3.96-.72.53-.73.53-.75.52-.76.53-.78.52-.8.52-.8.52-.8.5-.83.5-.84.5-.85.5-.86.5-.87.5-.88.5-.9.5-.9.5-.9.48-.9.48-.93.47-.92.47-.94.46-.94.45-.94.46-.95.44-.96.44-.96.43-1.92.84-.97.4-.97.4-.97.4-.98.4-.97.38-.97.37-.98.36-.97.35-1.94.68-.97.32-.96.3-1.48.46-.75.23-1.54.46-.78.22-.8.22-.8.23-.8.22-.8.22-.8.2-.8.22-2.46.63-2.46.6-1.64.38-.8.2-1.62.36-1.6.34-.8.17-1.56.32-.76.15-.76.14-.75.14-.74.13-.72.13-1.42.24-.68.1-.68.1-.65.1-.65.1-.62.08-2.33.32-5.05-10.3-.94-1.94-.45-.97-.44-.96-.86-1.92-.4-.96-.4-.95-.4-.94-.38-.95-.38-.94-.37-.94-.36-.93-.7-1.86-.33-.92-.32-.93-.32-.9-.3-.92-.3-.9-.3-.9-.54-1.8-.26-.9-.25-.9-.24-.9-.24-.88-.22-.9-.42-1.76-.38-1.74-.17-.87-.17-.86-.16-.86-.15-.86-.14-.85-.13-.85-.12-.84-.05-.43-.05-.45-.05-.47-.05-.5-.04-.53-.04-.54-.04-.57-.06-1.18-.06-1.25-.04-1.3-.04-1.34v-1.36-.7l-.01-.7v-1.4l.01-.68v-.7-1.35l.04-1.32.02-.64.02-.63.03-.6.03-.6.06-1.15.04-.54.04-.52.04-.5.05-.47.05-.45.05-.4.05-.4.12-.82.28-1.62.16-.82.16-.8.17-.82.18-.8.2-.8.2-.8.2-.8.22-.8.23-.8.23-.8.5-1.6.26-.8.27-.8.28-.8.28-.78.3-.78.3-.78.62-1.54.66-1.52.34-.75.35-.75.35-.74.36-.73.37-.73.76-1.44.4-.7.4-.7.4-.7.4-.68.42-.68.42-.66.43-.66.44-.65.12-.17.1-.17.12-.18.24-.34.12-.18.48-.68.1-.17.12-.17.12-.16.1-.17.12-.16.1-.16.12-.16.1-.15.1-.16.1-.15.1-.14.1-.15.2-.28.1-.13.18-.26.18-.24.08-.1.1-.1.07-.1.08-.1.07-.1.07-.1.06-.08.06-.07.05-.08.1-.12.05-.05.1-.12.06-.06.05-.07.06-.06.05-.07.06-.06.12-.14.07-.08.12-.14.07-.08.06-.07.07-.08.06-.07.07-.08.06-.08.07-.08.07-.07.07-.08.06-.08.14-.16.06-.08.07-.07.07-.08.06-.08.07-.07.12-.16.07-.07.12-.14.06-.08.06-.07.06-.06.05-.07.06-.07.05-.06.06-.06.1-.12.12-.12.06-.05.05-.06.06-.06.12-.1.06-.06.18-.15.06-.04.06-.05.07-.05.24-.16.05-.04.06-.03.06-.04.06-.03.05-.03.06-.03.05-.02.06-.03.15-.06.05-.01.04-.02.05-.01.04-.01h.05l.04-.01h.12.04l.15-.03.05-.02.18-.06.12-.06.07-.03.06-.03.07-.03.14-.08.08-.04.14-.08.08-.05.08-.04.07-.05.32-.2.08-.06.08-.05.1-.06.56-.42.1-.07.07-.06.08-.07.22-.18.1-.1.3-.24.1-.07.1-.08.1-.06.1-.07.1-.06.08-.06.1-.05.1-.06.1-.05.08-.04.1-.05.08-.04.1-.04.08-.04.1-.03.08-.03.1-.04.08-.02.1-.03.18-.04.08-.02.1-.02.1-.02.18-.02.4-.04h.1l.1-.01h.5l.14.01h.25l.13.01.12.01.1.01.12.02.22.04.12.03.1.03.12.04.12.05.12.04.12.06.13.06.14.07.28.16.15.1.16.1.17.1.18.12.18.13.2.13.2.15.22.16.23.17.24.18.26.2.27.2.28.22.3.23.3.24.34.25.35.27.37.3.4.3.44.33.45.33.46.33.96.64.5.32.5.3.52.3.52.3.53.3.53.3 1.1.58.55.28.56.27 1.14.54.58.26.58.25.58.24 1.18.48 1.18.44.6.2.6.2 1.18.38.6.18.6.18 1.18.32 1.16.28.58.13.58.12.57.1.57.1.56.1.55.08.35.05.35.03.35.04.35.02.35.03.35.02.7.02h1.06l.7-.02.34-.02.35-.03.35-.02.34-.03.34-.04.35-.04.33-.05.34-.05.33-.05.34-.06.33-.06.96-.2.32-.08.3-.1.3-.08.3-.1.6-.2.3-.1.3-.1.28-.12.28-.1.27-.12.7-.35.2-.1.2-.1.2-.12.2-.13.2-.14.22-.14.22-.15.23-.16.22-.17.23-.16.46-.36.24-.18.23-.18.46-.38.88-.76.2-.2.2-.18.2-.2.2-.18.36-.36.16-.17.16-.16.15-.16.13-.15.12-.15.12-.14.1-.13.08-.12.07-.12.06-.1.04-.1.03-.1v-.1l-.02-.02h-.04l-.06.03-.03.01-.1.06-.04.03-.03.02-.04.03-.04.04-.04.03-.05.04-.04.04-.05.04-.05.05-.05.04-.1.1-.06.05-.05.06-.06.05-.12.12-.06.07-.06.06-.07.06-.12.14-.14.14-.06.08-.07.07-.07.08-.24.24-.18.16-.1.1-.1.1-.1.08-.1.1-.1.1-.1.1-.12.1-.1.1-.36.27-.12.1-.26.18-.12.1-.26.18-.14.1-.13.1-.13.08-.14.1-.13.08-.14.1-.13.08-.14.08-.26.16-.14.08-.4.2-.14.07-.12.07-.13.06-.2.1-.2.1-.2.1-.2.08-.18.1-.17.07-.17.08-.16.07-.16.06-.16.07-.15.05-.15.06-.3.1-.15.04-.15.05-.15.04-.15.03-.64.12-.17.02-.36.04-.2.02h-.2l-.2.02-.2.01-.22.01h-.24l-.24.01-.25.01h-.27l-.27.01h-2.42l-.4-.01-.4-.01-1.13-.06-.36-.02-.36-.03-.35-.04-.34-.04-.35-.04-.34-.05-.33-.05-.34-.06-.33-.06-.33-.07-.34-.07-.66-.16-.34-.1-.33-.1-.34-.1-.34-.1-1.05-.36-.36-.14-.37-.14-.74-.3-.4-.16-.4-.17-.4-.18-.4-.18-.42-.2-.88-.4-.45-.2-.47-.23-.34-.17-.34-.16-.33-.17-.32-.17-.33-.17-.3-.17-.32-.17-.62-.34-.3-.17-.3-.18-.3-.17-.3-.18-.3-.17-.3-.18-.28-.18-.3-.2-.28-.18-1.12-.76-.28-.2-.27-.2-.28-.2-.27-.2-.28-.2-.27-.2-.28-.2-.54-.44-.56-.46-.27-.24-.28-.23-.28-.25-.28-.24-.3-.26-.28-.25-.3-.26-.13-.12-.13-.13-.14-.12-.13-.12-.13-.1-.28-.24-.13-.12-.14-.12-.14-.1-.13-.12-.14-.1-.13-.12-.14-.1-.26-.22-.14-.1-.13-.1-.13-.1-.12-.1-.13-.1-.12-.1-.13-.1-.12-.1-.1-.1-.12-.08-.33-.24-.3-.2-.18-.12-.1-.05-.16-.1-.14-.08-.2-.1-.15-.07-.16-.06-.34-.12-.18-.05-.38-.1-.4-.08-.2-.04-.2-.03-.22-.03-.44-.04-.46-.04-.46-.02h-.7l-.46.02h-.24l-.46.04-.22.02-.23.03-.44.06-.42.08-.6.15-.2.06-.18.06-.17.06-.17.07-.07.02-.14.06-.06.02-.07.03-.06.02-.07.03-.06.02-.06.03-.18.06-.06.03-.06.02-.05.02h-.06l-.05.02-.05.01-.1.04-.04.01h-.05l-.04.01-.04.02-.08.02-.03.01-.04.01-.1.03h-.02l-.02.01h-.06v.01-.01h-.01l-.03-.04-.03-.06-.03-.1-.03-.1-.04-.13-.05-.16-.04-.17-.05-.2-.05-.2-.05-.23-.05-.24-.06-.25-.06-.27-.05-.28-.06-.3-.06-.3-.07-.32-.12-.64-.07-.34-.12-.68-.07-.35-.06-.36-.12-.7-.06-.36-.18-1.05-.05-.34-.06-.34-.05-.33-.05-.32-.04-.32-.05-.3-.08-.58-.04-.27-.03-.26-.04-.4-.04-.4-.04-.42-.04-.45-.03-.45-.04-.48-.03-.5-.02-.5-.03-.52-.04-1.06-.04-1.1-.01-.56-.02-.57v-.58-.57l-.01-.6v-2.34l.01-.58v-.58-.57l.02-.57.01-.56.02-.56.06-1.6.03-.5.02-.5.03-.5.04-.47.03-.46.04-.44.04-.42.04-.4.04-.38.17-1.27.2-1.26.2-1.26.23-1.26.25-1.25.27-1.25.3-1.25.3-1.24.33-1.23.35-1.23.37-1.22.4-1.22.4-1.2.43-1.2.44-1.2.47-1.2.48-1.2.5-1.17.52-1.17.54-1.16.56-1.15.57-1.14.6-1.13.62-1.12.63-1.1.64-1.1.67-1.1.68-1.08.7-1.07.7-1.06.73-1.04.75-1.04.77-1.02.78-1 .8-1 .8-.98.83-.97.84-.96.87-.94.87-.93.48-.48.15-.16.45-.45.15-.14.14-.13.14-.14.14-.13.14-.12.13-.13.13-.1.13-.12.13-.1.12-.1.24-.2.22-.18.1-.08.1-.1.3-.2.1-.07.1-.06.1-.05.16-.1.07-.04.08-.03.07-.03.06-.03.12-.04.06-.01.05-.01h.1l.04-.01.06-.01.05-.01h.06l.06-.02.07-.02.07-.03.07-.02.16-.06.08-.04.36-.16.4-.2.1-.06.1-.05.33-.18.1-.07.12-.06.1-.07.24-.14.1-.07.24-.14.12-.08.12-.07.12-.08.12-.07.36-.24.48-.33.5-.33 1.02-.66.53-.34.54-.33.55-.34 1.14-.68.58-.34 1.18-.68.6-.34.6-.33.6-.34.62-.33 1.26-.66.64-.33.63-.32 1.28-.64 1.28-.62.65-.3.64-.3.64-.3.63-.3.64-.28.63-.28.63-.26.62-.27.62-.25.6-.25.6-.24.6-.23.6-.23 1.16-.42.56-.2 1.72-.58.86-.27 1.72-.52.86-.24.85-.24.86-.23.85-.2.86-.2.85-.2.84-.2 1.7-.36.84-.16.84-.15.84-.14.83-.14 1.66-.24.83-.1.82-.1.82-.1 1.63-.14.8-.06.8-.05.8-.04.8-.03 1.58-.02h.78l.77.01.78.02.76.03.76.04.76.05.74.06.75.07.73.08.46.06.44.06.44.05.43.06.42.07.4.06.4.07.8.14.4.07.76.16.37.1.38.08.36.1.37.1.36.1.37.1.36.1.36.1.35.12.72.24.36.13.37.13.36.14.37.15.36.15.38.15.37.16.38.17.4.17.78.36.4.2.4.2.84.42.43.22.44.22 1.5.8 1.48.84.74.44.75.45.74.46.74.47.74.48.74.5.75.5.76.53.75.55.77.57.77.58.77.6.8.62.8.64.8.66.82.68.82.7.84.73.85.75.87.77.88.8.9.83.9.84.93.88.94.9.97.92.98.96 1 1 1.03 1 1.04 1.05 1.07 1.07 2.2 2.25 1.14 1.17 1.17 1.2 1.2 1.24 5.9 6.17-5.22-6.26-.48-.56-.5-.57-.5-.6-.54-.6-.55-.62-.56-.63-1.17-1.3-.6-.66-1.23-1.33-.62-.68-.64-.67-.63-.68-.65-.68-.64-.68-1.3-1.36-.65-.67-2.58-2.62-1.25-1.25-1.23-1.2-.6-.58-.6-.57-.57-.55-.56-.53-.55-.5-.53-.5-.5-.47-.5-.45-.48-.42-.45-.4-.43-.37-.4-.35-1.45-1.2-.7-.58-.7-.56-.7-.54-.7-.53-.7-.5-.68-.5-.68-.5-.67-.47-.67-.46-.67-.44-.66-.43-.66-.42-.66-.4-.66-.4-.65-.38-.66-.37-.65-.35-.65-.34-.65-.33-.65-.32-.66-.3-.65-.3-.65-.28-.66-.28-.66-.26-.66-.25-.66-.24-.67-.23-.67-.22-.68-.2-.67-.2-.7-.2-1.38-.36-.7-.16-.7-.16-.7-.15-.72-.14-.33-.06-.36-.05-.4-.05-.42-.05-.45-.05-.47-.04-.5-.04-.53-.03-.55-.04-.56-.03-.6-.03-.6-.02-1.24-.04-.64-.02-1.97-.03h-2.7l-2 .03-1.94.06-.62.02-1.2.06-.58.04-.55.03-.54.04-.5.04-.5.05-.47.05-.43.05-.4.05-.37.06-.88.15-.88.16-.9.17-.9.18-.92.2-.92.2-.93.22-.93.23-.94.24-1.9.52-.95.27-1.92.58-.96.3-.96.3-.96.32-.95.33-.96.34-.95.34-.95.35-1.88.72-.94.37-.92.38-.92.4-.9.4-.9.4-.9.4-.88.4-.87.4-.86.4-.84.42-.83.42-.82.42-.8.43-.78.43-.77.44-.74.43-.73.44-.1.07-.33.18-.1.07-.1.06-.1.05-.1.06-.1.06-.1.05-.1.06-.2.1-.1.05-.1.04-.1.05-.1.04-.1.05-.1.04-.08.03-.08.04-.1.04-.07.03-.08.03-.14.06-.14.04-.12.04-.05.01-.05.02-.05.01h-.04l-.04.01h-.1l-.04-.02-.06-.05-.07-.1-.06-.12-.06-.14-.06-.18-.05-.2-.06-.22-.06-.25-.05-.28-.06-.3-.05-.32-.05-.34-.05-.36-.05-.38-.05-.4-.05-.4-.04-.43-.04-.45-.05-.46-.03-.47-.04-.5-.04-.5-.03-.5-.06-1.05-.02-.53-.02-.54-.04-1.1-.01-.56-.02-.56v-.56l-.01-.56v-1.68l.02-1.1.06-1.65.02-.56.02-.54.02-.53.06-1.02.03-.5.04-.48.08-.94.05-.45.04-.45.06-.43.05-.44.12-.84.07-.42.07-.4.08-.4.08-.4.08-.4.18-.8.2-.8.22-.8.24-.8.13-.4.13-.42.14-.4.15-.42.15-.43.15-.44.34-.88.17-.46.18-.47.2-.47.3-.7.3-.7.3-.7.33-.7.34-.7.35-.7.37-.7.38-.68.4-.68.4-.67.42-.67.43-.67.44-.66.45-.66.46-.65.47-.65.48-.64.5-.63.5-.63.5-.62.52-.6.53-.6.54-.6 1.1-1.16.56-.57.57-.57.58-.55.58-.54.6-.53.6-.52.6-.5.6-.5.6-.5.62-.47.63-.46.63-.45.63-.44.64-.43.64-.4.2-.12.1-.06.1-.06.1-.06.1-.06.1-.05.1-.06.1-.05.1-.05.1-.06.18-.1.08-.05.1-.04.1-.05.08-.04.08-.05.16-.08.07-.04.08-.03.07-.04.07-.03.07-.04.06-.03.07-.02.06-.03.05-.03.06-.02.15-.06.12-.03.06-.02h.07l.03.01.08.02.1.04.06.02.06.03.07.04.08.03.16.08.18.1.2.1.1.06.1.06.12.06.1.07.12.07.13.07.12.07.13.08.14.07.13.08.14.1.28.16.14.1.3.18.15.1.15.1.15.1.16.1.15.1.16.1.15.1.16.1.6.4.62.4 1.28.78 1.32.76.68.38.68.37.7.37 1.4.72 1.42.7 1.44.68.72.33.73.32.72.32.73.3 1.46.6.72.3.73.28.72.27.72.26 1.42.5.7.23.7.22.7.22.68.2.68.2.66.18.66.17.65.16.63.15.63.13.6.12.6.1.6.1 1 .15 1 .12 1 .1 1 .07.98.04h.97.96l.95-.04.94-.05.94-.08.92-.1.9-.13.9-.16.9-.18.88-.2.87-.23.86-.26.85-.27.84-.3.82-.33.8-.35.8-.37.8-.4.77-.42.76-.45.74-.46.74-.5.7-.52.7-.53.7-.56.67-.58.65-.6.64-.63.63-.64.6-.68.6-.7.58-.72.55-.73.54-.76.52-.78.24-.4.18-.28.08-.15.1-.14.18-.3.1-.16.1-.16.18-.32.1-.16.1-.17.1-.16.1-.17.1-.17.1-.16.1-.17.18-.34.1-.17.18-.34.1-.16.1-.17.1-.16.1-.17.08-.16.1-.16.16-.32.16-.3.07-.15.08-.15.14-.28.07-.13.14-.3.32-.6.36-.6.2-.3.2-.3.2-.3.2-.3.44-.58.23-.3.48-.58.25-.3.25-.28.52-.56.55-.55.28-.26.28-.27.58-.52.3-.25.3-.25.3-.24.62-.48.3-.23.3-.22.32-.22.64-.42.64-.4.33-.2.32-.18.66-.34.4-.2.4-.18.4-.17.4-.15.4-.15.4-.13.4-.1.38-.1.38-.1.76-.14.38-.05.37-.04.37-.03.74-.02.36.01.37.03.72.08.36.07.35.07.36.1.35.1.35.1.36.13.35.14.34.15.35.16.35.18.34.2.35.2.34.22.35.23.34.24.34.25.34.27.34.28.34.3.34.3.12.1.22.2.1.1.1.1.1.1.1.07.1.08.16.14.14.12.07.05.06.05.1.08.05.03.08.06h.04l.03.02.04.02h.03l.01-.01v-.04l-.01-.02-.04-.06v-.04l-.06-.08-.03-.05-.04-.06-.05-.05-.05-.07-.05-.06-.12-.17-.13-.17-.14-.16-.14-.17-.14-.16-.15-.17-.15-.16-.3-.3-.17-.16-.16-.16-.5-.45-.18-.15-.72-.56-.2-.13-.2-.14-.2-.12-.2-.13-.57-.36-.2-.1-.2-.1-.2-.1-.2-.1-.2-.1-.2-.1-.38-.18-.2-.08-.2-.07-.2-.08-.2-.06-.18-.07-.2-.05-.22-.07-.22-.06-.4-.12-.38-.1-.18-.04-.17-.05-.17-.03-.17-.04-.16-.03-.16-.02-.15-.03-.15-.02-.3-.02-.14-.01-.15-.01H250l-.15.01h-.14l-.15.02-.14.01-.3.04-.15.03-.32.06-.16.04-.34.08-.18.05-.18.06-.2.05-.2.06-.2.07-.2.07-.22.07-.22.08-.24.08-.46.16-.45.17-.44.17-.44.18-.44.2-.43.2-.84.42-.82.44-.4.24-.4.24-.4.25-.4.25-.76.54-.37.28-.37.3-.37.3-.36.3-.35.3-.36.32-.7.67-.34.34-.33.35-.33.36-.33.37-.64.76-.3.4-.32.4-.3.4-.3.42-.3.43-.3.44-.3.44-.3.46-.28.46-.28.47-.34.56-.33.55-.68 1.08-.35.52-.35.5-.35.5-.36.5-.37.48-.36.47-.37.46-.38.45-.38.44-.38.43-.38.42-.4.4-.8.8-.4.38-.4.37-.4.36-.4.35-.42.34-.42.33-.43.32-.42.3-.44.3-.43.3-.44.28-.45.27-.44.27-.45.25-.46.24-.46.23-.46.22-.94.42-.47.2-.48.18-.48.17-.38.14-.2.06-.18.06-.18.05-.18.06-.17.05-.18.04-.17.05-.17.04-.17.05-.18.03-.34.08-.54.1-.2.03-.18.02-.2.02-.2.02-.2.02-.2.02-.22.02-.22.01-.22.02-.48.02-.5.02h-.26-.28-.3-.3l-.3.01h-1l-.36.01h-.37l-.38-.01h-.36l-.35-.01h-.34-.33-.3l-.6-.02-.56-.02-.27-.01-.26-.01-.26-.02-.24-.01h-.25l-.23-.02-.24-.02-.22-.02-.23-.03-.22-.03-.22-.02-.2-.03-.22-.04-.2-.03-.2-.04-.22-.04-.2-.04-.88-.2-.46-.12-.24-.06-.24-.07-.5-.14-.26-.08-.27-.08-.28-.08-.55-.17-.57-.18-.58-.2-.6-.2-.6-.23-.63-.23-.63-.25-.65-.26-2-.85-1.36-.62-.7-.32-1.38-.66-.7-.35-.7-.34-2.07-1.08-1.36-.74-.67-.37-.66-.38-.65-.38-1.28-.76-.6-.38-.6-.37-.6-.38-.58-.38-.56-.37-.54-.37-.52-.36-.5-.37-.48-.35-.46-.35-.44-.35-.4-.34-1.56-1.33.55-5.2.2-1.8.24-1.77.27-1.74.3-1.7.33-1.66.37-1.62.4-1.6.43-1.56.46-1.5.5-1.48.52-1.45.56-1.4.6-1.37.63-1.34.65-1.3.7-1.26.72-1.23.75-1.2.78-1.16.82-1.12.84-1.1.88-1.04.9-1.02.95-.97.97-.94 1-.9 1.04-.87 1.07-.83 1.1-.8 1.13-.76 1.17-.72 1.2-.7 1.23-.65 1.26-.62 1.3-.58 1.32-.55 1.36-.5 1.4-.47 1.43-.44 1.45-.4.38-.1.4-.1.76-.18.4-.1.38-.08.4-.07.4-.08.4-.07.4-.07 1.6-.24.4-.05.42-.05.4-.04.42-.04.86-.08.43-.03.88-.06 1.36-.06 1.9-.04h1.5l.5.01 1.58.03 1.1.04.56.02.62.02.6.03.57.02.54.03.52.02.5.02.47.03.46.02.44.03.42.02.4.03.38.02.36.03.34.03.32.02.3.03.28.03.27.03.25.03.24.03.22.03.2.04.2.03.18.04.16.03.15.04.26.08.1.04.1.04.16.1.07.04.1.1.04.06.02.05.02.06.02.12v.1l.02.13.03.14.04.17.05.17.05.2.07.2.08.22.08.24.1.25.1.27.1.27.1.28.13.3.12.3.14.3.14.32.15.32.15.33.15.34.32.68.34.68.17.35.17.34.18.35.17.34.18.34.36.66.17.33.18.3.18.32.17.3.18.3.34.56.16.26.17.26.36.55.37.54.38.54.78 1.04.4.5.4.5.42.5.42.47.43.47.88.9.45.43.46.43.46.4.47.4.48.4.48.38.5.37.5.37.5.35.5.34.5.33.52.32.53.3.53.3.54.3.54.28.55.26.55.25.56.25.57.23.57.22.57.2.58.2.6.2.6.17.6.16.6.16.6.13.4.1.82.16.4.08.4.07.38.06.4.06.38.06.38.04.38.05.38.04.37.03.38.03.37.03.38.01h.38l.38.01h.76l.78-.02.4-.02.4-.03.4-.02.4-.04.42-.04.43-.04.44-.05.44-.06.45-.06.94-.14.48-.08.5-.08.5-.1.52-.1.53-.1.54-.1.56-.12.57-.1.28-.06.28-.05.27-.06.28-.05.28-.06.3-.05.28-.06.28-.05.28-.06.84-.15.27-.06.28-.05.8-.15.26-.05.26-.04.26-.05.25-.04.25-.05.48-.08.46-.08.22-.04.22-.03.2-.03.2-.04.2-.03.18-.02.36-.06.32-.04.14-.02h.14l.13-.02.12-.01.52-.04.28-.01h.28l.28-.01.88.03.3.02.62.04.3.03.3.04.64.08.64.1.32.06.33.06.32.06.33.07.64.14.32.08.33.08.3.1.32.08.32.1.3.1.3.1.6.2.6.22.3.1.56.24.54.24.26.13.4.2.4.22.4.23.38.24.4.26.38.27.37.28.37.3.37.3.37.32.35.32.36.34.35.35.68.72.34.38.33.4.64.8.62.84.3.44.3.44.3.45.56.92.26.47.26.5.26.48.48 1 .24.5.22.5.22.52.4 1.06.2.54.2.55.17.54.17.56.03.12.12.44.06.2.03.1.03.1.03.08.03.1.03.08.02.08.06.14.02.07.06.12.04.1.03.05.04.08.04.06.02.02v.02l.02.02h.02.01.02.02l.02-.04v-.03l.01-.03v-.2l-.01-.15-.02-.16-.03-.18-.03-.2-.04-.22-.05-.22-.06-.25-.07-.25-.07-.27-.07-.28-.08-.3-.18-.6-.2-.64-.22-.66-.1-.34-.24-.68-.12-.35-.13-.34-.12-.35-.4-1.02-.26-.66-.14-.33-.26-.62-.13-.3-.13-.3-.12-.28-.13-.27-.24-.5-.24-.44-.2-.37-.22-.36-.24-.37-.24-.36-.26-.36-.27-.36-.28-.35-.3-.35-.3-.35-.3-.34-.32-.34-.32-.33-.68-.66-.34-.32-.72-.62-.37-.3-.37-.3-.38-.3-.4-.28-.78-.54-.4-.26-.4-.25-.82-.48-.4-.22-.42-.22-.4-.2-.42-.2-.42-.2-.42-.18-.42-.16-.43-.16-.42-.15-.42-.14-.84-.24-.42-.1-.25-.05-.27-.06-.28-.05-.3-.04-.3-.04-.3-.04-.33-.04-.68-.06-.36-.02-.74-.04-.4-.02h-.4-.4l-.4-.01h-.83l-1.3.03-.88.04-.45.02-1.8.12-.46.04-.45.05-.46.04-.9.1-1.35.18-.44.06-.88.14-.43.07-.47.08-.46.08-.88.14-.43.07-.4.06-.4.05-.4.06-.4.05-.38.04-.74.08-.36.03-.7.06-.34.02-.66.04-.33.01h-.32l-.32.01h-.32l-.3-.01-.94-.03h-.3l-.3-.03-.3-.02-.32-.03-.3-.04-.3-.03-.32-.05-.32-.04-.33-.05-.32-.05-.34-.06-.33-.06-.34-.06-.35-.07-.76-.16-.75-.2-.74-.2-.73-.23-.73-.24-.7-.27-.7-.28-.7-.3-.7-.33-.67-.34-.66-.36-.65-.38-.64-.4-.63-.42-.62-.43-.6-.46-.6-.47-.6-.5-.57-.5-.56-.52-.55-.55-.54-.56-.53-.58-.5-.6-.5-.62-.5-.63-.47-.65-.47-.67-.45-.68-.43-.7-.43-.72-.4-.73-.4-.75-.38-.77-.37-.78-.35-.8-.35-.82-.32-.83-.32-.84-.3-.86-1.23-3.75 2-2.65.23-.3.24-.3.25-.32.26-.32.26-.33.56-.66.3-.34.3-.35.3-.34.3-.35.96-1.05 1-1.06 1-1.04.35-.34.68-.68 1-.98.67-.63.33-.3.64-.58.32-.28.3-.27.6-.52.3-.24.28-.23.28-.22.27-.2.26-.2.92-.66.93-.64.94-.6.94-.57.94-.55.95-.5.96-.48.96-.45.96-.42.97-.4.97-.36.98-.33.98-.3 1-.27 1-.24 1-.2 1-.18 1-.15 1-.1 1-.1 1.02-.05 1.02-.03 1.02.01 1.03.03zm136 335.84l-.6.02-.6.04-.3.02-.3.03-.28.04-.27.03-.27.04-.5.1-.44.1-.43.1-.88.26-.44.15-.44.16-.45.17-.44.18-.45.2-.44.2-.45.2-.9.46-.9.5-.45.27-.45.28-.9.58-.45.3-.45.32-.45.33-.44.33-.45.35-.45.36-.88.74-.45.4-.44.4-.43.4-.44.4-.43.42-.44.44-.43.44-.85.9-.42.46-.84.96-.96 1.17-.53.66-.52.65-.5.66-.5.64-.48.65-.47.64-.46.63-.45.64-.86 1.26-.4.63-.4.64-.4.63-.4.64-.37.63-.37.64-.35.65-.35.64-.34.66-.34.65-.64 1.34-.62 1.36-.3.7-.58 1.42-.28.72-.28.74-.27.74-.27.76-.26.77-.26.78-.26.8-.25.8-.25.83-.25.84-.25.86-.4 1.45-.16.57-.16.55-.16.54-.16.52-.17.5-.16.5-.16.48-.17.46-.16.45-.17.43-.16.42-.17.4-.34.78-.18.37-.17.35-.18.35-.18.33-.2.33-.18.3-.2.3-.2.3-.2.28-.2.27-.2.26-.2.25-.2.24-.2.23-.44.44-.22.2-.23.2-.23.2-.24.18-.25.18-.5.32-.26.16-.26.14-.04.02-.04.03-.06.04-.04.02-.1.06-.02.02-.03.02-.02.01v.02h-.03l-.02.02-.01.02-.02.02v.01l-.02.04-.01.01-.01.02-.01.01-.01.02v.01h-.01v.04l.01.01v.01h.01l.03.03h.03.02.15l.1-.02.1-.03.22-.08.13-.06.26-.14.15-.1.14-.1.15-.1.32-.22.16-.13.17-.12.16-.14.34-.28.18-.15.17-.16.18-.16.17-.16.17-.17.18-.17.34-.34.17-.18.64-.72.3-.36.28-.36.13-.18.12-.17.12-.18.1-.17.1-.17.06-.1.07-.1.06-.12.07-.13.07-.14.07-.15.08-.15.07-.17.08-.17.08-.18.1-.2.08-.2.1-.2.18-.42.18-.44.1-.23.1-.24.2-.48.1-.25.1-.25.1-.26.1-.26.2-.52.1-.27.1-.27.2-.54.1-.28.1-.27.1-.28.1-.28.1-.27.18-.56.1-.27.1-.28.25-.73.24-.72.25-.7.25-.7.25-.68.5-1.34.25-.65.26-.64.26-.63.27-.63.54-1.22.27-.6.56-1.18.3-.57.3-.58.3-.57.62-1.12.3-.55.32-.55.66-1.1.34-.54.7-1.08 1.1-1.62.4-.54.8-1.08.4-.54.42-.55.88-1.1.45-.56.46-.56.32-.38.96-1.1.32-.36.64-.7.64-.68.32-.33.64-.64.64-.62.33-.3.32-.3.32-.3.33-.28.64-.56.33-.27.32-.26.33-.26.32-.25.33-.25.32-.25.66-.46.32-.23.66-.44.33-.2.66-.4 1-.57.33-.17.33-.18.33-.16.32-.16.32-.15.64-.28.33-.13.32-.12.33-.12.33-.1.66-.2.33-.1.34-.1.33-.08.33-.07.34-.07.34-.06.33-.06.34-.05.33-.04.68-.06.33-.03.34-.01.67-.02.33.01h.33l.66.04.66.06.33.04.32.05.96.18.32.08.3.08.32.08.3.1.6.2.6.22.6.24.6.27.6.3.6.32.6.33.6.36.6.38.6.4.6.43.6.44.58.47.6.5.58.5.58.53.58.56.57.57.58.6.57.62.57.63.57.66.57.68.56.7.56.72.56.74.56.77.55.78.55.8.55.82.54.84.54.86.54.88.54.9.53.92.53.94.52.96.52.98.52 1 .5 1 .2.4.37.74.17.35.33.64.15.3.15.28.14.26.14.25.13.23.12.22.13.2.1.2.12.18.1.17.1.15.1.14.1.13.2.22.2.18.1.08.1.06.1.06.1.05.1.04.1.04.1.03.1.02.22.02h.12.12.12.13l.14-.01.35-.05.08-.01.07-.02.08-.02.2-.1.07-.04.06-.04.07-.04.06-.05.07-.05.06-.06.06-.05.06-.06.06-.07.05-.06.06-.07.1-.14.1-.16.08-.16.05-.08.03-.1.04-.1.03-.1.04-.1.02-.1.03-.1.02-.1.03-.1.02-.1v-.1l.04-.4v-.15l-.01-.05-.03-.2v-.1l-.03-.08-.02-.1-.06-.2-.03-.1-.04-.1-.08-.24-.05-.12-.04-.13-.05-.13-.05-.14-.06-.14-.05-.14-.06-.15-.06-.14-.07-.16-.06-.15-.07-.16-.06-.15-.07-.16-.08-.17-.07-.16-.07-.17-.08-.16-.48-1.02-.08-.18-.1-.17-.08-.17-.47-.9-.48-.9-.5-.88-.5-.86-.52-.86-.52-.85-.53-.84-1.08-1.64-.56-.8-.56-.8-.57-.78-.58-.77-.6-.75-.6-.74-1.2-1.44-.6-.7-.62-.68-.62-.67-.62-.65-.63-.64-.63-.6-.63-.6-.64-.6-.64-.56-.64-.55-.65-.53-.64-.5-.65-.5-.65-.48-.65-.45-.65-.43-.64-.4-.65-.4-.65-.37-.64-.35-.65-.32-.64-.3-.64-.28-.23-.1-.24-.1-.25-.1-.25-.08-.8-.24-.58-.14-.3-.06-.6-.12-.3-.06-.3-.05-.32-.05-.96-.12-.64-.06-.33-.03-.32-.02-.33-.02-.32-.02-.64-.02h-.95zm-174 .01l-.32.01-.32.02-.33.02-.32.02-.33.03-.64.06-.96.12-.32.05-.3.05-.3.06-.3.06-.3.06-.3.06-.58.14-.8.24-.25.08-.25.1-.24.1-.23.1-.64.28-.64.3-.65.32-.64.35-.65.37-.65.4-.64.4-.65.43-.65.45-.65.48-.65.5-.64.5-.65.53-.64.55-.64.56-.64.6-.63.6-.63.6-.63.64-.62.65-.62.67-.62.68-.6.7-1.2 1.44-.6.74-.6.75-.58.77-.57.78-.56.8-.56.8-1.08 1.64-.53.84-.52.85-.52.86-.5.86-.5.88-.48.9-.47.9-.08.17-.1.17-.08.18-.48 1.02-.08.16-.07.17-.07.16-.08.17-.06.16-.07.15-.07.16-.06.15-.07.16-.06.14-.06.15-.05.14-.06.14-.05.14-.05.13-.04.13-.05.12-.08.24-.04.1-.03.1-.06.2-.02.1-.03.08-.02.1-.03.2-.01.05v.15l.04.4.01.1.02.1.03.1.02.1.03.1.02.1.04.1.03.1.04.1.03.1.05.08.08.16.1.16.1.14.06.07.05.06.06.07.06.06.06.05.06.06.07.05.06.05.07.04.06.04.07.04.2.1.08.02.07.02.08.01.35.05.14.01h.13.12.12.12l.22-.02.1-.02.1-.03.1-.04.1-.04.1-.05.1-.06.1-.06.1-.08.2-.18.2-.22.1-.13.1-.14.1-.15.1-.17.12-.18.1-.2.13-.2.12-.22.13-.23.14-.25.14-.26.15-.28.15-.3.16-.3.17-.33.17-.35.37-.74.2-.4.5-1 .52-1 .52-.98.52-.96.53-.94.53-.92.54-.9.54-.88.54-.86.54-.84.55-.82.55-.8.55-.78.56-.77.56-.74.56-.72.56-.7.57-.68.57-.66.57-.63.57-.62.58-.6.57-.57.58-.56.58-.53.58-.5.6-.5.58-.47.6-.44.6-.43.6-.4.6-.38.6-.36.6-.33.6-.32.6-.3.6-.27.6-.24.6-.22.6-.2.3-.1.32-.08.3-.08.32-.08.96-.18.32-.05.33-.04.66-.06.66-.04h.33l.33-.01.34.01.67.02.33.03.68.06.33.04.34.05.33.06.34.06.34.07.33.07.33.08.34.1.33.1.66.2.33.1.33.12.32.12.33.13.64.28.32.15.32.16.33.16.33.18.33.17 1 .57.66.4.33.2.66.44.32.23.66.46.32.25.33.25.32.25.33.26.32.26.33.27.64.56.33.28.32.3.32.3.33.3.64.62.64.64.32.33.64.68.64.7.32.36.96 1.1.32.38.46.56.45.56.88 1.1.42.55.4.54.8 1.08.4.54 1.1 1.62.7 1.08.34.54.66 1.1.32.55.3.55.62 1.12.3.57.3.58.3.57.56 1.18.27.6.54 1.22.27.63.26.63.26.64.25.65.5 1.34.25.68.25.7.25.7.24.72.25.73.1.28.1.27.18.56.1.27.1.28.1.28.1.27.1.28.2.54.1.27.1.27.2.52.1.26.1.26.1.25.1.25.2.48.1.24.1.23.18.44.18.42.1.2.08.2.1.2.08.18.08.17.07.17.08.15.07.15.07.14.07.13.06.12.07.1.06.1.1.17.1.17.12.18.12.17.13.18.28.36.3.36.64.72.17.18.34.34.18.17.17.17.17.16.18.16.17.16.18.15.34.28.16.14.17.12.16.13.32.22.15.1.14.1.15.1.26.14.13.06.22.08.1.03.1.02h.15.02.03l.03-.03h.01v-.01l.01-.01v-.04h-.01v-.01l-.01-.02-.01-.01v-.02-.01l-.02-.04-.02-.01-.02-.02-.01-.02-.02-.02h-.03l-.02-.02-.02-.01-.03-.02-.02-.02-.1-.06-.04-.02-.06-.04-.04-.03-.04-.02-.26-.14-.26-.16-.5-.32-.25-.18-.24-.18-.23-.2-.23-.2-.22-.2-.44-.44-.2-.23-.2-.24-.2-.25-.2-.26-.2-.27-.2-.28-.2-.3-.2-.3-.18-.3-.2-.33-.18-.33-.18-.35-.35-.72-.34-.78-.17-.4-.16-.42-.17-.43-.16-.45-.17-.46-.16-.48-.16-.5-.17-.5-.16-.52-.16-.54-.16-.55-.16-.57-.4-1.45-.25-.86-.25-.84-.25-.83-.25-.8-.26-.8-.26-.78-.26-.77-.27-.76-.27-.74-.28-.74-.28-.72-.58-1.42-.3-.7-.62-1.36-.64-1.34-.34-.65-.34-.66-.35-.64-.35-.65-.37-.64-.37-.63-.4-.64-.4-.63-.4-.64-.4-.63-.86-1.26-.45-.64-.46-.63-.47-.64-.48-.65-.5-.64-.5-.66-1.05-1.3-.96-1.17-.84-.96-.42-.46-.85-.9-.43-.44-.44-.44-.43-.42-.44-.4-.43-.4-.44-.4-.45-.4-.88-.74-.45-.36-.45-.35-.44-.33-.45-.33-.45-.32-.45-.3-.9-.58-.45-.28-.45-.27-.9-.5-.9-.46-.45-.2-.44-.2-.45-.2-.44-.18-.45-.17-.44-.16-.44-.15-.88-.26-.43-.1-.43-.1-.26-.05-.25-.05-.27-.04-.27-.03-.28-.04-.3-.03-.3-.02-.6-.04-.3-.01-.3-.01h-.95l-.32.01zm152.1-130.7l-.16.1.1.07.34.05.56.02.55-.02.33-.05.1-.07-.2-.1-.36-.05h-.42-.43l-.4.05zm-130.52 0l-.2.1.1.07.33.05.55.02.56-.02.34-.05.1-.07-.16-.1-.4-.05h-.43-.42l-.36.05z"/></defs><use x="-68.18" y="-55.085" fill="#fff" xlink:href="#A"/><use x="-68.18" y="-55.085" stroke-opacity="0" stroke="#000" fill-opacity="0" xlink:href="#A"/></svg>